<svg xmlns="http://www.w3.org/2000/svg" viewBox="0 0 1175 785" role="img" aria-label="Circuitos">
  <defs>
    <style>
      :root{ --c1:#00629B; --c2:#01A499; }
      .c1{ fill:var(--c1); opacity:.55; }
      .c2{ fill:var(--c2); opacity:.45; }
    </style>
  </defs>
  <path class="c1" d="M 366 543 L 352 543 L 322 574 L 290 574 L 290 596 L 288 599 L 285 599 L 284 603 L 281 603 L 277 599 L 271 599 L 271 612 L 275 612 L 284 607 L 285 612 L 288 612 L 290 614 L 290 619 L 294 619 L 294 609 L 297 607 L 299 608 L 300 612 L 304 612 L 305 610 L 311 607 L 313 609 L 313 612 L 317 612 L 325 608 L 326 619 L 329 619 L 329 614 L 340 607 L 341 612 L 345 612 L 351 609 L 352 612 L 356 615 L 356 619 L 360 619 L 360 615 L 364 612 L 364 609 L 366 608 L 366 599 L 364 599 L 363 601 L 361 601 L 360 599 L 355 599 L 354 603 L 351 603 L 347 599 L 341 599 L 340 604 L 337 602 L 337 600 L 354 585 L 356 581 L 366 572 L 366 568 L 359 572 L 337 594 L 337 596 L 334 599 L 327 599 L 326 604 L 320 601 L 319 599 L 313 599 L 312 603 L 309 603 L 304 599 L 299 599 L 299 602 L 295 603 L 294 578 L 325 577 L 355 547 L 366 546 Z"/>
  <path class="c2" d="M 819 527 L 815 529 L 815 537 L 817 539 L 823 539 L 853 569 L 855 573 L 855 617 L 858 618 L 859 570 L 857 566 L 855 566 L 844 555 L 844 553 L 826 536 L 826 529 L 823 527 Z"/>
  <path class="c1" d="M 366 518 L 340 518 L 333 523 L 308 548 L 262 548 L 260 550 L 260 619 L 265 619 L 266 552 L 311 552 L 340 523 L 366 523 Z"/>
  <path class="c2" d="M 997 514 L 997 516 L 1003 523 L 1003 526 L 1001 527 L 997 535 L 998 537 L 1001 537 L 1006 528 L 1008 527 L 1008 522 L 1001 513 Z"/>
  <path class="c2" d="M 1022 512 L 1022 517 L 1028 524 L 1024 529 L 1024 532 L 1022 533 L 1022 537 L 1024 537 L 1032 527 L 1032 523 L 1028 516 L 1024 512 Z"/>
  <path class="c2" d="M 1010 512 L 1010 516 L 1015 524 L 1014 528 L 1010 533 L 1010 537 L 1013 537 L 1018 528 L 1020 527 L 1020 522 L 1018 521 L 1016 516 Z"/>
  <path class="c2" d="M 987 512 L 986 516 L 991 522 L 991 526 L 989 527 L 986 533 L 987 537 L 989 537 L 991 535 L 991 532 L 995 529 L 995 520 L 991 517 L 991 514 Z"/>
  <path class="c2" d="M 975 512 L 974 517 L 979 524 L 974 533 L 974 537 L 977 537 L 983 528 L 984 523 L 979 515 Z"/>
  <path class="c2" d="M 962 512 L 962 517 L 968 524 L 962 532 L 962 537 L 964 537 L 972 527 L 972 523 L 968 516 L 964 512 Z"/>
  <path class="c2" d="M 950 512 L 950 516 L 955 524 L 954 528 L 950 533 L 950 537 L 953 537 L 958 528 L 960 527 L 960 522 L 958 521 L 956 516 Z"/>
  <path class="c1" d="M 366 495 L 329 495 L 299 523 L 258 523 L 196 585 L 196 617 L 232 619 L 234 617 L 232 612 L 228 610 L 223 611 L 220 614 L 200 613 L 199 588 L 260 527 L 302 527 L 328 501 L 366 500 Z"/>
  <path class="c1" d="M 302 488 L 298 487 L 298 498 L 296 500 L 254 500 L 241 514 L 235 518 L 210 545 L 206 547 L 190 565 L 169 585 L 169 619 L 172 619 L 172 588 L 195 564 L 197 564 L 209 552 L 209 550 L 226 533 L 236 525 L 238 521 L 256 504 L 300 504 L 300 502 L 302 501 Z"/>
  <path class="c1" d="M 106 485 L 107 489 L 116 498 L 118 498 L 118 493 L 114 490 L 115 488 L 271 488 L 271 485 L 115 485 L 114 483 L 118 479 L 118 475 L 116 475 Z"/>
  <path class="c2" d="M 755 467 L 755 505 L 847 506 L 949 609 L 949 618 L 952 618 L 952 605 L 849 502 L 760 502 L 757 499 L 757 467 Z"/>
  <path class="c2" d="M 740 467 L 740 479 L 738 480 L 738 516 L 794 572 L 794 617 L 798 618 L 799 572 L 797 568 L 741 513 L 741 477 L 745 473 L 745 467 Z"/>
  <path class="c2" d="M 871 465 L 871 474 L 880 477 L 937 534 L 938 537 L 940 537 L 975 572 L 1009 572 L 1041 539 L 1043 539 L 1046 535 L 1047 537 L 1049 537 L 1054 529 L 1059 530 L 1059 532 L 1057 533 L 1058 537 L 1061 537 L 1067 529 L 1071 530 L 1070 537 L 1073 537 L 1079 529 L 1104 529 L 1107 533 L 1115 533 L 1117 531 L 1117 525 L 1113 522 L 1109 522 L 1104 526 L 1081 526 L 1076 516 L 1071 512 L 1070 516 L 1074 521 L 1075 525 L 1069 526 L 1064 516 L 1061 513 L 1057 514 L 1057 516 L 1059 517 L 1063 525 L 1058 526 L 1055 523 L 1055 520 L 1051 517 L 1051 514 L 1047 512 L 1046 516 L 1051 522 L 1051 525 L 1041 533 L 1040 532 L 1043 529 L 1044 523 L 1039 515 L 1035 512 L 1034 517 L 1039 524 L 1034 533 L 1034 537 L 1037 538 L 1032 543 L 1030 543 L 1028 547 L 1007 568 L 977 568 L 943 534 L 946 528 L 948 527 L 948 522 L 941 513 L 937 514 L 937 516 L 943 523 L 943 526 L 940 530 L 883 474 L 881 465 Z"/>
  <path class="c1" d="M 271 440 L 265 440 L 265 463 L 261 465 L 119 465 L 114 461 L 109 460 L 105 463 L 105 470 L 108 473 L 113 473 L 117 469 L 267 469 L 269 466 L 269 445 L 271 444 Z"/>
  <path class="c2" d="M 871 430 L 871 436 L 875 440 L 879 440 L 885 435 L 996 435 L 1024 463 L 1048 463 L 1051 467 L 1058 467 L 1061 463 L 1059 457 L 1055 455 L 1049 457 L 1048 460 L 1027 459 L 1001 432 L 885 432 L 880 428 L 873 428 Z"/>
  <path class="c1" d="M 151 419 L 149 421 L 149 424 L 145 428 L 145 433 L 151 442 L 155 442 L 153 435 L 149 431 L 155 423 L 155 419 Z"/>
  <path class="c1" d="M 141 419 L 134 431 L 141 442 L 145 442 L 145 438 L 143 437 L 140 431 L 143 424 L 145 423 L 145 419 Z"/>
  <path class="c1" d="M 131 419 L 124 431 L 126 432 L 130 441 L 135 442 L 135 439 L 130 432 L 130 429 L 134 424 L 135 419 Z"/>
  <path class="c1" d="M 122 419 L 118 423 L 115 432 L 122 442 L 126 442 L 126 440 L 122 436 L 122 433 L 120 432 L 120 429 L 126 421 L 126 419 Z"/>
  <path class="c1" d="M 111 419 L 105 429 L 105 433 L 112 442 L 116 442 L 114 436 L 110 432 L 110 429 L 114 425 L 116 419 Z"/>
  <path class="c2" d="M 871 401 L 871 405 L 875 409 L 880 409 L 884 405 L 1052 405 L 1090 443 L 1089 446 L 1084 446 L 1084 449 L 1098 448 L 1098 436 L 1094 436 L 1094 439 L 1091 440 L 1080 429 L 1078 425 L 1053 401 L 883 400 L 880 397 L 875 397 Z"/>
  <path class="c1" d="M 90 390 L 91 395 L 95 397 L 105 392 L 271 392 L 271 389 L 105 389 L 101 386 L 98 386 L 97 384 L 91 386 Z"/>
  <path class="c2" d="M 1024 376 L 1024 390 L 1029 390 L 1035 386 L 1037 387 L 1037 390 L 1041 390 L 1048 386 L 1049 390 L 1053 391 L 1054 389 L 1062 386 L 1063 390 L 1065 391 L 1074 386 L 1075 390 L 1078 391 L 1083 387 L 1087 386 L 1088 390 L 1090 391 L 1099 386 L 1100 390 L 1103 391 L 1113 385 L 1113 382 L 1111 380 L 1108 380 L 1103 376 L 1101 376 L 1099 380 L 1096 380 L 1095 378 L 1088 376 L 1087 382 L 1086 380 L 1083 380 L 1078 376 L 1076 376 L 1074 380 L 1071 380 L 1070 378 L 1063 376 L 1062 381 L 1058 380 L 1057 378 L 1054 378 L 1053 376 L 1051 376 L 1048 381 L 1041 376 L 1038 376 L 1036 380 L 1033 380 L 1028 376 Z"/>
  <path class="c1" d="M 119 351 L 122 355 L 126 355 L 130 353 L 132 350 L 251 350 L 256 353 L 269 367 L 271 367 L 271 361 L 254 346 L 131 346 L 128 343 L 124 342 L 120 344 Z"/>
  <path class="c2" d="M 894 380 L 896 382 L 904 382 L 906 379 L 906 375 L 940 341 L 1023 341 L 1027 343 L 1049 366 L 1049 372 L 1051 374 L 1058 374 L 1061 370 L 1061 366 L 1059 363 L 1054 363 L 1050 361 L 1026 337 L 937 337 L 903 371 L 896 372 L 894 374 Z"/>
  <path class="c2" d="M 879 345 L 881 351 L 890 351 L 892 345 L 887 338 L 888 311 L 909 291 L 957 291 L 982 316 L 1025 316 L 1051 341 L 1053 345 L 1057 347 L 1083 347 L 1088 350 L 1091 350 L 1095 347 L 1095 341 L 1093 339 L 1086 339 L 1083 343 L 1059 343 L 1030 313 L 986 312 L 960 287 L 906 287 L 883 310 L 883 340 Z"/>
  <path class="c1" d="M 391 278 L 387 282 L 387 289 L 393 294 L 393 326 L 396 326 L 396 294 L 401 289 L 401 282 L 397 278 Z"/>
  <path class="c1" d="M 78 283 L 79 287 L 83 290 L 89 289 L 92 286 L 185 286 L 200 300 L 200 302 L 173 303 L 165 298 L 159 299 L 159 308 L 161 310 L 167 310 L 171 306 L 290 306 L 310 326 L 315 326 L 313 322 L 294 303 L 210 303 L 206 301 L 187 282 L 92 282 L 88 278 L 81 278 Z"/>
  <path class="c2" d="M 1113 289 L 1105 281 L 1103 281 L 1102 283 L 1105 288 L 1104 289 L 994 289 L 972 266 L 902 266 L 869 299 L 869 377 L 790 456 L 790 478 L 786 481 L 786 490 L 789 492 L 794 492 L 797 489 L 797 482 L 793 478 L 794 458 L 871 382 L 871 305 L 873 304 L 873 301 L 903 271 L 969 270 L 989 290 L 993 292 L 1103 292 L 1104 294 L 1102 299 L 1104 300 L 1111 294 Z"/>
  <path class="c1" d="M 366 247 L 366 277 L 362 279 L 362 281 L 360 282 L 360 289 L 364 293 L 370 293 L 374 289 L 375 285 L 373 280 L 368 277 L 368 247 Z"/>
  <path class="c2" d="M 1018 237 L 1014 233 L 1008 233 L 1005 237 L 902 237 L 846 293 L 846 368 L 781 369 L 778 367 L 778 365 L 772 364 L 767 369 L 768 374 L 770 376 L 778 376 L 781 372 L 850 372 L 850 296 L 903 242 L 1004 241 L 1010 245 L 1016 244 L 1016 242 L 1018 241 Z"/>
  <path class="c2" d="M 739 222 L 732 223 L 730 226 L 730 232 L 705 256 L 705 326 L 708 326 L 708 261 L 712 255 L 734 234 L 738 234 L 743 231 L 743 225 Z"/>
  <path class="c1" d="M 575 208 L 571 211 L 571 217 L 575 220 L 575 244 L 595 263 L 597 268 L 597 326 L 600 326 L 600 262 L 579 242 L 579 221 L 583 217 L 583 212 L 579 208 Z"/>
  <path class="c1" d="M 211 189 L 205 197 L 204 202 L 209 211 L 213 213 L 215 212 L 215 210 L 209 203 L 209 199 L 211 198 L 211 195 L 215 192 L 215 190 Z"/>
  <path class="c1" d="M 203 189 L 201 189 L 194 198 L 194 204 L 201 213 L 204 211 L 201 204 L 198 201 L 201 195 L 203 194 Z"/>
  <path class="c1" d="M 190 189 L 184 197 L 184 205 L 186 206 L 188 211 L 192 213 L 194 211 L 188 203 L 188 199 L 190 198 L 194 190 Z"/>
  <path class="c1" d="M 180 189 L 174 197 L 173 202 L 178 211 L 182 213 L 182 208 L 178 203 L 178 199 L 182 194 L 182 189 Z"/>
  <path class="c1" d="M 83 161 L 81 164 L 82 171 L 92 174 L 156 238 L 232 238 L 234 240 L 234 277 L 231 280 L 231 286 L 233 289 L 240 289 L 242 287 L 242 279 L 238 277 L 238 235 L 159 235 L 93 170 L 93 163 L 91 161 Z"/>
  <path class="c1" d="M 474 163 L 475 165 L 478 165 L 479 163 L 482 163 L 485 159 L 487 159 L 494 165 L 498 165 L 498 162 L 488 155 L 482 156 Z"/>
  <path class="c1" d="M 306 151 L 302 154 L 302 160 L 306 163 L 306 183 L 339 216 L 339 277 L 333 282 L 333 289 L 337 293 L 343 293 L 347 289 L 348 283 L 342 277 L 342 213 L 333 204 L 333 202 L 330 201 L 310 180 L 310 164 L 314 159 L 314 154 L 310 151 Z"/>
  <path class="c1" d="M 474 153 L 477 155 L 485 149 L 489 150 L 494 154 L 498 154 L 498 151 L 492 146 L 484 144 L 483 146 L 475 150 Z"/>
  <path class="c1" d="M 475 140 L 475 143 L 478 144 L 479 142 L 487 138 L 495 144 L 498 144 L 498 140 L 489 134 L 484 134 Z"/>
  <path class="c2" d="M 860 123 L 854 123 L 851 127 L 817 127 L 782 162 L 782 281 L 778 285 L 778 294 L 780 295 L 786 295 L 789 291 L 788 285 L 784 282 L 784 166 L 818 132 L 851 132 L 852 134 L 858 135 L 863 132 L 863 126 Z"/>
  <path class="c1" d="M 474 130 L 477 133 L 485 128 L 488 128 L 493 132 L 498 133 L 497 128 L 489 123 L 484 123 Z"/>
  <path class="c1" d="M 271 117 L 269 119 L 269 126 L 273 129 L 273 175 L 310 211 L 310 278 L 306 282 L 306 289 L 311 293 L 316 293 L 321 288 L 321 283 L 315 277 L 315 211 L 314 208 L 277 172 L 276 131 L 281 125 L 281 121 L 279 117 Z"/>
  <path class="c1" d="M 383 114 L 376 121 L 377 125 L 380 123 L 383 124 L 383 221 L 468 306 L 541 307 L 542 326 L 546 326 L 546 303 L 471 303 L 387 219 L 387 123 L 388 122 L 391 125 L 393 125 L 393 121 L 386 114 Z"/>
  <path class="c1" d="M 474 120 L 478 122 L 481 119 L 487 117 L 494 122 L 498 122 L 497 117 L 488 112 L 482 113 Z"/>
  <path class="c1" d="M 474 109 L 474 111 L 478 111 L 483 107 L 487 106 L 494 111 L 498 111 L 497 107 L 488 101 L 484 101 Z"/>
  <path class="c1" d="M 172 94 L 163 103 L 165 107 L 171 101 L 172 102 L 172 135 L 168 141 L 169 146 L 172 148 L 177 148 L 219 190 L 219 193 L 215 198 L 215 204 L 222 213 L 225 212 L 225 210 L 219 201 L 221 197 L 224 196 L 225 204 L 227 205 L 229 210 L 232 213 L 236 212 L 234 209 L 235 206 L 258 230 L 258 277 L 252 282 L 252 289 L 257 293 L 262 293 L 267 289 L 267 283 L 261 277 L 261 226 L 244 209 L 244 206 L 240 202 L 240 199 L 244 196 L 246 190 L 242 189 L 242 191 L 238 194 L 238 197 L 235 200 L 232 197 L 236 190 L 232 189 L 228 193 L 180 145 L 180 138 L 176 135 L 176 102 L 177 101 L 182 107 L 184 107 L 184 101 L 178 95 Z"/>
  <path class="c1" d="M 474 99 L 478 101 L 479 99 L 487 95 L 495 101 L 498 101 L 498 97 L 489 92 L 488 90 L 484 90 L 483 92 L 478 94 Z"/>
  <path class="c1" d="M 287 95 L 286 99 L 290 99 L 291 97 L 293 98 L 293 137 L 338 138 L 343 143 L 343 198 L 465 320 L 529 320 L 531 322 L 531 326 L 534 326 L 534 317 L 469 317 L 346 194 L 346 143 L 350 140 L 350 132 L 347 130 L 341 130 L 336 135 L 297 134 L 296 97 L 297 96 L 300 99 L 304 99 L 304 96 L 296 88 L 294 88 Z"/>
  <path class="c1" d="M 475 86 L 475 90 L 478 90 L 479 88 L 482 88 L 485 85 L 493 88 L 494 90 L 498 90 L 498 86 L 488 80 L 484 80 L 483 82 L 480 82 Z"/>
  <path class="c2" d="M 792 76 L 784 78 L 784 86 L 716 154 L 716 205 L 650 270 L 649 317 L 658 326 L 662 326 L 662 324 L 656 319 L 653 313 L 654 272 L 720 207 L 720 156 L 751 126 L 751 124 L 782 95 L 782 93 L 787 88 L 793 88 L 795 86 L 796 80 Z"/>
  <path class="c2" d="M 699 60 L 693 61 L 693 64 L 691 65 L 693 71 L 695 72 L 695 193 L 627 261 L 627 322 L 631 326 L 637 326 L 635 322 L 631 319 L 631 263 L 699 196 L 699 73 L 704 68 L 704 64 Z"/>
  <path class="c1" d="M 244 53 L 236 61 L 236 65 L 240 64 L 243 60 L 244 61 L 244 183 L 252 190 L 246 198 L 246 204 L 252 212 L 256 212 L 253 204 L 250 201 L 256 194 L 258 197 L 256 202 L 263 212 L 267 212 L 265 206 L 262 203 L 264 202 L 285 224 L 285 277 L 279 282 L 279 289 L 284 293 L 289 293 L 294 289 L 294 283 L 288 275 L 288 220 L 273 205 L 273 202 L 271 201 L 273 200 L 273 197 L 275 196 L 277 189 L 273 189 L 269 197 L 266 198 L 265 193 L 267 192 L 267 190 L 263 189 L 260 192 L 248 180 L 248 61 L 249 60 L 255 66 L 257 65 L 257 61 L 248 53 Z"/>
  <path class="c2" d="M 827 33 L 743 34 L 743 73 L 739 78 L 739 82 L 742 86 L 747 86 L 751 83 L 751 77 L 747 74 L 748 37 L 824 37 L 825 87 L 757 155 L 757 284 L 730 310 L 730 326 L 733 326 L 733 314 L 761 285 L 761 158 L 829 90 L 830 35 Z"/>
  <path class="c2" d="M 689 30 L 683 29 L 678 32 L 678 38 L 682 42 L 682 81 L 666 98 L 666 160 L 614 212 L 614 313 L 609 320 L 610 326 L 619 326 L 621 324 L 621 318 L 617 314 L 617 216 L 669 163 L 669 102 L 685 86 L 686 44 L 689 37 L 691 36 Z"/>
  <path class="c1" d="M 441 22 L 432 30 L 433 33 L 436 33 L 438 31 L 439 32 L 439 126 L 428 139 L 403 163 L 403 219 L 468 284 L 469 291 L 472 293 L 476 293 L 480 289 L 480 284 L 478 281 L 469 279 L 407 216 L 407 166 L 443 130 L 443 31 L 444 30 L 447 33 L 451 33 L 451 31 L 445 24 Z"/>
</svg>
