<svg width="45" height="33" viewBox="0 0 45 33" fill="none" xmlns="http://www.w3.org/2000/svg">
<path d="M45 0.970572V16.4997C45 16.7571 44.9122 17.004 44.7559 17.186C44.5996 17.368 44.3877 17.4703 44.1667 17.4703C43.9457 17.4703 43.7337 17.368 43.5774 17.186C43.4211 17.004 43.3334 16.7571 43.3334 16.4997V3.31451L24.7565 24.951C24.6791 25.0412 24.5872 25.1128 24.486 25.1617C24.3848 25.2105 24.2764 25.2356 24.1669 25.2356C24.0574 25.2356 23.9489 25.2105 23.8478 25.1617C23.7466 25.1128 23.6547 25.0412 23.5773 24.951L15.8336 15.9319L1.42337 32.7156C1.267 32.8977 1.05492 33 0.833788 33C0.612654 33 0.400576 32.8977 0.244211 32.7156C0.0878452 32.5334 4.35909e-09 32.2864 0 32.0289C-4.35909e-09 31.7713 0.0878452 31.5243 0.244211 31.3422L15.2441 13.8719C15.3215 13.7817 15.4134 13.7101 15.5145 13.6612C15.6157 13.6124 15.7241 13.5872 15.8336 13.5872C15.9431 13.5872 16.0516 13.6124 16.1527 13.6612C16.2539 13.7101 16.3458 13.7817 16.4232 13.8719L24.1669 22.8909L42.1542 1.94114H30.8335C30.6125 1.94114 30.4005 1.83889 30.2442 1.65687C30.088 1.47485 30.0002 1.22798 30.0002 0.970572C30.0002 0.713161 30.088 0.466292 30.2442 0.284274C30.4005 0.102257 30.6125 0 30.8335 0H44.1667C44.3877 0 44.5996 0.102257 44.7559 0.284274C44.9122 0.466292 45 0.713161 45 0.970572Z" fill="black"/>
</svg>
