<svg width="45" height="45" viewBox="0 0 45 45" fill="none" xmlns="http://www.w3.org/2000/svg">
<path d="M27.4091 16.3636H17.5909C17.2654 16.3636 16.9533 16.4929 16.7231 16.7231C16.4929 16.9533 16.3636 17.2654 16.3636 17.5909V27.4091C16.3636 27.7346 16.4929 28.0467 16.7231 28.2769C16.9533 28.5071 17.2654 28.6364 17.5909 28.6364H27.4091C27.7346 28.6364 28.0467 28.5071 28.2769 28.2769C28.5071 28.0467 28.6364 27.7346 28.6364 27.4091V17.5909C28.6364 17.2654 28.5071 16.9533 28.2769 16.7231C28.0467 16.4929 27.7346 16.3636 27.4091 16.3636ZM26.1818 26.1818H18.8182V18.8182H26.1818V26.1818ZM43.7727 26.1818H40.0909V18.8182H43.7727C44.0982 18.8182 44.4104 18.6889 44.6405 18.4587C44.8707 18.2286 45 17.9164 45 17.5909C45 17.2654 44.8707 16.9533 44.6405 16.7231C44.4104 16.4929 44.0982 16.3636 43.7727 16.3636H40.0909V7.77273C40.0909 7.01324 39.7892 6.28487 39.2522 5.74783C38.7151 5.21079 37.9868 4.90909 37.2273 4.90909H28.6364V1.22727C28.6364 0.90178 28.5071 0.589618 28.2769 0.35946C28.0467 0.129301 27.7346 0 27.4091 0C27.0836 0 26.7714 0.129301 26.5413 0.35946C26.3111 0.589618 26.1818 0.90178 26.1818 1.22727V4.90909H18.8182V1.22727C18.8182 0.90178 18.6889 0.589618 18.4587 0.35946C18.2286 0.129301 17.9164 0 17.5909 0C17.2654 0 16.9533 0.129301 16.7231 0.35946C16.4929 0.589618 16.3636 0.90178 16.3636 1.22727V4.90909H7.77273C7.01324 4.90909 6.28487 5.21079 5.74783 5.74783C5.21079 6.28487 4.90909 7.01324 4.90909 7.77273V16.3636H1.22727C0.90178 16.3636 0.589618 16.4929 0.35946 16.7231C0.129301 16.9533 0 17.2654 0 17.5909C0 17.9164 0.129301 18.2286 0.35946 18.4587C0.589618 18.6889 0.90178 18.8182 1.22727 18.8182H4.90909V26.1818H1.22727C0.90178 26.1818 0.589618 26.3111 0.35946 26.5413C0.129301 26.7714 0 27.0836 0 27.4091C0 27.7346 0.129301 28.0467 0.35946 28.2769C0.589618 28.5071 0.90178 28.6364 1.22727 28.6364H4.90909V37.2273C4.90909 37.9868 5.21079 38.7151 5.74783 39.2522C6.28487 39.7892 7.01324 40.0909 7.77273 40.0909H16.3636V43.7727C16.3636 44.0982 16.4929 44.4104 16.7231 44.6405C16.9533 44.8707 17.2654 45 17.5909 45C17.9164 45 18.2286 44.8707 18.4587 44.6405C18.6889 44.4104 18.8182 44.0982 18.8182 43.7727V40.0909H26.1818V43.7727C26.1818 44.0982 26.3111 44.4104 26.5413 44.6405C26.7714 44.8707 27.0836 45 27.4091 45C27.7346 45 28.0467 44.8707 28.2769 44.6405C28.5071 44.4104 28.6364 44.0982 28.6364 43.7727V40.0909H37.2273C37.9868 40.0909 38.7151 39.7892 39.2522 39.2522C39.7892 38.7151 40.0909 37.9868 40.0909 37.2273V28.6364H43.7727C44.0982 28.6364 44.4104 28.5071 44.6405 28.2769C44.8707 28.0467 45 27.7346 45 27.4091C45 27.0836 44.8707 26.7714 44.6405 26.5413C44.4104 26.3111 44.0982 26.1818 43.7727 26.1818ZM37.6364 37.2273C37.6364 37.3358 37.5933 37.4398 37.5165 37.5165C37.4398 37.5933 37.3358 37.6364 37.2273 37.6364H7.77273C7.66423 37.6364 7.56018 37.5933 7.48346 37.5165C7.40674 37.4398 7.36364 37.3358 7.36364 37.2273V7.77273C7.36364 7.66423 7.40674 7.56018 7.48346 7.48346C7.56018 7.40674 7.66423 7.36364 7.77273 7.36364H37.2273C37.3358 7.36364 37.4398 7.40674 37.5165 7.48346C37.5933 7.56018 37.6364 7.66423 37.6364 7.77273V37.2273Z" fill="black"/>
</svg>
