<svg width="45" height="45" viewBox="0 0 45 45" fill="none" xmlns="http://www.w3.org/2000/svg">
<path d="M35 17.7632C35 18.0772 34.9122 18.3784 34.7559 18.6005C34.5996 18.8226 34.3877 18.9474 34.1667 18.9474H17.5C17.279 18.9474 17.067 18.8226 16.9107 18.6005C16.7545 18.3784 16.6667 18.0772 16.6667 17.7632C16.6667 17.4491 16.7545 17.1479 16.9107 16.9258C17.067 16.7037 17.279 16.5789 17.5 16.5789H34.1667C34.3877 16.5789 34.5996 16.7037 34.7559 16.9258C34.9122 17.1479 35 17.4491 35 17.7632ZM34.1667 26.0526H17.5C17.279 26.0526 17.067 26.1774 16.9107 26.3995C16.7545 26.6216 16.6667 26.9228 16.6667 27.2368C16.6667 27.5509 16.7545 27.8521 16.9107 28.0742C17.067 28.2963 17.279 28.4211 17.5 28.4211H34.1667C34.3877 28.4211 34.5996 28.2963 34.7559 28.0742C34.9122 27.8521 35 27.5509 35 27.2368C35 26.9228 34.9122 26.6216 34.7559 26.3995C34.5996 26.1774 34.3877 26.0526 34.1667 26.0526ZM45 3.55263V39.0789C45 40.6493 44.561 42.1553 43.7796 43.2658C42.9982 44.3762 41.9384 45 40.8333 45H4.16667C3.06448 45 2.00719 44.3794 1.22627 43.2741C0.445341 42.1688 0.00440875 40.6689 0 39.1026V10.6579C0 10.3438 0.0877973 10.0426 0.244078 9.82053C0.400358 9.59845 0.61232 9.47368 0.833333 9.47368C1.05435 9.47368 1.26631 9.59845 1.42259 9.82053C1.57887 10.0426 1.66667 10.3438 1.66667 10.6579V39.0789C1.66667 40.0212 1.93006 40.9248 2.3989 41.591C2.86774 42.2573 3.50363 42.6316 4.16667 42.6316C4.82971 42.6316 5.46559 42.2573 5.93443 41.591C6.40328 40.9248 6.66667 40.0212 6.66667 39.0789V3.55263C6.66667 2.61042 6.93006 1.70679 7.3989 1.04054C7.86774 0.374294 8.50363 0 9.16667 0H42.5C43.163 0 43.7989 0.374294 44.2678 1.04054C44.7366 1.70679 45 2.61042 45 3.55263ZM43.3333 3.55263C43.3333 3.23856 43.2455 2.93735 43.0893 2.71527C42.933 2.49319 42.721 2.36842 42.5 2.36842H9.16667C8.94565 2.36842 8.73369 2.49319 8.57741 2.71527C8.42113 2.93735 8.33333 3.23856 8.33333 3.55263V39.0789C8.33545 40.3606 8.04283 41.6081 7.5 42.6316H40.8333C41.4964 42.6316 42.1323 42.2573 42.6011 41.591C43.0699 40.9248 43.3333 40.0212 43.3333 39.0789V3.55263Z" fill="black"/>
</svg>
