<svg width="45" height="45" viewBox="0 0 45 45" fill="none" xmlns="http://www.w3.org/2000/svg">
<path d="M44.5901 12.716C44.4232 12.5566 44.2175 12.4436 43.9934 12.3883C43.7694 12.333 43.5348 12.3372 43.3129 12.4005L43.0018 12.4887C42.7141 11.2321 42.1673 10.0493 41.3964 9.01603C40.6255 7.98276 39.6475 7.12174 38.5249 6.48803C37.4023 5.85433 36.1598 5.46188 34.8769 5.33579C33.594 5.20969 32.2989 5.35273 31.0744 5.75574C30.3778 4.05362 29.1904 2.59735 27.6635 1.57235C26.1365 0.547347 24.3391 0 22.5001 0C20.661 0 18.8636 0.547347 17.3366 1.57235C15.8097 2.59735 14.6223 4.05362 13.9257 5.75574C12.7012 5.35273 11.4061 5.20969 10.1232 5.33579C8.84028 5.46188 7.5978 5.85433 6.4752 6.48803C5.35261 7.12174 4.37459 7.98276 3.60371 9.01603C2.83282 10.0493 2.28602 11.2321 1.99828 12.4887L1.68725 12.4005C1.46544 12.3371 1.23092 12.3328 1.00694 12.388C0.782954 12.4432 0.577281 12.5559 0.41031 12.7151C0.243338 12.8743 0.120867 13.0744 0.0550368 13.2955C-0.0107931 13.5166 -0.0176954 13.7511 0.0350144 13.9757L6.77409 42.6196C6.93368 43.2972 7.31748 43.901 7.86323 44.3331C8.40899 44.7651 9.08468 45.0001 9.78075 45H35.2194C35.9154 45.0001 36.5911 44.7651 37.1369 44.3331C37.6826 43.901 38.0664 43.2972 38.226 42.6196L44.9651 13.9757C45.0177 13.7512 45.0107 13.5169 44.945 13.296C44.8792 13.075 44.7569 12.8751 44.5901 12.716ZM11.0293 7.93757C12.1065 7.93498 13.1676 8.19951 14.1176 8.7075C14.2978 8.80351 14.4977 8.85653 14.7018 8.86243C14.9058 8.86832 15.1085 8.82693 15.2939 8.74148C15.4793 8.65602 15.6425 8.52884 15.7706 8.36986C15.8987 8.21088 15.9882 8.02442 16.0323 7.82506C16.36 6.35633 17.1784 5.04313 18.3525 4.102C19.5267 3.16088 20.9865 2.64804 22.4912 2.64804C23.996 2.64804 25.4558 3.16088 26.6299 4.102C27.8041 5.04313 28.6225 6.35633 28.9502 7.82506C28.9943 8.02411 29.0839 8.21026 29.2118 8.369C29.3398 8.52774 29.5027 8.65477 29.6878 8.74018C29.8729 8.8256 30.0753 8.86709 30.2791 8.86142C30.4829 8.85575 30.6826 8.80307 30.8627 8.7075C31.8188 8.19684 32.8869 7.93224 33.9708 7.93757C35.4942 7.93714 36.971 8.46233 38.1521 9.4245C39.3333 10.3867 40.1463 11.7269 40.454 13.219L31.3943 15.8067L23.6471 12.7182C22.9108 12.4236 22.0893 12.4236 21.353 12.7182L13.6058 15.8067L4.54611 13.219C4.85383 11.7269 5.66685 10.3867 6.84796 9.4245C8.02907 8.46233 9.50593 7.93714 11.0293 7.93757ZM29.8766 18.0503L26.6361 42.3527H18.364L15.1235 18.0503L22.3368 15.1647C22.4416 15.123 22.5585 15.123 22.6633 15.1647L29.8766 18.0503ZM9.36162 42.0129L3.12771 15.5663L12.4786 18.2378L15.6948 42.3527H9.78075C9.68124 42.3529 9.5846 42.3194 9.50652 42.2577C9.42843 42.196 9.37348 42.1098 9.35059 42.0129H9.36162ZM35.6605 42.0129C35.6373 42.1117 35.5807 42.1993 35.5003 42.2612C35.42 42.3231 35.3207 42.3554 35.2194 42.3527H29.3053L32.5215 18.2378L41.8724 15.5663L35.6605 42.0129Z" fill="black"/>
</svg>
