<svg width="45" height="45" viewBox="0 0 45 45" fill="none" xmlns="http://www.w3.org/2000/svg">
<path d="M42.3305 5.74468H37.3729V1.43617C37.3729 1.05527 37.2523 0.689978 37.0378 0.420644C36.8232 0.15131 36.5322 0 36.2288 0H8.77119C8.46776 0 8.17676 0.15131 7.96221 0.420644C7.74765 0.689978 7.62712 1.05527 7.62712 1.43617V5.74468H2.66949C1.9615 5.74468 1.2825 6.09774 0.781876 6.72618C0.281249 7.35463 0 8.20699 0 9.09575V12.9255C0 15.3379 0.763391 17.6514 2.12223 19.3572C3.48108 21.063 5.32407 22.0213 7.24576 22.0213H8.22585C9.07773 25.655 10.7899 28.8774 13.1351 31.2609C15.4802 33.6443 18.3474 35.0759 21.3559 35.3657V42.1277H16.3983C16.0949 42.1277 15.8039 42.279 15.5893 42.5483C15.3748 42.8176 15.2542 43.1829 15.2542 43.5638C15.2542 43.9447 15.3748 44.31 15.5893 44.5794C15.8039 44.8487 16.0949 45 16.3983 45H28.6017C28.9051 45 29.1961 44.8487 29.4107 44.5794C29.6252 44.31 29.7458 43.9447 29.7458 43.5638C29.7458 43.1829 29.6252 42.8176 29.4107 42.5483C29.1961 42.279 28.9051 42.1277 28.6017 42.1277H23.6441V35.3657C29.8297 34.7625 34.9761 29.3098 36.7284 22.0213H37.7542C39.6759 22.0213 41.5189 21.063 42.8778 19.3572C44.2366 17.6514 45 15.3379 45 12.9255V9.09575C45 8.20699 44.7188 7.35463 44.2181 6.72618C43.7175 6.09774 43.0385 5.74468 42.3305 5.74468ZM7.24576 19.1489C5.93092 19.1489 4.66993 18.4933 3.74019 17.3261C2.81046 16.159 2.28814 14.5761 2.28814 12.9255V9.09575C2.28814 8.96878 2.32831 8.84701 2.39983 8.75724C2.47135 8.66746 2.56835 8.61702 2.66949 8.61702H7.62712V16.7553C7.62897 17.5556 7.67037 18.355 7.75106 19.1489H7.24576ZM35.0847 16.5399C35.0847 25.3053 29.4826 32.4886 22.5953 32.5532C20.9347 32.569 19.288 32.172 17.7501 31.3852C16.2122 30.5983 14.8136 29.4372 13.6349 27.9686C12.4562 26.5001 11.5206 24.7532 10.8822 22.8287C10.2439 20.9041 9.91521 18.84 9.91525 16.7553V2.87234H35.0847V16.5399ZM42.7119 12.9255C42.7119 14.5761 42.1895 16.159 41.2598 17.3261C40.3301 18.4933 39.0691 19.1489 37.7542 19.1489H37.2261C37.3232 18.2846 37.3723 17.4128 37.3729 16.5399V8.61702H42.3305C42.4317 8.61702 42.5287 8.66746 42.6002 8.75724C42.6717 8.84701 42.7119 8.96878 42.7119 9.09575V12.9255Z" fill="black"/>
</svg>
