<svg width="45" height="45" viewBox="0 0 45 45" fill="none" xmlns="http://www.w3.org/2000/svg">
<path d="M22.5 0C18.0499 0 13.6998 1.3196 9.99968 3.79193C6.29957 6.26426 3.41569 9.77828 1.71272 13.8896C0.00974851 18.001 -0.435826 22.525 0.432341 26.8895C1.30051 31.2541 3.44342 35.2632 6.59011 38.4099C9.73679 41.5566 13.7459 43.6995 18.1105 44.5677C22.475 45.4358 26.999 44.9903 31.1104 43.2873C35.2217 41.5843 38.7357 38.7004 41.2081 35.0003C43.6804 31.3002 45 26.9501 45 22.5C44.993 16.5348 42.6202 10.8159 38.4022 6.59783C34.1841 2.37978 28.4652 0.00700555 22.5 0ZM40.4934 14.1176H31.586C30.5242 10.0255 28.5879 6.21214 25.9103 2.94044C29.0599 3.49579 32.0294 4.80142 34.5677 6.74694C37.1061 8.69245 39.1386 11.2206 40.4934 14.1176ZM42.3529 22.5C42.3544 24.4429 42.0698 26.3754 41.5081 28.2353H32.164C32.8081 24.4389 32.8081 20.5611 32.164 16.7647H41.5081C42.0698 18.6246 42.3544 20.5571 42.3529 22.5ZM22.5 41.8743C21.2257 40.5743 20.1017 39.1351 19.1493 37.5838C17.864 35.493 16.8653 33.239 16.1802 30.8823H28.8199C28.1347 33.239 27.136 35.493 25.8507 37.5838C24.8983 39.1351 23.7743 40.5743 22.5 41.8743ZM15.5404 28.2353C14.8198 24.4457 14.8198 20.5543 15.5404 16.7647H29.4596C30.1802 20.5543 30.1802 24.4457 29.4596 28.2353H15.5404ZM2.64707 22.5C2.64558 20.5571 2.93026 18.6246 3.49192 16.7647H12.836C12.1919 20.5611 12.1919 24.4389 12.836 28.2353H3.49192C2.93026 26.3754 2.64558 24.4429 2.64707 22.5ZM22.5 3.12573C23.7743 4.42567 24.8983 5.86487 25.8507 7.41617C27.136 9.50697 28.1347 11.761 28.8199 14.1176H16.1802C16.8653 11.761 17.864 9.50697 19.1493 7.41617C20.1017 5.86487 21.2257 4.42567 22.5 3.12573ZM19.0897 2.94044C16.4122 6.21214 14.4758 10.0255 13.414 14.1176H4.50663C5.86142 11.2206 7.89393 8.69245 10.4323 6.74694C12.9706 4.80142 15.9401 3.49579 19.0897 2.94044ZM4.50663 30.8823H13.414C14.4758 34.9745 16.4122 38.7878 19.0897 42.0596C15.9401 41.5042 12.9706 40.1986 10.4323 38.2531C7.89393 36.3075 5.86142 33.7794 4.50663 30.8823ZM25.9037 42.0596C28.5836 38.7884 30.5223 34.9751 31.586 30.8823H40.4934C39.1386 33.7794 37.1061 36.3075 34.5677 38.2531C32.0294 40.1986 29.0599 41.5042 25.9103 42.0596H25.9037Z" fill="black"/>
</svg>
