<svg width="344" height="100" viewBox="0 0 344 100" fill="none" xmlns="http://www.w3.org/2000/svg">
<path d="M114.562 89.0008V13.2208H135.574V89.0008H114.562Z" fill="white"/>
<path d="M146.604 89.0008V13.2208H204.39V27.9088H167.616V43.5449H201.447V58.2449H167.616V74.3009H204.39V89.0008H146.604Z" fill="white"/>
<path d="M216.163 89.0008V13.2208H273.937V27.9088H237.176V43.5449H270.994V58.2449H237.176V74.3009H273.937V89.0008H216.163Z" fill="white"/>
<path d="M285.711 89.0008V13.2208H343.498V27.9088H306.735V43.5449H340.554V58.2449H306.735V74.3009H343.498V89.0008H285.711Z" fill="white"/>
<path d="M47.1638 14.0727C50.5156 11.4687 54.7325 13.6287 57.5438 16.0288C60.4991 18.2847 63.5746 20.8407 66.2659 23.4448L66.7583 23.7207C74.231 30.6448 81.1751 38.3367 86.8696 46.4848C87.7946 47.9007 88.6117 49.5088 88.0951 51.3808C86.1969 56.1328 82.3283 59.9128 78.9525 64.0528C71.648 71.9127 63.9351 79.5087 55.3091 85.5808C53.5672 86.8167 51.2125 87.9568 49.122 86.9727C42.7667 83.6487 37.4085 78.2127 31.858 73.2567C25.4066 67.2807 18.9311 60.3327 14.0535 53.0607C13.3326 52.0407 13.1284 50.7807 13.1404 49.4368C13.7651 46.9287 15.4951 44.8527 17.117 42.7408C22.8957 35.3847 29.9719 28.4128 37.1081 22.0527C37.2762 21.8847 37.5767 21.5368 37.8409 21.3807C40.9046 18.7288 43.956 16.3888 47.1757 14.0848L47.1638 14.0727ZM56.9791 6.42872L53.1827 1.06472C52.7141 0.776724 52.1375 0.308724 51.6209 0.176729C50.5036 -0.303276 49.2902 0.272724 48.3772 0.968729L41.5172 9.89673C30.5125 23.5168 17.4775 36.2367 3.25296 45.9808C2.12365 46.8567 0.453724 47.7088 0.105322 49.1607C-0.267109 50.4567 0.405669 51.5367 1.22262 52.3407C12.6118 60.1767 23.4964 69.4767 33.1915 80.0847C34.9096 81.8847 36.3032 83.6847 37.9851 85.3767C40.8204 89.1448 44.1483 92.9367 46.7552 96.9807C47.5722 97.8327 47.7164 99.2367 48.9898 99.6568C49.987 100.005 51.2244 100.233 52.1735 99.6568L53.1226 98.7087C64.9083 82.0407 79.8535 67.0647 96.5409 54.9808C98.2107 53.4927 101.406 52.9288 101.455 50.1687C101.334 48.8968 100.59 47.6368 99.4962 46.9407L99.2199 46.8927C90.6299 41.0607 82.6288 34.4487 75.084 26.9607L66.7464 18.2608C63.3704 14.5168 60.0907 10.3768 56.967 6.42872H56.9791ZM48.3891 16.1247C51.8131 13.7968 54.8886 17.0487 57.5438 18.9088C67.8036 27.1647 77.4867 36.5967 84.8633 47.2647C85.8004 48.6448 86.2088 50.7807 85.3799 52.3407C83.4696 55.5327 80.8867 58.4368 78.4359 61.3888V61.5447C72.3328 68.0367 65.8933 74.6967 58.9254 80.1927C55.5254 82.2567 52.4138 86.7688 48.0288 83.9727C38.0693 76.7007 28.5302 67.6528 20.4449 57.9567C19.0752 55.8207 16.9367 54.0808 15.9757 51.6567C14.6422 48.3807 17.5735 46.0287 19.2554 43.5688C27.497 33.4168 37.7328 23.4567 48.3651 16.1127L48.3891 16.1247ZM50.5517 22.8207L49.6266 25.7967L44.9652 39.1167C46.1306 39.2367 47.5722 39.1167 48.7256 39.2367V39.3447L48.0407 54.4167L48.1609 54.5727C49.6506 54.7167 51.5128 54.7887 53.0265 54.5367V54.2968L52.4138 39.6808L52.5099 39.1887L56.6067 39.1167C54.5643 33.7287 52.582 28.2807 50.6717 22.8207H50.5517ZM34.7054 43.6887C32.0983 44.9967 28.2538 46.9767 28.6743 50.5528C29.239 52.5087 31.3535 53.7687 33.0233 54.5727C42.2861 58.6528 54.5762 58.7847 64.3556 55.7487C66.7704 54.8247 70.0141 53.4688 70.4586 50.5168C70.4346 48.0807 67.8517 46.5447 65.9895 45.6087V45.4887C66.6383 45.2367 67.3831 45.0088 68.0559 44.9368V44.8767C64.7761 44.2888 61.6164 43.4367 58.4448 42.5968C59.0575 43.9887 59.502 45.4527 60.0065 46.8927C60.9557 46.5928 61.9409 46.3527 62.962 46.2207C64.632 46.8687 67.0346 47.8047 67.263 49.8927C67.4432 51.8488 65.3046 52.7967 63.9591 53.5887C56.7869 56.1927 48.7135 56.4447 41.2409 54.4647C39.1745 53.8167 36.1951 52.9767 35.9307 50.3487C37.3964 46.8927 41.1928 46.1727 44.3525 45.3328C42.7306 44.2888 41.0727 43.3528 39.4869 42.1887C37.7809 42.2847 36.2311 43.0288 34.6933 43.7007L34.7054 43.6887ZM47.9446 58.7127C47.6683 64.0647 47.5962 69.0208 47.1998 74.3848C49.3143 74.5767 51.717 74.7567 53.9756 74.4327L53.3028 59.4808L53.1827 58.7727C51.4646 58.8447 49.8309 58.9048 47.9446 58.7248V58.7127Z" fill="white"/>
<path fill-rule="evenodd" clip-rule="evenodd" d="M67.7315 89.313C65.8573 89.313 64.1875 90.609 64.1875 92.8289C64.1875 95.049 65.8573 96.3569 67.7315 96.3569C69.6057 96.3569 71.2636 95.0609 71.2636 92.8289C71.2636 90.5969 69.5936 89.313 67.7315 89.313ZM67.7315 95.541C66.338 95.541 65.2086 94.461 65.2086 92.8289C65.2086 91.197 66.338 90.1289 67.7315 90.1289C69.1252 90.1289 70.2544 91.2089 70.2544 92.8289C70.2544 94.4489 69.0891 95.541 67.7315 95.541ZM69.3054 92.0729C69.3054 91.2089 68.7286 90.933 67.7436 90.933H66.3259V94.725H67.1428V93.129H67.5273L68.4044 94.725H69.3775L68.3923 93.057C68.9089 93.021 69.3054 92.769 69.3054 92.0729ZM67.8636 92.481H67.1428V91.5689H67.7196C68.032 91.5689 68.4523 91.6049 68.4523 91.989C68.4523 92.409 68.2362 92.481 67.8757 92.481H67.8636Z" fill="white"/>
</svg>
