<svg width="112" height="37" viewBox="0 0 112 37" fill="none" xmlns="http://www.w3.org/2000/svg">
<path d="M37.3535 32.9279V4.8916H44.2047V32.9279H37.3535Z" fill="#00629B"/>
<path d="M47.801 32.9279V4.8916H66.6428V10.3257H54.6523V16.1106H65.6831V21.5491H54.6523V27.4893H66.6428V32.9279H47.801Z" fill="#00629B"/>
<path d="M70.4817 32.9279V4.8916H89.3193V10.3257H77.333V16.1106H88.3596V21.5491H77.333V27.4893H89.3193V32.9279H70.4817Z" fill="#00629B"/>
<path d="M93.1582 32.9279V4.8916H112V10.3257H100.013V16.1106H111.04V21.5491H100.013V27.4893H112V32.9279H93.1582Z" fill="#00629B"/>
<path d="M15.3781 5.20647C16.471 4.24305 17.8459 5.04218 18.7625 5.93015C19.7262 6.76478 20.729 7.71042 21.6064 8.67384L21.767 8.77593C24.2035 11.3376 26.4677 14.1834 28.3244 17.1979C28.6261 17.7218 28.8925 18.3167 28.724 19.0093C28.1051 20.7674 26.8437 22.1659 25.743 23.6975C23.3613 26.6055 20.8465 29.4157 18.0339 31.6622C17.466 32.1195 16.6982 32.5413 16.0166 32.1772C13.9444 30.9474 12.1973 28.9363 10.3875 27.1027C8.28401 24.8918 6.17263 22.3212 4.58224 19.6308C4.34719 19.2534 4.2806 18.7873 4.28452 18.2901C4.48821 17.3622 5.05229 16.5941 5.58111 15.8128C7.46529 13.0913 9.77255 10.5118 12.0993 8.1588C12.1542 8.09667 12.2521 7.96793 12.3383 7.9102C13.3372 6.92906 14.3321 6.06333 15.382 5.21093L15.3781 5.20647ZM18.5784 2.37843L17.3406 0.393915C17.1878 0.287364 16.9998 0.114218 16.8314 0.0653841C16.467 -0.112203 16.0714 0.100899 15.7737 0.3584L13.537 3.66148C9.94881 8.70047 5.69864 13.4064 1.06065 17.0115C0.692434 17.3355 0.14794 17.6508 0.0343409 18.1879C-0.0870929 18.6674 0.132271 19.067 0.398641 19.3644C4.11216 22.2635 7.66116 25.7042 10.8224 29.6288C11.3825 30.2948 11.8369 30.9607 12.3853 31.5867C13.3098 32.9808 14.3948 34.3837 15.2449 35.8799C15.5113 36.1951 15.5583 36.7145 15.9735 36.8699C16.2986 36.9986 16.7021 37.083 17.0115 36.8699L17.321 36.5192C21.1638 30.3525 26.0368 24.8119 31.4778 20.3412C32.0223 19.7906 33.0643 19.582 33.08 18.5609C33.0408 18.0903 32.7979 17.6241 32.4414 17.3666L32.3513 17.3488C29.5505 15.1912 26.9417 12.745 24.4817 9.97463L21.7631 6.75592C20.6624 5.37075 19.593 3.83908 18.5745 2.37843H18.5784ZM15.7776 5.96564C16.894 5.10437 17.8968 6.30748 18.7625 6.99566C22.1078 10.0501 25.2651 13.5396 27.6703 17.4865C27.9758 17.9971 28.109 18.7873 27.8387 19.3644C27.2159 20.5454 26.3737 21.6198 25.5746 22.7119V22.7696C23.5846 25.1715 21.485 27.6355 19.213 29.6688C18.1044 30.4324 17.0899 32.1018 15.6601 31.0673C12.4128 28.3769 9.30245 25.0294 6.66618 21.4422C6.21964 20.6519 5.52234 20.0082 5.20897 19.1114C4.77418 17.8994 5.72997 17.0292 6.27836 16.1191C8.96558 12.3632 12.303 8.67824 15.7698 5.96119L15.7776 5.96564ZM16.4827 8.44296L16.1811 9.54397L14.6612 14.472C15.0412 14.5164 15.5113 14.472 15.8873 14.5164V14.5563L15.664 20.1325L15.7032 20.1902C16.1889 20.2435 16.7961 20.2701 17.2896 20.1769V20.0881L17.0899 14.6807L17.1212 14.4986L18.457 14.472C17.7911 12.4786 17.1447 10.463 16.5219 8.44296H16.4827ZM11.3159 16.1635C10.4659 16.6474 9.21236 17.3799 9.34947 18.703C9.53359 19.4266 10.223 19.8927 10.7675 20.1902C13.7877 21.6997 17.795 21.7485 20.9836 20.6253C21.771 20.2834 22.8286 19.7818 22.9735 18.6896C22.9657 17.7884 22.1235 17.2201 21.5164 16.8738V16.8294C21.7279 16.7362 21.9707 16.6518 22.1901 16.6252V16.603C21.1207 16.3855 20.0905 16.0702 19.0563 15.7595C19.2561 16.2745 19.401 16.8161 19.5656 17.3488C19.875 17.2379 20.1963 17.1491 20.5292 17.1002C21.0737 17.34 21.8571 17.6863 21.9316 18.4588C21.9903 19.1824 21.293 19.5331 20.8543 19.8261C18.5158 20.7896 15.8834 20.8828 13.4469 20.1503C12.7731 19.9105 11.8017 19.5997 11.7155 18.6274C12.1934 17.3488 13.4312 17.0825 14.4614 16.7717C13.9326 16.3855 13.392 16.0392 12.875 15.6085C12.3187 15.644 11.8134 15.9193 11.312 16.1679L11.3159 16.1635ZM15.6327 21.7219C15.5426 23.7019 15.5191 25.5355 15.3898 27.5201C16.0793 27.5911 16.8627 27.6577 17.5991 27.5378L17.3797 22.006L17.3406 21.7441C16.7804 21.7707 16.2477 21.7929 15.6327 21.7263V21.7219Z" fill="#00629B"/>
<path fill-rule="evenodd" clip-rule="evenodd" d="M22.0843 33.0428C21.4732 33.0428 20.9287 33.5223 20.9287 34.3436C20.9287 35.165 21.4732 35.6489 22.0843 35.6489C22.6954 35.6489 23.2359 35.1694 23.2359 34.3436C23.2359 33.5179 22.6914 33.0428 22.0843 33.0428ZM22.0843 35.347C21.6299 35.347 21.2617 34.9474 21.2617 34.3436C21.2617 33.7399 21.6299 33.3447 22.0843 33.3447C22.5387 33.3447 22.9069 33.7443 22.9069 34.3436C22.9069 34.943 22.5269 35.347 22.0843 35.347ZM22.5974 34.0639C22.5974 33.7443 22.4094 33.6422 22.0882 33.6422H21.626V35.0451H21.8923V34.4546H22.0177L22.3036 35.0451H22.6209L22.2997 34.428C22.4682 34.4147 22.5974 34.3215 22.5974 34.0639ZM22.1273 34.2149H21.8923V33.8775H22.0804C22.1822 33.8775 22.3193 33.8908 22.3193 34.0329C22.3193 34.1883 22.2488 34.2149 22.1313 34.2149H22.1273Z" fill="#00629B"/>
</svg>
