<svg width="484" height="87" viewBox="0 0 484 87" fill="none" xmlns="http://www.w3.org/2000/svg">
<g clip-path="url(#clip0_4317_19295)">
<path d="M112.24 10.968L112.48 11.256L112.336 25.512V30.408C112.24 36.504 112.048 39.288 109.504 41.976C105.952 45.72 100.672 45.72 98.944 45.72C92.512 45.72 88.816 43.32 86.992 40.728C85.312 38.424 85.024 35.832 84.88 30.648V27.096C84.832 19.608 84.832 18.264 84.64 11.4L84.928 11.112C88.192 11.16 89.296 11.16 93.376 10.968L93.616 11.256C93.52 16.008 93.472 19.704 93.472 23.592C93.472 26.136 93.472 28.68 93.568 31.224C93.664 34.248 93.952 35.928 94.672 37.176C95.728 38.856 97.6 39.72 99.568 39.72C101.152 39.72 102.736 39.192 103.792 37.992C105.088 36.456 105.232 34.152 105.232 29.112C105.232 23.208 104.992 17.304 104.752 11.4L105.04 11.112C107.776 11.16 108.736 11.16 112.24 10.968ZM141.447 44.664L141.111 44.952C137.271 44.952 136.455 45 133.287 45.096L132.999 44.808C132.999 43.176 133.047 41.496 133.047 39.864C133.047 38.04 132.999 31.464 132.903 29.88C132.759 28.152 132.519 25.32 129.879 25.32C128.343 25.32 127.191 26.136 126.183 26.808C126.231 35.4 126.279 37.272 126.567 44.664L126.279 44.952C122.439 44.952 121.719 44.952 118.263 45.096L117.975 44.808C118.023 41.736 118.071 38.664 118.071 35.592C118.071 27.768 117.783 24.744 117.399 20.568L117.687 20.232C121.287 19.752 122.103 19.608 125.799 18.84L126.279 19.176L126.183 21.816C128.391 20.52 130.935 18.984 133.863 18.984C135.591 18.984 138.327 19.368 139.815 21.864C141.015 23.832 141.063 26.04 141.111 30.648V34.392C141.207 39.096 141.207 40.44 141.447 44.664ZM155.584 44.664L155.248 45C151.36 44.952 150.4 45 146.944 45.144L146.656 44.808C146.8 40.872 146.944 37.944 146.944 32.712C146.944 25.896 146.8 24.216 146.416 20.568L146.704 20.28L154.96 18.84L155.296 19.224C155.248 23.304 155.152 27.432 155.152 31.512C155.152 38.136 155.344 40.968 155.584 44.664ZM154.816 14.232L154.576 14.568C151.168 15 150.256 15.096 146.992 15.672L146.656 15.384C146.704 14.472 146.704 13.512 146.704 12.6C146.704 11.448 146.656 10.44 146.56 8.712L146.848 8.376L154.672 7.416L154.96 7.704L154.816 14.232ZM174.159 44.616L173.871 45C170.415 44.952 169.167 45 166.047 45.144L165.711 44.808C164.655 40.872 164.127 39.096 157.743 20.184L157.935 19.8C161.583 19.752 162.543 19.704 166.335 19.272L166.671 19.56C167.343 22.728 167.535 23.64 168.735 28.104L169.647 31.8L170.847 36.984L173.295 27.528C174.255 23.784 174.399 23.112 175.071 19.896L175.407 19.56L182.127 19.416L182.367 19.752C181.023 23.688 178.911 29.928 177.615 33.816C176.607 36.84 175.695 39.816 174.159 44.616ZM206.223 37.896L206.559 38.04L206.223 43.464L205.935 43.848C203.391 44.856 201.663 45.576 197.679 45.576C194.223 45.576 187.695 45 184.911 38.52C184.143 36.84 183.759 34.488 183.759 32.232C183.759 23.928 188.751 18.984 196.287 18.984C197.391 18.984 198.495 19.08 199.695 19.416C201.327 19.8 205.023 20.952 206.703 26.616C207.375 29.016 207.423 31.416 207.471 33.768L207.183 34.104L191.679 34.392C191.871 35.352 192.015 36.312 192.735 37.32C193.887 39.048 195.855 39.96 198.735 39.96C202.239 39.96 204.399 38.856 206.223 37.896ZM191.679 29.304L199.695 29.112C199.695 28.008 199.647 26.856 198.975 25.8C198.447 24.936 197.487 24.12 195.903 24.12C195.231 24.12 194.559 24.264 193.983 24.648C192.159 25.8 191.823 27.816 191.679 29.304ZM225.736 27.192L225.304 27.384C224.632 27 224.152 26.712 223.336 26.712C220.072 26.712 220.072 29.88 220.072 32.04C220.072 35.352 220.36 40.776 220.552 44.664L220.312 45C216.472 44.952 215.704 45 212.152 45.144L211.864 44.856C211.96 40.872 212.008 36.936 212.008 33C212.008 26.328 211.864 24.168 211.576 20.568L211.864 20.28C215.368 19.752 216.28 19.608 219.832 18.84L220.216 19.224L220.072 23.64C221.608 20.088 223.816 18.984 225.784 18.984C226.12 18.984 226.456 19.032 226.792 19.032L227.08 19.368L225.736 27.192ZM239.944 28.44L242.296 29.304C244.936 30.312 248.632 31.704 248.632 36.984C248.632 37.32 248.632 37.656 248.584 38.04C247.72 44.904 240.52 45.576 236.872 45.576C233.368 45.576 231.352 44.808 229 43.944L228.76 43.512C228.952 41.112 229 40.584 229.096 38.088L229.528 37.896C230.248 38.472 230.632 38.808 231.448 39.24C233.224 40.152 235.192 40.584 236.536 40.584C239.224 40.584 240.328 39.288 240.328 38.088C240.328 36.36 238.216 35.64 236.92 35.208L235.096 34.536C232.84 33.672 228.856 32.136 228.856 27C228.856 25.08 229.528 23.64 230.152 22.776C232.648 19.176 237.352 18.984 239.704 18.984C242.824 18.984 244.792 19.56 247.048 20.184L247.288 20.472L246.808 25.704L246.376 25.848C245.176 25.08 243.304 23.832 240.376 23.832C237.4 23.832 237.016 25.416 237.016 25.992C237.016 27.336 238.312 27.864 239.944 28.44ZM261.521 44.664L261.185 45C257.297 44.952 256.337 45 252.881 45.144L252.593 44.808C252.737 40.872 252.881 37.944 252.881 32.712C252.881 25.896 252.737 24.216 252.353 20.568L252.641 20.28L260.897 18.84L261.233 19.224C261.185 23.304 261.089 27.432 261.089 31.512C261.089 38.136 261.281 40.968 261.521 44.664ZM260.753 14.232L260.513 14.568C257.105 15 256.193 15.096 252.929 15.672L252.593 15.384C252.641 14.472 252.641 13.512 252.641 12.6C252.641 11.448 252.593 10.44 252.497 8.712L252.785 8.376L260.609 7.416L260.897 7.704L260.753 14.232ZM290.369 44.712L290.129 45C286.529 45 285.617 45 282.305 45.144L282.065 44.856L282.161 42.984C281.009 43.992 279.233 45.576 275.825 45.576C274.241 45.576 271.649 45.192 269.537 43.464C266.705 41.112 265.697 37.368 265.697 33.624C265.697 28.68 267.089 24.696 270.449 22.104C274.097 19.224 278.609 19.32 282.209 19.416C282.257 13.944 282.209 12.744 281.921 8.232L282.161 7.944L290.081 6.696L290.417 6.984C290.225 13.32 290.033 18.552 290.033 31.224C290.033 37.512 290.177 40.392 290.369 44.712ZM282.209 25.176C281.537 25.08 281.105 25.032 280.577 25.032C275.201 25.032 274.145 29.16 274.145 32.856C274.145 33.816 274.145 39.768 278.801 39.768C280.145 39.768 281.105 39.192 282.065 38.616C282.209 32.808 282.257 31.56 282.209 25.176ZM317.177 30.696L317.13 34.248C317.13 38.76 317.13 39.96 317.466 44.664L317.226 45C314.106 44.952 313.05 45 309.594 45.144L309.306 44.808V43.032C308.298 43.848 306.234 45.576 302.634 45.576C297.93 45.576 294.234 42.264 294.234 37.128C294.234 34.968 295.146 32.232 297.834 30.552C300.714 28.776 303.402 28.248 309.162 27.48C309.162 26.76 309.018 25.896 308.538 25.416C307.914 24.792 307.194 24.504 305.418 24.504C302.202 24.504 299.082 25.752 297.402 26.424L297.018 26.232L297.258 21L297.546 20.616C300.282 19.8 302.826 19.032 306.954 19.032C313.098 19.032 315.018 20.952 315.978 22.488C317.226 24.504 317.226 26.376 317.177 30.696ZM309.258 38.328V32.52C305.994 32.952 302.202 33.48 302.202 36.648C302.202 38.664 303.642 39.576 305.37 39.576C306.954 39.576 308.25 38.904 309.258 38.328ZM346.291 44.712L346.051 45C342.451 45 341.539 45 338.227 45.144L337.987 44.856L338.083 42.984C336.931 43.992 335.155 45.576 331.747 45.576C330.163 45.576 327.571 45.192 325.459 43.464C322.627 41.112 321.619 37.368 321.619 33.624C321.619 28.68 323.011 24.696 326.371 22.104C330.019 19.224 334.531 19.32 338.131 19.416C338.179 13.944 338.131 12.744 337.843 8.232L338.083 7.944L346.003 6.696L346.339 6.984C346.147 13.32 345.955 18.552 345.955 31.224C345.955 37.512 346.099 40.392 346.291 44.712ZM338.131 25.176C337.459 25.08 337.027 25.032 336.499 25.032C331.123 25.032 330.067 29.16 330.067 32.856C330.067 33.816 330.067 39.768 334.723 39.768C336.067 39.768 337.027 39.192 337.987 38.616C338.131 32.808 338.179 31.56 338.131 25.176ZM374.635 10.968L374.875 11.256C374.731 17.88 374.635 24.504 374.635 31.128C374.635 38.088 374.731 40.296 374.971 44.712L374.683 45C370.699 45 369.739 45 366.139 45.144L365.899 44.856C366.091 39.864 366.187 36.936 366.187 31.272C366.187 19.032 366.043 16.584 365.755 11.4L365.947 11.112C369.403 11.16 370.507 11.16 374.635 10.968ZM405.714 36.408L406.05 36.6L405.714 43.752L405.474 44.04C403.938 44.664 401.298 45.72 397.266 45.72C385.554 45.72 379.938 37.608 379.938 28.392C379.938 19.992 384.258 10.392 396.69 10.392C400.914 10.392 403.842 11.496 405.57 12.168L405.762 12.408L405.33 19.032L404.898 19.128C403.698 18.216 401.73 16.824 398.13 16.824C390.306 16.824 388.866 24.072 388.866 28.2C388.866 35.016 392.706 39.096 398.178 39.096C402.162 39.096 404.61 37.272 405.714 36.408ZM431.803 38.52L432.091 38.856L431.755 44.712L431.371 45H410.251L410.011 44.808C410.155 39.768 410.251 36.744 410.251 30.696C410.251 17.832 410.155 16.056 409.867 11.4L410.155 11.112H431.227L431.467 11.304L431.131 16.872L430.891 17.16C425.083 17.016 423.979 17.016 418.555 17.016V24.648L430.171 24.456L430.411 24.744L430.123 30.168L429.787 30.456H418.555L418.651 38.856C424.795 38.856 426.139 38.808 431.803 38.52ZM449.658 24.36L450.906 24.84C452.058 25.368 453.306 25.944 454.602 26.904C457.146 28.872 458.202 31.8 458.202 34.536C458.202 38.616 456.474 42.264 452.442 44.232C449.562 45.576 445.914 45.72 444.474 45.72C440.874 45.72 438.042 44.904 436.938 44.52C436.41 44.376 435.882 44.136 435.354 43.944L435.066 43.56L435.402 36.792L435.882 36.648C437.274 37.752 439.722 39.672 444.09 39.672C448.266 39.672 449.85 37.512 449.85 35.688C449.85 33.144 447.306 31.944 443.994 30.552L442.41 29.832C439.722 28.536 435.21 26.424 435.21 20.616C435.21 15.48 438.33 10.392 447.354 10.392C452.01 10.392 454.17 11.304 456.234 12.168L456.474 12.504L456.09 18.792L455.658 18.984C453.882 17.784 451.722 16.296 448.074 16.296C444.906 16.296 443.514 18.168 443.514 19.656C443.514 21.816 445.626 22.68 449.658 24.36ZM471.619 10.968L471.859 11.256C471.715 17.88 471.619 24.504 471.619 31.128C471.619 38.088 471.715 40.296 471.955 44.712L471.667 45C467.683 45 466.723 45 463.123 45.144L462.883 44.856C463.075 39.864 463.171 36.936 463.171 31.272C463.171 19.032 463.027 16.584 462.739 11.4L462.931 11.112C466.387 11.16 467.491 11.16 471.619 10.968Z" fill="#00629B"/>
<path d="M89.938 57.222L90.232 57.516C90.204 58.216 90.176 58.972 90.148 59.784C90.12 60.568 90.092 61.492 90.064 62.556C90.064 63.592 90.05 64.796 90.022 66.168C90.022 67.512 90.022 69.08 90.022 70.872C90.022 72.888 90.022 74.652 90.022 76.164C90.05 77.648 90.078 78.992 90.106 80.196C90.134 81.4 90.162 82.52 90.19 83.556C90.246 84.564 90.302 85.614 90.358 86.706L90.106 87C89.63 87 89.224 87 88.888 87C88.58 87.028 88.258 87.042 87.922 87.042C87.586 87.042 87.222 87.042 86.83 87.042C86.466 87.07 86.004 87.098 85.444 87.126L85.192 86.832C85.22 86.188 85.234 85.558 85.234 84.942C85.262 84.298 85.276 83.584 85.276 82.8C85.304 82.016 85.318 81.134 85.318 80.154C85.346 79.146 85.36 77.97 85.36 76.626C85.36 73.434 85.346 70.27 85.318 67.134C85.29 63.998 85.206 60.848 85.066 57.684L85.276 57.348C85.724 57.348 86.116 57.348 86.452 57.348C86.816 57.348 87.166 57.348 87.502 57.348C87.838 57.32 88.188 57.306 88.552 57.306C88.944 57.278 89.406 57.25 89.938 57.222ZM115.347 83.262L115.599 83.556C115.571 83.92 115.543 84.228 115.515 84.48C115.515 84.704 115.501 84.928 115.473 85.152C115.473 85.348 115.459 85.572 115.431 85.824C115.431 86.048 115.417 86.342 115.389 86.706L115.095 87C113.723 87 112.519 87 111.483 87C110.475 87 109.537 87 108.669 87C107.829 87.028 107.031 87.042 106.275 87.042C105.519 87.042 104.721 87.042 103.881 87.042C103.041 87.07 102.117 87.084 101.109 87.084C100.101 87.112 98.9387 87.126 97.6227 87.126L97.4127 86.832C97.4407 85.992 97.4687 85.194 97.4967 84.438C97.5247 83.682 97.5527 82.814 97.5807 81.834C97.6087 80.854 97.6227 79.72 97.6227 78.432C97.6507 77.116 97.6647 75.492 97.6647 73.56C97.6647 71.796 97.6647 70.2 97.6647 68.772C97.6647 67.344 97.6507 66.014 97.6227 64.782C97.5947 63.522 97.5667 62.318 97.5387 61.17C97.5107 60.022 97.4547 58.846 97.3707 57.642L97.6227 57.348C99.6947 57.348 101.417 57.348 102.789 57.348C104.161 57.32 105.449 57.306 106.653 57.306C107.857 57.306 109.103 57.306 110.391 57.306C111.707 57.278 113.331 57.25 115.263 57.222L115.515 57.516C115.487 57.824 115.459 58.104 115.431 58.356C115.403 58.58 115.375 58.818 115.347 59.07C115.319 59.294 115.291 59.546 115.263 59.826C115.263 60.106 115.249 60.428 115.221 60.792L114.969 61.086C113.625 61.058 112.463 61.03 111.483 61.002C110.503 60.974 109.565 60.96 108.669 60.96C107.773 60.932 106.835 60.918 105.855 60.918C104.903 60.89 103.755 60.876 102.411 60.876C102.383 61.856 102.355 62.696 102.327 63.396C102.327 64.068 102.313 64.726 102.285 65.37C102.285 65.986 102.285 66.644 102.285 67.344C102.285 68.044 102.285 68.87 102.285 69.822C103.573 69.822 104.679 69.822 105.603 69.822C106.527 69.822 107.409 69.822 108.249 69.822C109.089 69.822 109.957 69.822 110.853 69.822C111.777 69.794 112.883 69.766 114.171 69.738L114.381 70.032C114.325 70.396 114.283 70.704 114.255 70.956C114.255 71.208 114.241 71.46 114.213 71.712C114.213 71.936 114.199 72.174 114.171 72.426C114.171 72.65 114.171 72.93 114.171 73.266L113.919 73.56C112.687 73.532 111.651 73.518 110.811 73.518C109.999 73.49 109.201 73.476 108.417 73.476C107.633 73.448 106.765 73.434 105.813 73.434C104.889 73.434 103.713 73.434 102.285 73.434C102.257 74.666 102.243 75.688 102.243 76.5C102.243 77.312 102.243 78.068 102.243 78.768C102.243 79.468 102.243 80.182 102.243 80.91C102.271 81.61 102.285 82.464 102.285 83.472C103.881 83.472 105.197 83.472 106.233 83.472C107.297 83.472 108.277 83.472 109.173 83.472C110.069 83.444 110.979 83.416 111.903 83.388C112.855 83.36 114.003 83.318 115.347 83.262ZM138.11 83.262L138.362 83.556C138.334 83.92 138.306 84.228 138.278 84.48C138.278 84.704 138.264 84.928 138.236 85.152C138.236 85.348 138.222 85.572 138.194 85.824C138.194 86.048 138.18 86.342 138.152 86.706L137.858 87C136.486 87 135.282 87 134.246 87C133.238 87 132.3 87 131.432 87C130.592 87.028 129.794 87.042 129.038 87.042C128.282 87.042 127.484 87.042 126.644 87.042C125.804 87.07 124.88 87.084 123.872 87.084C122.864 87.112 121.702 87.126 120.386 87.126L120.176 86.832C120.204 85.992 120.232 85.194 120.26 84.438C120.288 83.682 120.316 82.814 120.344 81.834C120.372 80.854 120.386 79.72 120.386 78.432C120.414 77.116 120.428 75.492 120.428 73.56C120.428 71.796 120.428 70.2 120.428 68.772C120.428 67.344 120.414 66.014 120.386 64.782C120.358 63.522 120.33 62.318 120.302 61.17C120.274 60.022 120.218 58.846 120.134 57.642L120.386 57.348C122.458 57.348 124.18 57.348 125.552 57.348C126.924 57.32 128.212 57.306 129.416 57.306C130.62 57.306 131.866 57.306 133.154 57.306C134.47 57.278 136.094 57.25 138.026 57.222L138.278 57.516C138.25 57.824 138.222 58.104 138.194 58.356C138.166 58.58 138.138 58.818 138.11 59.07C138.082 59.294 138.054 59.546 138.026 59.826C138.026 60.106 138.012 60.428 137.984 60.792L137.732 61.086C136.388 61.058 135.226 61.03 134.246 61.002C133.266 60.974 132.328 60.96 131.432 60.96C130.536 60.932 129.598 60.918 128.618 60.918C127.666 60.89 126.518 60.876 125.174 60.876C125.146 61.856 125.118 62.696 125.09 63.396C125.09 64.068 125.076 64.726 125.048 65.37C125.048 65.986 125.048 66.644 125.048 67.344C125.048 68.044 125.048 68.87 125.048 69.822C126.336 69.822 127.442 69.822 128.366 69.822C129.29 69.822 130.172 69.822 131.012 69.822C131.852 69.822 132.72 69.822 133.616 69.822C134.54 69.794 135.646 69.766 136.934 69.738L137.144 70.032C137.088 70.396 137.046 70.704 137.018 70.956C137.018 71.208 137.004 71.46 136.976 71.712C136.976 71.936 136.962 72.174 136.934 72.426C136.934 72.65 136.934 72.93 136.934 73.266L136.682 73.56C135.45 73.532 134.414 73.518 133.574 73.518C132.762 73.49 131.964 73.476 131.18 73.476C130.396 73.448 129.528 73.434 128.576 73.434C127.652 73.434 126.476 73.434 125.048 73.434C125.02 74.666 125.006 75.688 125.006 76.5C125.006 77.312 125.006 78.068 125.006 78.768C125.006 79.468 125.006 80.182 125.006 80.91C125.034 81.61 125.048 82.464 125.048 83.472C126.644 83.472 127.96 83.472 128.996 83.472C130.06 83.472 131.04 83.472 131.936 83.472C132.832 83.444 133.742 83.416 134.666 83.388C135.618 83.36 136.766 83.318 138.11 83.262ZM160.874 83.262L161.126 83.556C161.098 83.92 161.07 84.228 161.042 84.48C161.042 84.704 161.028 84.928 161 85.152C161 85.348 160.986 85.572 160.958 85.824C160.958 86.048 160.944 86.342 160.916 86.706L160.622 87C159.25 87 158.046 87 157.01 87C156.002 87 155.064 87 154.196 87C153.356 87.028 152.558 87.042 151.802 87.042C151.046 87.042 150.248 87.042 149.408 87.042C148.568 87.07 147.644 87.084 146.636 87.084C145.628 87.112 144.466 87.126 143.15 87.126L142.94 86.832C142.968 85.992 142.996 85.194 143.024 84.438C143.052 83.682 143.08 82.814 143.108 81.834C143.136 80.854 143.15 79.72 143.15 78.432C143.178 77.116 143.192 75.492 143.192 73.56C143.192 71.796 143.192 70.2 143.192 68.772C143.192 67.344 143.178 66.014 143.15 64.782C143.122 63.522 143.094 62.318 143.066 61.17C143.038 60.022 142.982 58.846 142.898 57.642L143.15 57.348C145.222 57.348 146.944 57.348 148.316 57.348C149.688 57.32 150.976 57.306 152.18 57.306C153.384 57.306 154.63 57.306 155.918 57.306C157.234 57.278 158.858 57.25 160.79 57.222L161.042 57.516C161.014 57.824 160.986 58.104 160.958 58.356C160.93 58.58 160.902 58.818 160.874 59.07C160.846 59.294 160.818 59.546 160.79 59.826C160.79 60.106 160.776 60.428 160.748 60.792L160.496 61.086C159.152 61.058 157.99 61.03 157.01 61.002C156.03 60.974 155.092 60.96 154.196 60.96C153.3 60.932 152.362 60.918 151.382 60.918C150.43 60.89 149.282 60.876 147.938 60.876C147.91 61.856 147.882 62.696 147.854 63.396C147.854 64.068 147.84 64.726 147.812 65.37C147.812 65.986 147.812 66.644 147.812 67.344C147.812 68.044 147.812 68.87 147.812 69.822C149.1 69.822 150.206 69.822 151.13 69.822C152.054 69.822 152.936 69.822 153.776 69.822C154.616 69.822 155.484 69.822 156.38 69.822C157.304 69.794 158.41 69.766 159.698 69.738L159.908 70.032C159.852 70.396 159.81 70.704 159.782 70.956C159.782 71.208 159.768 71.46 159.74 71.712C159.74 71.936 159.726 72.174 159.698 72.426C159.698 72.65 159.698 72.93 159.698 73.266L159.446 73.56C158.214 73.532 157.178 73.518 156.338 73.518C155.526 73.49 154.728 73.476 153.944 73.476C153.16 73.448 152.292 73.434 151.34 73.434C150.416 73.434 149.24 73.434 147.812 73.434C147.784 74.666 147.77 75.688 147.77 76.5C147.77 77.312 147.77 78.068 147.77 78.768C147.77 79.468 147.77 80.182 147.77 80.91C147.798 81.61 147.812 82.464 147.812 83.472C149.408 83.472 150.724 83.472 151.76 83.472C152.824 83.472 153.804 83.472 154.7 83.472C155.596 83.444 156.506 83.416 157.43 83.388C158.382 83.36 159.53 83.318 160.874 83.262ZM186.703 69.276L188.803 70.2C189.559 70.536 190.357 70.914 191.197 71.334C192.037 71.754 192.807 72.286 193.507 72.93C194.207 73.574 194.781 74.358 195.229 75.282C195.705 76.206 195.943 77.34 195.943 78.684C195.943 79.86 195.719 80.994 195.271 82.086C194.851 83.15 194.193 84.102 193.297 84.942C192.401 85.754 191.267 86.412 189.895 86.916C188.551 87.392 186.969 87.63 185.149 87.63C184.029 87.63 183.007 87.56 182.083 87.42C181.187 87.28 180.389 87.112 179.689 86.916C178.989 86.692 178.401 86.482 177.925 86.286C177.449 86.09 177.085 85.922 176.833 85.782L176.665 85.488C176.693 85.124 176.721 84.802 176.749 84.522C176.805 84.214 176.833 83.92 176.833 83.64C176.861 83.332 176.889 83.024 176.917 82.716C176.945 82.38 176.973 82.016 177.001 81.624L177.421 81.456C177.673 81.624 178.023 81.848 178.471 82.128C178.919 82.408 179.437 82.688 180.025 82.968C180.641 83.22 181.341 83.444 182.125 83.64C182.937 83.836 183.833 83.934 184.813 83.934C185.905 83.934 186.829 83.808 187.585 83.556C188.369 83.304 188.999 82.954 189.475 82.506C189.979 82.058 190.343 81.554 190.567 80.994C190.819 80.434 190.945 79.832 190.945 79.188C190.945 78.46 190.805 77.83 190.525 77.298C190.245 76.766 189.867 76.304 189.391 75.912C188.915 75.52 188.355 75.184 187.711 74.904C187.095 74.596 186.451 74.316 185.779 74.064L183.679 73.14C182.923 72.804 182.139 72.426 181.327 72.006C180.515 71.558 179.759 71.026 179.059 70.41C178.387 69.766 177.827 68.996 177.379 68.1C176.931 67.204 176.707 66.112 176.707 64.824C176.707 64.04 176.805 63.27 177.001 62.514C177.225 61.758 177.561 61.058 178.009 60.414C178.989 59.014 180.277 58.048 181.873 57.516C183.469 56.984 185.121 56.718 186.829 56.718C188.481 56.718 189.867 56.858 190.987 57.138C192.135 57.39 193.269 57.698 194.389 58.062L194.599 58.398C194.543 58.79 194.501 59.14 194.473 59.448C194.445 59.728 194.417 60.008 194.389 60.288C194.389 60.54 194.375 60.82 194.347 61.128C194.319 61.408 194.291 61.73 194.263 62.094L193.927 62.262C193.031 61.814 192.037 61.38 190.945 60.96C189.881 60.54 188.565 60.33 186.997 60.33C185.233 60.33 183.847 60.708 182.839 61.464C181.831 62.192 181.327 63.186 181.327 64.446C181.327 64.922 181.397 65.342 181.537 65.706C181.677 66.042 181.845 66.35 182.041 66.63C182.265 66.882 182.503 67.106 182.755 67.302C183.007 67.47 183.245 67.624 183.469 67.764C183.609 67.848 183.735 67.932 183.847 68.016C183.959 68.072 184.113 68.156 184.309 68.268C184.533 68.352 184.827 68.478 185.191 68.646C185.555 68.786 186.059 68.996 186.703 69.276ZM209.887 83.43L210.181 83.682C210.153 84.018 210.125 84.312 210.097 84.564C210.097 84.788 210.083 84.998 210.055 85.194C210.055 85.39 210.041 85.6 210.013 85.824C210.013 86.02 210.013 86.272 210.013 86.58L209.803 86.832C209.355 86.944 208.907 87.028 208.459 87.084C208.039 87.168 207.437 87.21 206.653 87.21C206.401 87.21 206.065 87.196 205.645 87.168C205.225 87.14 204.777 87.07 204.301 86.958C203.825 86.818 203.349 86.608 202.873 86.328C202.425 86.02 202.033 85.586 201.697 85.026C201.501 84.718 201.347 84.41 201.235 84.102C201.151 83.766 201.081 83.346 201.025 82.842C200.997 82.338 200.969 81.694 200.941 80.91C200.941 80.098 200.941 79.076 200.941 77.844L201.025 68.604C200.661 68.604 200.367 68.604 200.143 68.604C199.919 68.604 199.709 68.618 199.513 68.646C199.345 68.646 199.135 68.66 198.883 68.688C198.659 68.688 198.365 68.688 198.001 68.688L197.833 68.436C197.861 68.1 197.875 67.82 197.875 67.596C197.903 67.372 197.917 67.162 197.917 66.966C197.917 66.742 197.917 66.518 197.917 66.294C197.917 66.042 197.917 65.748 197.917 65.412L198.169 65.16C198.645 65.16 199.065 65.174 199.429 65.202C199.793 65.202 200.325 65.188 201.025 65.16C200.997 64.712 200.983 64.264 200.983 63.816C200.983 63.368 200.983 62.92 200.983 62.472L200.857 60.078L201.067 59.784C201.543 59.672 201.935 59.574 202.243 59.49C202.579 59.406 202.887 59.322 203.167 59.238C203.475 59.154 203.797 59.07 204.133 58.986C204.469 58.874 204.875 58.748 205.351 58.608L205.645 58.818C205.617 59.518 205.589 60.106 205.561 60.582C205.533 61.03 205.505 61.478 205.477 61.926C205.477 62.346 205.477 62.808 205.477 63.312C205.477 63.816 205.477 64.446 205.477 65.202C205.925 65.202 206.303 65.202 206.611 65.202C206.919 65.174 207.227 65.16 207.535 65.16C207.871 65.16 208.235 65.16 208.627 65.16C209.047 65.132 209.551 65.104 210.139 65.076L210.349 65.328C210.321 65.608 210.293 65.86 210.265 66.084C210.265 66.28 210.251 66.49 210.223 66.714C210.223 66.91 210.223 67.134 210.223 67.386C210.223 67.638 210.223 67.946 210.223 68.31L210.013 68.562C209.481 68.562 209.047 68.562 208.711 68.562C208.375 68.534 208.053 68.52 207.745 68.52C207.465 68.492 207.143 68.478 206.779 68.478C206.443 68.478 205.995 68.478 205.435 68.478L205.351 76.29C205.351 76.43 205.351 76.668 205.351 77.004C205.379 77.312 205.393 77.648 205.393 78.012C205.393 78.376 205.393 78.726 205.393 79.062C205.393 79.398 205.393 79.636 205.393 79.776C205.393 80.532 205.421 81.176 205.477 81.708C205.533 82.212 205.645 82.632 205.813 82.968C206.009 83.276 206.261 83.5 206.569 83.64C206.905 83.752 207.339 83.808 207.871 83.808C208.319 83.808 208.711 83.766 209.047 83.682C209.383 83.598 209.663 83.514 209.887 83.43ZM232.041 64.992L232.293 65.286C232.237 66.882 232.195 68.45 232.167 69.99C232.167 71.53 232.167 73.154 232.167 74.862C232.167 77.466 232.181 79.58 232.209 81.204C232.265 82.8 232.321 84.046 232.377 84.942C232.377 85.25 232.377 85.544 232.377 85.824C232.405 86.104 232.433 86.398 232.461 86.706L232.293 86.958C231.789 86.958 231.369 86.972 231.033 87C230.725 87 230.417 87 230.109 87C229.829 87.028 229.521 87.042 229.185 87.042C228.877 87.07 228.485 87.098 228.009 87.126L227.757 86.874L227.799 85.11C227.575 85.278 227.267 85.502 226.875 85.782C226.483 86.034 226.007 86.3 225.447 86.58C224.887 86.832 224.257 87.042 223.557 87.21C222.857 87.406 222.073 87.504 221.205 87.504C220.393 87.504 219.553 87.392 218.685 87.168C217.845 86.972 217.089 86.608 216.417 86.076C215.745 85.544 215.227 84.928 214.863 84.228C214.499 83.5 214.233 82.744 214.065 81.96C213.897 81.176 213.785 80.364 213.729 79.524C213.701 78.684 213.687 77.858 213.687 77.046V74.442C213.659 72.93 213.631 71.726 213.603 70.83C213.603 69.934 213.589 69.192 213.561 68.604C213.561 67.988 213.547 67.456 213.519 67.008C213.519 66.56 213.505 66.056 213.477 65.496L213.687 65.202C214.191 65.202 214.597 65.202 214.905 65.202C215.241 65.174 215.549 65.16 215.829 65.16C216.137 65.132 216.445 65.118 216.753 65.118C217.089 65.09 217.509 65.048 218.013 64.992L218.265 65.286L218.097 74.484C218.097 75.044 218.083 75.604 218.055 76.164C218.055 76.696 218.069 77.466 218.097 78.474C218.097 78.922 218.125 79.468 218.181 80.112C218.265 80.728 218.433 81.33 218.685 81.918C218.965 82.506 219.399 83.01 219.987 83.43C220.575 83.822 221.401 84.018 222.465 84.018C223.081 84.018 223.655 83.948 224.187 83.808C224.719 83.64 225.195 83.444 225.615 83.22C226.063 82.996 226.455 82.758 226.791 82.506C227.155 82.254 227.463 82.03 227.715 81.834C227.743 80.686 227.757 79.608 227.757 78.6C227.757 77.564 227.757 76.43 227.757 75.198C227.757 73.742 227.743 72.552 227.715 71.628C227.715 70.676 227.701 69.864 227.673 69.192C227.673 68.492 227.645 67.862 227.589 67.302C227.561 66.742 227.519 66.126 227.463 65.454L227.715 65.16C228.191 65.16 228.597 65.16 228.933 65.16C229.269 65.132 229.577 65.118 229.857 65.118C230.165 65.09 230.487 65.076 230.823 65.076C231.159 65.048 231.565 65.02 232.041 64.992ZM252.075 54.618L252.285 54.366C252.817 54.282 253.251 54.212 253.587 54.156C253.951 54.072 254.287 54.002 254.595 53.946C254.903 53.89 255.211 53.834 255.519 53.778C255.855 53.694 256.261 53.596 256.737 53.484L257.031 53.736C256.947 55.192 256.877 56.886 256.821 58.818C256.793 60.722 256.765 62.64 256.737 64.572C256.737 66.504 256.723 68.338 256.695 70.074C256.695 71.782 256.695 73.154 256.695 74.19C256.695 75.814 256.695 77.242 256.695 78.474C256.723 79.706 256.751 80.812 256.779 81.792C256.835 82.772 256.877 83.654 256.905 84.438C256.933 85.222 256.975 85.978 257.031 86.706L256.821 87C256.345 87 255.939 87 255.603 87C255.295 87 254.987 87 254.679 87C254.399 87.028 254.091 87.042 253.755 87.042C253.419 87.07 253.013 87.098 252.537 87.126L252.243 86.874L252.327 85.32C252.075 85.516 251.767 85.74 251.403 85.992C251.067 86.216 250.661 86.44 250.185 86.664C249.737 86.86 249.205 87.028 248.589 87.168C247.973 87.336 247.287 87.42 246.531 87.42C245.131 87.42 243.843 87.154 242.667 86.622C241.519 86.09 240.525 85.362 239.685 84.438C238.873 83.486 238.229 82.352 237.753 81.036C237.305 79.692 237.081 78.222 237.081 76.626C237.081 75.478 237.193 74.442 237.417 73.518C237.641 72.566 237.921 71.726 238.257 70.998C238.621 70.242 239.013 69.584 239.433 69.024C239.881 68.464 240.329 67.988 240.777 67.596C241.533 66.896 242.331 66.364 243.171 66C244.039 65.608 244.879 65.314 245.691 65.118C246.531 64.922 247.315 64.81 248.043 64.782C248.799 64.726 249.457 64.698 250.017 64.698C250.465 64.698 250.843 64.698 251.151 64.698C251.459 64.698 251.893 64.726 252.453 64.782C252.453 63.494 252.439 62.36 252.411 61.38C252.411 60.372 252.383 59.476 252.327 58.692C252.299 57.88 252.257 57.152 252.201 56.508C252.173 55.864 252.131 55.234 252.075 54.618ZM252.285 81.834C252.313 80.462 252.327 79.3 252.327 78.348C252.355 77.396 252.369 76.458 252.369 75.534C252.369 74.61 252.355 73.588 252.327 72.468C252.327 71.348 252.327 69.92 252.327 68.184C251.963 68.156 251.627 68.128 251.319 68.1C251.039 68.072 250.675 68.058 250.227 68.058C249.891 68.058 249.485 68.072 249.009 68.1C248.533 68.128 248.015 68.212 247.455 68.352C246.895 68.464 246.321 68.66 245.733 68.94C245.173 69.192 244.641 69.556 244.137 70.032C243.913 70.256 243.661 70.55 243.381 70.914C243.101 71.278 242.835 71.726 242.583 72.258C242.331 72.79 242.121 73.42 241.953 74.148C241.785 74.876 241.701 75.702 241.701 76.626C241.701 77.83 241.841 78.866 242.121 79.734C242.429 80.574 242.807 81.26 243.255 81.792C243.647 82.24 244.193 82.674 244.893 83.094C245.593 83.486 246.489 83.682 247.581 83.682C248.225 83.682 248.799 83.612 249.303 83.472C249.835 83.332 250.297 83.164 250.689 82.968C251.081 82.744 251.403 82.534 251.655 82.338C251.935 82.142 252.145 81.974 252.285 81.834ZM279.796 81.666L280.132 81.876C280.076 82.296 280.034 82.66 280.006 82.968C279.978 83.248 279.95 83.514 279.922 83.766C279.894 84.018 279.866 84.284 279.838 84.564C279.838 84.844 279.824 85.194 279.796 85.614L279.544 85.908C279.376 85.992 279.096 86.132 278.704 86.328C278.34 86.496 277.878 86.678 277.318 86.874C276.758 87.042 276.1 87.182 275.344 87.294C274.588 87.434 273.748 87.504 272.824 87.504C271.088 87.504 269.534 87.266 268.162 86.79C266.79 86.286 265.614 85.558 264.634 84.606C263.654 83.654 262.898 82.478 262.366 81.078C261.862 79.678 261.61 78.068 261.61 76.248C261.61 74.288 261.876 72.58 262.408 71.124C262.968 69.668 263.71 68.464 264.634 67.512C265.586 66.532 266.678 65.804 267.91 65.328C269.142 64.852 270.444 64.614 271.816 64.614C273.496 64.614 274.896 64.908 276.016 65.496C277.164 66.084 278.06 66.756 278.704 67.512C279.292 68.24 279.74 69.024 280.048 69.864C280.384 70.676 280.622 71.502 280.762 72.342C280.902 73.154 280.972 73.924 280.972 74.652C280.972 75.352 280.972 75.926 280.972 76.374L280.678 76.626C279.586 76.626 278.62 76.626 277.78 76.626C276.968 76.598 276.212 76.584 275.512 76.584C274.812 76.584 274.14 76.584 273.496 76.584C272.88 76.584 272.208 76.584 271.48 76.584C270.78 76.584 269.996 76.598 269.128 76.626C268.26 76.626 267.252 76.626 266.104 76.626C266.132 77.354 266.216 78.194 266.356 79.146C266.524 80.098 266.972 81.008 267.7 81.876C268.12 82.38 268.582 82.786 269.086 83.094C269.59 83.402 270.08 83.64 270.556 83.808C271.06 83.948 271.522 84.046 271.942 84.102C272.39 84.13 272.782 84.144 273.118 84.144C274.378 84.144 275.596 83.934 276.772 83.514C277.556 83.206 278.186 82.884 278.662 82.548C279.138 82.184 279.516 81.89 279.796 81.666ZM276.646 73.392C276.618 73.084 276.576 72.72 276.52 72.3C276.492 71.852 276.394 71.39 276.226 70.914C275.806 69.738 275.176 68.898 274.336 68.394C273.496 67.89 272.6 67.638 271.648 67.638C271.06 67.638 270.458 67.75 269.842 67.974C269.226 68.17 268.652 68.506 268.12 68.982C267.616 69.43 267.182 70.032 266.818 70.788C266.454 71.516 266.216 72.398 266.104 73.434C267.364 73.434 268.442 73.434 269.338 73.434C270.234 73.434 271.06 73.434 271.816 73.434C272.572 73.434 273.314 73.434 274.042 73.434C274.798 73.406 275.666 73.392 276.646 73.392ZM304.323 86.706L304.071 86.958C303.567 86.958 303.147 86.972 302.811 87C302.503 87 302.209 87 301.929 87C301.649 87.028 301.355 87.042 301.047 87.042C300.739 87.07 300.347 87.098 299.871 87.126L299.577 86.832C299.577 86.608 299.577 86.384 299.577 86.16C299.605 85.908 299.619 85.67 299.619 85.446C299.647 84.41 299.661 83.388 299.661 82.38C299.661 81.344 299.661 80.308 299.661 79.272C299.661 77.648 299.661 76.374 299.661 75.45C299.661 74.526 299.647 73.812 299.619 73.308C299.591 72.776 299.563 72.398 299.535 72.174C299.507 71.95 299.465 71.726 299.409 71.502C299.213 70.718 298.933 70.116 298.569 69.696C298.205 69.248 297.827 68.926 297.435 68.73C297.043 68.506 296.679 68.38 296.343 68.352C296.007 68.324 295.769 68.31 295.629 68.31C294.985 68.31 294.383 68.394 293.823 68.562C293.291 68.73 292.787 68.94 292.311 69.192C291.835 69.416 291.401 69.668 291.009 69.948C290.645 70.2 290.323 70.438 290.043 70.662C290.043 72.482 290.043 74.12 290.043 75.576C290.043 77.004 290.057 78.348 290.085 79.608C290.113 80.84 290.141 82.03 290.169 83.178C290.225 84.298 290.295 85.474 290.379 86.706L290.127 86.958C289.623 86.958 289.203 86.972 288.867 87C288.531 87 288.209 87 287.901 87C287.621 87.028 287.313 87.042 286.977 87.042C286.641 87.07 286.221 87.098 285.717 87.126L285.507 86.832C285.535 85.656 285.563 84.466 285.591 83.262C285.619 82.058 285.633 80.672 285.633 79.104C285.633 77.424 285.619 75.926 285.591 74.61C285.563 73.294 285.521 72.118 285.465 71.082C285.409 70.046 285.353 69.122 285.297 68.31C285.241 67.47 285.185 66.7 285.129 66L285.381 65.706C285.913 65.622 286.347 65.552 286.683 65.496C287.019 65.412 287.341 65.342 287.649 65.286C287.957 65.23 288.265 65.174 288.573 65.118C288.909 65.034 289.329 64.95 289.833 64.866L290.127 65.16L290.085 67.344C290.365 67.148 290.729 66.91 291.177 66.63C291.625 66.322 292.157 66.028 292.773 65.748C293.417 65.468 294.131 65.23 294.915 65.034C295.699 64.838 296.553 64.74 297.477 64.74C298.009 64.74 298.583 64.796 299.199 64.908C299.815 65.02 300.403 65.23 300.963 65.538C302.111 66.21 302.923 67.12 303.399 68.268C303.679 68.912 303.847 69.598 303.903 70.326C303.959 71.054 304.001 72.076 304.029 73.392V78.306C304.057 79.538 304.085 80.602 304.113 81.498C304.141 82.366 304.155 83.122 304.155 83.766C304.183 84.41 304.211 84.97 304.239 85.446C304.267 85.894 304.295 86.314 304.323 86.706ZM319.276 83.43L319.57 83.682C319.542 84.018 319.514 84.312 319.486 84.564C319.486 84.788 319.472 84.998 319.444 85.194C319.444 85.39 319.43 85.6 319.402 85.824C319.402 86.02 319.402 86.272 319.402 86.58L319.192 86.832C318.744 86.944 318.296 87.028 317.848 87.084C317.428 87.168 316.826 87.21 316.042 87.21C315.79 87.21 315.454 87.196 315.034 87.168C314.614 87.14 314.166 87.07 313.69 86.958C313.214 86.818 312.738 86.608 312.262 86.328C311.814 86.02 311.422 85.586 311.086 85.026C310.89 84.718 310.736 84.41 310.624 84.102C310.54 83.766 310.47 83.346 310.414 82.842C310.386 82.338 310.358 81.694 310.33 80.91C310.33 80.098 310.33 79.076 310.33 77.844L310.414 68.604C310.05 68.604 309.756 68.604 309.532 68.604C309.308 68.604 309.098 68.618 308.902 68.646C308.734 68.646 308.524 68.66 308.272 68.688C308.048 68.688 307.754 68.688 307.39 68.688L307.222 68.436C307.25 68.1 307.264 67.82 307.264 67.596C307.292 67.372 307.306 67.162 307.306 66.966C307.306 66.742 307.306 66.518 307.306 66.294C307.306 66.042 307.306 65.748 307.306 65.412L307.558 65.16C308.034 65.16 308.454 65.174 308.818 65.202C309.182 65.202 309.714 65.188 310.414 65.16C310.386 64.712 310.372 64.264 310.372 63.816C310.372 63.368 310.372 62.92 310.372 62.472L310.246 60.078L310.456 59.784C310.932 59.672 311.324 59.574 311.632 59.49C311.968 59.406 312.276 59.322 312.556 59.238C312.864 59.154 313.186 59.07 313.522 58.986C313.858 58.874 314.264 58.748 314.74 58.608L315.034 58.818C315.006 59.518 314.978 60.106 314.95 60.582C314.922 61.03 314.894 61.478 314.866 61.926C314.866 62.346 314.866 62.808 314.866 63.312C314.866 63.816 314.866 64.446 314.866 65.202C315.314 65.202 315.692 65.202 316 65.202C316.308 65.174 316.616 65.16 316.924 65.16C317.26 65.16 317.624 65.16 318.016 65.16C318.436 65.132 318.94 65.104 319.528 65.076L319.738 65.328C319.71 65.608 319.682 65.86 319.654 66.084C319.654 66.28 319.64 66.49 319.612 66.714C319.612 66.91 319.612 67.134 319.612 67.386C319.612 67.638 319.612 67.946 319.612 68.31L319.402 68.562C318.87 68.562 318.436 68.562 318.1 68.562C317.764 68.534 317.442 68.52 317.134 68.52C316.854 68.492 316.532 68.478 316.168 68.478C315.832 68.478 315.384 68.478 314.824 68.478L314.74 76.29C314.74 76.43 314.74 76.668 314.74 77.004C314.768 77.312 314.782 77.648 314.782 78.012C314.782 78.376 314.782 78.726 314.782 79.062C314.782 79.398 314.782 79.636 314.782 79.776C314.782 80.532 314.81 81.176 314.866 81.708C314.922 82.212 315.034 82.632 315.202 82.968C315.398 83.276 315.65 83.5 315.958 83.64C316.294 83.752 316.728 83.808 317.26 83.808C317.708 83.808 318.1 83.766 318.436 83.682C318.772 83.598 319.052 83.514 319.276 83.43ZM343.277 87.084L335.885 87.126L335.675 86.832C335.703 86.328 335.717 85.824 335.717 85.32C335.745 84.788 335.759 84.228 335.759 83.64C335.787 83.024 335.801 82.352 335.801 81.624C335.801 80.868 335.801 80.014 335.801 79.062C335.801 78.754 335.801 78.278 335.801 77.634C335.801 76.99 335.801 76.262 335.801 75.45C335.801 74.638 335.801 73.77 335.801 72.846C335.829 71.922 335.843 71.054 335.843 70.242C335.843 69.402 335.843 68.66 335.843 68.016C335.843 67.344 335.843 66.84 335.843 66.504C335.843 65.412 335.829 64.432 335.801 63.564C335.801 62.696 335.787 61.926 335.759 61.254C335.731 60.554 335.689 59.924 335.633 59.364C335.605 58.776 335.577 58.202 335.549 57.642L335.759 57.348L341.387 57.264C341.807 57.236 342.311 57.222 342.899 57.222C343.515 57.222 344.103 57.222 344.663 57.222C345.923 57.222 347.169 57.292 348.401 57.432C349.661 57.544 350.823 57.908 351.887 58.524C352.279 58.748 352.671 59.028 353.063 59.364C353.455 59.7 353.805 60.106 354.113 60.582C354.449 61.03 354.715 61.562 354.911 62.178C355.107 62.794 355.205 63.494 355.205 64.278C355.205 64.642 355.149 65.16 355.037 65.832C354.953 66.476 354.701 67.148 354.281 67.848C353.861 68.548 353.231 69.22 352.391 69.864C351.551 70.508 350.403 71.012 348.947 71.376C349.423 71.404 349.997 71.46 350.669 71.544C351.341 71.6 352.055 71.796 352.811 72.132C353.707 72.524 354.421 73.014 354.953 73.602C355.485 74.162 355.877 74.736 356.129 75.324C356.409 75.912 356.591 76.486 356.675 77.046C356.759 77.606 356.801 78.082 356.801 78.474C356.801 80.406 356.255 82.044 355.163 83.388C354.099 84.704 352.727 85.67 351.047 86.286C349.927 86.678 348.765 86.916 347.561 87C346.357 87.056 344.929 87.084 343.277 87.084ZM341.429 73.518L340.421 73.56C340.421 74.764 340.421 75.758 340.421 76.542C340.421 77.298 340.421 78.012 340.421 78.684C340.449 79.356 340.463 80.07 340.463 80.826C340.491 81.554 340.533 82.492 340.589 83.64H341.387C342.983 83.64 344.397 83.626 345.629 83.598C346.889 83.542 347.925 83.346 348.737 83.01C349.745 82.618 350.515 82.016 351.047 81.204C351.607 80.392 351.887 79.454 351.887 78.39C351.887 77.158 351.593 76.206 351.005 75.534C350.417 74.862 349.717 74.372 348.905 74.064C348.121 73.756 347.309 73.574 346.469 73.518C345.629 73.462 344.957 73.434 344.453 73.434C344.369 73.434 344.257 73.434 344.117 73.434C344.005 73.434 343.837 73.434 343.613 73.434C343.417 73.434 343.137 73.448 342.773 73.476C342.437 73.476 341.989 73.49 341.429 73.518ZM340.421 60.708V70.032C342.325 70.06 343.977 70.018 345.377 69.906C346.805 69.766 347.967 69.346 348.863 68.646C349.395 68.198 349.815 67.652 350.123 67.008C350.431 66.364 350.585 65.692 350.585 64.992C350.585 64.432 350.473 63.9 350.249 63.396C350.053 62.864 349.773 62.402 349.409 62.01C349.045 61.646 348.625 61.366 348.149 61.17C347.673 60.974 347.183 60.834 346.679 60.75C346.203 60.666 345.755 60.624 345.335 60.624C344.943 60.596 344.621 60.582 344.369 60.582C343.025 60.582 341.709 60.624 340.421 60.708ZM371.711 69.318L371.417 69.528C371.193 69.444 370.941 69.36 370.661 69.276C370.409 69.192 370.101 69.15 369.737 69.15C369.345 69.15 368.995 69.206 368.687 69.318C368.407 69.43 368.169 69.556 367.973 69.696C367.553 70.004 367.217 70.368 366.965 70.788C366.741 71.18 366.573 71.67 366.461 72.258C366.349 72.818 366.279 73.504 366.251 74.316C366.251 75.1 366.251 76.038 366.251 77.13C366.251 78.306 366.251 79.356 366.251 80.28C366.279 81.204 366.307 82.044 366.335 82.8C366.363 83.556 366.391 84.256 366.419 84.9C366.447 85.516 366.489 86.118 366.545 86.706L366.335 87C365.831 87 365.411 87 365.075 87C364.739 87 364.417 87 364.109 87C363.801 87.028 363.479 87.042 363.143 87.042C362.807 87.07 362.387 87.098 361.883 87.126L361.673 86.874C361.701 85.278 361.715 83.71 361.715 82.17C361.743 80.602 361.757 78.838 361.757 76.878C361.757 75.198 361.743 73.798 361.715 72.678C361.715 71.558 361.701 70.606 361.673 69.822C361.645 69.038 361.603 68.366 361.547 67.806C361.491 67.218 361.435 66.616 361.379 66L361.631 65.706C362.443 65.566 363.143 65.44 363.731 65.328C364.347 65.188 365.103 65.034 365.999 64.866L366.251 65.118L366.041 68.688C366.153 68.352 366.321 67.96 366.545 67.512C366.769 67.036 367.063 66.588 367.427 66.168C367.819 65.748 368.309 65.398 368.897 65.118C369.513 64.81 370.269 64.656 371.165 64.656C371.445 64.656 371.669 64.67 371.837 64.698C372.005 64.698 372.173 64.726 372.341 64.782L372.509 65.034C372.397 65.538 372.299 65.958 372.215 66.294C372.159 66.63 372.103 66.952 372.047 67.26C371.991 67.54 371.935 67.848 371.879 68.184C371.851 68.492 371.795 68.87 371.711 69.318ZM391.662 74.19V78.348C391.662 79.664 391.662 80.714 391.662 81.498C391.662 82.254 391.676 82.912 391.704 83.472C391.732 84.032 391.76 84.55 391.788 85.026C391.816 85.502 391.858 86.076 391.914 86.748L391.704 86.958C391.2 86.958 390.78 86.972 390.444 87C390.136 87 389.842 87 389.562 87C389.282 87.028 388.974 87.042 388.638 87.042C388.33 87.07 387.938 87.098 387.462 87.126L387.294 86.874L387.336 85.362C387.14 85.53 386.874 85.74 386.538 85.992C386.202 86.216 385.782 86.44 385.278 86.664C384.802 86.888 384.242 87.084 383.598 87.252C382.954 87.42 382.24 87.504 381.456 87.504C380.392 87.504 379.426 87.336 378.558 87C377.69 86.664 376.934 86.188 376.29 85.572C375.674 84.956 375.184 84.214 374.82 83.346C374.484 82.478 374.316 81.526 374.316 80.49C374.316 79.09 374.596 77.914 375.156 76.962C375.744 75.982 376.556 75.184 377.592 74.568C378.656 73.924 379.944 73.42 381.456 73.056C382.968 72.692 384.676 72.398 386.58 72.174L387.294 72.09C387.294 71.53 387.28 71.04 387.252 70.62C387.224 70.2 387.112 69.822 386.916 69.486C386.692 69.094 386.314 68.744 385.782 68.436C385.278 68.1 384.494 67.932 383.43 67.932C382.058 67.932 380.868 68.1 379.86 68.436C378.88 68.772 377.942 69.136 377.046 69.528L376.71 69.318C376.738 68.842 376.752 68.464 376.752 68.184C376.78 67.876 376.794 67.624 376.794 67.428C376.794 67.204 376.794 67.008 376.794 66.84C376.822 66.672 376.836 66.476 376.836 66.252L377.088 66C378.264 65.58 379.454 65.244 380.658 64.992C381.862 64.74 383.094 64.614 384.354 64.614C385.138 64.614 385.894 64.684 386.622 64.824C387.378 64.964 388.064 65.202 388.68 65.538C389.324 65.874 389.87 66.322 390.318 66.882C390.794 67.442 391.144 68.128 391.368 68.94C391.508 69.528 391.592 70.326 391.62 71.334C391.648 72.342 391.662 73.294 391.662 74.19ZM387.336 75.198L386.958 75.282C385.894 75.45 384.872 75.632 383.892 75.828C382.912 75.996 382.044 76.262 381.288 76.626C380.532 76.962 379.916 77.424 379.44 78.012C378.992 78.572 378.768 79.314 378.768 80.238C378.768 80.294 378.782 80.532 378.81 80.952C378.866 81.344 379.02 81.778 379.272 82.254C379.524 82.702 379.916 83.122 380.448 83.514C380.98 83.878 381.75 84.06 382.758 84.06C383.402 84.06 383.976 83.99 384.48 83.85C385.012 83.682 385.46 83.5 385.824 83.304C386.216 83.08 386.538 82.87 386.79 82.674C387.042 82.478 387.224 82.324 387.336 82.212V75.198ZM416.378 86.706L416.126 86.958C415.622 86.958 415.202 86.972 414.866 87C414.558 87 414.264 87 413.984 87C413.704 87.028 413.41 87.042 413.102 87.042C412.794 87.07 412.402 87.098 411.926 87.126L411.632 86.832C411.632 86.608 411.632 86.384 411.632 86.16C411.66 85.908 411.674 85.67 411.674 85.446C411.702 84.41 411.716 83.388 411.716 82.38C411.716 81.344 411.716 80.308 411.716 79.272C411.716 77.648 411.716 76.374 411.716 75.45C411.716 74.526 411.702 73.812 411.674 73.308C411.646 72.776 411.618 72.398 411.59 72.174C411.562 71.95 411.52 71.726 411.464 71.502C411.268 70.718 410.988 70.116 410.624 69.696C410.26 69.248 409.882 68.926 409.49 68.73C409.098 68.506 408.734 68.38 408.398 68.352C408.062 68.324 407.824 68.31 407.684 68.31C407.04 68.31 406.438 68.394 405.878 68.562C405.346 68.73 404.842 68.94 404.366 69.192C403.89 69.416 403.456 69.668 403.064 69.948C402.7 70.2 402.378 70.438 402.098 70.662C402.098 72.482 402.098 74.12 402.098 75.576C402.098 77.004 402.112 78.348 402.14 79.608C402.168 80.84 402.196 82.03 402.224 83.178C402.28 84.298 402.35 85.474 402.434 86.706L402.182 86.958C401.678 86.958 401.258 86.972 400.922 87C400.586 87 400.264 87 399.956 87C399.676 87.028 399.368 87.042 399.032 87.042C398.696 87.07 398.276 87.098 397.772 87.126L397.562 86.832C397.59 85.656 397.618 84.466 397.646 83.262C397.674 82.058 397.688 80.672 397.688 79.104C397.688 77.424 397.674 75.926 397.646 74.61C397.618 73.294 397.576 72.118 397.52 71.082C397.464 70.046 397.408 69.122 397.352 68.31C397.296 67.47 397.24 66.7 397.184 66L397.436 65.706C397.968 65.622 398.402 65.552 398.738 65.496C399.074 65.412 399.396 65.342 399.704 65.286C400.012 65.23 400.32 65.174 400.628 65.118C400.964 65.034 401.384 64.95 401.888 64.866L402.182 65.16L402.14 67.344C402.42 67.148 402.784 66.91 403.232 66.63C403.68 66.322 404.212 66.028 404.828 65.748C405.472 65.468 406.186 65.23 406.97 65.034C407.754 64.838 408.608 64.74 409.532 64.74C410.064 64.74 410.638 64.796 411.254 64.908C411.87 65.02 412.458 65.23 413.018 65.538C414.166 66.21 414.978 67.12 415.454 68.268C415.734 68.912 415.902 69.598 415.958 70.326C416.014 71.054 416.056 72.076 416.084 73.392V78.306C416.112 79.538 416.14 80.602 416.168 81.498C416.196 82.366 416.21 83.122 416.21 83.766C416.238 84.41 416.266 84.97 416.294 85.446C416.322 85.894 416.35 86.314 416.378 86.706ZM437.462 81.834L437.798 82.002C437.742 82.45 437.7 82.814 437.672 83.094C437.644 83.374 437.616 83.64 437.588 83.892C437.588 84.144 437.574 84.41 437.546 84.69C437.518 84.97 437.49 85.32 437.462 85.74L437.168 86.034C436.552 86.342 435.796 86.664 434.9 87C434.032 87.308 432.856 87.462 431.372 87.462C429.776 87.462 428.334 87.196 427.046 86.664C425.758 86.104 424.652 85.334 423.728 84.354C422.832 83.374 422.132 82.212 421.628 80.868C421.152 79.496 420.914 77.984 420.914 76.332C420.914 74.652 421.152 73.098 421.628 71.67C422.132 70.242 422.832 69.01 423.728 67.974C424.652 66.91 425.758 66.084 427.046 65.496C428.362 64.908 429.832 64.614 431.456 64.614C432.828 64.614 433.99 64.782 434.942 65.118C435.894 65.454 436.65 65.734 437.21 65.958L437.378 66.252C437.294 67.008 437.224 67.596 437.168 68.016C437.14 68.436 437.112 68.954 437.084 69.57L436.748 69.738C436.048 69.234 435.306 68.842 434.522 68.562C433.738 68.254 432.926 68.1 432.086 68.1C431.218 68.1 430.378 68.268 429.566 68.604C428.782 68.94 428.082 69.444 427.466 70.116C426.878 70.788 426.402 71.628 426.038 72.636C425.702 73.644 425.534 74.82 425.534 76.164C425.534 77.592 425.716 78.81 426.08 79.818C426.444 80.798 426.934 81.596 427.55 82.212C428.166 82.8 428.866 83.234 429.65 83.514C430.434 83.794 431.232 83.934 432.044 83.934C432.744 83.934 433.388 83.864 433.976 83.724C434.564 83.556 435.082 83.36 435.53 83.136C435.978 82.912 436.356 82.688 436.664 82.464C437 82.212 437.266 82.002 437.462 81.834ZM460.101 86.706L459.849 86.958C459.345 86.958 458.925 86.972 458.589 87C458.281 87 457.987 87 457.707 87C457.427 87.028 457.133 87.042 456.825 87.042C456.517 87.07 456.125 87.098 455.649 87.126L455.355 86.832L455.397 85.446C455.425 84.354 455.439 83.262 455.439 82.17C455.439 81.05 455.439 79.944 455.439 78.852L455.397 74.358C455.397 73.882 455.383 73.406 455.355 72.93C455.355 72.454 455.299 71.978 455.187 71.502C454.963 70.522 454.543 69.752 453.927 69.192C453.311 68.604 452.471 68.31 451.407 68.31C450.203 68.31 449.139 68.576 448.215 69.108C447.291 69.64 446.479 70.158 445.779 70.662C445.779 72.482 445.779 74.12 445.779 75.576C445.779 77.004 445.793 78.348 445.821 79.608C445.849 80.84 445.877 82.03 445.905 83.178C445.961 84.298 446.017 85.474 446.073 86.706L445.863 86.958C445.387 86.958 444.981 86.972 444.645 87C444.309 87 443.973 87 443.637 87C443.329 87.028 442.993 87.042 442.629 87.042C442.293 87.07 441.873 87.098 441.369 87.126L441.159 86.832C441.187 86.076 441.201 85.264 441.201 84.396C441.229 83.5 441.257 82.478 441.285 81.33C441.313 80.154 441.327 78.81 441.327 77.298C441.355 75.786 441.369 74.022 441.369 72.006C441.369 70.242 441.355 68.478 441.327 66.714C441.327 64.95 441.313 63.186 441.285 61.422C441.257 60.498 441.229 59.714 441.201 59.07C441.173 58.426 441.145 57.852 441.117 57.348C441.089 56.844 441.061 56.382 441.033 55.962C441.005 55.542 440.977 55.094 440.949 54.618L441.159 54.366C441.663 54.282 442.097 54.212 442.461 54.156C442.825 54.1 443.161 54.044 443.469 53.988C443.805 53.904 444.141 53.834 444.477 53.778C444.841 53.694 445.261 53.596 445.737 53.484L445.989 53.778C445.849 56.046 445.765 58.314 445.737 60.582C445.737 62.822 445.737 65.076 445.737 67.344C446.073 67.12 446.479 66.868 446.955 66.588C447.459 66.28 448.033 65.986 448.677 65.706C449.321 65.426 450.021 65.202 450.777 65.034C451.533 64.838 452.359 64.74 453.255 64.74C453.731 64.74 454.207 64.782 454.683 64.866C455.159 64.922 455.621 65.048 456.069 65.244C457.021 65.636 457.777 66.182 458.337 66.882C458.897 67.582 459.289 68.366 459.513 69.234C459.569 69.458 459.611 69.668 459.639 69.864C459.667 70.032 459.681 70.27 459.681 70.578C459.709 70.858 459.723 71.222 459.723 71.67C459.751 72.118 459.779 72.692 459.807 73.392V78.306L459.849 80.28C459.877 81.176 459.891 81.904 459.891 82.464C459.919 83.024 459.933 83.528 459.933 83.976C459.961 84.396 459.975 84.816 459.975 85.236C460.003 85.628 460.045 86.118 460.101 86.706Z" fill="#00629B"/>
<path d="M68.1772 26.3266H56.7619L56.2928 26.7957V36.1781C57.9347 37.2884 59.5891 37.9796 59.7518 40.2313C60.1865 46.3236 52.1051 46.7271 51.1137 41.6668C50.4163 38.1109 53.7908 36.8036 53.7908 36.4909V23.8246H65.2061L65.6752 23.3555V4.74709H46.5977L46.6414 2.75802L47.3795 2.24512L68.1772 2.40149V26.3266Z" fill="#002D7C"/>
<path d="M56.6062 50.4084V86.9998H39.4051V78.3961C39.1205 77.0607 35.5865 76.4227 36.409 72.5915C38.1791 64.3413 51.5397 72.8918 41.9071 78.0834V84.0255L42.3762 84.4947H54.1042V50.8744L56.6062 50.4053V50.4084Z" fill="#002D7C"/>
<path d="M23.1406 51.0346V84.1857H36.1196V86.6877H20.6386V51.5037C16.3133 49.0862 16.2914 43.5506 21.4924 42.3496C26.7559 42.4403 28.2602 49.3395 23.1406 51.0346Z" fill="#002D7C"/>
<path d="M30.3334 2.55859V5.06057H11.2559V24.1381H22.6711L23.1403 24.6072V39.4627H20.6383V26.9528C20.3349 27.0498 19.9627 26.6401 19.8564 26.6401H8.75391V2.55859H30.3334Z" fill="#002D7C"/>
<path d="M31.3851 31.5315C22.328 22.3273 35.2757 7.85031 45.3493 16.16C56.5706 25.4173 41.3711 41.6801 31.3851 31.5315ZM33.2616 18.6213C26.2999 25.6081 36.0732 36.451 43.7824 30.2367C52.2297 23.4282 40.877 10.9778 33.2616 18.6213Z" fill="#002D7C"/>
<path d="M34.3143 0.131488C40.6724 -1.17892 41.5856 7.71247 36.6724 8.7414C30.2892 10.0737 29.2665 1.17293 34.3143 0.131488Z" fill="#002D7C"/>
</g>
<defs>
<clipPath id="clip0_4317_19295">
<rect width="484" height="87" fill="white"/>
</clipPath>
</defs>
</svg>
