<svg width="84" height="106" viewBox="0 0 84 106" fill="none" xmlns="http://www.w3.org/2000/svg">
<path d="M65.2506 99.6995C65.2506 101.142 64.6777 102.525 63.658 103.544C62.6383 104.564 61.2552 105.137 59.8131 105.137H23.5631C22.121 105.137 20.7379 104.564 19.7182 103.544C18.6985 102.525 18.1256 101.142 18.1256 99.6995C18.1256 98.2574 18.6985 96.8744 19.7182 95.8546C20.7379 94.8349 22.121 94.262 23.5631 94.262H59.8131C61.2552 94.262 62.6383 94.8349 63.658 95.8546C64.6777 96.8744 65.2506 98.2574 65.2506 99.6995ZM83.3756 41.6995C83.3921 48.017 81.965 54.2547 79.203 59.9364C76.4411 65.6181 72.4174 70.5937 67.4392 74.4831C66.765 74.9967 66.2173 75.6578 65.8379 76.4157C65.4586 77.1736 65.2577 78.0083 65.2506 78.8558V79.762C65.2506 82.1656 64.2958 84.4706 62.5963 86.1702C60.8967 87.8697 58.5916 88.8245 56.1881 88.8245H27.1881C24.7846 88.8245 22.4795 87.8697 20.78 86.1702C19.0804 84.4706 18.1256 82.1656 18.1256 79.762V78.8558C18.1246 78.0223 17.9321 77.2002 17.5628 76.4531C17.1935 75.7059 16.6574 75.0536 15.9959 74.5466C11.0313 70.6796 7.01135 65.734 4.24018 60.0841C1.46901 54.4342 0.0192521 48.228 0.000611635 41.9352C-0.121732 19.3559 18.1256 0.55578 40.6867 0.0120304C46.2449 -0.121525 51.7736 0.858081 56.9475 2.8932C62.1214 4.92831 66.836 7.97782 70.8137 11.8622C74.7915 15.7467 77.952 20.3875 80.1093 25.5117C82.2667 30.6358 83.3772 36.1398 83.3756 41.6995ZM72.5006 41.6995C72.5018 37.5895 71.6807 33.5207 70.0857 29.7328C68.4907 25.9449 66.154 22.5143 63.2131 19.6431C60.2723 16.7719 56.7867 14.5181 52.9616 13.0144C49.1366 11.5106 45.0493 10.7873 40.9405 10.887C24.27 11.2858 10.785 25.1831 10.8756 41.8717C10.8911 46.5227 11.9639 51.1094 14.0128 55.2848C16.0616 59.4603 19.033 63.1152 22.7022 65.9734C24.5507 67.4001 26.07 69.2083 27.1569 71.2749C28.2438 73.3415 28.8726 75.618 29.0006 77.9495H54.4209C54.5514 75.6135 55.1812 73.3325 56.2676 71.2604C57.3541 69.1883 58.8721 67.3731 60.7194 65.9372C64.3991 63.061 67.3732 59.3823 69.415 55.1818C71.4567 50.9813 72.5121 46.3699 72.5006 41.6995ZM63.4064 39.2889C62.9253 35.2203 61.3165 31.3671 58.7615 28.1644C56.2066 24.9617 52.8072 22.537 48.9472 21.1639C47.598 20.7231 46.1299 20.8273 44.8565 21.4543C43.5831 22.0813 42.6053 23.1813 42.1321 24.5195C41.6588 25.8576 41.7276 27.3278 42.3236 28.616C42.9197 29.9041 43.9958 30.9082 45.3222 31.4136C47.2619 32.0935 48.9728 33.3026 50.2612 34.9041C51.5496 36.5057 52.3642 38.4357 52.613 40.4761C52.7716 41.9098 53.4933 43.2218 54.6192 44.1234C55.1767 44.5698 55.8167 44.9021 56.5026 45.1012C57.1885 45.3003 57.907 45.3623 58.6169 45.2838C59.3268 45.2052 60.0142 44.9876 60.64 44.6434C61.2658 44.2991 61.8177 43.835 62.2641 43.2775C62.7106 42.72 63.0428 42.08 63.2419 41.3941C63.441 40.7082 63.5031 39.9897 63.4245 39.2798L63.4064 39.2889Z" fill="black"/>
</svg>
