<svg width="135" height="135" viewBox="0 0 135 135" fill="none" xmlns="http://www.w3.org/2000/svg">
<path d="M37.8 51.2683L18.3199 67.4999L37.8 83.7315C38.446 84.261 38.9809 84.9131 39.3737 85.6503C39.7664 86.3874 40.0094 87.195 40.0885 88.0266C40.1676 88.8581 40.0814 89.6971 39.8347 90.4951C39.588 91.2931 39.1857 92.0344 38.6511 92.6761C38.1165 93.3179 37.4602 93.8475 36.7199 94.2344C35.9796 94.6213 35.1701 94.8578 34.3379 94.9303C33.5058 95.0027 32.6676 94.9098 31.8715 94.6567C31.0755 94.4036 30.3375 93.9955 29.7 93.4558L4.38749 72.362C3.67458 71.7681 3.10099 71.0247 2.70736 70.1845C2.31372 69.3443 2.10968 68.4278 2.10968 67.4999C2.10968 66.572 2.31372 65.6555 2.70736 64.8153C3.10099 63.9751 3.67458 63.2317 4.38749 62.6378L29.7 41.544C30.9913 40.4858 32.6485 39.9807 34.3106 40.1389C35.9726 40.297 37.5048 41.1056 38.5734 42.3884C39.6419 43.6712 40.1602 45.3243 40.0154 46.9876C39.8705 48.6509 39.0742 50.1895 37.8 51.2683ZM130.612 62.6378L105.3 41.544C104.662 41.0043 103.924 40.5962 103.128 40.3431C102.332 40.09 101.494 39.997 100.662 40.0695C99.8299 40.142 99.0204 40.3785 98.2801 40.7654C97.5398 41.1522 96.8835 41.6819 96.3489 42.3236C95.8143 42.9654 95.412 43.7067 95.1653 44.5047C94.9186 45.3027 94.8323 46.1417 94.9115 46.9732C94.9906 47.8047 95.2335 48.6124 95.6263 49.3495C96.0191 50.0867 96.5539 50.7388 97.2 51.2683L116.68 67.4999L97.2 83.7315C96.5539 84.261 96.0191 84.9131 95.6263 85.6503C95.2335 86.3874 94.9906 87.195 94.9115 88.0266C94.8323 88.8581 94.9186 89.6971 95.1653 90.4951C95.412 91.2931 95.8143 92.0344 96.3489 92.6761C96.8835 93.3179 97.5398 93.8475 98.2801 94.2344C99.0204 94.6213 99.8299 94.8578 100.662 94.9303C101.494 95.0027 102.332 94.9098 103.128 94.6567C103.924 94.4036 104.662 93.9955 105.3 93.4558L130.612 72.362C131.325 71.7681 131.899 71.0247 132.293 70.1845C132.686 69.3443 132.89 68.4278 132.89 67.4999C132.89 66.572 132.686 65.6555 132.293 64.8153C131.899 63.9751 131.325 63.2317 130.612 62.6378ZM86.5371 15.1452C85.756 14.8611 84.9265 14.7337 84.0961 14.7703C83.2657 14.8068 82.4506 15.0066 81.6975 15.3582C80.9443 15.7098 80.2678 16.2064 79.7066 16.8195C79.1453 17.4326 78.7104 18.1503 78.4266 18.9315L44.6766 111.744C44.1045 113.321 44.1819 115.061 44.8919 116.58C45.6019 118.1 46.8863 119.276 48.4629 119.849C49.155 120.105 49.8872 120.235 50.625 120.234C51.9242 120.235 53.1921 119.835 54.2563 119.089C55.3205 118.344 56.1295 117.289 56.5734 116.068L90.3234 23.2558C90.6075 22.4746 90.7349 21.6451 90.6984 20.8148C90.6618 19.9844 90.462 19.1693 90.1104 18.4161C89.7588 17.663 89.2623 16.9864 88.6491 16.4252C88.036 15.864 87.3184 15.429 86.5371 15.1452Z" fill="black"/>
</svg>
