<svg width="111" height="102" viewBox="0 0 111 102" fill="none" xmlns="http://www.w3.org/2000/svg">
<path d="M90 30H5.625C4.13316 30 2.70242 30.5926 1.64752 31.6475C0.592632 32.7024 0 34.1332 0 35.625V58.125C0.0176326 69.948 4.49168 81.3298 12.5297 90H5.625C4.13316 90 2.70242 90.5926 1.64752 91.6475C0.592632 92.7024 0 94.1332 0 95.625C0 97.1168 0.592632 98.5476 1.64752 99.6025C2.70242 100.657 4.13316 101.25 5.625 101.25H88.125C89.6168 101.25 91.0476 100.657 92.1025 99.6025C93.1574 98.5476 93.75 97.1168 93.75 95.625C93.75 94.1332 93.1574 92.7024 92.1025 91.6475C91.0476 90.5926 89.6168 90 88.125 90H81.2203C85.2622 85.6351 88.4429 80.5458 90.5953 75C95.9616 74.845 101.056 72.6038 104.796 68.7526C108.536 64.9013 110.627 59.7435 110.625 54.375V50.625C110.619 45.1568 108.444 39.9144 104.577 36.0478C100.711 32.1812 95.4682 30.0062 90 30ZM82.5 58.125C82.4881 64.7392 80.6416 71.2205 77.1658 76.8478C73.6901 82.4752 68.7214 87.0281 62.8125 90H30.9375C25.0286 87.0281 20.0599 82.4752 16.5841 76.8478C13.1084 71.2205 11.2619 64.7392 11.25 58.125V41.25H82.5V58.125ZM99.375 54.375C99.3733 56.247 98.8111 58.0756 97.761 59.6253C96.7109 61.175 95.2208 62.3749 93.4828 63.0703C93.6615 61.4279 93.7507 59.7771 93.75 58.125V42.0375C95.4211 42.7668 96.8433 43.9677 97.8424 45.4929C98.8414 47.0182 99.3741 48.8017 99.375 50.625V54.375ZM22.5 16.875V5.625C22.5 4.13316 23.0926 2.70242 24.1475 1.64752C25.2024 0.592632 26.6332 0 28.125 0C29.6168 0 31.0476 0.592632 32.1025 1.64752C33.1574 2.70242 33.75 4.13316 33.75 5.625V16.875C33.75 18.3668 33.1574 19.7976 32.1025 20.8525C31.0476 21.9074 29.6168 22.5 28.125 22.5C26.6332 22.5 25.2024 21.9074 24.1475 20.8525C23.0926 19.7976 22.5 18.3668 22.5 16.875ZM41.25 16.875V5.625C41.25 4.13316 41.8426 2.70242 42.8975 1.64752C43.9524 0.592632 45.3832 0 46.875 0C48.3668 0 49.7976 0.592632 50.8525 1.64752C51.9074 2.70242 52.5 4.13316 52.5 5.625V16.875C52.5 18.3668 51.9074 19.7976 50.8525 20.8525C49.7976 21.9074 48.3668 22.5 46.875 22.5C45.3832 22.5 43.9524 21.9074 42.8975 20.8525C41.8426 19.7976 41.25 18.3668 41.25 16.875ZM60 16.875V5.625C60 4.13316 60.5926 2.70242 61.6475 1.64752C62.7024 0.592632 64.1332 0 65.625 0C67.1168 0 68.5476 0.592632 69.6025 1.64752C70.6574 2.70242 71.25 4.13316 71.25 5.625V16.875C71.25 18.3668 70.6574 19.7976 69.6025 20.8525C68.5476 21.9074 67.1168 22.5 65.625 22.5C64.1332 22.5 62.7024 21.9074 61.6475 20.8525C60.5926 19.7976 60 18.3668 60 16.875Z" fill="black"/>
</svg>
