<svg width="119" height="106" viewBox="0 0 119 106" fill="none" xmlns="http://www.w3.org/2000/svg">
<path d="M82.2656 46.4062H107.578C110.375 46.4062 113.058 45.2951 115.036 43.3171C117.014 41.3392 118.125 38.6566 118.125 35.8594V10.5469C118.125 7.74967 117.014 5.06703 115.036 3.08911C113.058 1.11119 110.375 0 107.578 0H82.2656C79.4684 0 76.7858 1.11119 74.8079 3.08911C72.8299 5.06703 71.7188 7.74967 71.7188 10.5469V16.875H65.3906C61.4745 16.875 57.7188 18.4307 54.9498 21.1998C52.1807 23.9688 50.625 27.7245 50.625 31.6406V46.4062H37.9688V44.2969C37.9688 41.4997 36.8576 38.817 34.8796 36.8391C32.9017 34.8612 30.2191 33.75 27.4219 33.75H10.5469C9.16184 33.75 7.79037 34.0228 6.51076 34.5528C5.23115 35.0829 4.06848 35.8597 3.08911 36.8391C1.11119 38.817 0 41.4997 0 44.2969V61.1719C0 62.5569 0.272803 63.9284 0.802833 65.208C1.33286 66.4876 2.10974 67.6503 3.08911 68.6296C4.06848 69.609 5.23115 70.3859 6.51076 70.9159C7.79037 71.4459 9.16184 71.7188 10.5469 71.7188H27.4219C28.8069 71.7188 30.1784 71.4459 31.458 70.9159C32.7376 70.3859 33.9003 69.609 34.8796 68.6296C35.859 67.6503 36.6359 66.4876 37.1659 65.208C37.6959 63.9284 37.9688 62.5569 37.9688 61.1719V59.0625H50.625V73.8281C50.625 77.7442 52.1807 81.4999 54.9498 84.269C57.7188 87.0381 61.4745 88.5938 65.3906 88.5938H71.7188V94.9219C71.7188 97.7191 72.8299 100.402 74.8079 102.38C76.7858 104.358 79.4684 105.469 82.2656 105.469H107.578C110.375 105.469 113.058 104.358 115.036 102.38C117.014 100.402 118.125 97.7191 118.125 94.9219V69.6094C118.125 66.8122 117.014 64.1295 115.036 62.1516C113.058 60.1737 110.375 59.0625 107.578 59.0625H82.2656C79.4684 59.0625 76.7858 60.1737 74.8079 62.1516C72.8299 64.1295 71.7188 66.8122 71.7188 69.6094V75.9375H65.3906C64.8312 75.9375 64.2947 75.7153 63.8991 75.3197C63.5035 74.9241 63.2812 74.3876 63.2812 73.8281V31.6406C63.2812 31.0812 63.5035 30.5447 63.8991 30.1491C64.2947 29.7535 64.8312 29.5312 65.3906 29.5312H71.7188V35.8594C71.7188 38.6566 72.8299 41.3392 74.8079 43.3171C76.7858 45.2951 79.4684 46.4062 82.2656 46.4062ZM25.3125 59.0625H12.6562V46.4062H25.3125V59.0625ZM84.375 71.7188H105.469V92.8125H84.375V71.7188ZM84.375 12.6562H105.469V33.75H84.375V12.6562Z" fill="black"/>
</svg>
