<svg width="135" height="135" viewBox="0 0 135 135" fill="none" xmlns="http://www.w3.org/2000/svg">
<path d="M33.8133 77.9413C33.8276 78.2271 33.7836 78.5127 33.684 78.7809C33.5844 79.0492 33.4313 79.2943 33.234 79.5015C33.0367 79.7087 32.7993 79.8736 32.5363 79.9861C32.2732 80.0986 31.99 80.1565 31.7039 80.1561H8.4375C7.4853 80.1576 6.56062 79.8369 5.81382 79.2461C5.06702 78.6554 4.54203 77.8294 4.32422 76.9024C4.18859 76.268 4.19484 75.6114 4.34253 74.9796C4.49021 74.3478 4.77568 73.7565 5.17851 73.2479C8.90055 68.3119 13.839 64.4254 19.5117 61.9681C17.0212 59.6973 15.1111 56.8629 13.9413 53.7021C12.7715 50.5414 12.376 47.1463 12.7882 43.8013C13.2003 40.4563 14.4079 37.2588 16.3099 34.4765C18.2119 31.6942 20.7529 29.4081 23.7201 27.8098C26.6873 26.2115 29.9942 25.3474 33.364 25.2899C36.7338 25.2325 40.0683 25.9833 43.0883 27.4796C46.1082 28.9758 48.7257 31.1739 50.7214 33.8898C52.7172 36.6056 54.0331 39.7601 54.559 43.0891C54.6269 43.5368 54.5467 43.9944 54.3306 44.3923C54.1145 44.7902 53.7744 45.1066 53.3619 45.2934C47.5105 47.9986 42.5549 52.321 39.0799 57.7508C35.6049 63.1805 33.7555 69.4909 33.75 75.9374C33.75 76.6124 33.75 77.2768 33.8133 77.9413ZM129.79 73.2427C126.076 68.3123 121.149 64.428 115.488 61.9681C117.979 59.6973 119.889 56.8629 121.059 53.7021C122.229 50.5414 122.624 47.1463 122.212 43.8013C121.8 40.4563 120.592 37.2588 118.69 34.4765C116.788 31.6942 114.247 29.4081 111.28 27.8098C108.313 26.2115 105.006 25.3474 101.636 25.2899C98.2662 25.2325 94.9317 25.9833 91.9117 27.4796C88.8918 28.9758 86.2743 31.1739 84.2786 33.8898C82.2828 36.6056 80.9669 39.7601 80.441 43.0891C80.3731 43.5368 80.4533 43.9944 80.6694 44.3923C80.8855 44.7902 81.2256 45.1066 81.6381 45.2934C87.4895 47.9986 92.4451 52.321 95.9201 57.7508C99.3951 63.1805 101.244 69.4909 101.25 75.9374C101.25 76.6124 101.25 77.2768 101.187 77.9413C101.172 78.2271 101.216 78.5127 101.316 78.7809C101.416 79.0492 101.569 79.2943 101.766 79.5015C101.963 79.7087 102.201 79.8736 102.464 79.9861C102.727 80.0986 103.01 80.1565 103.296 80.1561H126.562C127.515 80.1576 128.439 79.8369 129.186 79.2461C129.933 78.6554 130.458 77.8294 130.676 76.9024C130.812 76.2668 130.806 75.6088 130.657 74.9759C130.509 74.3431 130.221 73.7511 129.816 73.2427H129.79ZM82.8562 96.0134C87.0568 92.7964 90.1437 88.344 91.6831 83.282C93.2225 78.22 93.137 72.8029 91.4387 67.792C89.7403 62.7811 86.5145 58.4283 82.2145 55.3455C77.9145 52.2627 72.7566 50.6047 67.4657 50.6047C62.1748 50.6047 57.0169 52.2627 52.717 55.3455C48.417 58.4283 45.1911 62.7811 43.4928 67.792C41.7944 72.8029 41.7089 78.22 43.2483 83.282C44.7877 88.344 47.8746 92.7964 52.0752 96.0134C44.6214 99.243 38.3973 104.774 34.3143 111.797C33.9439 112.438 33.749 113.166 33.7491 113.906C33.7491 114.647 33.9441 115.375 34.3145 116.016C34.6849 116.657 35.2176 117.19 35.859 117.56C36.5005 117.93 37.2281 118.125 37.9687 118.125H97.0312C97.7719 118.125 98.4995 117.93 99.141 117.56C99.7824 117.19 100.315 116.657 100.686 116.016C101.056 115.375 101.251 114.647 101.251 113.906C101.251 113.166 101.056 112.438 100.686 111.797C96.5939 104.769 90.3583 99.238 82.8932 96.0134H82.8562Z" fill="black"/>
</svg>
