<svg width="131" height="106" viewBox="0 0 131 106" fill="none" xmlns="http://www.w3.org/2000/svg">
<path d="M120.234 12.6562H109.688V6.32812C109.688 4.6498 109.021 3.04022 107.834 1.85346C106.647 0.66671 105.038 0 103.359 0H27.4219C25.7436 0 24.134 0.66671 22.9472 1.85346C21.7605 3.04022 21.0938 4.6498 21.0938 6.32812V12.6562H10.5469C9.16184 12.6562 7.79037 12.9291 6.51076 13.4591C5.23115 13.9891 4.06848 14.766 3.08911 15.7454C1.11119 17.7233 0 20.4059 0 23.2031V31.6406C0.00697869 37.7923 2.45383 43.6901 6.80375 48.04C11.1537 52.3899 17.0514 54.8368 23.2031 54.8438H23.6092C26.312 62.4592 31.0422 69.1924 37.2898 74.3175C43.5375 79.4426 51.0656 82.765 59.0625 83.9268V92.8125H48.5156C46.8373 92.8125 45.2277 93.4792 44.041 94.666C42.8542 95.8527 42.1875 97.4623 42.1875 99.1406C42.1875 100.819 42.8542 102.429 44.041 103.615C45.2277 104.802 46.8373 105.469 48.5156 105.469H82.2656C83.9439 105.469 85.5535 104.802 86.7403 103.615C87.927 102.429 88.5938 100.819 88.5938 99.1406C88.5938 97.4623 87.927 95.8527 86.7403 94.666C85.5535 93.4792 83.9439 92.8125 82.2656 92.8125H71.7188V83.9057C88.0348 81.5273 101.529 70.0893 107.051 54.8438H107.578C113.73 54.8368 119.628 52.3899 123.978 48.04C128.327 43.6901 130.774 37.7923 130.781 31.6406V23.2031C130.781 20.4059 129.67 17.7233 127.692 15.7454C125.714 13.7674 123.032 12.6562 120.234 12.6562ZM12.6562 31.6406V25.3125H21.0938V40.0781C21.0938 40.7162 21.0938 41.349 21.1412 41.9818C18.7493 41.505 16.5966 40.214 15.0496 38.3285C13.5025 36.443 12.6567 34.0796 12.6562 31.6406ZM97.0312 39.6035C97.0312 57.1799 82.9459 71.5869 65.6332 71.7188C61.4577 71.7508 57.3172 70.956 53.4504 69.3802C49.5835 67.8045 46.0668 65.4789 43.1029 62.5376C40.1391 59.5963 37.7867 56.0975 36.1815 52.2428C34.5763 48.388 33.7499 44.2537 33.75 40.0781V12.6562H97.0312V39.6035ZM118.125 31.6406C118.125 34.0827 117.278 36.4491 115.727 38.336C114.177 40.2229 112.02 41.5133 109.624 41.9871C109.666 41.1961 109.688 40.4051 109.688 39.6035V25.3125H118.125V31.6406Z" fill="black"/>
</svg>
