<svg width="43" height="33" viewBox="0 0 43 33" fill="none" xmlns="http://www.w3.org/2000/svg">
<path d="M17.1985 17.9341C17.1985 18.3598 17.0724 18.7759 16.8362 19.1298C16.5999 19.4837 16.2642 19.7596 15.8714 19.9225C15.4785 20.0853 15.0463 20.128 14.6292 20.0449C14.2122 19.9619 13.8291 19.7569 13.5285 19.4559C13.2278 19.1549 13.0231 18.7715 12.9401 18.354C12.8571 17.9365 12.8997 17.5038 13.0624 17.1105C13.2252 16.7173 13.5007 16.3812 13.8542 16.1447C14.2078 15.9082 14.6234 15.782 15.0486 15.782C15.6188 15.782 16.1656 16.0087 16.5688 16.4123C16.972 16.8159 17.1985 17.3633 17.1985 17.9341ZM27.9477 15.782C27.5225 15.782 27.1069 15.9082 26.7533 16.1447C26.3998 16.3812 26.1242 16.7173 25.9615 17.1105C25.7988 17.5038 25.7562 17.9365 25.8392 18.354C25.9221 18.7715 26.1269 19.1549 26.4276 19.4559C26.7282 19.7569 27.1113 19.9619 27.5283 20.0449C27.9453 20.128 28.3776 20.0853 28.7704 19.9225C29.1633 19.7596 29.499 19.4837 29.7353 19.1298C29.9715 18.7759 30.0976 18.3598 30.0976 17.9341C30.0976 17.3633 29.8711 16.8159 29.4679 16.4123C29.0647 16.0087 28.5179 15.782 27.9477 15.782ZM41.2857 27.4215L29.2824 32.7499C28.9215 32.9106 28.5316 32.9956 28.1366 32.9998C27.7416 33.0041 27.35 32.9274 26.9857 32.7745C26.6214 32.6217 26.2922 32.3959 26.0183 32.111C25.7444 31.8261 25.5316 31.4881 25.393 31.1179L23.9401 27.1723C23.1374 27.2261 22.3235 27.2536 21.4982 27.2548C20.6729 27.256 19.8589 27.2284 19.0563 27.1723L17.6034 31.1179C17.4645 31.488 17.2516 31.8257 16.9776 32.1105C16.7037 32.3952 16.3745 32.621 16.0103 32.7738C15.6461 32.9266 15.2546 33.0033 14.8597 32.9992C14.4648 32.9951 14.0749 32.9103 13.7139 32.7499L1.71063 27.4215C1.09109 27.1504 0.587851 26.6678 0.290589 26.0598C-0.00667253 25.4519 -0.0786465 24.758 0.0874932 24.1018L5.37433 3.22773C5.51385 2.68486 5.80849 2.19451 6.22215 1.81672C6.63581 1.43892 7.15055 1.19009 7.70333 1.10068L14.1636 0.0371565C14.8758 -0.0775137 15.6051 0.0770841 16.2098 0.470883C16.8144 0.864682 17.2511 1.46953 17.435 2.16779L18.019 4.4706C19.1572 4.3594 20.317 4.30381 21.4982 4.30381C22.6794 4.30381 23.8379 4.3594 24.9738 4.4706L25.5578 2.16779C25.7413 1.46931 26.1779 0.864218 26.7827 0.470357C27.3874 0.0764949 28.1169 -0.0779308 28.8292 0.0371565L35.293 1.10068C35.8458 1.19009 36.3605 1.43892 36.7742 1.81672C37.1879 2.19451 37.4825 2.68486 37.622 3.22773L42.9125 24.1001C43.0788 24.7569 43.0066 25.4515 42.7086 26.0599C42.4106 26.6684 41.9063 27.151 41.2857 27.4215ZM40.1302 24.7995L34.8398 3.94511C34.8398 3.94511 34.8398 3.94511 34.8254 3.94511L28.3652 2.86904C28.3605 2.86636 28.3553 2.86495 28.3499 2.86495C28.3446 2.86495 28.3393 2.86636 28.3347 2.86904L27.8277 4.86695C28.7235 5.03554 29.6192 5.23641 30.4845 5.48032C30.8257 5.56737 31.1229 5.77708 31.3195 6.06945C31.5161 6.36182 31.5983 6.71641 31.5505 7.06558C31.5026 7.41474 31.3281 7.73407 31.0601 7.96267C30.7922 8.19126 30.4495 8.31313 30.0976 8.30502C29.9667 8.30465 29.8366 8.28655 29.7106 8.25122C27.0339 7.52412 24.2716 7.16157 21.4982 7.17335C18.7248 7.16098 15.9625 7.52293 13.2858 8.24942C13.1029 8.30602 12.9106 8.32537 12.7201 8.30635C12.5297 8.28732 12.345 8.23031 12.1769 8.13866C12.0088 8.04702 11.8608 7.9226 11.7415 7.77275C11.6223 7.62291 11.5342 7.45066 11.4825 7.26619C11.4308 7.08171 11.4165 6.88874 11.4405 6.69865C11.4646 6.50857 11.5264 6.32523 11.6223 6.15944C11.7182 5.99366 11.8464 5.84878 11.9991 5.73338C12.1519 5.61797 12.3262 5.53436 12.5118 5.48749C13.3753 5.24358 14.2639 5.04271 15.1669 4.87413L14.6599 2.86904C14.6599 2.86904 14.6599 2.86904 14.6384 2.86904L8.17092 3.93256C8.16564 3.93111 8.16007 3.93111 8.1548 3.93256L2.86617 24.8085L14.8695 30.1297C14.8755 30.133 14.8823 30.1347 14.8892 30.1347C14.8961 30.1347 14.9029 30.133 14.9089 30.1297L16.1236 26.8512C14.9066 26.6649 13.7017 26.4061 12.5154 26.0764C12.1621 25.9634 11.8663 25.7177 11.6902 25.3908C11.5141 25.064 11.4714 24.6815 11.5712 24.3239C11.671 23.9662 11.9053 23.6612 12.2251 23.473C12.5448 23.2847 12.925 23.2279 13.2858 23.3145C15.9623 24.0419 18.7248 24.4038 21.4982 24.3906C24.2716 24.4038 27.034 24.0419 29.7106 23.3145C30.0767 23.2118 30.4686 23.2588 30.8 23.4453C31.1315 23.6318 31.3753 23.9425 31.478 24.309C31.5806 24.6755 31.5336 25.0678 31.3473 25.3996C31.161 25.7314 30.8506 25.9755 30.4845 26.0782C29.297 26.4075 28.091 26.6656 26.8728 26.8512L28.0821 30.1297C28.0879 30.1328 28.0943 30.1345 28.1009 30.1345C28.1075 30.1345 28.1139 30.1328 28.1197 30.1297L40.1302 24.7995Z" fill="white"/>
</svg>
