<svg xmlns="http://www.w3.org/2000/svg" viewBox="0 0 1175 785" aria-label="Circuitos"><defs><style>:root{--c1:#00629B;--c2:#01A499}.prefix__c1{fill:var(--c1);opacity:.55}.prefix__c2{fill:var(--c2);opacity:.45}</style></defs><path class="prefix__c1" d="M366 543h-14l-30 31h-32v22l-2 3h-3l-1 4h-3l-4-4h-6v13h4l9-5 1 5h3l2 2v5h4v-10l3-2 2 1 1 4h4l1-2 6-3 2 2v3h4l8-4 1 11h3v-5l11-7 1 5h4l6-3 1 3 4 3v4h4v-4l4-3v-3l2-1v-9h-2l-1 2h-2l-1-2h-5l-1 4h-3l-4-4h-6l-1 5-3-2v-2l17-15 2-4 10-9v-4l-7 4-22 22v2l-3 3h-7l-1 5-6-3-1-2h-6l-1 4h-3l-5-4h-5v3l-4 1-1-25 31-1 30-30 11-1z"/><path class="prefix__c2" d="M819 527l-4 2v8l2 2h6l30 30 2 4v44l3 1 1-48-2-4h-2l-11-11v-2l-18-17v-7l-3-2z"/><path class="prefix__c1" d="M366 518h-26l-7 5-25 25h-46l-2 2v69h5l1-67h45l29-29h26z"/><path class="prefix__c2" d="M997 514v2l6 7v3l-2 1-4 8 1 2h3l5-9 2-1v-5l-7-9zM1022 512v5l6 7-4 5v3l-2 1v4h2l8-10v-4l-4-7-4-4zM1010 512v4l5 8-1 4-4 5v4h3l5-9 2-1v-5l-2-1-2-5zM987 512l-1 4 5 6v4l-2 1-3 6 1 4h2l2-2v-3l4-3v-9l-4-3v-3zM975 512l-1 5 5 7-5 9v4h3l6-9 1-5-5-8zM962 512v5l6 7-6 8v5h2l8-10v-4l-4-7-4-4zM950 512v4l5 8-1 4-4 5v4h3l5-9 2-1v-5l-2-1-2-5z"/><path class="prefix__c1" d="M366 495h-37l-30 28h-41l-62 62v32l36 2 2-2-2-5-4-2-5 1-3 3-20-1-1-25 61-61h42l26-26 38-1z"/><path class="prefix__c1" d="M302 488l-4-1v11l-2 2h-42l-13 14-6 4-25 27-4 2-16 18-21 20v34h3v-31l23-24h2l12-12v-2l17-17 10-8 2-4 18-17h44v-2l2-1zM106 485l1 4 9 9h2v-5l-4-3 1-2h156v-3H115l-1-2 4-4v-4h-2z"/><path class="prefix__c2" d="M755 467v38l92 1 102 103v9h3v-13L849 502h-89l-3-3v-32z"/><path class="prefix__c2" d="M740 467v12l-2 1v36l56 56v45l4 1 1-46-2-4-56-55v-36l4-4v-6zM871 465v9l9 3 57 57 1 3h2l35 35h34l32-33h2l3-4 1 2h2l5-8 5 1v2l-2 1 1 4h3l6-8 4 1-1 7h3l6-8h25l3 4h8l2-2v-6l-4-3h-4l-5 4h-23l-5-10-5-4-1 4 4 5 1 4-6 1-5-10-3-3-4 1v2l2 1 4 8-5 1-3-3v-3l-4-3v-3l-4-2-1 4 5 6v3l-10 8-1-1 3-3 1-6-5-8-4-3-1 5 5 7-5 9v4l3 1-5 5h-2l-2 4-21 21h-30l-34-34 3-6 2-1v-5l-7-9-4 1v2l6 7v3l-3 4-57-56-2-9z"/><path class="prefix__c1" d="M271 440h-6v23l-4 2H119l-5-4-5-1-4 3v7l3 3h5l4-4h150l2-3v-21l2-1z"/><path class="prefix__c2" d="M871 430v6l4 4h4l6-5h111l28 28h24l3 4h7l3-4-2-6-4-2-6 2-1 3-21-1-26-27H885l-5-4h-7z"/><path class="prefix__c1" d="M151 419l-2 2v3l-4 4v5l6 9h4l-2-7-4-4 6-8v-4zM141 419l-7 12 7 11h4v-4l-2-1-3-6 3-7 2-1v-4z"/><path class="prefix__c1" d="M131 419l-7 12 2 1 4 9 5 1v-3l-5-7v-3l4-5 1-5z"/><path class="prefix__c1" d="M122 419l-4 4-3 9 7 10h4v-2l-4-4v-3l-2-1v-3l6-8v-2z"/><path class="prefix__c1" d="M111 419l-6 10v4l7 9h4l-2-6-4-4v-3l4-4 2-6z"/><path class="prefix__c2" d="M871 401v4l4 4h5l4-4h168l38 38-1 3h-5v3l14-1v-12h-4v3l-3 1-11-11-2-4-25-24-170-1-3-3h-5z"/><path class="prefix__c1" d="M90 390l1 5 4 2 10-5h166v-3H105l-4-3h-3l-1-2-6 2z"/><path class="prefix__c2" d="M1024 376v14h5l6-4 2 1v3h4l7-4 1 4 4 1 1-2 8-3 1 4 2 1 9-5 1 4 3 1 5-4 4-1 1 4 2 1 9-5 1 4 3 1 10-6v-3l-2-2h-3l-5-4h-2l-2 4h-3l-1-2-7-2-1 6-1-2h-3l-5-4h-2l-2 4h-3l-1-2-7-2-1 5-4-1-1-2h-3l-1-2h-2l-3 5-7-5h-3l-2 4h-3l-5-4z"/><path class="prefix__c1" d="M119 351l3 4h4l4-2 2-3h119l5 3 13 14h2v-6l-17-15H131l-3-3-4-1-4 2z"/><path class="prefix__c2" d="M894 380l2 2h8l2-3v-4l34-34h83l4 2 22 23v6l2 2h7l3-4v-4l-2-3h-5l-4-2-24-24h-89l-34 34-7 1-2 2z"/><path class="prefix__c2" d="M879 345l2 6h9l2-6-5-7 1-27 21-20h48l25 25h43l26 25 2 4 4 2h26l5 3h3l4-3v-6l-2-2h-7l-3 4h-24l-29-30-44-1-26-25h-54l-23 23v30z"/><path class="prefix__c1" d="M391 278l-4 4v7l6 5v32h3v-32l5-5v-7l-4-4zM78 283l1 4 4 3 6-1 3-3h93l15 14v2l-27 1-8-5-6 1v9l2 2h6l4-4h119l20 20h5l-2-4-19-19h-84l-4-2-19-19H92l-4-4h-7z"/><path class="prefix__c2" d="M1113 289l-8-8h-2l-1 2 3 5-1 1H994l-22-23h-70l-33 33v78l-79 79v22l-4 3v9l3 2h5l3-3v-7l-4-4 1-20 77-76v-77l2-1v-3l30-30 66-1 20 20 4 2h110l1 2-2 5 2 1 7-6z"/><path class="prefix__c1" d="M366 247v30l-4 2v2l-2 1v7l4 4h6l4-4 1-4-2-5-5-3v-30z"/><path class="prefix__c2" d="M1018 237l-4-4h-6l-3 4H902l-56 56v75l-65 1-3-2v-2l-6-1-5 5 1 5 2 2h8l3-4h69v-76l53-54 101-1 6 4 6-1v-2l2-1zM739 222l-7 1-2 3v6l-25 24v70h3v-65l4-6 22-21h4l5-3v-6z"/><path class="prefix__c1" d="M575 208l-4 3v6l4 3v24l20 19 2 5v58h3v-64l-21-20v-21l4-4v-5l-4-4zM211 189l-6 8-1 5 5 9 4 2 2-1v-2l-6-7v-4l2-1v-3l4-3v-2zM203 189h-2l-7 9v6l7 9 3-2-3-7-3-3 3-6 2-1zM190 189l-6 8v8l2 1 2 5 4 2 2-2-6-8v-4l2-1 4-8zM180 189l-6 8-1 5 5 9 4 2v-5l-4-5v-4l4-5v-5z"/><path class="prefix__c1" d="M83 161l-2 3 1 7 10 3 64 64h76l2 2v37l-3 3v6l2 3h7l2-2v-8l-4-2v-42h-79l-66-65v-7l-2-2zM474 163l1 2h3l1-2h3l3-4h2l7 6h4v-3l-10-7-6 1zM306 151l-4 3v6l4 3v20l33 33v61l-6 5v7l4 4h6l4-4 1-6-6-6v-64l-9-9v-2l-3-1-20-21v-16l4-5v-5l-4-3zM474 153l3 2 8-6 4 1 5 4h4v-3l-6-5-8-2-1 2-8 4zM475 140v3l3 1 1-2 8-4 8 6h3v-4l-9-6h-5z"/><path class="prefix__c2" d="M860 123h-6l-3 4h-34l-35 35v119l-4 4v9l2 1h6l3-4-1-6-4-3V166l34-34h33l1 2 6 1 5-3v-6z"/><path class="prefix__c1" d="M474 130l3 3 8-5h3l5 4 5 1-1-5-8-5h-5zM271 117l-2 2v7l4 3v46l37 36v67l-4 4v7l5 4h5l5-5v-5l-6-6v-66l-1-3-37-36-1-41 5-6v-4l-2-4zM383 114l-7 7 1 4 3-2 3 1v97l85 85 73 1 1 19h4v-23h-75l-84-84v-96l1-1 3 3h2v-4l-7-7zM474 120l4 2 3-3 6-2 7 5h4l-1-5-9-5-6 1zM474 109v2h4l5-4 4-1 7 5h4l-1-4-9-6h-4zM172 94l-9 9 2 4 6-6 1 1v33l-4 6 1 5 3 2h5l42 42v3l-4 5v6l7 9 3-1v-2l-6-9 2-4 3-1 1 8 2 1 2 5 3 3 4-1-2-3 1-3 23 24v47l-6 5v7l5 4h5l5-4v-6l-6-6v-51l-17-17v-3l-4-4v-3l4-3 2-6-4-1v2l-4 3v3l-3 3-3-3 4-7-4-1-4 4-48-48v-7l-4-3v-33l1-1 5 6h2v-6l-6-6zM474 99l4 2 1-2 8-4 8 6h3v-4l-9-5-1-2h-4l-1 2-5 2z"/><path class="prefix__c1" d="M287 95l-1 4h4l1-2 2 1v39l45 1 5 5v55l122 122h64l2 2v4h3v-9h-65L346 194v-51l4-3v-8l-3-2h-6l-5 5-39-1-1-37 1-1 3 3h4v-3l-8-8h-2zM475 86v4h3l1-2h3l3-3 8 3 1 2h4v-4l-10-6h-4l-1 2h-3z"/><path class="prefix__c2" d="M792 76l-8 2v8l-68 68v51l-66 65-1 47 9 9h4v-2l-6-5-3-6 1-41 66-65v-51l31-30v-2l31-29v-2l5-5h6l2-2 1-6z"/><path class="prefix__c2" d="M699 60l-6 1v3l-2 1 2 6 2 1v121l-68 68v61l4 4h6l-2-4-4-3v-56l68-67V73l5-5v-4z"/><path class="prefix__c1" d="M244 53l-8 8v4l4-1 3-4 1 1v122l8 7-6 8v6l6 8h4l-3-8-3-3 6-7 2 3-2 5 7 10h4l-2-6-3-3 2-1 21 22v53l-6 5v7l5 4h5l5-4v-6l-6-8v-55l-15-15v-3l-2-1 2-1v-3l2-1 2-7h-4l-4 8-3 1-1-5 2-1v-2l-4-1-3 3-12-12V61l1-1 6 6 2-1v-4l-9-8z"/><path class="prefix__c2" d="M827 33l-84 1v39l-4 5v4l3 4h5l4-3v-6l-4-3 1-37h76l1 50-68 68v129l-27 26v16h3v-12l28-29V158l68-68 1-55zM689 30l-6-1-5 3v6l4 4v39l-16 17v62l-52 52v101l-5 7 1 6h9l2-2v-6l-4-4v-98l52-53v-61l16-16 1-42 3-7 2-1z"/><path class="prefix__c1" d="M441 22l-9 8 1 3h3l2-2 1 1v94l-11 13-25 24v56l65 65 1 7 3 2h4l4-4v-5l-2-3-9-2-62-63v-50l36-36V31l1-1 3 3h4v-2l-6-7z"/></svg>