<svg width="380" height="195" viewBox="0 0 380 195" fill="none" xmlns="http://www.w3.org/2000/svg">
<path d="M89.31 154.243V80.2019C89.31 70.4065 76.9723 56.9174 63.4831 56.6632C57.4115 56.5435 30.792 56.6632 25.2737 56.6632C14.8053 56.6632 2.09375 70.4215 2.09375 80.5458C2.09375 86.4978 2.09375 154.721 2.09375 154.721L19.0824 154.796V134.502L71.9924 134.547V154.288L89.295 154.243H89.31ZM19.0824 117.14V82.1161C19.0824 77.2259 23.6735 73.4872 28.2646 73.5769C31.435 73.6368 61.0754 73.5769 63.6925 73.5769C66.3095 73.5769 72.0971 77.0315 72.0073 81.9815C71.9176 86.9315 72.0073 117.035 72.0073 117.035L19.0973 117.125L19.0824 117.14Z" fill="#231F20"/>
<path d="M351.184 56.9026H217.653C201.816 56.9026 188.999 69.7188 188.999 85.5558C188.999 101.393 201.831 114.164 217.653 114.164H248.729C255.114 114.164 260.154 119.294 260.154 125.694C260.154 132.095 254.98 137.269 248.579 137.269L127.206 137.075C121.344 137.075 117.366 132.768 117.366 128.446V114.493H182.599V97.2056H117.486C117.486 97.2056 117.426 85.0623 117.396 82.2209C117.366 78.0486 121.837 73.6668 128.702 73.6519C134.594 73.6369 182.539 73.6519 182.539 73.6519V56.5287C182.539 56.5287 131.065 56.3493 122.884 56.5287C112.042 56.768 99.6895 70.631 99.6895 80.0824V129.313C99.6895 142.997 112.237 154.407 125.128 154.407H248.983C264.82 154.422 277.636 141.591 277.636 125.769C277.636 109.947 264.85 97.0411 249.013 97.1757C243.749 97.2205 222.977 97.2654 217.907 97.1757C211.521 97.1757 206.481 92.0163 206.481 85.6306C206.481 79.245 211.656 74.0557 218.057 74.0557H218.086C223.35 74.0557 275.752 74.265 275.752 74.265C274.271 77.7196 273.434 81.548 273.434 85.5558C273.434 101.393 286.265 114.209 302.087 114.209C302.087 114.209 326.942 114.119 332.281 114.119C338.667 114.119 343.706 119.294 343.706 125.694C343.706 132.095 338.532 137.209 332.132 137.209H283.529V154.407H332.52C348.357 154.422 361.174 141.591 361.174 125.769C361.174 109.947 348.357 97.0411 332.52 97.1757C327.256 97.2205 307.381 97.2654 302.312 97.1757C295.926 97.1757 290.886 92.0163 290.886 85.6306C290.886 79.245 296.061 74.1155 302.461 74.1155H351.169V56.9026H351.184Z" fill="#231F20"/>
<path opacity="0.7" d="M63.4831 56.6482C57.4115 56.5286 30.792 56.6482 25.2737 56.6482C14.8053 56.6482 2.09375 70.4065 2.09375 80.5309C2.09375 82.0114 2.09375 87.3801 2.09375 94.6033C7.64197 95.3361 13.3098 96.024 19.0824 96.6969V82.1161C19.0824 77.2259 23.6735 73.4872 28.2646 73.5769C31.435 73.6367 61.0754 73.5769 63.6925 73.5769C66.3095 73.5769 72.0971 77.0315 72.0073 81.9815C71.9625 84.4789 71.9625 93.377 71.9774 101.587C77.6901 101.991 83.4776 102.38 89.3249 102.724V80.1869C89.3249 70.3916 76.9873 56.9024 63.4981 56.6482H63.4831ZM302.46 74.1153H351.168V56.9024H217.637C201.8 56.9024 188.984 69.7186 188.984 85.5557C188.984 93.3022 192.064 100.316 197.059 105.46C221.121 105.281 244.526 104.608 266.988 103.471C262.068 99.4935 255.816 97.1157 248.997 97.1755C243.733 97.2203 222.961 97.2652 217.891 97.1755C211.505 97.1755 206.466 92.0161 206.466 85.6304C206.466 79.2448 211.64 74.0555 218.041 74.0555H218.071C223.335 74.0555 275.736 74.2649 275.736 74.2649C274.256 77.7194 273.418 81.5478 273.418 85.5557C273.418 92.0311 275.602 97.998 279.221 102.798C300.187 101.557 320.257 99.9271 339.219 97.9382C337.081 97.4447 334.852 97.1456 332.549 97.1755C327.285 97.2203 307.41 97.2652 302.341 97.1755C295.955 97.1755 290.915 92.0161 290.915 85.6304C290.915 79.2448 296.09 74.1153 302.49 74.1153H302.46ZM117.455 97.1904C117.455 97.1904 117.395 85.0472 117.365 82.2058C117.335 78.0334 121.807 73.6517 128.671 73.6367C134.563 73.6218 182.508 73.6367 182.508 73.6367V56.5136C182.508 56.5136 131.034 56.3341 122.854 56.5136C112.011 56.7529 99.6587 70.6159 99.6587 80.0673V103.307C126.129 104.698 153.9 105.46 182.568 105.49L182.508 97.1904H117.455Z" fill="#231F20"/>
<path d="M373.524 156.83C369.95 156.83 367.049 153.929 367.049 150.355C367.049 146.78 369.95 143.879 373.524 143.879C377.098 143.879 380 146.78 380 150.355C380 153.929 377.098 156.83 373.524 156.83ZM373.524 144.597C370.354 144.597 367.782 147.169 367.782 150.34C367.782 153.51 370.354 156.082 373.524 156.082C376.695 156.082 379.267 153.51 379.267 150.34C379.267 147.169 376.695 144.597 373.524 144.597Z" fill="#231F20"/>
<path d="M370.865 153.495V147.094H373.706C374.274 147.094 374.708 147.154 375.007 147.274C375.306 147.393 375.545 147.588 375.725 147.887C375.904 148.171 375.994 148.5 375.994 148.844C375.994 149.293 375.845 149.681 375.56 149.995C375.261 150.31 374.813 150.504 374.2 150.594C374.424 150.698 374.588 150.803 374.708 150.908C374.947 151.132 375.187 151.416 375.411 151.76L376.517 153.495H375.456L374.603 152.164C374.349 151.775 374.155 151.491 373.99 151.282C373.826 151.072 373.691 150.938 373.556 150.848C373.437 150.773 373.302 150.713 373.168 150.683C373.078 150.668 372.913 150.653 372.689 150.653H371.702V153.495H370.85H370.865ZM371.702 149.921H373.527C373.915 149.921 374.214 149.876 374.439 149.801C374.663 149.726 374.828 149.592 374.932 149.412C375.052 149.233 375.097 149.038 375.097 148.844C375.097 148.545 374.992 148.291 374.768 148.096C374.543 147.902 374.199 147.797 373.721 147.797H371.702V149.921Z" fill="#231F20"/>
<path d="M271.28 56.9326C276.141 43.4734 275.692 29.9842 270.443 22.1779C258.883 4.99488 240.145 1.21133 213.032 1.39079C194.278 2.7068 167.629 8.24005 154.17 13.3845C155.949 6.31089 160.047 0 160.047 0C156.443 3.05076 133.068 20.817 133.068 20.817C133.068 20.817 164.937 21.5348 168.511 21.5348C158.791 17.9606 154.364 14.4163 154.364 14.4163C154.364 14.4163 182.344 5.56316 208.485 7.40259C226.252 8.65878 238.858 12.8162 248.564 26.081C253.858 33.3191 254.935 44.8342 251.076 56.9326C255.054 56.9625 266.749 57.0672 271.31 56.9326H271.28Z" fill="#231F20"/>
<path d="M208.066 117.17C191.675 131.99 160.779 155.679 124.693 170.633C76.9124 190.433 31.2256 200.169 0 179.008C14.9548 195.682 59.2508 203.309 128.058 176.436C179.278 156.426 201.037 138.017 221.061 121.761C240.174 106.223 254.889 89.0404 263.742 74.0408C257.656 74.0408 250.866 74.1006 244.675 74.1006C237.243 88.2777 224.935 101.931 208.081 117.185L208.066 117.17Z" fill="#231F20"/>
</svg>
