<svg width="512" height="189" viewBox="0 0 512 189" fill="none" xmlns="http://www.w3.org/2000/svg">
<path d="M179.788 82.4344C169.543 82.4344 164.081 74.8641 164.081 64.6647C164.081 53.5813 170.586 46.895 179.834 46.895C188.31 46.895 191.642 50.5441 194.022 57.0491L185.364 60.4489C184.14 57.2531 182.961 55.2359 179.788 55.2359C175.799 55.2359 174.076 59.225 174.076 64.6874C174.076 70.1497 175.754 74.1388 179.879 74.1388C182.893 74.1388 184.163 72.5069 186.044 69.2658L194.113 73.5495C191.801 78.0826 187.948 82.457 179.788 82.457V82.4344Z" fill="#231F20"/>
<path d="M209.253 82.4343C202.114 82.4343 196.991 77.8559 196.991 68.9484C196.991 60.0409 202.114 55.5078 209.253 55.5078C216.393 55.5078 221.561 59.9502 221.561 68.9484C221.561 77.9466 216.393 82.4343 209.253 82.4343ZM209.253 62.6927C206.941 62.6927 205.763 64.574 205.763 68.9484C205.763 73.3228 206.941 75.2494 209.253 75.2494C211.565 75.2494 212.744 73.2322 212.744 68.9484C212.744 64.6646 211.565 62.6927 209.253 62.6927Z" fill="#231F20"/>
<path d="M255.627 81.8901V67.2256C255.627 63.8711 254.584 62.9872 252.816 62.9872C251.048 62.9872 249.96 63.8711 249.96 67.135V81.9128H241.098V67.2483C241.098 63.8938 240.01 63.0099 238.242 63.0099C236.475 63.0099 235.387 63.8938 235.387 67.1576V81.9355H226.524V56.0742H235.387V57.7968C236.815 56.6182 238.741 55.5303 241.552 55.5303C245.087 55.5303 247.059 56.6635 248.691 58.4314C250.55 56.9129 252.68 55.5303 256.216 55.5303C262.018 55.5303 264.534 59.3154 264.534 66.115V81.9128H255.627V81.8901Z" fill="#231F20"/>
<path d="M284.978 82.4345C282.416 82.4345 280.648 81.2559 279.221 80.168V87.8515L270.358 91.3873V56.0293H279.221V57.8426C280.988 56.46 282.62 55.4854 285.318 55.4854C290.191 55.4854 293.93 59.2705 293.93 68.8806C293.93 78.4907 290.621 82.4118 284.978 82.4118V82.4345ZM282.371 62.7836C281.079 62.7836 280.15 63.2822 279.221 64.0075V73.9123C280.15 74.6603 281.034 75.1363 282.416 75.1363C284.23 75.1363 285.182 74.003 285.182 69.1753C285.182 64.0075 284.252 62.7836 282.371 62.7836Z" fill="#231F20"/>
<path d="M313.628 81.8898V80.1673C312.041 81.3912 310.183 82.4338 307.168 82.4338C301.502 82.4338 298.805 78.6487 298.805 71.8491V56.0513H307.712V70.7158C307.712 74.0703 308.845 74.9542 310.659 74.9542C312.472 74.9542 313.605 74.0703 313.605 70.8291V56.0513H322.513V81.9125H313.605L313.628 81.8898Z" fill="#231F20"/>
<path d="M344.407 81.0514C342.684 81.8901 340.508 82.434 338.015 82.434C333.346 82.434 331.17 80.0768 331.17 74.2065V62.9871H327.227V56.0515H331.17V49.5012L339.783 46.0107V56.0515H345.404V62.9871H339.783V72.3479C339.783 74.3198 340.508 74.9091 342.004 74.9091C343.183 74.9091 344.18 74.4558 345.54 73.5265L344.407 81.0514Z" fill="#231F20"/>
<path d="M364.262 81.8901V80.1676C362.585 81.4368 360.318 82.4341 357.961 82.4341C352.929 82.4341 349.598 79.3289 349.598 73.5266C349.598 67.7243 353.428 65.1177 358.913 65.1177C361.27 65.1177 362.857 65.571 364.285 66.2057V64.9364C364.285 62.6699 363.061 61.8766 360.636 61.8766C357.984 61.8766 355.967 62.3752 353.451 63.7578L351.139 57.8875C354.289 56.3689 357.78 55.5303 362.268 55.5303C369.498 55.5303 372.648 59.1341 372.648 65.1404V81.9355H364.285L364.262 81.8901ZM364.262 71.3507C363.288 70.8974 362.154 70.6028 360.477 70.6028C358.664 70.6028 357.712 71.6 357.712 73.3679C357.712 74.9999 358.55 76.1785 360.477 76.1785C361.95 76.1785 363.424 75.5892 364.262 74.9092V71.3734V71.3507Z" fill="#231F20"/>
<path d="M394.293 81.0514C392.57 81.8901 390.394 82.434 387.901 82.434C383.232 82.434 381.056 80.0768 381.056 74.2065V62.9871H377.112V56.0515H381.056V49.5012L389.669 46.0107V56.0515H395.29V62.9871H389.669V72.3479C389.669 74.3198 390.394 74.9091 391.89 74.9091C393.069 74.9091 394.066 74.4558 395.426 73.5265L394.293 81.0514Z" fill="#231F20"/>
<path d="M405.785 54.1709C402.884 54.1709 400.708 52.4936 400.708 49.7965C400.708 47.2806 402.884 45.5127 405.785 45.5127C408.845 45.5127 410.953 47.2806 410.953 49.7965C410.953 52.4936 408.845 54.1709 405.785 54.1709ZM401.343 81.8907V56.0294H410.205V81.8907H401.343Z" fill="#231F20"/>
<path d="M427.679 82.4343C420.539 82.4343 415.417 77.8559 415.417 68.9484C415.417 60.0409 420.539 55.5078 427.679 55.5078C434.819 55.5078 439.986 59.9502 439.986 68.9484C439.986 77.9466 434.819 82.4343 427.679 82.4343ZM427.679 62.6927C425.367 62.6927 424.189 64.574 424.189 68.9484C424.189 73.3228 425.367 75.2494 427.679 75.2494C429.991 75.2494 431.169 73.2322 431.169 68.9484C431.169 64.6646 429.991 62.6927 427.679 62.6927Z" fill="#231F20"/>
<path d="M459.797 81.8903V67.2258C459.797 63.8713 458.663 62.9874 456.85 62.9874C455.037 62.9874 453.858 63.8713 453.858 67.1352V81.913H444.996V56.0518H453.858V57.7744C455.49 56.5504 457.303 55.5078 460.363 55.5078C466.03 55.5078 468.727 59.2929 468.727 66.0926V81.8903H459.819H459.797Z" fill="#231F20"/>
<path d="M488.309 81.8901V80.1676C486.632 81.4368 484.365 82.4341 482.008 82.4341C476.976 82.4341 473.645 79.3289 473.645 73.5266C473.645 67.7243 477.475 65.1177 482.96 65.1177C485.317 65.1177 486.904 65.571 488.332 66.2057V64.9364C488.332 62.6699 487.108 61.8766 484.683 61.8766C482.031 61.8766 480.014 62.3752 477.498 63.7578L475.186 57.8875C478.336 56.3689 481.827 55.5303 486.315 55.5303C493.545 55.5303 496.695 59.1341 496.695 65.1404V81.9355H488.332L488.309 81.8901ZM488.309 71.3507C487.334 70.8974 486.201 70.6028 484.524 70.6028C482.711 70.6028 481.759 71.6 481.759 73.3679C481.759 74.9999 482.597 76.1785 484.524 76.1785C485.997 76.1785 487.47 75.5892 488.309 74.9092V71.3734V71.3507Z" fill="#231F20"/>
<path d="M502.726 81.8901V49.5465L511.588 46.0107V81.9127H502.726V81.8901Z" fill="#231F20"/>
<path d="M165.759 130.326V95.8521H175.505V130.326H165.759Z" fill="#231F20"/>
<path d="M197.331 130.326V115.662C197.331 112.307 196.198 111.423 194.384 111.423C192.571 111.423 191.392 112.307 191.392 115.548V130.326H182.53V104.465H191.392V106.187C193.024 104.964 194.838 103.921 197.897 103.921C203.564 103.921 206.261 107.706 206.261 114.506V130.303H197.353L197.331 130.326Z" fill="#231F20"/>
<path d="M227.658 129.488C225.935 130.327 223.759 130.871 221.266 130.871C216.597 130.871 214.421 128.513 214.421 122.643V111.424H210.478V104.488H214.421V97.9377L223.034 94.4473V104.488H228.655V111.424H223.034V120.784C223.034 122.756 223.759 123.346 225.255 123.346C226.434 123.346 227.431 122.892 228.791 121.963L227.658 129.488Z" fill="#231F20"/>
<path d="M255.694 119.945H240.531C240.826 122.801 242.503 124.07 244.906 124.07C247.172 124.07 249.053 123.572 251.615 122.257L255.014 127.923C251.819 129.805 248.509 130.87 244.475 130.87C236.701 130.87 232.417 125.362 232.417 117.429C232.417 108.522 237.449 103.943 244.248 103.943C251.048 103.943 255.762 108.612 255.762 118.223C255.762 118.971 255.762 119.492 255.717 119.945H255.694ZM243.976 110.494C241.959 110.494 240.826 111.876 240.531 114.437H247.92C247.467 111.831 246.583 110.494 243.976 110.494Z" fill="#231F20"/>
<path d="M260.952 130.327V97.9831L269.814 94.4473V130.349H260.952V130.327Z" fill="#231F20"/>
<path d="M276.32 130.327V97.9831L285.182 94.4473V130.349H276.32V130.327Z" fill="#231F20"/>
<path d="M296.106 102.606C293.205 102.606 291.029 100.929 291.029 98.232C291.029 95.7161 293.205 93.9482 296.106 93.9482C299.166 93.9482 301.274 95.7161 301.274 98.232C301.274 100.952 299.166 102.606 296.106 102.606ZM291.687 130.326V104.465H300.549V130.326H291.687Z" fill="#231F20"/>
<path d="M315.961 139.823L312.697 134.701C318.998 133.658 320.539 132.683 320.539 129.125V128.241C318.817 129.623 317.14 130.598 314.443 130.598C309.615 130.598 305.875 127.062 305.875 117.452C305.875 107.842 309.184 103.921 314.782 103.921C317.389 103.921 319.112 105.099 320.539 106.187V104.465H329.447V126.428C329.447 135.29 325.322 138.486 315.961 139.823ZM320.539 112.443C319.656 111.695 318.772 111.219 317.389 111.219C315.576 111.219 314.579 112.352 314.579 117.18C314.579 122.348 315.576 123.572 317.434 123.572C318.704 123.572 319.656 123.073 320.539 122.348V112.443Z" fill="#231F20"/>
<path d="M357.712 119.945H342.549C342.843 122.801 344.521 124.07 346.923 124.07C349.19 124.07 351.071 123.572 353.632 122.257L357.032 127.923C353.836 129.805 350.527 130.87 346.493 130.87C338.718 130.87 334.435 125.362 334.435 117.429C334.435 108.522 339.466 103.943 346.266 103.943C353.066 103.943 357.78 108.612 357.78 118.223C357.78 118.971 357.78 119.492 357.735 119.945H357.712ZM345.994 110.494C343.977 110.494 342.843 111.876 342.549 114.437H349.938C349.484 111.831 348.6 110.494 345.994 110.494Z" fill="#231F20"/>
<path d="M377.567 130.326V115.662C377.567 112.307 376.434 111.423 374.621 111.423C372.807 111.423 371.629 112.307 371.629 115.548V130.326H362.767V104.465H371.629V106.187C373.261 104.964 375.074 103.921 378.134 103.921C383.8 103.921 386.497 107.706 386.497 114.506V130.303H377.59L377.567 130.326Z" fill="#231F20"/>
<path d="M403.359 130.87C395.766 130.87 391.256 126.042 391.256 117.339C391.256 109.406 395.29 103.943 403.563 103.943C408.436 103.943 411.247 106.21 413.513 109.859L407.416 114.483C406.192 112.216 405.354 111.128 403.427 111.128C401.161 111.128 400.027 113.395 400.027 117.475C400.027 121.554 401.251 123.685 403.676 123.685C405.354 123.685 406.532 122.756 408.164 120.33L413.785 124.705C410.793 129.147 407.983 130.87 403.405 130.87H403.359Z" fill="#231F20"/>
<path d="M440.056 119.945H424.893C425.187 122.801 426.864 124.07 429.267 124.07C431.533 124.07 433.415 123.572 435.976 122.257L439.376 127.923C436.18 129.805 432.871 130.87 428.836 130.87C421.062 130.87 416.778 125.362 416.778 117.429C416.778 108.522 421.81 103.943 428.61 103.943C435.409 103.943 440.124 108.612 440.124 118.223C440.124 118.971 440.124 119.492 440.078 119.945H440.056ZM428.338 110.494C426.32 110.494 425.187 111.876 424.893 114.437H432.281C431.828 111.831 430.944 110.494 428.338 110.494Z" fill="#231F20"/>
<path d="M108.392 104.646C62.3361 104.646 25.0062 90.4804 25.0062 73.028C25.0062 59.7234 46.7196 48.3228 77.4539 43.6763C49.6435 29.1478 22.3317 27.8559 8.52843 42.8151C-10.5332 63.5086 3.42871 107.411 39.7387 140.888C76.0487 174.365 120.949 184.723 140.01 164.03C152.567 150.408 150.799 126.745 137.789 102.606C128.655 103.921 118.75 104.624 108.392 104.624V104.646Z" fill="#231F20"/>
<path d="M146.742 42.7016C146.742 19.1069 131.058 0 111.701 0C92.3451 0 76.6606 19.1296 76.6606 42.7016C76.6606 66.2736 92.3451 85.4032 111.701 85.4032C131.058 85.4032 146.742 66.2736 146.742 42.7016Z" fill="#231F20"/>
<path d="M174.598 35.6982H170.7C169.793 35.6982 166.121 35.8342 166.121 35.8342L165.895 35.5395C166.031 31.1198 166.121 26.7454 166.121 22.303V18.9711C166.121 13.4408 166.076 7.88776 165.691 2.3574L165.917 2.06275H169.204C170.768 2.06275 173.533 1.97209 174.53 1.92676L174.711 2.22141C174.575 8.74904 174.485 15.2993 174.485 21.8723C174.485 26.3827 174.575 30.9158 174.825 35.3809L174.598 35.6755V35.6982Z" fill="#231F20"/>
<path d="M203.202 29.6015C203.066 31.5508 202.953 33.5906 202.862 35.4039L202.477 35.6985C195.519 35.6985 188.538 35.7439 181.534 35.7892L181.307 35.4492C181.489 31.0748 181.534 26.7004 181.534 22.2579V12.3985C181.534 9.02135 181.489 5.68954 181.194 2.35772L181.489 2.06307C186.679 2.06307 199.236 1.97241 202.386 1.97241L202.636 2.26706C202.5 4.21629 202.341 5.93886 202.296 7.79742L202.001 8.09207C197.921 8.00141 193.864 7.95608 189.807 7.95608C189.807 8.86269 189.762 10.1546 189.762 11.4692C189.762 12.9878 189.762 14.5064 189.807 15.5037C193.66 15.5037 197.468 15.4583 201.276 15.3223L201.57 15.6623C201.434 17.4755 201.344 19.2208 201.23 21.034L200.958 21.3287C193.955 21.2833 189.83 21.2833 189.83 21.2833C189.83 24.0938 189.875 26.859 189.92 29.6015C194.295 29.6015 198.624 29.5109 202.953 29.2616L203.202 29.6015Z" fill="#231F20"/>
<path d="M229.471 29.6015C229.335 31.5508 229.221 33.5906 229.131 35.4039L228.745 35.6985C221.787 35.6985 214.806 35.7439 207.803 35.7892L207.553 35.4492C207.735 31.0748 207.803 26.7004 207.803 22.2579V12.3985C207.803 9.02135 207.757 5.68954 207.463 2.35772L207.757 2.06307C212.948 2.06307 225.504 1.97241 228.655 1.97241L228.904 2.26706C228.768 4.21629 228.609 5.93886 228.564 7.79742L228.269 8.09207C224.19 8.00141 220.132 7.95608 216.075 7.95608C216.075 8.86269 216.03 10.1546 216.03 11.4692C216.03 12.9878 216.03 14.5064 216.075 15.5037C219.928 15.5037 223.736 15.4583 227.544 15.3223L227.839 15.6623C227.703 17.4755 227.612 19.2208 227.499 21.034L227.227 21.3287C220.223 21.2833 216.098 21.2833 216.098 21.2833C216.098 24.0938 216.143 26.859 216.189 29.6015C220.563 29.6015 224.892 29.5109 229.221 29.2616L229.471 29.6015Z" fill="#231F20"/>
<path d="M255.741 29.6015C255.605 31.5508 255.514 33.5906 255.401 35.4039L255.015 35.6985C248.08 35.6985 241.076 35.7439 234.073 35.7892L233.846 35.4492C234.027 31.0748 234.073 26.7004 234.073 22.2579V12.3985C234.073 9.02135 234.027 5.68954 233.733 2.35772L234.027 2.06307C239.218 2.06307 251.774 1.97241 254.925 1.97241L255.151 2.26706C255.015 4.21629 254.857 5.93886 254.811 7.79742L254.54 8.09207C250.437 8.00141 246.403 7.95608 242.346 7.95608C242.346 8.86269 242.3 10.1546 242.3 11.4692C242.3 12.9878 242.3 14.5064 242.346 15.5037C246.199 15.5037 250.006 15.4583 253.814 15.3223L254.109 15.6623C253.973 17.4755 253.86 19.2208 253.769 21.034L253.474 21.3287C246.471 21.2833 242.346 21.2833 242.346 21.2833C242.346 24.0938 242.391 26.859 242.436 29.6015C246.811 29.6015 251.14 29.5109 255.469 29.2616L255.695 29.6015H255.741Z" fill="#231F20"/>
<path d="M165.372 175.385C165.553 172.915 165.667 171.147 165.712 168.676L166.143 168.54C167.956 169.923 170.29 171.487 174.37 171.487C177.929 171.487 180.037 169.832 180.037 167.543C180.037 165.254 177.951 164.075 174.416 162.534L172.648 161.763C170.041 160.63 165.508 158.386 165.508 152.584C165.508 146.781 169.407 142.498 177.453 142.498C181.872 142.498 184.343 143.359 186.406 144.265L186.632 144.56C186.451 146.804 186.292 148.504 186.202 150.838L185.771 151.02C182.688 148.595 179.583 148.345 178.495 148.345C175.413 148.345 173.736 149.818 173.736 151.586C173.736 153.876 175.866 154.737 178.835 155.915L181.125 156.822C185.408 158.545 188.309 161.446 188.309 166.727C188.309 173.255 183.504 177.538 175.413 177.538C170.313 177.538 167.843 176.586 165.667 175.77L165.372 175.385Z" fill="#231F20"/>
<path d="M203.588 177.38C198.647 177.38 191.167 175.816 191.167 164.393C191.167 160.109 192.074 151.02 204.245 151.02C216.416 151.02 216.53 160.721 216.575 164.143C216.575 173.799 211.475 177.38 203.588 177.38ZM204.064 172.348C207.531 172.348 208.347 168.722 208.347 164.075C208.347 160.789 208.053 155.984 203.882 155.984C200.324 155.984 199.508 159.406 199.508 164.075C199.508 168.404 200.165 172.348 204.086 172.348H204.064Z" fill="#231F20"/>
<path d="M239.125 176.201C237.742 176.587 235.884 177.244 232.892 177.244C225.05 177.244 219.429 172.779 219.429 164.302C219.429 160.721 220.993 151.02 232.552 151.02C235.884 151.02 238.037 151.745 239.442 152.267L239.692 152.607C239.352 154.646 239.216 156.165 239.034 158.273L238.604 158.409C237.606 157.684 236.178 156.686 233.844 156.686C227.792 156.686 227.792 163.486 227.792 164.053C227.792 165.141 227.928 171.487 234.275 171.487C236.654 171.487 238.218 170.58 239.216 169.923L239.601 170.15C239.465 172.303 239.42 173.776 239.374 175.907L239.148 176.201H239.125Z" fill="#231F20"/>
<path d="M242.662 176.632C242.912 172.303 243.002 169.198 243.002 164.823C243.002 158.636 242.821 155.644 242.436 152.584L242.73 152.289C245.767 151.813 247.921 151.428 250.958 150.861L251.298 151.247C251.207 155.19 251.162 158.001 251.162 161.945C251.162 167.316 251.207 171.124 251.547 176.451L251.252 176.791H249.688C247.218 176.791 245.495 176.836 243.025 176.927L242.685 176.587L242.662 176.632ZM242.708 147.461C242.753 146.555 242.753 145.648 242.753 144.742C242.753 143.314 242.708 142.271 242.617 140.843L242.912 140.503C245.767 140.209 247.807 139.937 250.663 139.551L250.958 139.846C250.867 141.795 250.822 143.178 250.822 145.172V146.306L250.595 146.646C247.785 146.986 245.835 147.258 243.07 147.733L242.73 147.439L242.708 147.461Z" fill="#231F20"/>
<path d="M277.203 175.68C275.208 176.496 272.964 177.402 268.817 177.402C256.917 177.402 255.149 168.744 255.149 164.279C255.149 157.094 259.184 151.042 267.479 151.042C271.197 151.042 278.721 152.04 278.721 164.8V165.707L278.427 166.047C272.76 166.138 268.771 166.183 263.06 166.342C263.536 169.016 265.009 171.872 270.063 171.872C273.644 171.872 276.07 170.58 277.498 169.832L277.837 169.968C277.656 171.963 277.588 173.345 277.498 175.34L277.203 175.725V175.68ZM267.253 156.12C265.168 156.12 263.354 157.683 263.105 161.219C266.006 161.219 268.114 161.174 271.061 161.083C271.061 157.275 268.975 156.142 267.253 156.142V156.12Z" fill="#231F20"/>
<path d="M295.54 176.813C293.454 177.244 291.596 177.38 290.259 177.38C284.842 177.38 283.028 174.093 283.028 170.285C283.028 167.429 283.074 166.296 283.255 157.049C282.122 157.049 281.351 157.094 280.218 157.139L279.991 156.845C280.173 154.941 280.286 153.649 280.422 151.745L280.717 151.518C281.668 151.518 282.326 151.564 283.232 151.609C283.278 150.997 283.278 150.362 283.278 149.75C283.278 148.232 283.232 147.189 283.187 145.648L283.414 145.308C286.179 144.583 288.128 144.061 290.893 143.268L291.233 143.563C291.233 145.852 291.143 148.617 291.097 151.564H295.857L296.152 151.858C295.902 153.762 295.812 155.054 295.676 156.958L295.404 157.253C293.84 157.162 292.684 157.117 291.12 157.071C291.12 157.071 291.029 165.253 291.029 167.203C291.029 170.444 291.301 171.826 293.84 171.826C294.746 171.826 295.834 171.441 296.038 171.35L296.424 171.577C296.197 173.39 296.084 174.728 295.948 176.473L295.608 176.813H295.54Z" fill="#231F20"/>
<path d="M309.524 188.622C308.391 188.577 307.235 188.531 306.147 188.531C304.81 188.531 303.473 188.577 302.158 188.622L301.931 188.237C303.79 184.429 304.833 181.664 306.396 177.72C303.586 169.107 300.39 160.245 297.308 152.108L297.534 151.768C300.617 151.723 302.861 151.587 305.966 151.337L306.351 151.632C306.646 153.151 308.912 161.242 310.544 167.294C310.839 165.821 314.352 155.168 314.964 151.927L315.349 151.587C317.774 151.587 319.497 151.541 321.968 151.451L322.149 151.836C320.857 155.599 319.814 158.16 318.386 161.877C313.445 174.773 311.202 182.48 309.864 188.282L309.524 188.622Z" fill="#231F20"/>
<path d="M328.608 158.817C326.138 158.817 324.279 157.049 324.279 154.692C324.279 152.335 326.115 150.544 328.518 150.544C330.92 150.544 332.711 152.312 332.711 154.647C332.711 156.981 330.988 158.817 328.586 158.817H328.608ZM328.54 151.247C326.591 151.247 325.073 152.743 325.073 154.67C325.073 156.596 326.636 158.092 328.563 158.092C330.49 158.092 331.94 156.573 331.94 154.715C331.94 152.743 330.467 151.247 328.54 151.247ZM330.512 157.049C330.014 157.049 329.9 157.072 329.424 157.095L329.334 157.027C329.334 157.027 328.858 156.075 328.359 155.146C328.268 155.146 328.178 155.146 328.155 155.146H328.042V155.463C328.042 155.825 328.042 156.573 328.064 156.959L327.996 157.049H326.976L326.886 156.959C326.886 156.12 326.886 155.214 326.886 154.964C326.886 154.012 326.886 153.151 326.84 152.244L326.931 152.131C326.931 152.131 327.906 152.131 328.155 152.131C328.835 152.131 329.198 152.176 329.515 152.312C330.014 152.494 330.308 152.992 330.308 153.604C330.308 154.284 330.059 154.624 329.402 154.919C329.9 155.78 330.24 156.369 330.58 156.959L330.512 157.049ZM328.019 152.924V153.559C328.019 153.74 328.019 153.944 328.019 154.33C328.064 154.33 328.11 154.33 328.132 154.33C328.812 154.33 329.107 154.103 329.107 153.582C329.107 153.06 328.88 152.902 328.2 152.902H328.019V152.924Z" fill="#231F20"/>
</svg>
