<svg width="328" height="140" viewBox="0 0 328 140" fill="none" xmlns="http://www.w3.org/2000/svg">
<path d="M22.7612 134.89L22.6187 134.992L19.0593 135.05L18.9798 134.932L19.6225 132.204L20.6672 127.89C21.373 124.819 21.5717 123.854 22.1559 120.968L22.2751 120.849L25.8556 120.791L25.935 120.907C25.0493 124.36 24.8483 125.183 24.0256 128.832L23.4227 131.665L22.7589 134.892L22.7612 134.89Z" fill="#231F20"/>
<path d="M34.8814 134.89L34.7388 135.011H29.5504L25.769 135.071L25.6685 134.95L26.6547 130.919L27.419 127.687C28.1645 124.397 28.2837 123.775 28.8469 120.968L28.9872 120.849H34.2574L37.6555 120.791L37.777 120.907L37.1133 123.194L36.9707 123.316H31.9039L31.1607 126.529H33.4137L36.1083 126.468L36.2088 126.626L35.5661 128.795L35.4049 128.893H30.6605L30.359 130.177L29.8355 132.404H32.2498L35.5264 132.325L35.6269 132.446L34.8837 134.894L34.8814 134.89Z" fill="#231F20"/>
<path d="M46.5926 134.89L46.45 135.011H41.2616L37.4802 135.071L37.3797 134.95L38.366 130.919L39.1302 127.687C39.8757 124.397 39.9949 123.775 40.5582 120.968L40.6984 120.849H45.9686L49.3668 120.791L49.4883 120.907L48.8245 123.194L48.682 123.316H43.6151L42.8719 126.529H45.1249L47.8196 126.468L47.9201 126.626L47.2774 128.795L47.1161 128.893H42.3718L42.0703 130.177L41.5468 132.404H43.961L47.2376 132.325L47.3381 132.446L46.5949 134.894L46.5926 134.89Z" fill="#231F20"/>
<path d="M58.3065 134.89L58.164 135.011H52.9756L49.1941 135.071L49.0936 134.95L50.0776 130.919L50.8418 127.687C51.585 124.397 51.7042 123.775 52.2698 120.968L52.41 120.849H57.6802L61.0783 120.791L61.1999 120.907L60.5361 123.194L60.3936 123.316H55.3267L54.5835 126.529H56.8365L59.5312 126.468L59.634 126.626L58.9913 128.795L58.83 128.893H54.0857L53.7842 130.177L53.2607 132.404H55.6726L58.9516 132.325L59.0521 132.446L58.3089 134.894L58.3065 134.89Z" fill="#231F20"/>
<path d="M77.0292 134.446L76.9077 134.61C76.7067 134.689 76.5268 134.787 76.3047 134.868C75.7836 135.071 74.7155 135.311 73.5516 135.311C71.9624 135.311 70.0319 134.95 68.6671 133.425C67.6808 132.301 67.3185 130.779 67.3185 129.175C67.3185 124.882 70.074 120.548 75.4026 120.548C76.0056 120.548 76.6273 120.606 77.2513 120.73C78.3988 120.951 78.8802 121.21 79.544 121.59L79.6048 121.753L78.8405 124.344L78.6816 124.381C78.4993 124.22 78.3193 124.062 78.137 123.919C77.5948 123.556 76.7301 123.299 75.8256 123.299C72.4275 123.299 70.9387 126.708 70.9387 128.993C70.9387 131.278 72.2265 132.625 74.4351 132.625C74.8978 132.625 75.3395 132.541 75.8023 132.425C76.5852 132.203 76.9872 131.94 77.6112 131.523L77.7724 131.602L77.0292 134.449V134.446Z" fill="#231F20"/>
<path d="M88.0157 133.984C86.8682 134.929 85.5617 135.248 84.0332 135.248C82.9886 135.248 81.5816 135.048 80.6164 134.206C79.7306 133.441 79.3099 132.341 79.3099 130.837C79.3099 128.988 80.2962 124.155 85.522 124.155C86.7887 124.155 88.0764 124.437 89.0206 125.278C90.0466 126.204 90.2874 127.325 90.2874 128.529C90.2874 129.191 90.1845 129.874 90.0256 130.538C89.7031 131.858 89.0814 133.124 88.0157 133.987V133.984ZM86.9289 128.067C86.9289 127.323 86.6882 126.283 85.5033 126.283C84.5591 126.283 84.0753 126.845 83.8556 127.104C83.0914 128.086 82.6684 130.378 82.6684 131.298C82.6684 131.779 82.7291 132.042 82.7876 132.18C83.0096 132.821 83.5518 133.14 84.2155 133.14C84.8185 133.14 85.3397 132.781 85.6832 132.359C85.9053 132.077 86.347 131.555 86.7303 129.774C86.8308 129.27 86.9313 128.687 86.9313 128.065L86.9289 128.067Z" fill="#231F20"/>
<path d="M106.565 134.889L106.423 134.992L103.146 135.071L103.027 134.931L103.871 131.42L104.212 129.972C104.312 129.534 104.616 128.107 104.616 127.787C104.616 127.265 104.354 126.703 103.59 126.703C102.826 126.703 102.302 127.123 101.961 127.368C101.842 128.349 101.802 128.589 101.58 129.634L101.138 131.578L100.475 134.889L100.332 134.992L97.0953 135.071L96.9948 134.931L97.7777 131.581L98.0792 130.217C98.4415 128.494 98.5022 128.088 98.5022 127.79C98.5022 126.745 97.7567 126.705 97.4949 126.705C96.934 126.705 96.4292 127.006 96.0085 127.347L95.3261 130.378L94.4006 134.889L94.258 134.992L90.9604 135.071L90.8599 134.931L91.7036 131.501L92.206 129.354C92.6688 127.211 92.7296 126.806 93.031 124.803L93.1713 124.679C94.5992 124.479 95.0012 124.42 96.5507 124.12L96.6699 124.257L96.4082 125.463C96.7097 125.222 97.0112 125.001 97.3337 124.803C97.9974 124.423 98.9229 124.159 99.6451 124.159C100.711 124.159 101.456 124.623 101.816 125.584C102.861 124.782 104.088 124.159 105.415 124.159C106.381 124.159 108.171 124.56 108.171 126.771C108.171 127.409 108.01 128.072 107.848 128.715L107.425 130.622L106.563 134.896L106.565 134.889Z" fill="#231F20"/>
<path d="M124.566 134.889L124.424 134.992L121.147 135.071L121.028 134.931L121.871 131.42L122.213 129.972C122.313 129.534 122.617 128.107 122.617 127.787C122.617 127.265 122.355 126.703 121.591 126.703C120.827 126.703 120.303 127.123 119.962 127.368C119.843 128.349 119.803 128.589 119.581 129.634L119.139 131.578L118.476 134.889L118.333 134.992L115.096 135.071L114.996 134.931L115.779 131.581L116.08 130.217C116.442 128.494 116.503 128.088 116.503 127.79C116.503 126.745 115.758 126.705 115.496 126.705C114.935 126.705 114.43 127.006 114.009 127.347L113.327 130.378L112.402 134.889L112.259 134.992L108.961 135.071L108.861 134.931L109.704 131.501L110.207 129.354C110.67 127.211 110.73 126.806 111.032 124.803L111.172 124.679C112.6 124.479 113.002 124.42 114.549 124.12L114.671 124.257L114.409 125.463C114.711 125.222 115.012 125.001 115.335 124.803C115.998 124.423 116.924 124.159 117.646 124.159C118.712 124.159 119.457 124.623 119.817 125.584C120.862 124.782 122.089 124.159 123.416 124.159C124.382 124.159 126.172 124.56 126.172 126.771C126.172 127.409 126.011 128.072 125.849 128.715L125.426 130.622L124.562 134.896L124.566 134.889Z" fill="#231F20"/>
<path d="M136.652 134.866L136.511 134.989L133.375 135.069L133.274 134.929L133.515 133.926C132.611 134.787 131.405 135.23 130.339 135.23C129.191 135.23 127.562 134.689 127.562 132.52C127.562 131.578 127.803 130.634 128.046 129.692L128.509 127.706C128.85 126.283 128.911 125.943 129.152 124.598L129.292 124.476L132.489 124.318L132.59 124.476C132.407 125.26 132.227 126.022 132.026 126.801C131.884 127.444 131.725 128.086 131.564 128.729C131.384 129.452 131.042 130.874 131.042 131.555C131.042 132.299 131.545 132.7 132.167 132.7C132.971 132.7 133.513 132.299 133.936 131.998L134.78 128.107L135.485 124.595L135.644 124.474L138.881 124.315L138.982 124.474L137.715 129.809L137.271 131.818L136.647 134.866H136.652Z" fill="#231F20"/>
<path d="M148.846 134.889L148.706 134.992L145.429 135.05L145.329 134.931L146.133 131.541L146.575 129.478C146.656 129.074 146.815 128.275 146.815 127.832C146.815 127.106 146.294 126.708 145.731 126.708C145.128 126.708 144.623 126.99 144.123 127.328C143.359 130.842 143.137 131.905 142.555 134.871L142.412 134.994L139.096 135.073L139.016 134.934L139.839 131.462L140.162 130.098C140.706 127.591 140.804 127.027 141.106 124.822L141.267 124.663C142.795 124.46 143.078 124.423 144.623 124.101L144.766 124.239L144.504 125.344C145.207 124.84 146.173 124.141 147.661 124.141C148.907 124.141 150.375 124.742 150.375 126.771C150.375 127.673 149.954 129.559 149.611 130.982L149.349 132.367L148.846 134.894V134.889Z" fill="#231F20"/>
<path d="M155.43 131.378C155.068 133.082 155.007 133.504 154.787 134.889L154.647 134.992L151.167 135.071L151.067 134.931C151.67 132.583 151.791 132.124 152.373 129.557L152.593 128.573C152.976 126.848 153.056 126.405 153.278 124.819L153.418 124.677C155.108 124.455 155.488 124.397 156.956 124.117L157.075 124.255C156.594 126.202 156.412 126.943 155.748 129.89L155.425 131.378H155.43ZM157.44 122.21L157.3 122.373L154.002 122.833L153.881 122.693L154.465 119.983L154.647 119.841L157.963 119.398L158.083 119.54L157.44 122.21Z" fill="#231F20"/>
<path d="M165.76 132.159L165.117 134.609L164.998 134.747C164.797 134.826 164.617 134.91 164.414 134.968C163.951 135.127 163.147 135.248 162.404 135.248C159.548 135.248 157.678 133.504 157.678 130.475C157.678 127.668 159.588 124.155 163.911 124.155C164.435 124.155 164.937 124.215 165.461 124.318C166.267 124.476 166.587 124.698 167.05 124.978L167.09 125.117L166.407 127.402L166.206 127.463C166.087 127.305 165.966 127.162 165.844 127.043C165.442 126.684 164.778 126.502 164.215 126.502C162.324 126.502 161.139 128.428 161.139 130.27C161.139 132.236 162.388 132.858 163.411 132.858C164.556 132.858 165.239 132.317 165.561 132.056L165.762 132.154L165.76 132.159Z" fill="#231F20"/>
<path d="M177.796 128.349C177.032 131.599 176.891 132.32 176.489 134.889L176.347 134.992L173.311 135.071L173.21 134.95L173.353 134.068C173.012 134.369 172.809 134.551 172.327 134.772C171.724 135.052 171.081 135.215 170.418 135.215C169.247 135.215 168.223 134.672 167.66 133.667C167.337 133.108 167.115 132.264 167.115 131.319C167.115 129.477 167.88 127.407 169.308 126.122C171.198 124.399 173.407 124.378 175.178 124.36H178.598L178.714 124.518L177.791 128.351L177.796 128.349ZM174.963 126.582C174.459 126.561 173.935 126.542 173.433 126.661C171.261 127.223 170.616 129.75 170.616 130.951C170.616 132.7 171.645 132.942 172.124 132.942C172.869 132.942 173.295 132.597 173.655 132.296L174.963 126.579V126.582Z" fill="#231F20"/>
<path d="M184.541 134.827L184.378 134.99C183.737 135.106 183.253 135.211 182.571 135.211C180.841 135.211 179.533 134.668 179.533 132.861C179.533 132.019 179.914 130.515 180.196 129.389L180.86 126.64L179.451 126.682L179.334 126.524L179.914 124.495L180.056 124.395H181.386L181.968 121.805L182.106 121.663C183.613 121.324 184.018 121.224 185.406 120.821L185.525 120.944L185.081 122.609L184.642 124.435L186.691 124.395L186.771 124.533C186.488 125.377 186.408 125.598 186.149 126.542L185.985 126.682L184.134 126.64L183.291 130.154C183.172 130.592 182.91 131.716 182.91 132.059C182.91 132.7 183.433 132.882 183.854 132.882C184.375 132.882 184.658 132.758 185.02 132.642L185.139 132.74L184.536 134.824L184.541 134.827Z" fill="#231F20"/>
<path d="M190.166 131.378C189.804 133.082 189.741 133.504 189.519 134.889L189.381 134.992L185.901 135.071L185.798 134.931C186.401 132.583 186.525 132.124 187.107 129.557L187.327 128.573C187.712 126.848 187.792 126.405 188.014 124.819L188.152 124.677C189.841 124.455 190.222 124.397 191.692 124.117L191.811 124.255C191.328 126.202 191.15 126.943 190.484 129.89L190.164 131.378H190.166ZM192.174 122.21L192.036 122.373L188.738 122.833L188.614 122.693L189.199 119.983L189.381 119.841L192.697 119.398L192.821 119.54L192.174 122.21Z" fill="#231F20"/>
<path d="M201.018 133.984C199.87 134.929 198.564 135.248 197.037 135.248C195.99 135.248 194.583 135.048 193.621 134.206C192.735 133.441 192.312 132.341 192.312 130.837C192.312 128.988 193.296 124.155 198.524 124.155C199.788 124.155 201.076 124.437 202.025 125.278C203.046 126.204 203.289 127.325 203.289 128.529C203.289 129.191 203.189 129.874 203.027 130.538C202.707 131.858 202.083 133.124 201.018 133.987V133.984ZM199.931 128.067C199.931 127.323 199.69 126.283 198.503 126.283C197.561 126.283 197.075 126.845 196.855 127.104C196.089 128.086 195.67 130.378 195.67 131.298C195.67 131.779 195.729 132.042 195.787 132.18C196.009 132.821 196.554 133.14 197.215 133.14C197.818 133.14 198.342 132.781 198.683 132.359C198.905 132.077 199.349 131.555 199.73 129.774C199.83 129.27 199.931 128.687 199.931 128.065V128.067Z" fill="#231F20"/>
<path d="M213.71 134.889L213.572 134.992L210.293 135.05L210.195 134.931L210.999 131.541L211.438 129.478C211.523 129.074 211.682 128.275 211.682 127.832C211.682 127.106 211.158 126.708 210.595 126.708C209.992 126.708 209.489 126.99 208.987 127.328C208.223 130.842 208.001 131.905 207.416 134.871L207.274 134.994L203.957 135.073L203.878 134.934L204.701 131.462L205.023 130.098C205.568 127.591 205.666 127.027 205.967 124.822L206.126 124.663C207.657 124.46 207.938 124.423 209.485 124.101L209.625 124.239L209.363 125.344C210.064 124.84 211.032 124.141 212.523 124.141C213.766 124.141 215.236 124.742 215.236 126.771C215.236 127.673 214.816 129.559 214.472 130.982L214.21 132.367L213.705 134.894L213.71 134.889Z" fill="#231F20"/>
<path d="M215.872 134.087L216.496 131.938L216.679 131.879C217.06 132.299 217.924 133.185 219.474 133.185C221.023 133.185 221.203 132.301 221.203 132.021C221.203 131.341 220.537 131.017 219.836 130.697L219.392 130.476C218.326 129.935 217.298 129.312 217.298 127.727C217.298 127.225 217.48 124.117 221.905 124.117C223.031 124.117 224.136 124.339 225.321 124.919L225.401 125.101C225.081 126.141 225.02 126.323 224.798 127.244L224.602 127.286C224.417 127.083 224.239 126.862 223.999 126.703C223.494 126.323 222.748 126.12 222.187 126.12C221.101 126.12 220.635 126.664 220.635 127.146C220.635 127.748 221.341 128.086 221.865 128.328L222.328 128.55C223.192 128.988 224.639 129.692 224.639 131.476C224.639 132.441 224.136 135.269 219.712 135.269C217.663 135.269 216.578 134.647 215.931 134.264L215.87 134.087H215.872Z" fill="#231F20"/>
<path d="M231.707 133.945L232.389 131.417L232.59 131.359C232.852 131.66 233.034 131.879 233.513 132.159C234.499 132.742 235.446 132.802 235.848 132.802C237.295 132.802 238.402 132.077 238.402 130.974C238.402 129.991 237.517 129.492 236.551 128.988L235.885 128.629C234.843 128.027 233.352 127.186 233.352 125.099C233.352 124.294 233.614 123.152 234.418 122.208C235.483 120.965 237.152 120.522 238.823 120.522C240.994 120.522 242.404 121.305 242.964 121.627L243.044 121.767L242.298 124.273L242.102 124.334C241.859 124.033 241.74 123.933 241.42 123.712C240.737 123.248 239.929 122.989 239.104 122.989C237.816 122.989 236.991 123.688 236.991 124.614C236.991 125.477 237.657 125.899 238.903 126.558L239.386 126.799C240.433 127.4 242.081 128.347 242.081 130.471C242.081 132.879 240.312 135.304 236.131 135.304C235.102 135.304 234.097 135.146 233.132 134.822C232.471 134.605 232.146 134.402 231.746 134.141L231.707 133.94V133.945Z" fill="#231F20"/>
<path d="M252.065 133.984C250.917 134.929 249.608 135.248 248.08 135.248C247.033 135.248 245.628 135.048 244.663 134.206C243.777 133.441 243.359 132.341 243.359 130.837C243.359 128.988 244.345 124.155 249.571 124.155C250.835 124.155 252.123 124.437 253.067 125.278C254.093 126.204 254.336 127.325 254.336 128.529C254.336 129.191 254.231 129.874 254.072 130.538C253.752 131.858 253.13 133.124 252.065 133.987V133.984ZM250.976 128.067C250.976 127.323 250.735 126.283 249.55 126.283C248.606 126.283 248.122 126.845 247.902 127.104C247.136 128.086 246.715 130.378 246.715 131.298C246.715 131.779 246.776 132.042 246.834 132.18C247.056 132.821 247.601 133.14 248.262 133.14C248.865 133.14 249.386 132.781 249.732 132.359C249.954 132.077 250.394 131.555 250.779 129.774C250.877 129.27 250.976 128.687 250.976 128.065V128.067Z" fill="#231F20"/>
<path d="M263.673 132.159L263.033 134.609L262.909 134.747C262.708 134.826 262.528 134.91 262.327 134.968C261.862 135.127 261.063 135.248 260.317 135.248C257.459 135.248 255.591 133.504 255.591 130.475C255.591 127.668 257.503 124.155 261.827 124.155C262.35 124.155 262.853 124.215 263.372 124.318C264.178 124.476 264.498 124.698 264.961 124.978L265.003 125.117L264.321 127.402L264.117 127.463C263.996 127.305 263.876 127.162 263.753 127.043C263.353 126.684 262.687 126.502 262.126 126.502C260.235 126.502 259.048 128.428 259.048 130.27C259.048 132.236 260.298 132.858 261.32 132.858C262.465 132.858 263.147 132.317 263.472 132.056L263.673 132.154V132.159Z" fill="#231F20"/>
<path d="M268.831 131.378C268.469 133.082 268.41 133.504 268.188 134.889L268.051 134.992L264.573 135.071L264.47 134.931C265.073 132.583 265.192 132.124 265.779 129.557L265.999 128.573C266.384 126.848 266.464 126.405 266.681 124.819L266.824 124.677C268.513 124.455 268.894 124.397 270.362 124.117L270.486 124.255C270.002 126.202 269.82 126.943 269.156 129.89L268.836 131.378H268.831ZM270.843 122.21L270.706 122.373L267.405 122.833L267.284 122.693L267.866 119.983L268.051 119.841L271.367 119.398L271.488 119.54L270.846 122.21H270.843Z" fill="#231F20"/>
<path d="M280.269 131.9C280.127 132.343 280.008 132.781 279.884 133.222C279.767 133.628 279.687 134.026 279.582 134.406L279.484 134.528C278.982 134.789 278.037 135.248 276.046 135.248C273.211 135.248 272.307 134.185 271.944 133.742C271.199 132.84 271.019 131.837 271.019 130.776C271.019 127.827 272.847 124.155 277.053 124.155C277.977 124.155 278.923 124.339 279.585 124.737C281.057 125.579 281.155 127.064 281.155 127.887C281.155 128.827 280.977 129.589 280.814 130.252L280.655 130.354C277.741 130.333 276.852 130.354 274.3 130.412C274.279 130.634 274.261 130.837 274.261 131.058C274.261 132.238 275.065 132.924 276.693 132.924C277.918 132.924 279.108 132.481 280.092 131.779L280.274 131.9H280.269ZM278.217 128.368C278.278 128.067 278.341 127.766 278.341 127.465C278.341 126.803 277.937 126.141 276.974 126.141C276.628 126.141 276.109 126.225 275.546 126.766C274.983 127.288 274.782 127.908 274.623 128.41L278.22 128.37L278.217 128.368Z" fill="#231F20"/>
<path d="M287.477 134.827L287.318 134.99C286.675 135.106 286.191 135.211 285.507 135.211C283.777 135.211 282.471 134.668 282.471 132.861C282.471 132.019 282.852 130.515 283.134 129.389L283.796 126.64L282.389 126.682L282.27 126.524L282.852 124.495L282.992 124.395H284.319L284.901 121.805L285.042 121.663C286.551 121.324 286.951 121.224 288.339 120.821L288.458 120.944L288.019 122.609L287.575 124.435L289.625 124.395L289.709 124.533C289.426 125.377 289.344 125.598 289.085 126.542L288.921 126.682L287.075 126.64L286.231 130.154C286.107 130.592 285.85 131.716 285.85 132.059C285.85 132.7 286.371 132.882 286.792 132.882C287.316 132.882 287.598 132.758 287.958 132.642L288.077 132.74L287.475 134.824L287.477 134.827Z" fill="#231F20"/>
<path d="M300.322 124.498C299.817 125.279 299.737 125.4 299.071 126.561C298.449 127.645 297.445 129.35 296.821 130.413L295.112 133.383C293.824 135.628 293.665 135.971 291.695 139.823L291.511 139.961L288.456 140L288.377 139.858C289.582 137.993 291.291 135.386 291.291 135.244L290.889 132.096L290.426 128.603C290.164 126.659 290.085 126.116 289.842 124.574L289.966 124.416C291.431 124.395 291.856 124.374 293.322 124.274L293.446 124.395L293.605 127.102L293.887 131.117L295.414 128.191C296.416 126.181 296.54 125.962 297.223 124.519L297.381 124.379L300.214 124.32L300.319 124.502L300.322 124.498Z" fill="#231F20"/>
<path d="M46.955 96.9563C40.3013 96.9563 32.098 92.9204 32.2055 80.1597C32.3644 62.0083 43.6129 54.2885 54.4057 55.1279C50.0096 53.1297 42.3486 51.6352 34.0097 52.4116C23.0089 53.4398 14.4761 58.434 10.7555 67.2754C8.53286 72.5611 8 76.8535 8 81.4607C8 101.116 21.8965 112.45 40.4275 112.45C45.2583 112.45 50.477 111.669 53.4779 110.626C54.782 110.232 57.264 109.195 57.264 109.195C57.264 109.195 57.8436 108.913 58.047 108.281C58.2456 107.863 62.1065 92.7385 62.221 92.3981C62.3402 92.0624 61.4381 91.3302 60.9193 91.7429C60.3934 92.1673 54.3941 96.954 46.955 96.954V96.9563Z" fill="#231F20"/>
<path d="M70.5812 45.2214C70.1232 44.9416 65.4887 41.9665 60.2699 40.9219C56.8717 40.2738 53.6091 39.8867 50.2203 39.8867C38.488 39.8867 29.5018 43.8644 23.007 49.8309C24.3391 49.3809 25.7133 48.9939 27.125 48.6838C39.8459 45.8742 52.4943 49.635 61.5156 57.6883C61.9503 57.9798 64.2033 60.1994 64.9348 61.1507C64.9862 61.2206 64.9161 61.146 65.1124 61.3582C65.3087 61.5797 66.2903 61.3279 66.4002 60.9758C66.5007 60.6214 70.7799 46.2729 70.836 46.1307C70.9014 45.9955 70.9342 45.4965 70.5789 45.2237L70.5812 45.2214Z" fill="#231F20"/>
<path d="M166.206 109.554L165.69 109.993L151.174 110.282L150.809 109.771L153.799 97.1783L154.967 92.0862C156.21 86.4787 156.355 85.3829 156.355 84.5155C156.355 81.8249 154.602 81.2397 153.434 81.2397C151.758 81.2397 150.592 82.0417 149.571 82.6946L148.257 90.1953L146.799 96.8169L144.172 109.554L143.66 109.993L129.287 110.282L128.922 109.771L131.694 97.9035L132.86 92.8859C133.225 90.9204 133.662 89.0271 134.029 87.0616C134.176 86.3342 134.393 85.243 134.393 84.2964C134.393 81.3096 132.059 81.2397 131.622 81.2397C129.799 81.2397 128.773 82.0417 127.971 82.6946L125.494 93.7579L122.208 109.554L121.701 109.993L107.105 110.282L106.741 109.771L109.737 97.5421L111.777 89.2486C113.455 81.4588 113.747 79.7102 114.696 72.867L115.21 72.3564C122.14 71.4121 123.528 71.1206 130.166 69.8826L130.603 70.3932L129.579 75.124C130.68 74.1773 131.771 73.3053 133.01 72.6501C134.323 71.8481 137.822 70.174 141.325 70.174C143.88 70.174 147.6 70.9015 149.134 75.3408C151.616 73.5222 156.138 70.174 161.754 70.174C166.573 70.174 172.112 72.5009 172.112 79.7102C172.112 81.8949 171.607 84.2218 171.023 86.4787L169.268 94.2685L166.209 109.554H166.206Z" fill="#231F20"/>
<path d="M171.453 104.959L175.31 90.9599L176.35 90.6777C177.572 92.0907 178.329 92.8391 180.208 94.0585C184.352 96.5976 188.778 97.1572 191.415 97.1572C199.043 97.1572 201.212 93.1212 201.212 90.6754C201.212 87.199 198.101 85.5086 193.682 82.9719L190.573 81.1882C185.677 78.367 178.801 74.2331 178.801 64.4615C178.801 56.758 182.569 51.6868 184.165 49.9941C189.912 43.6079 198.106 42.0107 204.984 42.0107C215.34 42.0107 222.029 45.3915 225.506 47.0819L225.981 47.7394L222.026 61.8315L221.084 62.1113C219.955 60.9874 218.824 59.9522 217.6 59.1059C214.115 56.6647 209.593 55.7227 207.143 55.7227C202.532 55.7227 199.52 58.2618 199.52 61.4561C199.52 64.2726 201.588 66.2452 207.618 69.4417L209.502 70.4723C213.923 72.9158 222.309 77.6139 222.309 87.7609C222.309 101.195 211.755 111.151 193.495 111.151C188.498 111.151 183.504 110.494 178.61 108.99C175.41 107.959 173.998 107.209 171.739 105.891L171.456 104.954L171.453 104.959Z" fill="#231F20"/>
<path d="M260.913 101.984C255.225 110.792 245.446 111.009 242.09 111.009C231.216 111.009 224.578 105.625 224.578 94.7766C224.578 88.9523 226.696 81.8947 230.634 77.1616C235.815 71.1204 242.672 70.2461 247.489 70.2461C252.306 70.2461 256.171 71.4119 257.852 72.3562C265.069 76.145 265.069 84.4407 265.069 86.1871C265.069 88.8078 264.854 91.3562 264.267 93.83C263.465 97.0336 262.15 100.088 260.911 101.981L260.913 101.984ZM250.483 84.0047C250.483 81.1649 249.312 79.3462 247.05 79.3462C244.205 79.3462 242.749 82.4053 242.38 83.0604C240.557 86.5531 239.246 93.8323 239.246 96.8167C239.246 98.0548 239.246 101.839 242.672 101.839C246.465 101.839 248.51 96.7445 249.676 90.701C250.408 87.2083 250.483 84.3685 250.483 84.0047Z" fill="#231F20"/>
<path d="M298.622 98.4185C297.162 103.662 297.021 104.607 296.068 108.827L295.488 109.337C292.787 110.209 290.232 110.941 286.511 110.941C274.258 110.941 268.273 103.662 268.273 93.0349C268.273 82.4076 275.859 70.2507 291.401 70.2507C298.185 70.2507 301.179 72.1416 303.002 73.2375L303.149 73.818L300.305 83.6456L299.571 83.7179C297.818 81.5332 295.853 80.2928 293.081 80.2928C288.117 80.2928 283.452 84.879 283.452 92.5942C283.452 96.6698 285.418 100.675 290.891 100.675C294.394 100.675 296.435 99.2182 297.898 98.1247L298.625 98.4162L298.622 98.4185Z" fill="#231F20"/>
<path d="M102.693 101.984C96.9996 110.792 87.2234 111.009 83.8673 111.009C72.9974 111.009 66.3577 105.625 66.3577 94.7766C66.3577 88.9523 68.4751 81.8947 72.4155 77.1616C77.5992 71.1204 84.4516 70.2461 89.2707 70.2461C94.0899 70.2461 97.9531 71.4119 99.6288 72.3562C106.853 76.145 106.853 84.4407 106.853 86.1871C106.853 88.8078 106.633 91.3562 106.051 93.83C105.25 97.0336 103.934 100.088 102.695 101.981L102.693 101.984ZM92.2599 84.0047C92.2599 81.1649 91.0937 79.3462 88.829 79.3462C85.9848 79.3462 84.5287 82.4053 84.1618 83.0604C82.3389 86.5531 81.0254 93.8323 81.0254 96.8167C81.0254 98.0548 81.0254 101.839 84.4516 101.839C88.2517 101.839 90.2897 96.7445 91.4583 90.701C92.1875 87.2083 92.2599 84.3685 92.2599 84.0047Z" fill="#231F20"/>
<path d="M87.3711 27.3008C87.2192 34.2722 87.121 41.2436 87.121 48.215C87.121 55.5408 87.2192 57.8654 87.4739 62.5099L87.1701 62.813C82.9656 62.813 81.956 62.813 78.1582 62.9622L77.9034 62.6615C78.1068 57.4084 78.2096 54.3261 78.2096 48.3666C78.2096 35.4869 78.0554 32.9082 77.7515 27.4523L77.9525 27.1492C81.5984 27.2028 82.7646 27.2028 87.121 27L87.3711 27.3031V27.3008Z" fill="#231F20"/>
<path d="M116.183 56.3476L115.833 62.5077L115.424 62.8108H93.1419L92.8918 62.6103C93.0437 57.3059 93.1419 54.1233 93.1419 47.7581C93.1419 34.221 93.0437 32.3511 92.7422 27.4501L93.0414 27.147H115.272L115.522 27.3498L115.172 33.2091L114.917 33.5122C108.791 33.3606 107.625 33.3606 101.904 33.3606V41.3906L114.155 41.1901L114.41 41.4932L114.108 47.2009L113.751 47.504H101.906L102.009 56.3453C108.492 56.3453 109.906 56.294 115.882 55.9909L116.183 56.3453V56.3476Z" fill="#231F20"/>
<path d="M143.628 56.3476L143.272 62.5077L142.87 62.8108H120.591L120.336 62.6103C120.488 57.3059 120.591 54.1233 120.591 47.7581C120.591 34.221 120.488 32.3511 120.179 27.4501L120.488 27.147H142.721L142.971 27.3498L142.613 33.2091L142.363 33.5122C136.238 33.3606 135.072 33.3606 129.355 33.3606V41.3906L141.601 41.1901L141.861 41.4932L141.555 47.2009L141.202 47.504H129.355L129.453 56.3453C135.934 56.3453 137.35 56.294 143.326 55.9909L143.63 56.3453L143.628 56.3476Z" fill="#231F20"/>
<path d="M171.072 56.3476L170.715 62.5077L170.315 62.8108H148.031L147.781 62.6103C147.933 57.3059 148.031 54.1233 148.031 47.7581C148.031 34.221 147.933 32.3511 147.631 27.4501L147.933 27.147H170.161L170.42 27.3498L170.06 33.2091L169.808 33.5122C163.68 33.3606 162.516 33.3606 156.79 33.3606V41.3906L169.046 41.1901L169.298 41.4932L168.997 47.2009L168.642 47.504H156.788L156.893 56.3453C163.374 56.3453 164.793 56.294 170.766 55.9909L171.07 56.3453L171.072 56.3476Z" fill="#231F20"/>
<path d="M311.528 73.3166C310.647 73.2979 310.497 73.2979 309.591 73.2979C309.565 74.3518 309.565 74.522 309.565 75.4569C309.565 78.1009 309.612 79.1432 309.642 79.775L309.577 79.8496C308.976 79.8496 308.939 79.8496 308.361 79.8823L308.312 79.8077C308.361 78.3341 308.371 76.8582 308.371 75.387C308.371 74.3098 308.354 73.7526 308.343 73.3002C307.424 73.3096 307.317 73.3096 306.375 73.3422L306.316 73.2699C306.333 72.9015 306.333 72.8596 306.358 72.4888L306.41 72.4142C307.169 72.4142 308.378 72.4142 309.14 72.4049C309.953 72.4049 310.766 72.3956 311.579 72.3816L311.631 72.4562C311.601 72.8269 311.591 72.9412 311.591 73.2466L311.523 73.3189L311.528 73.3166Z" fill="#231F20"/>
<path d="M319.722 72.454C319.778 74.8975 319.857 77.3293 320 79.7728L319.944 79.8474C319.413 79.8474 319.359 79.8591 318.806 79.8801L318.74 79.8055C318.752 78.6164 318.74 78.248 318.712 77.0868L318.686 75.9724C318.686 75.2263 318.675 73.6128 318.675 73.2141C318.509 73.825 318.347 74.3799 317.906 75.8558L317.422 77.383C317.029 78.5511 316.901 78.9614 316.662 79.7728L316.595 79.8474C316.029 79.8474 315.98 79.8474 315.372 79.8801L315.307 79.8055C315.258 79.6236 315.204 79.4464 315.153 79.2785C315.073 78.9544 314.601 77.383 314.496 77.0356L314.071 75.562C313.65 74.0558 313.605 73.8856 313.463 73.2141C313.451 74.2656 313.437 74.4988 313.407 75.5503L313.332 77.4366C313.29 78.6793 313.29 78.9544 313.276 79.7752L313.227 79.8498C312.722 79.8498 312.654 79.8498 312.21 79.8824L312.161 79.8078C312.18 79.5956 312.201 79.3765 312.227 79.1666C312.327 77.9122 312.367 76.6625 312.444 75.4081C312.547 73.5335 312.561 73.4193 312.561 72.489L312.626 72.4144C313.393 72.4144 313.584 72.405 314.253 72.3817L314.323 72.4563C314.515 73.3004 314.692 73.9089 314.903 74.6247L316.055 78.8798L317.396 74.4871C317.822 73.1185 317.84 73.0672 317.997 72.4866L318.062 72.412C318.827 72.412 318.927 72.4027 319.659 72.3794L319.719 72.454H319.722Z" fill="#231F20"/>
</svg>
