<svg width="287" height="81" viewBox="0 0 287 81" fill="none" xmlns="http://www.w3.org/2000/svg">
<path d="M85.879 80.1765C85.8177 80.1765 85.7642 80.1765 85.7029 80.1625C85.2436 80.0714 84.9527 79.6583 85.0523 79.2382L103.363 0.615176C103.462 0.195032 103.906 -0.0780621 104.373 0.0199716C104.832 0.111003 105.123 0.524144 105.024 0.944289L86.7133 79.5673C86.6291 79.9314 86.277 80.1835 85.8866 80.1835L85.879 80.1765Z" fill="#231F20"/>
<path d="M124.882 20.1307C122.815 20.1097 122.294 20.1097 120.143 20.1868L120.059 20.0887C120.059 18.2961 120.082 16.5315 120.105 14.7599C120.128 13.6255 120.151 12.4911 120.151 11.3567C120.151 9.60614 120.105 8.3177 120.021 6.18897L120.128 6.09093C122.256 6.11194 122.715 6.11194 124.843 6.03491L124.928 6.13295C124.866 8.12163 124.821 9.31204 124.821 11.6018C124.821 14.4028 124.882 17.2528 124.974 20.0327L124.889 20.1307H124.882Z" fill="#231F20"/>
<path d="M132.881 14.3258V17.0708C134.581 17.0708 136.165 17.0287 138.4 16.9517L138.531 17.0708L138.316 20.0118L138.117 20.1308C135.139 20.1308 134.642 20.1098 133.984 20.1098C131.595 20.1098 130.355 20.1518 128.288 20.1868L128.181 20.0468C128.25 17.757 128.265 16.5246 128.265 13.8216C128.265 9.046 128.219 8.23372 128.112 6.20303L128.242 6.08398H138.025L138.132 6.16101L137.979 8.90595L137.849 9.00399H132.828V11.5319L137.589 11.4548L137.719 11.5949L137.543 14.1998L137.39 14.3188H132.866L132.881 14.3258Z" fill="#231F20"/>
<path d="M145.549 14.3258V17.0708C147.248 17.0708 148.833 17.0287 151.068 16.9517L151.198 17.0708L150.984 20.0118L150.785 20.1308C147.807 20.1308 147.31 20.1098 146.651 20.1098C144.263 20.1098 143.023 20.1518 140.956 20.1868L140.849 20.0468C140.918 17.757 140.933 16.5246 140.933 13.8216C140.933 9.046 140.887 8.23372 140.78 6.20303L140.91 6.08398H150.693L150.8 6.16101L150.647 8.90595L150.517 9.00399H145.495V11.5319L150.257 11.4548L150.387 11.5949L150.211 14.1998L150.058 14.3188H145.534L145.549 14.3258Z" fill="#231F20"/>
<path d="M158.218 14.3258V17.0708C159.918 17.0708 161.502 17.0287 163.738 16.9517L163.868 17.0708L163.653 20.0118L163.454 20.1308C160.477 20.1308 159.979 20.1098 159.321 20.1098C156.932 20.1098 155.692 20.1518 153.625 20.1868L153.518 20.0468C153.587 17.757 153.603 16.5246 153.603 13.8216C153.603 9.046 153.557 8.23372 153.449 6.20303L153.58 6.08398H163.362L163.47 6.16101L163.316 8.90595L163.186 9.00399H158.165V11.5319L162.926 11.4548L163.056 11.5949L162.88 14.1998L162.727 14.3188H158.203L158.218 14.3258Z" fill="#231F20"/>
<path d="M125.593 31.5238C124.628 31.0757 123.656 30.8516 122.684 30.8516C121.505 30.8516 120.434 31.1177 119.454 31.6429C118.474 32.1681 117.709 32.8893 117.15 33.7996C116.591 34.7099 116.315 35.7253 116.315 36.8317C116.315 37.938 116.591 38.9604 117.15 39.8777C117.709 40.795 118.474 41.5303 119.454 42.0625C120.434 42.6016 121.505 42.8677 122.684 42.8677C123.618 42.8677 124.567 42.6647 125.539 42.2515C126.512 41.8384 127.369 41.2922 128.127 40.599L130.905 43.3579C129.788 44.4153 128.479 45.2556 126.979 45.8718C125.478 46.488 123.963 46.8031 122.455 46.8031C120.403 46.8031 118.543 46.3689 116.866 45.5006C115.19 44.6393 113.881 43.4489 112.924 41.9364C111.967 40.4239 111.493 38.7363 111.493 36.8807C111.493 35.025 111.983 33.3725 112.955 31.881C113.927 30.3895 115.274 29.213 116.974 28.3518C118.673 27.4905 120.564 27.0703 122.638 27.0703C124.154 27.0703 125.647 27.3574 127.124 27.9316C128.601 28.5058 129.849 29.2831 130.89 30.2704L128.142 33.3585C127.422 32.5742 126.58 31.958 125.616 31.5168L125.593 31.5238Z" fill="#231F20"/>
<path d="M149.062 28.3657C150.777 29.22 152.124 30.4034 153.111 31.9089C154.099 33.4144 154.589 35.081 154.589 36.9226C154.589 38.7642 154.099 40.4378 153.111 41.9503C152.124 43.4629 150.777 44.6533 149.062 45.5146C147.347 46.3829 145.449 46.817 143.359 46.817C141.269 46.817 139.363 46.3829 137.649 45.5146C135.934 44.6533 134.587 43.4628 133.599 41.9643C132.612 40.4658 132.122 38.7782 132.122 36.9226C132.122 35.067 132.612 33.4074 133.599 31.9089C134.587 30.4034 135.926 29.227 137.633 28.3657C139.34 27.5114 141.246 27.0842 143.359 27.0842C145.472 27.0842 147.355 27.5114 149.062 28.3657ZM140.19 31.6568C139.195 32.196 138.407 32.9242 137.832 33.8556C137.258 34.7869 136.967 35.8092 136.967 36.9156C136.967 38.022 137.258 39.0723 137.848 40.0037C138.437 40.935 139.226 41.6702 140.205 42.2164C141.185 42.7626 142.265 43.0357 143.42 43.0357C144.576 43.0357 145.633 42.7696 146.605 42.2304C147.577 41.6912 148.335 40.956 148.909 40.0177C149.475 39.0793 149.759 38.043 149.759 36.9156C149.759 35.7882 149.475 34.7869 148.909 33.8556C148.342 32.9242 147.577 32.196 146.605 31.6568C145.633 31.1176 144.576 30.8515 143.42 30.8515C142.265 30.8515 141.185 31.1176 140.19 31.6568Z" fill="#231F20"/>
<path d="M157.996 27.3853H163.255L169.769 39.1353L176.222 27.3853H181.45V46.5158H177.209V33.5894L171.262 44.5762H168.215L162.237 33.5894V46.5158H157.996V27.3853Z" fill="#231F20"/>
<path d="M201.445 29.1148C202.899 30.2702 203.626 31.9088 203.626 34.0235C203.626 36.2503 202.891 37.9729 201.429 39.2053C199.967 40.4377 197.908 41.0469 195.26 41.0469H191.103V46.5158H186.38V27.3853H195.252C197.923 27.3853 199.983 27.9665 201.437 29.1218L201.445 29.1148ZM198.084 36.6074C198.788 36.0542 199.148 35.2349 199.148 34.1636C199.148 33.0922 198.796 32.3079 198.084 31.7688C197.38 31.2296 196.354 30.9635 195.022 30.9635H191.111V37.4407H195.022C196.354 37.4407 197.38 37.1606 198.084 36.6074Z" fill="#231F20"/>
<path d="M212.575 41.8522C213.425 42.6435 214.55 43.0426 215.966 43.0426C217.382 43.0426 218.439 42.6505 219.25 41.8662C220.069 41.082 220.475 39.9966 220.475 38.6171V27.3853H225.198V38.6171C225.198 40.2907 224.823 41.7472 224.08 42.9796C223.33 44.212 222.258 45.1574 220.865 45.8226C219.472 46.4878 217.826 46.8239 215.935 46.8239C214.045 46.8239 212.391 46.4948 210.975 45.8226C209.559 45.1574 208.472 44.212 207.722 42.9796C206.964 41.7472 206.589 40.2977 206.589 38.6171V27.3853H211.312V38.6171C211.312 39.9826 211.733 41.0609 212.583 41.8592L212.575 41.8522Z" fill="#231F20"/>
<path d="M227.677 27.3853H245.153V31.0475H238.761V46.5158H234.038V31.0475H227.677V27.3853Z" fill="#231F20"/>
<path d="M247.994 27.3854H263.923V30.9637H252.717V35.1161H262.783V38.6943H252.717V42.9308H264.252V46.509H247.994V27.3784V27.3854Z" fill="#231F20"/>
<path d="M281.1 46.5158L277.785 41.0469H272.978V46.5158H268.255V27.3853H277.341C280.074 27.3853 282.179 27.9665 283.679 29.1218C285.172 30.2772 285.922 31.9158 285.922 34.0305C285.922 35.508 285.586 36.7685 284.92 37.8188C284.254 38.8692 283.281 39.6605 282.011 40.2137L286.458 46.5298H281.107L281.1 46.5158ZM272.97 37.4407H277.334C278.65 37.4407 279.661 37.1606 280.365 36.6074C281.069 36.0542 281.429 35.2349 281.429 34.1636C281.429 33.0922 281.077 32.3079 280.365 31.7688C279.653 31.2296 278.643 30.9635 277.334 30.9635H272.97V37.4407Z" fill="#231F20"/>
<path d="M116.032 58.6093C114.822 58.2521 113.797 58.0771 112.939 58.0771C112.082 58.0771 111.477 58.2171 110.995 58.4902C110.513 58.7633 110.275 59.1624 110.275 59.6946C110.275 60.3669 110.62 60.885 111.309 61.2422C111.998 61.5993 113.054 61.9634 114.493 62.3485C115.925 62.7337 117.111 63.1118 118.037 63.4969C118.964 63.8821 119.752 64.4563 120.41 65.2195C121.069 65.9828 121.398 66.9981 121.398 68.2516C121.398 69.505 121.046 70.5273 120.334 71.4097C119.63 72.292 118.657 72.9642 117.417 73.4193C116.185 73.8745 114.776 74.1056 113.207 74.1056C111.516 74.1056 109.854 73.8325 108.216 73.2863C106.586 72.7401 105.17 71.9909 103.976 71.0455L105.859 67.5163C106.915 68.3916 108.132 69.0919 109.502 69.624C110.88 70.1562 112.136 70.4153 113.268 70.4153C114.241 70.4153 115.006 70.2543 115.557 69.9251C116.108 69.596 116.376 69.1199 116.376 68.5037C116.376 68.0135 116.193 67.6073 115.825 67.2852C115.458 66.9631 114.991 66.704 114.424 66.508C113.858 66.3119 113.077 66.0808 112.082 65.8217C110.651 65.4576 109.479 65.0935 108.568 64.7294C107.665 64.3652 106.884 63.812 106.226 63.0628C105.568 62.3135 105.239 61.3262 105.239 60.0868C105.239 58.9384 105.575 57.93 106.257 57.0687C106.93 56.2004 107.88 55.5422 109.097 55.073C110.314 54.6109 111.73 54.3728 113.337 54.3728C114.769 54.3728 116.185 54.5619 117.578 54.947C118.971 55.3321 120.211 55.8433 121.283 56.4805L119.461 60.0588C118.382 59.4565 117.241 58.9804 116.04 58.6233L116.032 58.6093Z" fill="#231F20"/>
<path d="M140.458 55.6962C142.173 56.5505 143.52 57.7339 144.507 59.2395C145.495 60.745 145.985 62.4115 145.985 64.2532C145.985 66.0948 145.495 67.7684 144.507 69.2809C143.52 70.7934 142.173 71.9838 140.458 72.8451C138.743 73.7134 136.845 74.1476 134.755 74.1476C132.665 74.1476 130.759 73.7134 129.045 72.8451C127.33 71.9768 125.983 70.7934 124.995 69.2949C124.008 67.7964 123.518 66.1088 123.518 64.2532C123.518 62.3975 124.008 60.745 124.995 59.2395C125.983 57.7339 127.322 56.5575 129.029 55.6962C130.736 54.8419 132.642 54.4148 134.755 54.4148C136.868 54.4148 138.751 54.8419 140.458 55.6962ZM131.586 58.9944C130.591 59.5335 129.802 60.2618 129.228 61.1931C128.654 62.1244 128.363 63.1468 128.363 64.2532C128.363 65.3595 128.654 66.4099 129.244 67.3412C129.833 68.2726 130.621 69.0078 131.601 69.554C132.589 70.1002 133.66 70.3733 134.816 70.3733C135.972 70.3733 137.028 70.1072 138.001 69.568C138.973 69.0288 139.731 68.2936 140.305 67.3552C140.871 66.4169 141.154 65.3806 141.154 64.2532C141.154 63.1258 140.871 62.1244 140.305 61.1931C139.738 60.2618 138.973 59.5335 138.001 58.9944C137.028 58.4552 135.972 58.1891 134.816 58.1891C133.66 58.1891 132.581 58.4552 131.586 58.9944Z" fill="#231F20"/>
<path d="M161.478 58.8542C160.513 58.406 159.541 58.1819 158.569 58.1819C157.39 58.1819 156.319 58.448 155.339 58.9732C154.359 59.4984 153.593 60.2196 153.035 61.1299C152.476 62.0403 152.2 63.0556 152.2 64.162C152.2 65.2684 152.476 66.2907 153.035 67.208C153.593 68.1253 154.359 68.8536 155.339 69.3928C156.319 69.932 157.39 70.1981 158.569 70.1981C159.503 70.1981 160.46 69.995 161.424 69.5818C162.389 69.1687 163.254 68.6225 164.012 67.9293L166.79 70.6882C165.673 71.7456 164.364 72.5859 162.863 73.2021C161.363 73.8183 159.847 74.1334 158.339 74.1334C156.288 74.1334 154.428 73.6993 152.751 72.831C151.075 71.9627 149.766 70.7793 148.809 69.2667C147.852 67.7542 147.378 66.0666 147.378 64.211C147.378 62.3554 147.868 60.7028 148.84 59.2113C149.82 57.7198 151.159 56.5434 152.859 55.6821C154.558 54.8208 156.449 54.4006 158.523 54.4006C160.039 54.4006 161.531 54.6877 163.001 55.2619C164.471 55.8361 165.734 56.6134 166.767 57.6007L164.019 60.6888C163.3 59.9045 162.458 59.2883 161.493 58.8402L161.478 58.8542Z" fill="#231F20"/>
<path d="M169.891 54.7156H174.614V73.8461H169.891V54.7156Z" fill="#231F20"/>
<path d="M179.537 54.7157H195.459V58.294H184.252V62.4464H194.318V66.0246H184.252V70.2611H195.788V73.8393H179.537V54.7087V54.7157Z" fill="#231F20"/>
<path d="M197.74 54.7156H215.216V58.3778H208.824V73.8461H204.101V58.3778H197.732V54.7156H197.74Z" fill="#231F20"/>
<path d="M235.746 54.7157L228.129 67.6702V73.8463H223.406V67.7752L215.667 54.7087H220.421L225.771 63.2937L231 54.7087H235.753L235.746 54.7157Z" fill="#231F20"/>
<path d="M40.9992 4.5647C18.3563 4.5647 3.05176e-05 19.928 3.05176e-05 38.8695C3.05176e-05 57.811 18.3563 73.1742 40.9992 73.1742C63.6421 73.1742 81.9984 57.818 81.9984 38.8695C81.9984 19.921 63.6421 4.5647 40.9992 4.5647ZM47.2608 55.3671C47.2608 59.8627 47.613 60.0237 51.0423 60.2268L54.5788 60.4159L54.7319 60.4929C55.4898 60.871 55.7347 61.7533 55.6352 62.4746C55.528 63.2448 55.0458 63.812 54.3798 63.9591L54.2727 63.9801H54.1578C51.3791 63.861 46.5336 63.798 41.2059 63.798C35.5873 63.798 30.7494 63.861 27.9248 63.9801H27.81L27.7028 63.9591C27.0368 63.812 26.5622 63.2448 26.4474 62.4746C26.3479 61.7603 26.5852 60.871 27.3507 60.4929L27.5038 60.4159L31.048 60.2268C34.4773 60.0167 34.8218 59.8627 34.8218 55.3601C21.3187 53.9737 12.906 47.9866 12.906 39.3386C12.906 30.6907 20.1628 25.0397 33.0841 23.4712C33.1301 24.5986 33.1683 26.1111 33.1913 27.8477C32.4029 28.0298 31.6527 28.2398 30.9791 28.4779L30.6422 28.5899C27.9478 29.5143 26.1183 31.2369 25.3068 33.5897L25.2762 33.6667C24.8093 34.696 24.549 36.6427 24.549 39.1426V39.2476V39.3526C24.549 41.8525 24.8093 43.7992 25.2762 44.8285L25.3068 44.9195C25.9269 46.7332 27.1823 48.1687 28.9505 49.156C31.4919 50.7035 36.3451 51.5018 41.1676 51.5018C46.4418 51.5018 51.7542 50.5425 54.0354 48.6938C55.4209 47.7345 56.416 46.4601 56.9518 44.9055L56.9825 44.8215C57.4494 43.7922 57.7097 41.8525 57.7097 39.3456V39.2476V39.1356C57.7097 36.6357 57.4494 34.689 56.9825 33.6597L56.9518 33.5827C56.1404 31.2298 54.3109 29.5073 51.6471 28.5969L51.3026 28.4779C50.1237 28.0508 48.7535 27.7146 47.2608 27.4696V49.4221C45.5309 49.7162 43.4794 49.8983 41.1753 49.8983C38.7564 49.8983 36.6207 49.6952 34.8371 49.3731V44.2893C34.9443 39.5557 35.0591 32.0421 34.9366 26.7343C34.9366 26.6083 34.8371 23.009 34.8371 22.89C34.8141 19.4098 34.4543 19.0457 31.5991 18.7586L27.5803 18.3384C26.9679 18.0863 26.5622 17.4561 26.5086 16.6789C26.4551 15.9086 26.7689 15.2434 27.3277 14.9353L27.4732 14.8512L27.6416 14.8302C30.581 14.5151 34.2859 13.9129 38.0827 13.1426C40.0806 12.7085 41.9408 12.1553 43.2957 11.7492C44.6429 11.343 45.2094 11.182 45.5691 11.182C46.3193 11.182 47.1996 11.5461 47.4752 12.3584L47.5211 12.4984L47.5058 12.6455C47.3527 13.9269 47.2608 16.6018 47.2608 19.7879V23.2401C61.3381 24.4865 69.2684 30.1935 69.2684 39.3106C69.2684 48.4278 60.8175 53.9737 47.2608 55.3461V55.3671Z" fill="#231F20"/>
<path d="M64.8058 71.0593H68.8629V71.7666H67.2707V75.863H66.3827V71.7666H64.8058V71.0593ZM69.636 71.0593H70.6771L72.407 74.3084L74.1217 71.0593H75.1704V75.863H74.359V72.2007L72.6979 75.3588H72.1238L70.4627 72.2007V75.863H69.6513V71.0593H69.636Z" fill="#231F20"/>
</svg>
