<svg width="196" height="121" viewBox="0 0 196 121" fill="none" xmlns="http://www.w3.org/2000/svg">
<path d="M86.0895 51.7681C85.708 50.5968 85.2816 49.4653 84.8328 48.3337C84.7654 48.294 84.6981 48.2543 84.6308 48.2146C85.1918 49.366 85.6631 50.5571 86.1119 51.7681H86.0895Z" fill="#231F20"/>
<path d="M84.5171 90.3802C84.5171 90.3802 84.6742 90.3008 84.7415 90.2611C85.2576 88.9906 85.7513 87.7002 86.1777 86.3701C85.684 87.7399 85.1454 89.07 84.5171 90.3802Z" fill="#231F20"/>
<path d="M84.4966 82.1614L84.5415 82.0225C82.6119 82.3996 80.6599 82.757 78.7079 83.0945C80.5926 82.8761 82.4324 82.5982 84.2274 82.221L84.5191 82.1614H84.4966Z" fill="#231F20"/>
<path d="M84.4966 82.1614L84.5415 82.0225C82.6119 82.3996 80.6599 82.757 78.7079 83.0945C80.5926 82.8761 82.4324 82.5982 84.2274 82.221L84.5191 82.1614H84.4966Z" fill="#231F20"/>
<path d="M91.5869 82.9554V83.273H90.5548C89.4329 83.6105 88.2886 83.9282 87.1219 84.2061L86.8527 84.2656C89.2534 83.809 91.6317 83.2929 93.9652 82.737C95.2216 81.4268 96.3435 80.1365 97.2634 79.0645C96.4332 79.2828 95.5806 79.5012 94.728 79.7196C94.1447 80.6923 93.5164 81.6253 92.776 82.5385C92.3722 82.6775 91.9683 82.8165 91.5644 82.9554H91.5869Z" fill="#231F20"/>
<path d="M91.5882 82.9556C91.2516 83.0747 90.915 83.1739 90.5559 83.2732H91.5882V82.9556Z" fill="#231F20"/>
<path d="M91.5882 82.9556C91.2516 83.0747 90.915 83.1739 90.5559 83.2732H91.5882V82.9556Z" fill="#231F20"/>
<path d="M84.7418 90.2412C84.0687 91.869 83.3283 93.4373 82.4981 94.9659C89.0721 92.3455 94.3224 87.7001 97.4411 81.8835C96.2968 82.1813 95.1301 82.4592 93.9858 82.7372C91.3383 85.4966 88.0625 88.4545 84.7418 90.2412Z" fill="#231F20"/>
<path d="M86.8752 84.3055C86.8752 84.3055 86.8303 84.3055 86.8079 84.3055C86.6059 85.0003 86.4039 85.6753 86.1795 86.3502C86.4039 85.7348 86.6059 85.1194 86.8079 84.504L86.8752 84.2856V84.3055Z" fill="#231F20"/>
<path d="M84.5174 90.3803C85.1456 89.0899 85.7065 87.74 86.1777 86.3702C86.4021 85.6952 86.604 85.0004 86.8059 84.3254C85.1456 84.6629 83.4853 84.9607 81.8249 85.2585C82.1615 85.1989 82.4756 85.1592 82.8122 85.0997L83.6423 84.9607L83.3731 85.6555C82.5205 87.8988 81.4211 90.0825 80.0524 92.2662C77.2927 93.1794 74.3534 93.7352 71.302 93.8742V86.7871C70.3372 86.9062 69.35 87.0054 68.3852 87.1047V93.8543C65.2889 93.7154 62.3272 93.1198 59.5899 92.1669C58.7148 90.7773 57.9744 89.3877 57.3238 87.9782C56.2692 88.0377 55.2371 88.0774 54.1826 88.1171C54.4518 88.7921 54.7435 89.4671 55.0576 90.1222C54.0031 89.5465 52.9934 88.8914 52.0511 88.1966C50.2112 88.2561 48.349 88.276 46.4867 88.276C52.2979 93.8345 60.622 97.3284 69.866 97.3284C74.4432 97.3284 78.7286 96.4748 82.5429 94.9462C83.3731 93.4176 84.1135 91.8493 84.7866 90.2214C84.7193 90.2612 84.6296 90.3009 84.5622 90.3406L84.5174 90.3803Z" fill="#231F20"/>
<path d="M84.5174 90.3803C85.1456 89.0899 85.7065 87.74 86.1777 86.3702C86.4021 85.6952 86.604 85.0004 86.8059 84.3254C85.1456 84.6629 83.4853 84.9607 81.8249 85.2585C82.1615 85.1989 82.4756 85.1592 82.8122 85.0997L83.6423 84.9607L83.3731 85.6555C82.5205 87.8988 81.4211 90.0825 80.0524 92.2662C77.2927 93.1794 74.3534 93.7352 71.302 93.8742V86.7871C70.3372 86.9062 69.35 87.0054 68.3852 87.1047V93.8543C65.2889 93.7154 62.3272 93.1198 59.5899 92.1669C58.7148 90.7773 57.9744 89.3877 57.3238 87.9782C56.2692 88.0377 55.2371 88.0774 54.1826 88.1171C54.4518 88.7921 54.7435 89.4671 55.0576 90.1222C54.0031 89.5465 52.9934 88.8914 52.0511 88.1966C50.2112 88.2561 48.349 88.276 46.4867 88.276C52.2979 93.8345 60.622 97.3284 69.866 97.3284C74.4432 97.3284 78.7286 96.4748 82.5429 94.9462C83.3731 93.4176 84.1135 91.8493 84.7866 90.2214C84.7193 90.2612 84.6296 90.3009 84.5622 90.3406L84.5174 90.3803Z" fill="#231F20"/>
<path d="M50.7045 70.9055C50.7943 74.1017 51.1758 77.4169 51.8715 80.6726L50.7045 70.9055Z" fill="#231F20"/>
<path d="M50.7045 70.9055C50.7943 74.1017 51.1758 77.4169 51.8715 80.6726L50.7045 70.9055Z" fill="#231F20"/>
<path d="M46.1288 82.2806C48.1705 83.0548 50.3245 83.6901 52.5009 84.2062L52.7701 84.2658L52.8374 84.504C52.9721 84.9209 53.1067 85.3378 53.2413 85.7547C54.251 85.7149 55.2606 85.6554 56.2703 85.5958L56.0235 84.9407L56.8537 85.0797C57.6165 85.1988 58.3569 85.3179 59.1198 85.4172C65.7611 84.9407 72.3127 84.1665 78.7073 83.0945C76.486 83.3327 74.1974 83.4915 71.7967 83.5312H71.3031V70.4886H86.0666V70.9253C85.9544 74.8361 85.5057 78.4492 84.5858 81.9034V82.0225C85.2364 81.8835 85.932 81.7446 86.6275 81.6056V53.7931H86.7621C86.5602 53.1182 86.3583 52.4432 86.1339 51.7683C85.7076 50.5573 85.214 49.3662 84.6531 48.2148C84.7204 48.2545 84.7877 48.2942 84.855 48.3339C84.137 46.6068 83.3517 44.9392 82.4767 43.3114C78.5951 41.8225 74.3321 41.0085 69.8447 41.0085C52.2541 41.0085 38.0066 53.6145 38.0066 69.1783C38.0066 75.4714 40.34 81.2681 44.2665 85.9532C45.9493 85.9532 47.6096 85.9333 49.27 85.8936C48.1032 84.7819 47.0487 83.5709 46.1512 82.2806H46.1288ZM71.2806 44.5025C74.3769 44.6414 77.3162 45.237 80.0759 46.1899C81.4221 48.3339 82.4991 50.4977 83.3742 52.7211L83.6434 53.416L82.8132 53.277C79.1111 52.6616 75.3866 52.3241 71.7742 52.2447H71.3031V44.4826L71.2806 44.5025ZM71.2806 54.8453H71.7742C76.1719 54.9446 80.2779 55.3416 84.1819 56.1555L84.4736 56.2151L84.5409 56.4731C85.4608 59.9274 85.9095 63.5603 85.9993 67.4512V67.888H71.2582V54.8254L71.2806 54.8453ZM68.3638 83.5511H67.8702C63.4501 83.4518 59.3666 83.0548 55.4626 82.2409L55.1709 82.1813L55.1036 81.9232C54.1837 78.4492 53.7349 74.8361 53.6452 70.9452V70.5084H68.3863V83.5709L68.3638 83.5511ZM56.2927 52.7211C57.1453 50.4977 58.2223 48.314 59.5685 46.1899C62.3058 45.237 65.2675 44.6414 68.3414 44.5025V52.2447H67.8702C64.2579 52.344 60.5333 52.6616 56.8312 53.277L56.001 53.416L56.2703 52.7211H56.2927ZM55.1484 56.2151L55.4401 56.1555C59.3666 55.3416 63.4726 54.9446 67.8478 54.8453H68.3414V67.888H53.5779V67.4512C53.69 63.5603 54.1388 59.9274 55.0587 56.4731L55.126 56.2151H55.1484ZM55.0363 48.2346C54.1612 50.0411 53.4432 51.9469 52.8599 53.8726L52.7926 54.1108L52.5233 54.1703C50.3245 54.6865 48.193 55.3217 46.1512 56.096C48.3949 52.9197 51.4463 50.2198 55.0363 48.2148V48.2346ZM43.8402 60.1259C46.2634 58.9348 48.709 57.9819 51.222 57.2275L52.0073 56.9893L51.8502 57.7238C51.1547 60.9795 50.7957 64.2948 50.6835 67.4909V67.9078H41.9106C42.0677 65.1683 42.7408 62.5677 43.8178 60.1457L43.8402 60.1259ZM43.8402 78.2705C42.7632 75.8486 42.0901 73.2281 41.9331 70.4886H50.6835V70.9055L51.8502 80.6726L52.0073 81.4071L51.222 81.1689C48.709 80.4145 46.2634 79.4616 43.8402 78.2705Z" fill="#231F20"/>
<path d="M86.6045 81.6057C86.9187 81.5461 87.2328 81.4866 87.547 81.4072C88.4222 77.4963 88.8935 73.4069 88.8935 69.1983C88.8935 63.8184 88.1305 58.6371 86.7391 53.7932H86.6045V81.6057Z" fill="#231F20"/>
<path d="M86.6045 81.6057C86.9187 81.5461 87.2328 81.4866 87.547 81.4072C88.4222 77.4963 88.8935 73.4069 88.8935 69.1983C88.8935 63.8184 88.1305 58.6371 86.7391 53.7932H86.6045V81.6057Z" fill="#231F20"/>
<path d="M92.8205 82.5389C93.5386 81.6456 94.1894 80.7126 94.7729 79.72C93.7182 79.978 92.6634 80.2361 91.6087 80.4942V82.9558C92.0126 82.8169 92.4166 82.6779 92.8205 82.5389Z" fill="#231F20"/>
<path d="M92.8205 82.5389C93.5386 81.6456 94.1894 80.7126 94.7729 79.72C93.7182 79.978 92.6634 80.2361 91.6087 80.4942V82.9558C92.0126 82.8169 92.4166 82.6779 92.8205 82.5389Z" fill="#231F20"/>
<path d="M86.8745 84.2658L87.1438 84.2062C88.3107 83.9283 89.4328 83.6107 90.5773 83.2732H87.0989C87.0091 83.6305 86.9194 83.968 86.8296 84.3055C86.8296 84.3055 86.8745 84.3055 86.8969 84.3055L86.8745 84.2658Z" fill="#231F20"/>
<path d="M86.8745 84.2658L87.1438 84.2062C88.3107 83.9283 89.4328 83.6107 90.5773 83.2732H87.0989C87.0091 83.6305 86.9194 83.968 86.8296 84.3055C86.8296 84.3055 86.8745 84.3055 86.8969 84.3055L86.8745 84.2658Z" fill="#231F20"/>
<path d="M87.6372 81.4071C87.6372 81.4071 87.5698 81.4071 87.5474 81.4071C87.4127 82.0423 87.2557 82.6577 87.0986 83.2732H90.577C90.9136 83.1739 91.2726 83.0548 91.6092 82.9555V80.4939C90.3077 80.7917 89.0285 81.0894 87.7269 81.3674H87.6596L87.6372 81.4071Z" fill="#231F20"/>
<path d="M87.6372 81.4071C87.6372 81.4071 87.5698 81.4071 87.5474 81.4071C87.4127 82.0423 87.2557 82.6577 87.0986 83.2732H90.577C90.9136 83.1739 91.2726 83.0548 91.6092 82.9555V80.4939C90.3077 80.7917 89.0285 81.0894 87.7269 81.3674H87.6596L87.6372 81.4071Z" fill="#231F20"/>
<path d="M87.6372 81.4071C87.6372 81.4071 87.5698 81.4071 87.5474 81.4071C87.4127 82.0423 87.2557 82.6577 87.0986 83.2732H90.577C90.9136 83.1739 91.2726 83.0548 91.6092 82.9555V80.4939C90.3077 80.7917 89.0285 81.0894 87.7269 81.3674H87.6596L87.6372 81.4071Z" fill="#231F20"/>
<path d="M86.6067 83.2733V81.6057C85.9111 81.7447 85.238 81.8836 84.5425 82.0226L84.4976 82.1616L84.2059 82.2211C82.411 82.5983 80.5711 82.8762 78.6864 83.0946C72.2919 84.1666 65.7403 84.9408 59.0989 85.4173C62.0382 85.8143 64.9999 86.0327 67.8718 86.1121H68.343V87.1047C69.3302 87.0054 70.295 86.8863 71.2598 86.7871V86.1319H71.731C75.0068 86.0525 78.4172 85.7746 81.7827 85.2386C83.4655 84.9607 85.1258 84.6431 86.7637 84.3056C86.8535 83.9681 86.9432 83.6108 87.033 83.2733H86.5394H86.6067Z" fill="#231F20"/>
<path d="M86.6067 83.2733V81.6057C85.9111 81.7447 85.238 81.8836 84.5425 82.0226L84.4976 82.1616L84.2059 82.2211C82.411 82.5983 80.5711 82.8762 78.6864 83.0946C72.2919 84.1666 65.7403 84.9408 59.0989 85.4173C62.0382 85.8143 64.9999 86.0327 67.8718 86.1121H68.343V87.1047C69.3302 87.0054 70.295 86.8863 71.2598 86.7871V86.1319H71.731C75.0068 86.0525 78.4172 85.7746 81.7827 85.2386C83.4655 84.9607 85.1258 84.6431 86.7637 84.3056C86.8535 83.9681 86.9432 83.6108 87.033 83.2733H86.5394H86.6067Z" fill="#231F20"/>
<path d="M86.6067 83.2733V81.6057C85.9111 81.7447 85.238 81.8836 84.5425 82.0226L84.4976 82.1616L84.2059 82.2211C82.411 82.5983 80.5711 82.8762 78.6864 83.0946C72.2919 84.1666 65.7403 84.9408 59.0989 85.4173C62.0382 85.8143 64.9999 86.0327 67.8718 86.1121H68.343V87.1047C69.3302 87.0054 70.295 86.8863 71.2598 86.7871V86.1319H71.731C75.0068 86.0525 78.4172 85.7746 81.7827 85.2386C83.4655 84.9607 85.1258 84.6431 86.7637 84.3056C86.8535 83.9681 86.9432 83.6108 87.033 83.2733H86.5394H86.6067Z" fill="#231F20"/>
<path d="M87.0774 83.2733C87.2345 82.6579 87.3916 82.0425 87.5262 81.4072C87.212 81.4668 86.8979 81.5263 86.5837 81.6057V83.2733H87.0774Z" fill="#231F20"/>
<path d="M87.0774 83.2733C87.2345 82.6579 87.3916 82.0425 87.5262 81.4072C87.212 81.4668 86.8979 81.5263 86.5837 81.6057V83.2733H87.0774Z" fill="#231F20"/>
<path d="M87.0774 83.2733C87.2345 82.6579 87.3916 82.0425 87.5262 81.4072C87.212 81.4668 86.8979 81.5263 86.5837 81.6057V83.2733H87.0774Z" fill="#231F20"/>
<path d="M87.0774 83.2733C87.2345 82.6579 87.3916 82.0425 87.5262 81.4072C87.212 81.4668 86.8979 81.5263 86.5837 81.6057V83.2733H87.0774Z" fill="#231F20"/>
<path d="M99.3051 78.5286C98.6319 78.7072 97.9586 78.9057 97.2854 79.0844C96.3653 80.1564 95.2433 81.4269 93.9866 82.757C95.1535 82.4791 96.298 82.2012 97.4425 81.9034C97.5098 81.7644 97.5996 81.6056 97.6894 81.4666C98.1157 80.7123 98.6992 79.5609 99.3051 78.5286Z" fill="#231F20"/>
<path d="M99.3051 78.5286C98.6319 78.7072 97.9586 78.9057 97.2854 79.0844C96.3653 80.1564 95.2433 81.4269 93.9866 82.757C95.1535 82.4791 96.298 82.2012 97.4425 81.9034C97.5098 81.7644 97.5996 81.6056 97.6894 81.4666C98.1157 80.7123 98.6992 79.5609 99.3051 78.5286Z" fill="#231F20"/>
<path d="M56.2706 85.6157C55.2607 85.6753 54.2509 85.715 53.241 85.7745C53.5103 86.5885 53.8021 87.3825 54.1387 88.1568C55.1934 88.1171 56.2257 88.0774 57.2804 88.0178C56.9214 87.2436 56.5848 86.4495 56.293 85.6554V85.6157H56.2706Z" fill="#231F20"/>
<path d="M56.2706 85.6157C55.2607 85.6753 54.2509 85.715 53.241 85.7745C53.5103 86.5885 53.8021 87.3825 54.1387 88.1568C55.1934 88.1171 56.2257 88.0774 57.2804 88.0178C56.9214 87.2436 56.5848 86.4495 56.293 85.6554V85.6157H56.2706Z" fill="#231F20"/>
<path d="M56.2706 85.6157C55.2607 85.6753 54.2509 85.715 53.241 85.7745C53.5103 86.5885 53.8021 87.3825 54.1387 88.1568C55.1934 88.1171 56.2257 88.0774 57.2804 88.0178C56.9214 87.2436 56.5848 86.4495 56.293 85.6554V85.6157H56.2706Z" fill="#231F20"/>
<path d="M49.248 85.8936C47.5876 85.9333 45.9273 85.9531 44.2445 85.9531C44.9176 86.767 45.658 87.5413 46.4433 88.2956C48.3056 88.2956 50.1679 88.2559 52.0077 88.2162C51.0205 87.5016 50.1006 86.7273 49.248 85.8936Z" fill="#231F20"/>
<path d="M49.248 85.8936C47.5876 85.9333 45.9273 85.9531 44.2445 85.9531C44.9176 86.767 45.658 87.5413 46.4433 88.2956C48.3056 88.2956 50.1679 88.2559 52.0077 88.2162C51.0205 87.5016 50.1006 86.7273 49.248 85.8936Z" fill="#231F20"/>
<path d="M49.248 85.8936C47.5876 85.9333 45.9273 85.9531 44.2445 85.9531C44.9176 86.767 45.658 87.5413 46.4433 88.2956C48.3056 88.2956 50.1679 88.2559 52.0077 88.2162C51.0205 87.5016 50.1006 86.7273 49.248 85.8936Z" fill="#231F20"/>
<path d="M45.9292 19.6876C23.3127 35.7477 15.2803 61.8926 23.4249 84.9804C23.8063 85.0201 24.2102 85.0598 24.5916 85.0796C17.5016 62.4485 25.6911 37.2565 47.7017 21.633C76.8249 0.947393 119.231 4.75895 143.081 29.9907C142.79 29.6532 142.52 29.3157 142.229 28.9981C118.535 2.89288 75.4114 -1.27602 45.9292 19.6876Z" fill="#231F20"/>
<path d="M35.384 104.892C35.6756 105.21 35.9898 105.527 36.3039 105.845C31.3229 100.108 27.6656 93.8345 25.3098 87.3032C24.9508 87.2635 24.5918 87.2238 24.2328 87.1841C26.7457 93.4374 30.4254 99.4128 35.384 104.872V104.892Z" fill="#231F20"/>
<path d="M24.2335 87.2038C24.5926 87.2435 24.9516 87.2832 25.3107 87.3229C25.0414 86.5884 24.7946 85.8539 24.5701 85.0995C24.1886 85.0598 23.7847 85.0399 23.4032 85.0002C23.6725 85.7348 23.9418 86.4693 24.2335 87.2038Z" fill="#231F20"/>
<path d="M68.2081 2.67467C28.0011 12.9976 4.84609 50.2199 16.5133 85.7944C16.6704 86.2312 16.8274 86.6679 16.9845 87.1245C6.32693 51.947 29.3697 15.5387 69.0832 5.33482C108.797 -4.86904 150.305 14.9828 162.578 49.7633C162.443 49.3067 162.331 48.87 162.174 48.4134C150.507 12.819 108.438 -7.6483 68.2081 2.67467Z" fill="#231F20"/>
<path d="M0 105.329H4.1284C4.35277 105.329 4.55471 105.329 4.77908 105.329C7.51639 105.468 8.84017 106.42 9.08698 108.227C9.24403 109.22 8.92992 110.113 8.27925 110.847C7.56126 111.622 6.52916 112.058 5.25025 112.098H1.88471V117.101H0.022437V105.329H0ZM3.90403 110.947C4.06109 110.947 4.19571 110.947 4.33034 110.947C5.85605 110.887 6.52916 110.53 7.00034 109.656C7.17983 109.339 7.26958 108.942 7.20227 108.426C7.06765 107.195 6.30479 106.559 4.42008 106.44H1.86227V110.947H3.90403Z" fill="#231F20"/>
<path d="M14.4041 108.743C16.5805 109.081 18.0389 110.669 18.0389 112.971C18.0389 115.274 16.5805 116.862 14.4041 117.2C11.1956 117.716 8.79486 115.89 8.79486 112.971C8.79486 110.053 11.1956 108.227 14.4041 108.743ZM10.6123 113.408C10.8591 115.632 12.2502 116.624 14.1573 116.227C15.324 115.969 16.042 115.115 16.1991 113.408C16.2439 113.13 16.2439 112.852 16.1991 112.574C16.042 110.847 15.3016 110.014 14.1573 109.755C12.2502 109.339 10.8366 110.331 10.6123 112.574C10.6123 112.713 10.6123 112.852 10.6123 112.991C10.6123 113.13 10.6123 113.269 10.6123 113.408Z" fill="#231F20"/>
<path d="M20.3056 108.882L22.639 115.433L24.9276 108.882H27.0591L29.3701 115.433L31.726 108.882H33.2517L30.3125 117.101H28.3604L25.9148 110.212L23.5141 117.101H21.4947L18.5555 108.882H20.2831H20.3056Z" fill="#231F20"/>
<path d="M35.4493 113.19C35.4493 113.349 35.4493 113.527 35.4493 113.706C35.6064 115.533 36.5712 116.366 38.0296 116.366C39.1963 116.406 39.9591 115.89 40.2733 114.798C40.3181 114.738 40.3406 114.659 40.3406 114.56H41.9112C41.9112 114.719 41.8663 114.897 41.8214 115.076C41.44 116.426 40.1386 117.26 38.0296 117.299C35.4942 117.339 34.0582 116.128 33.7665 113.627C33.4524 110.728 34.9333 109.021 37.1994 108.743C40.2733 108.366 41.9785 109.676 42.1131 112.674C42.1131 112.833 42.1131 112.991 42.1131 113.19H35.4493ZM40.4079 112.356C40.4079 112.356 40.4079 112.178 40.4079 112.098C40.363 110.411 39.3982 109.597 37.9174 109.636C36.6609 109.676 35.7634 110.391 35.4942 111.919C35.4493 112.058 35.4493 112.197 35.4493 112.336H40.3855L40.4079 112.356Z" fill="#231F20"/>
<path d="M43.9106 108.882H45.5712V110.034C45.5712 110.034 45.6834 109.875 45.7283 109.795C46.2893 109.101 46.9626 108.743 47.9949 108.723C48.2642 108.723 48.5783 108.723 48.8476 108.783V110.073H48.6905L48.4661 110.034C46.4016 109.934 45.5712 110.649 45.5712 112.356V117.061H43.9106V108.843V108.882Z" fill="#231F20"/>
<path d="M57.5727 110.054L57.3708 109.815C56.8996 109.24 56.608 108.803 56.4733 108.406C55.8451 106.679 57.0567 105.13 59.1882 105.17C59.4126 105.17 59.6369 105.17 59.8613 105.229C61.589 105.567 62.4416 107.413 61.3646 108.902C61.028 109.359 60.4895 109.795 59.7716 110.153C59.5921 110.232 59.3901 110.312 59.1882 110.391L62.7332 114.083C63.0474 113.329 63.2044 112.555 63.2269 111.741H64.2365C64.1916 112.217 64.1243 112.714 63.9897 113.17C63.8327 113.706 63.6083 114.242 63.3166 114.719L65.6052 117.061H64.3038L62.7781 115.413C62.6659 115.552 62.5762 115.652 62.464 115.771C61.7909 116.486 60.8485 116.982 59.8389 117.18C57.6849 117.597 55.688 116.763 54.8354 115.314C54.5662 114.798 54.4091 114.262 54.4316 113.706C54.4764 112.436 55.2842 111.264 56.9669 110.411C57.1913 110.292 57.4157 110.212 57.64 110.133L57.5279 109.994L57.5727 110.054ZM56.9669 111.483C56.765 111.642 56.5631 111.82 56.3836 111.999C54.9252 113.528 55.6207 115.711 57.7298 116.327C59.1882 116.744 60.7139 116.386 61.8582 115.275C61.9928 115.136 62.105 115.016 62.2172 114.878L58.2907 110.768C57.842 110.927 57.4157 111.165 56.9894 111.463L56.9669 111.483ZM59.1658 109.577C60.2203 109.041 60.6466 108.505 60.7588 107.83C60.9159 106.718 59.9735 105.924 58.8068 106.103C57.4157 106.301 56.8772 107.473 57.8195 108.862C57.9317 109.001 58.0215 109.12 58.1337 109.259C58.3132 109.498 58.4702 109.676 58.6273 109.815C58.8068 109.756 58.9863 109.676 59.1433 109.577H59.1658Z" fill="#231F20"/>
<path d="M71.9541 105.329H80.166V106.5H73.8164V110.431H79.807V111.622H73.8164V115.93H80.368V117.101H71.9541V105.329Z" fill="#231F20"/>
<path d="M82.0973 108.882H83.7576V110.391C83.7576 110.391 83.8698 110.192 83.9147 110.093C84.4981 109.2 85.2609 108.743 86.4052 108.664C88.604 108.485 89.8605 109.458 89.9502 111.205V111.562V111.8V117.101H88.2899V111.522C88.2226 110.828 88.0655 110.53 87.729 110.212C87.2578 109.756 86.4725 109.557 85.6424 109.756C84.4308 110.014 83.7128 110.927 83.7128 112.892V117.101H82.0524V108.882H82.0973Z" fill="#231F20"/>
<path d="M93.5177 113.19C93.5177 113.349 93.5177 113.527 93.5177 113.706C93.6748 115.533 94.6396 116.366 96.098 116.366C97.2647 116.406 98.0276 115.89 98.3417 114.798C98.3866 114.738 98.409 114.659 98.409 114.56H99.9796C99.9796 114.719 99.9347 114.897 99.8898 115.076C99.5084 116.426 98.2071 117.26 96.098 117.299C93.5626 117.339 92.1266 116.128 91.835 113.627C91.5208 110.728 93.0017 109.021 95.2678 108.743C98.3417 108.366 100.047 109.676 100.182 112.674C100.182 112.833 100.182 112.991 100.182 113.19H93.5177ZM98.4763 112.356C98.4763 112.356 98.4763 112.178 98.4763 112.098C98.4314 110.411 97.4666 109.597 95.9858 109.636C94.7293 109.676 93.8319 110.391 93.5626 111.919C93.5177 112.058 93.5177 112.197 93.5177 112.336H98.4539L98.4763 112.356Z" fill="#231F20"/>
<path d="M101.954 108.882H103.614V110.034C103.614 110.034 103.727 109.875 103.772 109.795C104.333 109.101 105.006 108.743 106.038 108.723C106.307 108.723 106.622 108.723 106.891 108.783V110.073H106.734L106.509 110.034C104.445 109.934 103.614 110.649 103.614 112.356V117.061H101.954V108.843V108.882Z" fill="#231F20"/>
<path d="M113.823 108.882H115.506V117.041C115.506 119.324 113.778 120.754 110.727 120.615C108.528 120.495 107.384 119.642 107.227 118.371C107.227 118.252 107.227 118.153 107.227 118.054H108.91C108.91 118.054 108.91 118.173 108.91 118.212C108.999 118.987 109.605 119.483 110.884 119.562C112.634 119.682 113.666 118.868 113.778 117.379C113.778 117.279 113.778 117.18 113.778 117.101V115.294L113.689 115.433L113.509 115.671C112.567 116.942 110.951 117.418 109.224 116.803C107.9 116.307 107.07 115.294 106.823 113.607C106.778 113.111 106.778 112.614 106.868 112.098C107.227 110.172 108.573 108.962 110.054 108.763C111.894 108.505 113.217 109.061 113.801 110.034V108.862L113.823 108.882ZM111.961 115.969C112.634 115.791 113.173 115.274 113.599 114.341C113.734 114.024 113.801 113.706 113.868 113.329C114.16 110.669 112.634 109.438 110.749 109.815C109.672 110.053 108.865 110.907 108.685 112.396C108.64 112.535 108.64 112.714 108.64 112.872C108.573 115.374 110.188 116.485 111.983 115.989L111.961 115.969Z" fill="#231F20"/>
<path d="M118.152 108.882L120.889 115.433L123.604 108.882H125.13L120.395 120.277H118.757L120.014 117.24L116.379 108.902H118.152V108.882Z" fill="#231F20"/>
<path d="M132.199 113.825C132.042 115.215 133.366 116.347 135.632 116.168C135.991 116.168 136.328 116.069 136.62 115.95C137.697 115.533 138.145 114.897 138.123 114.064C138.078 113.19 137.697 112.753 136.53 112.337L135.565 112.059L134.398 111.681C134.219 111.622 134.039 111.562 133.837 111.503C130.988 110.53 130.135 109.359 130.831 107.354C131.28 106.024 132.783 105.11 135.184 105.11C138.1 105.071 139.761 106.421 139.851 108.168H137.966C137.966 107.116 136.956 106.302 135.184 106.302C133.748 106.302 132.94 106.778 132.603 107.691C132.177 108.862 132.828 109.736 135.094 110.431L136.373 110.808L137.023 111.006L137.517 111.165C139.581 111.84 140.389 113.131 139.895 114.858C139.492 116.287 138.19 117.141 135.789 117.28C135.318 117.319 134.825 117.28 134.353 117.28C131.885 117.081 130.696 116.228 130.382 114.56C130.337 114.322 130.337 114.064 130.337 113.825H132.199Z" fill="#231F20"/>
<path d="M146.715 108.743C148.892 109.081 150.35 110.669 150.35 112.971C150.35 115.274 148.892 116.862 146.715 117.2C143.507 117.716 141.106 115.89 141.106 112.971C141.106 110.053 143.507 108.227 146.715 108.743ZM142.923 113.408C143.17 115.632 144.561 116.624 146.469 116.227C147.635 115.969 148.353 115.115 148.533 113.408C148.578 113.13 148.578 112.852 148.533 112.574C148.376 110.847 147.635 110.014 146.469 109.755C144.561 109.339 143.148 110.331 142.923 112.574C142.923 112.713 142.923 112.852 142.923 112.991C142.923 113.13 142.923 113.269 142.923 113.408Z" fill="#231F20"/>
<path d="M158.159 111.562C158.159 111.562 158.114 111.344 158.114 111.225C158.069 111.086 158.025 110.927 157.957 110.808C157.419 109.696 155.646 109.319 154.345 110.292C153.762 110.728 153.358 111.443 153.268 112.594C153.223 112.952 153.268 113.329 153.313 113.686C153.56 115.394 154.322 116.128 155.736 116.208C157.105 116.287 157.935 115.711 158.137 114.58C158.137 114.5 158.137 114.421 158.182 114.341H159.752C159.752 114.52 159.752 114.699 159.685 114.858C159.326 116.446 157.912 117.418 155.669 117.319C153.066 117.24 151.563 115.791 151.518 113.111C151.473 110.53 152.931 108.922 155.085 108.684C157.755 108.366 159.348 109.378 159.73 111.145C159.73 111.284 159.775 111.423 159.797 111.562H158.182H158.159Z" fill="#231F20"/>
<path d="M161.3 105.329H162.96V107.076H161.3V105.329ZM161.3 108.882H162.96V117.101H161.3V108.882Z" fill="#231F20"/>
<path d="M166.482 113.19C166.482 113.349 166.482 113.527 166.482 113.706C166.639 115.533 167.604 116.366 169.063 116.366C170.229 116.406 170.992 115.89 171.306 114.798C171.351 114.738 171.374 114.659 171.374 114.56H172.944C172.944 114.719 172.899 114.897 172.854 115.076C172.473 116.426 171.172 117.26 169.063 117.299C166.527 117.339 165.091 116.128 164.799 113.627C164.485 110.728 165.966 109.021 168.232 108.743C171.306 108.366 173.011 109.676 173.146 112.674C173.146 112.833 173.146 112.991 173.146 113.19H166.482ZM171.441 112.356C171.441 112.356 171.441 112.178 171.441 112.098C171.396 110.411 170.431 109.597 168.95 109.636C167.694 109.676 166.796 110.391 166.527 111.919C166.482 112.058 166.482 112.197 166.482 112.336H171.418L171.441 112.356Z" fill="#231F20"/>
<path d="M173.392 108.882H175.076V107.215L176.736 106.619V108.882H178.823V109.875H176.736V114.917C176.848 115.91 177.095 116.108 178.329 116.088C178.509 116.088 178.689 116.088 178.913 116.029V117.121C178.531 117.2 178.195 117.24 177.836 117.26C175.771 117.299 175.053 116.704 175.053 114.818V109.875H173.37V108.882H173.392Z" fill="#231F20"/>
<path d="M180.012 108.882L182.75 115.433L185.464 108.882H186.99L182.256 120.277H180.618L181.874 117.24L178.24 108.902H180.012V108.882Z" fill="#231F20"/>
<path d="M55.2845 103.701C55.5537 103.8 55.8454 103.879 56.1146 103.959C34.8444 96.2364 24.3663 74.8758 32.6904 55.818C41.0145 36.7602 65.0221 27.1718 86.6289 34.1001C86.3597 34.0008 86.0904 33.9015 85.8212 33.8023C64.0124 26.338 39.4888 35.9463 31.075 55.2423C22.6387 74.5383 33.4982 96.2364 55.3069 103.681L55.2845 103.701Z" fill="#231F20"/>
<path d="M90.7573 56.1956H105.902L107.675 56.275C114.832 56.5132 118.086 59.0741 118.579 64.5333C119.185 70.5286 115.012 74.8166 108.123 75.0945L107.159 75.1342H101.078V85.7748H90.7573V56.1956ZM103.591 69.4765H104.511L105.162 69.4367C106.777 69.397 107.899 68.7419 108.64 67.392C108.954 66.8163 109.156 66.0818 109.066 65.0495C108.841 62.6673 107.45 61.5159 104.332 61.3967H100.944V69.4963H103.591V69.4765Z" fill="#231F20"/>
<path d="M120.911 56.1954H144.964V62.0715H131.075V67.6896H144.313V73.7643H131.075V79.8787H145.256V85.7548H120.911V56.1755V56.1954Z" fill="#231F20"/>
<path d="M156.901 75.8686C156.812 76.2458 156.812 76.6032 156.857 76.9803C157.036 79.7001 159.078 81.2088 162.331 80.9309C162.892 80.8912 163.363 80.7522 163.767 80.5934C165.338 79.8986 166.078 78.8663 166.033 77.4369C165.944 75.8686 164.956 74.7569 162.959 74.1812L162.623 74.1018L160.85 73.6452L158.113 72.9901C157.799 72.9107 157.462 72.8115 157.148 72.6923C148.824 70.3101 146.423 67.5904 147.859 62.29C149.026 57.9424 153.424 55.2624 161.748 55.3418C162.488 55.3418 163.274 55.3815 164.014 55.4212C169.87 55.8778 172.899 57.3865 174.604 60.146C175.434 61.4959 175.816 63.0245 175.726 64.5729H166.011V63.9575C165.966 63.4612 165.786 62.9649 165.54 62.5282C164.642 61.0988 163.116 60.4239 160.805 60.6423C160.289 60.682 159.841 60.8011 159.414 60.9599C157.732 61.754 157.036 63.0642 157.417 64.6126C157.799 65.9626 158.853 66.7566 161.927 67.5309L165.001 68.3051L168.681 69.2183C174.537 70.6873 177.184 74.3599 175.883 79.3229C174.761 83.591 171.194 85.8144 163.52 86.1916C161.995 86.2313 160.604 86.2313 159.19 86.1122C152.93 85.6556 149.632 83.8094 147.904 80.5735C147.119 79.1045 146.827 77.4965 147.029 75.8488H156.879L156.901 75.8686Z" fill="#231F20"/>
<path d="M90.8896 39.0234H94.0089V53.3565H90.8896V39.0234Z" fill="#231F20"/>
<path d="M96.1398 39.0234H107.044V41.1873H99.8194V44.8996H106.685V47.123H99.8194V51.1926H107.224V53.3565H96.1398V39.0234Z" fill="#231F20"/>
<path d="M109.041 39.0234H119.945V41.1873H112.721V44.8996H119.586V47.123H112.721V51.1926H120.125V53.3565H109.041V39.0234Z" fill="#231F20"/>
<path d="M121.92 39.0234H132.824V41.1873H125.6V44.8996H132.465V47.123H125.6V51.1926H133.004V53.3565H121.92V39.0234Z" fill="#231F20"/>
<path d="M51.2444 96.6929C34.8206 87.839 29.4806 68.9996 39.106 54.3489C38.9714 54.5275 38.8368 54.7062 38.7022 54.8849C28.5607 69.615 33.8334 88.8117 50.4816 97.8046C67.1298 106.778 88.8488 102.112 98.9903 87.3824C99.125 87.2037 99.2371 87.0052 99.3493 86.8265C89.0508 101.12 67.6908 105.567 51.2444 96.6929Z" fill="#231F20"/>
<path d="M195.875 108.505C195.875 110.113 194.417 111.384 192.577 111.384C190.737 111.384 189.257 110.113 189.257 108.505C189.257 106.897 190.737 105.646 192.6 105.646C194.462 105.646 195.875 106.897 195.875 108.505ZM190.064 108.505C190.064 109.776 191.141 110.788 192.577 110.788C193.968 110.788 195.045 109.776 195.045 108.525C195.045 107.274 193.991 106.222 192.555 106.222C191.119 106.222 190.087 107.254 190.087 108.505H190.064ZM192.039 109.974H191.298V107.116C191.59 107.076 192.016 107.036 192.532 107.036C193.138 107.036 193.43 107.116 193.632 107.254C193.834 107.374 193.968 107.592 193.968 107.87C193.968 108.227 193.677 108.446 193.295 108.545V108.585C193.609 108.664 193.766 108.902 193.856 109.279C193.946 109.716 194.036 109.875 194.103 109.974H193.318C193.228 109.875 193.161 109.617 193.071 109.279C193.004 108.982 192.824 108.843 192.398 108.843H192.039V109.974ZM192.061 108.386H192.42C192.824 108.386 193.161 108.267 193.161 107.969C193.161 107.711 192.936 107.532 192.465 107.532C192.263 107.532 192.129 107.532 192.061 107.572V108.386Z" fill="#231F20"/>
</svg>
