<svg width="165" height="128" viewBox="0 0 165 128" fill="none" xmlns="http://www.w3.org/2000/svg">
<path d="M126.806 92.4097V116.322C126.806 122.395 126.806 122.783 131.2 123.3V125.173H116.72V123.235C121.113 122.718 121.113 122.266 121.113 116.258V102.424C120.919 98.9995 121.735 99.3226 117.495 100.671" fill="#231F20"/>
<path d="M140.898 107.407C140.898 113.738 142.772 123.114 150.856 123.114C155.184 123.114 158.932 120.724 161.451 117.235L162.549 118.269C159.836 122.726 155.314 125.892 150.008 125.892C140.955 125.892 134.365 118.527 134.365 109.668C134.365 101.398 140.115 92.8621 149.168 92.8621C157.252 92.8621 162.808 99.775 162.808 107.407H140.898ZM156.275 104.943C156.662 100.486 154.724 94.9941 149.103 94.9941C143.483 94.9941 141.342 100.55 141.221 104.943H156.283H156.275Z" fill="#231F20"/>
<path d="M46.7267 61.9153C39.0628 67.9802 33.3532 77.2512 32.4648 84.5598C31.7542 90.6167 33.7085 95.6156 40.1288 95.9709C46.9044 96.3263 54.0353 90.4471 59.0261 85.0928C62.951 80.8127 66.5124 74.3924 66.8677 70.6533C67.0454 68.8686 66.8677 67.4472 65.9794 66.0178C65.6241 65.3071 65.2687 65.1295 65.4383 64.7661C65.616 64.4107 66.3347 64.7661 66.8677 65.2991C67.4007 65.8321 69.1855 67.9721 68.8301 72.0747C68.6525 76.8878 65.4383 82.5974 61.5216 87.0553C56.886 92.0461 47.7927 98.111 39.7734 97.57C31.7542 97.0369 27.8293 91.8684 28.7177 84.1964C29.606 77.0655 35.6709 67.7945 45.1196 60.6635C53.6719 54.2433 64.3723 49.7854 73.6433 49.7854C83.8107 49.7854 95.2218 53.7103 93.4371 68.5051C92.3711 79.3833 73.288 103.271 61.5216 115.038V115.216C67.2311 111.291 73.1103 106.833 81.8483 100.421C89.3427 95.0745 98.2583 88.4766 103.96 84.0188C106.1 77.9538 108.595 71.5336 111.81 66.3651C116.09 59.5895 120.725 56.2057 124.464 56.2057C127.67 56.2057 129.988 59.0565 128.567 63.3366C126.249 70.6452 117.156 76.8878 112.343 81.5233C109.669 92.5791 106.278 107.552 100.576 115.216V115.393C106.633 109.506 121.969 96.6735 132.661 87.0472C149.774 71.5336 156.016 59.9448 157.091 53.7103C157.446 51.2149 157.268 48.8971 156.025 47.6454C154.781 46.5793 153.529 46.9347 153.707 46.3936C153.884 46.0383 154.959 45.8606 155.492 45.8606C160.66 45.8606 163.155 49.9631 162.8 54.5986C161.912 61.9072 154.24 73.1407 134.454 89.3649C120.37 100.954 106.463 112.542 94.8746 123.598C93.8005 124.664 92.0238 126.271 89.8837 126.271C88.099 126.271 88.099 124.664 89.1731 123.243C95.238 115.038 98.9771 97.3923 103.08 87.2329V87.0553C99.6958 89.906 88.8177 98.111 80.0797 104.523C72.5935 109.869 56.7245 121.458 50.1266 125.738C49.0606 126.449 47.6312 127.523 46.3794 127.523C44.2393 127.523 43.7063 126.094 45.3054 124.139C52.0809 117.008 60.1083 108.093 67.9499 97.037C75.7915 85.9812 82.7528 74.0371 84.1742 64.9437C85.6036 55.6727 80.6047 51.3925 73.2961 51.3925C64.3804 51.3925 54.221 56.2057 46.7348 61.9072L46.7267 61.9153ZM126.427 63.5224C127.67 60.1386 126.427 57.9985 124.109 57.9985C121.436 57.9985 118.763 61.9234 117.689 64.4188C115.726 68.5213 113.942 74.4005 112.876 78.3253C116.259 75.1192 124.109 69.4096 126.427 63.5305V63.5224Z" fill="#231F20"/>
<path d="M126.483 88.0728C126.483 89.8414 125.046 91.2789 123.277 91.2789C121.508 91.2789 120.063 89.8414 120.063 88.0728C120.063 86.3042 121.5 84.8586 123.277 84.8586C125.054 84.8586 126.483 86.2961 126.483 88.0728Z" fill="#231F20"/>
<path d="M0.799774 108.877C1.09858 110.605 1.26009 110.767 1.67196 110.791C2.0596 110.839 2.87525 110.839 5.37067 110.653L9.63469 110.338C10.9187 110.242 11.9767 110.129 12.7035 110.015C13.2365 109.935 13.3092 109.773 13.3496 109.482C13.3819 109.289 13.398 108.643 13.4222 108.465C13.4545 108.328 13.4707 108.247 13.5353 108.239C13.6807 108.231 14.0764 108.32 14.141 108.352C14.2137 109.919 14.254 110.718 14.3267 111.429C14.3913 112.277 14.5286 113.262 14.5529 113.318C14.5609 113.432 14.4802 113.537 14.3994 113.561C14.1894 113.633 14.0037 113.69 13.8745 113.682C13.7291 112.309 13.5918 111.897 13.0104 111.857C12.6712 111.857 11.9121 111.824 9.52163 112.002L4.41773 112.382C1.6235 112.592 1.41353 112.624 1.30855 113.294C1.30855 113.504 1.28432 113.803 1.30855 114.344C1.30855 114.417 1.25202 114.465 1.18741 114.465C1.12281 114.465 1.03397 114.457 0.864378 114.393C0.710938 114.328 0.662484 114.312 0.638257 114.255C0.605954 114.102 0.597878 113.989 0.581727 113.755C0.565575 113.52 0.541347 112.866 0.460589 111.857C0.363679 110.855 0.242543 109.539 0.226391 109.345C0.21024 109.095 0.226391 109.071 0.290998 109.046L0.791696 108.869L0.799774 108.877Z" fill="#231F20"/>
<path d="M6.58986 101.98C6.60602 101.108 6.58986 100.445 6.55756 99.9609C6.49295 98.798 6.40412 98.7011 5.1443 98.4265C5.07969 98.3457 5.04739 97.9016 5.07161 97.8047C5.69345 97.8531 6.67062 97.9823 7.34091 97.9985C8.06773 97.9904 8.66534 97.942 9.28718 97.8935C9.32756 98.0469 9.34371 98.2004 9.34371 98.3377C9.35986 98.4346 9.29526 98.475 9.2145 98.5073C8.9803 98.5799 8.63304 98.6688 8.37461 98.7253C7.79316 98.8303 7.59934 99.0645 7.52666 99.8317C7.4782 100.26 7.47013 100.898 7.45397 101.883C7.43782 102.852 7.45398 103.046 7.4782 103.159C7.49435 103.24 7.51858 103.296 7.59934 103.353C7.72855 103.409 8.47153 103.538 10.232 103.571C11.7907 103.595 12.3721 103.603 12.7194 103.417C13.1313 103.151 13.2443 102.472 13.2685 100.89C13.3008 98.6203 13.0828 97.5382 10.8297 96.9002C10.8135 96.8194 10.8297 96.6256 10.8539 96.4318C10.8943 96.3753 10.9185 96.3752 11.0235 96.3752C12.0087 96.4318 13.3735 96.7629 13.9873 97.0213C14.1165 97.1182 14.1569 97.1747 14.1569 97.2717C14.1569 97.4089 14.1569 97.5462 14.1246 98.1842C14.0923 98.7657 14.0519 100.122 14.0277 101.73C14.0034 103.28 14.0681 104.814 14.1084 106.365C14.0842 106.405 13.64 106.413 13.4624 106.389C13.422 106.389 13.3735 106.333 13.3735 106.308C13.2201 105.412 13.0667 105.331 12.7436 105.307C12.4206 105.267 11.0558 105.146 8.87532 105.113L5.1766 105.057C2.33392 105.016 1.38905 105.113 1.25984 105.129C1.13063 105.146 1.02564 105.186 0.977186 105.38C0.888352 105.574 0.815672 105.937 0.68646 106.405C0.68646 106.405 0.656848 106.411 0.597625 106.422L0.105001 106.373C0.0161677 106.373 1.52588e-05 106.373 1.52588e-05 106.276V105.598C0.0161668 105 0.0726985 104.265 0.113077 103.078L0.14538 101.196C0.161531 100.017 0.0807733 98.5961 0.0726975 97.627C0.0726975 97.3766 0.121152 97.2555 0.185758 97.1667C0.2719 97.0536 0.444183 97.024 0.702609 97.0778C1.6394 97.2474 2.88308 97.2878 3.44031 97.2959C3.43223 97.7966 3.36762 97.8773 3.23841 97.8935C1.69593 98.1438 0.920656 98.265 0.896429 99.7752L0.880277 101.116C0.864125 102.262 0.896429 102.9 0.952959 103.11C1.03372 103.361 1.25176 103.409 1.73631 103.417C3.23033 103.442 4.73243 103.442 6.22645 103.45C6.42027 103.45 6.57371 103.337 6.57371 103.199L6.58986 101.964V101.98Z" fill="#231F20"/>
<path d="M7.42171 89.7852C7.53477 88.9211 7.59938 88.267 7.61553 87.7744C7.68014 86.6114 7.60746 86.5064 6.38801 86.0946C6.33148 86.0138 6.34763 85.5616 6.38801 85.4727C7.00177 85.5939 7.96279 85.8281 8.61693 85.9169C9.34375 85.9896 9.94136 86.0138 10.5632 86.03C10.5874 86.1915 10.5874 86.3449 10.5632 86.4822C10.5713 86.5791 10.5067 86.6114 10.4098 86.6437C10.1675 86.6922 9.81215 86.7406 9.55373 86.7649C8.96419 86.8053 8.74615 87.0152 8.58463 87.7744C8.48772 88.1943 8.40696 88.8242 8.27775 89.8094C8.15661 90.7705 8.14854 90.9643 8.15661 91.0854C8.16469 91.1662 8.18084 91.2227 8.2616 91.2954C8.38273 91.3681 9.10956 91.578 10.8459 91.8042C12.3964 92.0061 12.9698 92.0787 13.3332 91.9334C13.7693 91.7153 13.9631 91.0612 14.165 89.4783C14.4557 87.2333 14.3588 86.1269 12.1864 85.2386C12.1784 85.1578 12.2187 84.972 12.2672 84.7782C12.3156 84.7298 12.3399 84.7298 12.4449 84.7459C13.414 84.9074 14.7384 85.392 15.3198 85.7231C15.4329 85.8362 15.4733 85.9008 15.4571 85.9977C15.441 86.135 15.4248 86.2642 15.3198 86.9022C15.2229 87.4755 15.0291 88.8161 14.8272 90.4151C14.6253 91.9495 14.5203 93.4839 14.3831 95.0264C14.3588 95.0587 13.9066 95.0264 13.7451 94.986C13.7047 94.986 13.6643 94.9214 13.6724 94.8972C13.6158 93.9927 13.4786 93.8958 13.1636 93.8312C12.8486 93.7504 11.5081 93.4839 9.34375 93.2013L5.66927 92.7248C2.84274 92.3614 1.89787 92.3533 1.76866 92.3533C1.63944 92.3533 1.52638 92.3775 1.46178 92.5714C1.34872 92.749 1.24373 93.1044 1.04991 93.5566C1.04991 93.5566 1.0203 93.5566 0.961077 93.5566L0.476531 93.4597C0.387697 93.4516 0.371546 93.4436 0.379622 93.3467L0.468456 92.6764C0.549214 92.0787 0.678426 91.36 0.856094 90.189L1.09837 88.3235C1.25181 87.1525 1.32449 85.7312 1.42947 84.7702C1.46178 84.5198 1.51831 84.4067 1.59099 84.326C1.6879 84.2237 1.86287 84.2129 2.11592 84.2937C3.02848 84.5683 4.256 84.7459 4.81323 84.8186C4.74863 85.3193 4.67594 85.3839 4.54673 85.392C2.98003 85.4647 2.20475 85.497 2.01093 86.9991L1.84134 88.3235C1.69597 89.4541 1.6556 90.1002 1.6879 90.3182C1.74443 90.5766 1.94633 90.6413 2.43895 90.7059C3.9249 90.8997 5.41084 91.0693 6.90486 91.2469C7.09868 91.2712 7.2602 91.1743 7.27635 91.045L7.43786 89.8175L7.42171 89.7852Z" fill="#231F20"/>
<path d="M9.63437 77.7522C9.84434 76.9043 9.98162 76.2582 10.0624 75.7817C10.2562 74.635 10.1997 74.5219 9.03676 73.9727C8.99638 73.8839 9.06098 73.4397 9.10136 73.3509C9.6909 73.5366 10.6196 73.892 11.2657 74.0454C11.9763 74.1989 12.574 74.2877 13.1877 74.3846C13.1877 74.5461 13.1716 74.6996 13.1393 74.8288C13.1393 74.9257 13.0666 74.9499 12.9697 74.9661C12.7193 74.9822 12.364 74.9984 12.1056 74.9903C11.516 74.9661 11.2738 75.1437 11.0234 75.8786C10.878 76.2824 10.7246 76.9043 10.4823 77.8653C10.2481 78.8021 10.2239 78.9959 10.2158 79.117C10.2158 79.1978 10.2239 79.2624 10.2966 79.3351C10.4096 79.4239 11.1042 79.7146 12.8082 80.1427C14.3264 80.5222 14.8836 80.6595 15.2632 80.5545C15.7235 80.3849 15.99 79.755 16.3777 78.2125C16.9268 76.0159 16.9591 74.9015 14.8998 73.7708C14.8998 73.6901 14.9644 73.5043 15.029 73.3267C15.0855 73.2782 15.1017 73.2863 15.2067 73.3105C16.1515 73.5851 17.4033 74.215 17.9444 74.6107C18.0493 74.7399 18.0736 74.8045 18.0493 74.8934C18.017 75.0226 17.9847 75.1599 17.8071 75.7736C17.6456 76.3309 17.2983 77.6472 16.9107 79.2059C16.5392 80.708 16.2484 82.2181 15.9416 83.7364C15.9093 83.7687 15.4732 83.6799 15.3117 83.6233C15.2713 83.6152 15.239 83.5426 15.247 83.5264C15.2955 82.6219 15.1663 82.5089 14.8594 82.4119C14.5606 82.2989 13.2523 81.8709 11.1365 81.3459L7.54274 80.4495C4.78081 79.7631 3.83594 79.65 3.70673 79.6339C3.57752 79.6177 3.46446 79.6339 3.37562 79.8115C3.24641 79.9811 3.09297 80.3203 2.85877 80.7403C2.85877 80.7403 2.82916 80.7403 2.76994 80.7403L2.30154 80.5868C2.22079 80.5626 2.19656 80.5626 2.22079 80.4657L2.3823 79.8035C2.52767 79.222 2.74571 78.5194 3.05259 77.3727L3.50484 75.5475C3.78749 74.4008 4.02976 73.0036 4.23973 72.0588C4.29626 71.8165 4.36895 71.7115 4.45778 71.6308C4.57084 71.5392 4.74582 71.55 4.98271 71.6631C5.86297 72.0426 7.05819 72.3576 7.59927 72.4949C7.47813 72.9794 7.39737 73.044 7.26816 73.0279C5.70953 72.9148 4.92618 72.8663 4.56277 74.3281L4.23973 75.6283C3.96516 76.7347 3.8521 77.3646 3.86017 77.5907C3.8844 77.8572 4.07822 77.946 4.55469 78.0672C6.00833 78.4306 7.47005 78.7698 8.9237 79.117C9.10944 79.1655 9.28711 79.0847 9.31941 78.9555L9.61821 77.7522H9.63437Z" fill="#231F20"/>
<path d="M19.051 63.5227C17.3067 63.3451 14.2944 62.9736 9.72349 62.586C8.23755 62.4648 8.12449 62.4567 7.59148 63.2966C7.5188 63.3935 7.49457 63.4016 7.41381 63.3612C7.37344 63.3451 7.18769 63.1028 7.13116 63.0059C7.08271 62.9171 7.07463 62.8282 7.13116 62.7071C7.29268 62.376 7.70455 61.6249 7.88221 61.2615C8.18102 60.6478 8.43944 60.0259 8.74632 59.396C8.7867 59.3072 9.09358 59.3718 9.30355 59.4687C9.38431 59.5091 9.43276 59.5495 9.40854 59.6464C9.15011 60.3813 9.08551 60.6558 9.35201 60.7366C9.49737 60.7851 9.8204 60.8577 10.1273 60.8981C13.4141 61.3342 17.9447 61.7542 19.7698 61.8672C19.8828 61.8753 19.9798 61.7784 19.899 61.6976C18.8976 60.5832 15.9015 57.5305 14.7709 56.3999C14.6336 56.2464 14.4801 56.2141 14.3025 56.1899C13.1476 56.0203 12.3885 55.9234 11.912 55.8669C11.3952 55.8104 11.2821 55.883 10.8783 56.6745C10.8541 56.7229 10.7572 56.7714 10.7007 56.7391C10.3211 56.4887 10.2403 56.3191 10.2969 56.198C10.4988 55.7781 10.838 55.1885 11.1529 54.5425C11.5809 53.6703 11.7667 53.1373 11.8959 52.8788C12.017 52.7819 12.5742 52.9515 12.5662 53.0727C12.2351 54.0498 12.2351 54.1871 12.8327 54.284C15.207 54.6878 20.0928 55.2531 22.9436 55.5196C23.0405 55.5196 23.0486 55.4389 22.9597 55.3339C21.6191 53.9287 17.1532 49.277 15.6592 48.1787C15.3039 47.9364 15.1262 48.0495 15.0051 48.2514C14.8435 48.4937 14.674 48.8248 14.5205 49.0509C14.4801 49.0751 14.4398 49.0751 14.3509 49.0105C14.0037 48.8006 13.8825 48.6956 13.9552 48.5583C14.036 48.3887 14.6093 47.3631 14.8112 46.9512C15.0858 46.394 15.32 45.8044 15.3927 45.6591C15.4977 45.4491 15.5784 45.3845 15.6996 45.4168L16.1518 45.5702C16.1518 45.5702 16.2084 45.6429 16.1922 45.6752C15.7319 46.5716 15.853 46.6766 17.452 48.4614C18.3969 49.5516 21.6191 52.8627 24.0823 55.3743C24.3568 55.6811 24.9625 56.4483 25.4874 56.9813C25.6005 57.1025 25.6167 57.2559 25.5601 57.3609C25.4551 57.5709 25.2775 57.5951 24.9706 57.5467C24.5749 57.482 24.0257 57.3851 22.9759 57.2398C21.7564 57.054 18.5907 56.6179 15.9984 56.3676C17.339 57.8212 18.833 59.4525 20.7873 61.4796C21.28 61.9803 21.9422 62.7313 22.4509 63.2401C22.5317 63.3209 22.5559 63.3774 22.5479 63.4339C22.564 63.547 22.5236 63.6843 22.4671 63.8054C22.4267 63.8942 22.3298 63.9346 22.1602 63.8942C21.8291 63.8377 20.7873 63.6762 19.043 63.4985L19.051 63.5227Z" fill="#231F20"/>
<path d="M22.4829 45.3683C23.2259 44.2377 25.6325 43.1475 28.0795 44.7545C29.9046 45.9498 30.1711 47.6134 30.163 47.9283C30.1792 48.962 29.9854 49.9231 29.525 50.6176C29.1293 51.2152 27.918 52.2085 26.6016 52.2247C25.5841 52.2489 24.4938 51.8128 23.8639 51.4009C23.129 50.9164 22.4426 50.1007 22.1438 49.3416C21.8934 48.7117 21.8207 48.2029 21.8369 47.5891C21.8773 46.83 22.1438 45.869 22.4668 45.3844V45.3683H22.4829ZM22.6848 46.5393C22.5072 46.8139 22.4345 47.2338 22.5556 47.6376C22.7494 48.3886 23.3713 49.0509 24.5342 49.8181C25.681 50.5691 26.7227 50.6499 27.4173 50.5772C28.4429 50.4561 28.9759 49.9957 29.2424 49.5919C29.3797 49.382 29.5331 48.954 29.4443 48.5905C29.2989 47.9849 28.879 47.2257 27.7887 46.507C26.6985 45.7882 25.3579 45.3279 24.2354 45.5621C23.7105 45.659 23.0563 45.9901 22.7091 46.5312V46.5474L22.6848 46.5393Z" fill="#231F20"/>
<path d="M37.9079 39.3841C36.5996 40.8862 36.0343 41.5323 35.6063 42.1864C35.5794 42.2133 35.5498 42.2133 35.5175 42.1864C35.5175 42.1864 35.2913 41.9926 35.2267 41.9038C35.1944 41.8795 35.146 41.8068 35.154 41.7584C35.4771 41.0316 35.4609 40.9185 35.2429 40.7085C34.8552 40.2724 34.0234 39.4649 32.4002 38.0435C31.7218 37.454 31.4634 37.3005 31.1081 37.2521C30.7204 37.2521 30.2036 37.4136 29.7917 37.882C29.501 38.2212 29.2749 38.8673 29.2103 39.7152C29.2022 39.8848 29.2506 40.0302 29.3799 40.1755C29.6706 40.4582 30.6316 41.3142 31.3826 41.9764C33.1755 43.5351 33.2643 43.5674 33.9023 42.994C34.0073 42.9052 34.0557 42.9213 34.1042 42.9617C34.1526 43.0021 34.4676 43.3251 34.4515 43.3413C34.3384 43.4705 33.6277 44.3184 33.3854 44.593C33.1028 44.916 32.594 45.6267 32.4487 45.8609C32.3921 45.8932 32.1095 45.6671 31.9399 45.4975C31.9964 45.3683 32.1014 45.0533 32.1337 44.916C32.1902 44.7545 32.1579 44.6576 31.9964 44.488C31.8268 44.2861 31.3665 43.8096 30.0744 42.6871C28.8792 41.6453 28.4996 41.3627 28.2977 41.2092C28.015 41.0154 27.9585 41.0396 27.6436 41.2819C27.4174 41.4757 27.3367 41.4757 27.2559 41.4596C27.1994 41.4596 26.9248 41.3223 26.9167 41.2658C26.9652 39.9736 27.0217 39.2226 27.0783 38.9399C27.1025 38.7542 27.1186 38.6977 27.2075 38.5927C27.2801 38.5038 27.3528 38.4877 27.4659 38.5927L28.645 39.6506C28.7257 39.1015 28.8065 37.8336 28.9841 37.1148C29.0407 36.8806 29.1618 36.6545 29.2991 36.493C29.9855 35.7015 30.8335 35.6773 31.851 35.8388C32.0529 34.5952 32.1256 34.0945 32.2952 33.5776C32.4002 33.2303 32.5456 32.8669 32.8363 32.5358C33.0543 32.2855 33.5227 32.0028 34.0154 31.9705C34.4595 31.9463 35.041 31.9705 36.5512 33.198C37.383 33.9006 38.1421 34.5629 38.8043 35.1362C39.4181 35.6692 39.62 35.8227 39.7411 35.855C39.9753 35.9115 40.1933 35.7581 40.8394 35.2493C40.8798 35.2008 40.9363 35.2008 41.0009 35.2574C41.0655 35.3139 41.3401 35.6854 41.2997 35.7258L40.4356 36.7191C39.9349 37.2925 39.5957 37.7851 39.3454 38.1324C39.305 38.1727 39.2646 38.1889 39.2242 38.1808C39.1596 38.1566 38.9416 38.0112 38.877 37.9547C38.8447 37.9224 38.8124 37.8982 38.8366 37.8416C38.9093 37.6236 38.9497 37.349 38.7801 37.1552C38.2228 36.493 37.0599 35.4754 36.7127 35.1685C35.3559 33.9895 34.7341 33.723 34.2657 33.6745C33.7812 33.5857 33.4258 33.7876 33.0059 34.2721C32.6505 34.684 32.4487 35.3058 32.3517 35.9357C32.3275 36.1215 32.3679 36.178 32.5456 36.3315C33.4662 37.1633 35.6224 39.0207 36.2766 39.481C36.5431 39.6668 36.5835 39.6506 37.3345 39.0126C37.3749 38.9722 37.4476 38.9803 37.5283 39.053L37.916 39.3922L37.9079 39.3841Z" fill="#231F20"/>
<path d="M39.4262 26.0994C39.8784 25.7037 40.6376 25.5502 41.1463 25.6229C41.6309 25.6795 42.1316 25.841 42.6565 26.1721C42.7615 26.0267 42.9634 25.7037 43.0684 25.7279C43.141 25.7279 43.1814 25.7683 43.2218 25.849C43.3026 26.0348 43.456 26.4144 43.351 26.5597C42.5838 27.6823 41.0575 29.7335 40.6133 30.4926C40.5568 30.5734 40.5972 30.6784 40.7668 30.8722C42.2043 32.4308 43.5529 32.4147 44.522 31.5667C45.1923 30.9772 45.4911 30.1777 45.5638 29.257C45.5799 29.1278 45.7576 28.9744 45.7818 29.039C46.1049 29.4347 46.1775 29.572 46.1695 29.7497C46.0483 30.8803 45.6445 31.8009 45.2892 32.3904C45.1519 32.6246 44.9823 32.8023 44.8208 32.9477C43.8033 33.8441 42.5515 33.7391 42.18 33.6664C41.7036 33.5937 40.6618 33.2626 39.7492 32.2128C38.5055 30.7914 38.3117 29.0632 38.5621 27.763C38.6751 27.1573 38.9982 26.4709 39.41 26.1155L39.4262 26.0994ZM41.6632 27.3269C41.2675 26.8747 40.0642 26.6243 39.4504 27.1573C39.3616 27.23 39.2566 27.4077 39.2243 27.6338C39.087 28.3283 39.5392 29.3459 40.1611 30C40.6618 29.2247 41.219 28.506 41.7197 27.7549C41.7924 27.6338 41.8247 27.5207 41.6713 27.3431L41.6551 27.3269H41.6632Z" fill="#231F20"/>
<path d="M47.8169 29.4834C48.1723 28.9504 48.2773 28.692 47.9946 28.1832C47.7039 27.6018 47.0174 26.5438 46.4118 25.6878C45.9353 25.0014 45.4588 24.3957 45.2246 24.0888C45.1035 23.9111 44.9904 23.8869 44.1263 24.2018C44.0052 24.1615 43.9971 24.218 43.8598 23.8869C43.8194 23.8384 43.8437 23.7658 43.9163 23.6608C44.3444 22.8128 44.7481 21.9083 44.7804 21.7791C44.8047 21.7145 44.8531 21.6499 44.9177 21.6014C44.9985 21.5449 45.1116 21.5449 45.16 21.6095C45.3861 21.9002 45.6365 22.2152 45.8384 22.514C45.903 22.6028 45.9676 22.6594 46.0241 22.619C46.4118 21.6903 46.5894 21.3592 46.8721 20.8504C47.0255 20.5354 47.3001 20.1801 47.5908 19.9863C48.0511 19.6632 48.4549 19.5663 48.9395 19.6148C49.6017 19.6794 50.2639 20.1559 50.8534 20.8665C51.1442 21.2138 51.4349 21.6337 51.9679 22.3848C52.8643 23.6688 53.4054 24.4118 53.688 24.8156C53.8011 24.969 53.8253 24.9771 53.8738 24.9448C54.0192 24.8479 54.4391 24.4683 54.6652 24.2826C54.7137 24.2503 54.7944 24.2988 54.8671 24.4037C54.9398 24.5087 55.0609 24.7914 55.0932 24.8721C55.1255 24.9852 55.0932 25.0014 55.0286 25.0498C53.6154 26.0351 53.1873 26.4388 52.5817 26.8588C52.4847 26.9234 52.404 26.9799 52.3394 26.9234L52.0164 26.6246C52.3555 26.1239 52.4282 25.8655 52.1536 25.3325C51.8629 24.751 51.4268 24.0888 50.5546 22.8451C49.8763 21.8841 49.5209 21.3995 48.8506 21.2219C48.3903 21.1007 47.9381 21.2057 47.4778 21.5288C47.0982 21.7953 46.6621 22.4655 46.4764 22.9339C46.4198 23.1601 46.4764 23.2731 46.5975 23.475C46.9932 24.113 48.7457 26.6165 49.4079 27.5695C49.5694 27.7956 49.6259 27.8117 50.5466 27.3756C50.6515 27.3272 50.6919 27.3514 50.7242 27.4322L50.9019 27.8844L49.5532 28.8293C48.9152 29.2735 48.4711 29.7176 48.1561 29.9357C48.1238 29.9599 48.0834 29.9357 48.035 29.863L47.8089 29.4753L47.8169 29.4834Z" fill="#231F20"/>
<path d="M55.9009 9.37437C56.3531 9.14825 56.8538 9.42283 57.088 9.88315C57.4111 10.5373 57.193 11.1268 56.7408 11.3529C56.3208 11.5629 55.7959 11.3691 55.5375 10.8522C55.1983 10.182 55.5052 9.57626 55.8847 9.38244H55.9009V9.37437ZM57.8472 15.7704C57.7826 15.6816 57.6533 15.6816 56.7569 15.9319C56.6762 15.9481 56.6439 15.9158 56.6439 15.7946C56.5954 15.3908 56.5954 15.3424 56.6681 15.2778C57.2173 14.6882 57.6856 14.0987 58.2994 13.4365C58.3236 13.4042 58.3398 13.388 58.3802 13.3719C58.4125 13.3557 58.4367 13.3961 58.4932 13.5092C59.0747 14.8417 60.3345 17.5875 60.8352 18.5808C61.3198 19.558 61.4974 19.8971 61.6266 20.1233C61.7962 20.3736 61.8851 20.4705 62.0466 20.3655C62.5634 20.0587 62.7007 19.986 62.7572 19.9617C62.8057 19.9375 62.9672 19.9941 62.9834 20.0667L63.1772 20.5917C63.2176 20.7128 63.1772 20.737 63.0964 20.7774C62.5957 21.0278 62.087 21.2296 61.5378 21.5123C60.7787 21.8919 60.1407 22.3522 60.0842 22.3764C59.9953 22.4168 59.9549 22.4168 59.8984 22.3522C59.7934 22.2391 59.7046 22.0453 59.64 21.9322C59.5996 21.8596 59.6238 21.8192 59.6804 21.795C60.2618 21.4073 60.3749 21.2781 60.2134 20.6886C60.1084 20.3575 59.5431 18.9603 58.9132 17.7732L57.8472 15.7704Z" fill="#231F20"/>
<path d="M64.1866 19.6066C64.6631 19.1705 64.8246 18.9444 64.6711 18.3872C64.5258 17.7573 64.1139 16.5621 63.7344 15.5849C63.4356 14.8096 63.1206 14.0989 62.9591 13.7517C62.8783 13.5498 62.7814 13.5013 61.8608 13.5982C61.7477 13.5256 61.7316 13.5821 61.675 13.2348C61.6508 13.1783 61.6912 13.1137 61.78 13.0329C62.3938 12.3142 63.0075 11.5308 63.0641 11.4097C63.1044 11.3451 63.1691 11.3047 63.2417 11.2724C63.3306 11.2401 63.4436 11.2643 63.4759 11.3451C63.6213 11.6762 63.7909 12.0477 63.9201 12.3869C63.9605 12.4838 64.0089 12.5645 64.0816 12.5322C64.6873 11.7247 64.9296 11.4501 65.3253 11.0221C65.5514 10.7475 65.9067 10.4729 66.2298 10.3518C66.7547 10.1499 67.1666 10.1499 67.6269 10.3195C68.2487 10.5375 68.7817 11.1593 69.1855 11.9912C69.3874 12.3949 69.5651 12.8714 69.9043 13.7355C70.4696 15.1892 70.8168 16.0452 70.9945 16.5055C71.0672 16.6832 71.0914 16.6993 71.1479 16.6751C71.3095 16.6105 71.8102 16.3521 72.0767 16.2229C72.1332 16.1986 72.1978 16.2633 72.2463 16.3844C72.2947 16.5055 72.3512 16.8043 72.3593 16.8932C72.3593 17.0062 72.327 17.0224 72.2543 17.0466C70.6472 17.6684 70.1304 17.9592 69.4439 18.2257C69.339 18.2661 69.2421 18.3064 69.1936 18.2257L68.9513 17.8623C69.3955 17.4585 69.5328 17.2243 69.3955 16.6347C69.2501 15.9968 68.9836 15.2538 68.4426 13.8405C68.0145 12.7422 67.7803 12.193 67.1747 11.8539C66.7547 11.6277 66.2944 11.6197 65.7695 11.8216C65.3334 11.9912 64.76 12.5322 64.4612 12.9441C64.3562 13.146 64.3804 13.2752 64.445 13.5013C64.6792 14.212 65.7856 17.0708 66.1975 18.1449C66.3025 18.4033 66.3509 18.4276 67.3523 18.2257C67.4654 18.2014 67.5058 18.2338 67.5138 18.3226L67.5784 18.8071L66.044 19.4047C65.3253 19.6874 64.7842 20.0104 64.4208 20.1477C64.3885 20.1639 64.3481 20.1316 64.3239 20.0508L64.1947 19.6147L64.1866 19.6066Z" fill="#231F20"/>
<path d="M81.0003 7.25073C81.8563 7.09729 82.5104 6.96 82.9788 6.83079C84.1094 6.54006 84.1902 6.44315 84.2144 5.15102C84.279 5.07026 84.7071 4.94913 84.812 4.9572C84.8847 5.57096 84.9413 6.56429 85.0624 7.21843C85.2078 7.9291 85.3693 8.51056 85.5389 9.10816C85.3935 9.18085 85.2481 9.2293 85.1108 9.25353C85.022 9.29391 84.9736 9.23738 84.917 9.15662C84.7959 8.93857 84.6425 8.61554 84.5375 8.37326C84.3194 7.82411 84.061 7.67875 83.2857 7.75143C82.8577 7.78373 82.2278 7.89679 81.2506 8.07446C80.2977 8.24405 80.1119 8.30058 79.9989 8.34096C79.9262 8.37327 79.8697 8.40557 79.8293 8.50248C79.797 8.63977 79.8131 9.39889 80.12 11.119C80.3946 12.6534 80.4996 13.2268 80.7499 13.5256C81.0891 13.881 81.7755 13.8648 83.3422 13.5822C85.5712 13.1784 86.5968 12.7584 86.7906 10.4164C86.8633 10.3841 87.0571 10.368 87.2509 10.3518C87.3155 10.3841 87.3155 10.4084 87.3398 10.5134C87.4771 11.4905 87.4125 12.8876 87.2752 13.5499C87.2025 13.6952 87.154 13.7437 87.0571 13.7598C86.9198 13.7841 86.7906 13.8083 86.1607 13.8971C85.5873 13.9779 84.2467 14.1959 82.6639 14.4866C81.1376 14.7612 79.6435 15.1166 78.1253 15.4557C78.0849 15.4396 77.988 15.0035 77.9718 14.8339C77.9718 14.7935 78.0122 14.737 78.0365 14.737C78.8844 14.414 78.9329 14.2524 78.8925 13.9294C78.8763 13.6064 78.7229 12.2416 78.3353 10.0934L77.6811 6.45122C77.1804 3.64892 76.8978 2.74443 76.8574 2.62329C76.817 2.50216 76.7605 2.40525 76.5586 2.39717C76.3486 2.34872 75.9771 2.34872 75.5007 2.30834C75.5007 2.30834 75.4899 2.28142 75.4683 2.22758L75.4199 1.73496C75.4037 1.6542 75.4037 1.62997 75.5007 1.61382L76.1709 1.49268C76.7605 1.3877 77.4954 1.29886 78.6583 1.11312L80.5076 0.782011C81.6706 0.57204 83.0515 0.216705 83.9964 0.0228855C84.2467 -0.0174935 84.3679 -0.00134135 84.4729 0.0471135C84.6021 0.11172 84.664 0.273235 84.6586 0.53166C84.6748 1.4846 84.8766 2.71213 84.9736 3.26128C84.4809 3.35012 84.3921 3.30166 84.3436 3.18052C83.8026 1.71073 83.5361 0.97583 82.0421 1.24233L80.7257 1.47653C79.6032 1.67842 78.9813 1.83187 78.7794 1.93685C78.5452 2.06606 78.5452 2.28411 78.6341 2.76866C78.9006 4.24653 79.1832 5.71633 79.4659 7.18612C79.4982 7.37187 79.6435 7.50108 79.7727 7.47685L80.9922 7.25881L81.0003 7.25073Z" fill="#231F20"/>
<path d="M89.157 13.0168C89.7465 12.7583 89.9726 12.5968 90.0049 12.0154C90.0776 11.3693 90.0614 10.1095 90.0211 9.05962C89.9888 8.22781 89.9161 7.46061 89.8838 7.07297C89.8757 6.863 89.7949 6.77417 88.8904 6.58035C88.8097 6.47536 88.7693 6.52382 88.8339 6.17656C88.8339 6.11195 88.8904 6.0635 89.0035 6.01504C89.8192 5.53049 90.6429 4.98134 90.7398 4.89251C90.7963 4.84405 90.869 4.81982 90.9498 4.81982C91.0467 4.81982 91.1436 4.87635 91.1517 4.95711C91.184 5.32052 91.2244 5.72431 91.2405 6.08772C91.2405 6.19271 91.2647 6.28154 91.3455 6.27347C92.1773 5.70009 92.5003 5.52242 93.0091 5.23977C93.316 5.05402 93.7278 4.90866 94.0832 4.89251C94.6404 4.86828 95.0361 5.00557 95.4157 5.30437C95.9325 5.70816 96.2394 6.46729 96.3525 7.38793C96.409 7.8321 96.4332 8.34895 96.4736 9.26959C96.5382 10.8282 96.5948 11.7489 96.619 12.2415C96.6271 12.4353 96.6513 12.4515 96.7078 12.4515C96.8855 12.4515 97.4427 12.3545 97.7334 12.3222C97.79 12.3222 97.8304 12.403 97.8384 12.5322C97.8384 12.6614 97.798 12.9602 97.7819 13.0491C97.7496 13.1621 97.7092 13.1621 97.6285 13.1621C95.9083 13.2348 95.3269 13.3398 94.592 13.3721C94.4789 13.3721 94.382 13.3802 94.3578 13.2994L94.2447 12.8795C94.7938 12.6453 95.0038 12.4595 95.0523 11.8619C95.125 11.2159 95.1088 10.4244 95.0523 8.90618C95.0038 7.72711 94.9554 7.1295 94.487 6.61265C94.1639 6.26539 93.7279 6.11195 93.1706 6.13618C92.7103 6.15233 91.9835 6.48344 91.5716 6.78224C91.402 6.94376 91.3859 7.0649 91.3778 7.30717C91.3778 8.05822 91.4989 11.1109 91.5474 12.2657C91.5635 12.5403 91.6039 12.5887 92.6134 12.7099C92.7345 12.726 92.7507 12.7664 92.7345 12.8552L92.6376 13.3317L90.9901 13.3963C90.2149 13.4286 89.6011 13.5578 89.2135 13.574C89.1731 13.574 89.1569 13.5336 89.1489 13.4529L89.1731 13.0006L89.157 13.0168Z" fill="#231F20"/>
<path d="M103.257 4.76351C103.758 4.80388 104.339 5.10269 104.679 5.32073C104.808 5.44187 104.961 5.42572 105.002 5.4338C105.333 5.45802 106.471 5.28036 106.875 5.31266C107.029 5.32073 107.231 5.53071 107.239 5.61954C107.255 5.68415 107.271 6.201 107.271 6.28983C107.263 6.41904 107.158 6.54018 106.924 6.54018C106.714 6.52403 106.132 6.4998 105.284 6.41904C105.535 6.95205 105.712 7.71925 105.672 8.31686C105.559 9.81088 104.477 11.0626 102.942 11.6118C102.207 11.8621 101.739 12.0802 101.295 12.3063C101.174 12.3628 101.101 12.5082 101.101 12.5728C101.077 12.9604 101.521 13.1866 102.046 13.2189C102.28 13.235 103.5 13.2835 103.669 13.2915C104.485 13.3481 105.212 13.5096 105.825 14.0911C106.1 14.3495 106.31 14.8986 106.253 15.6255C106.205 16.3119 106.003 16.6592 105.43 17.3214C104.331 18.5731 103.411 18.8719 102.91 19.0496C102.45 19.1869 101.553 19.2757 100.996 19.2353C98.8882 19.0819 98.1372 17.9109 98.2018 17.0549C98.2583 16.3281 98.5652 15.7547 99.0578 15.4478C99.5666 15.1005 99.9785 14.826 100.592 14.4464C99.7927 13.978 99.3486 13.6711 99.397 13.0251C99.4132 12.8312 99.4212 12.7505 99.5424 12.589C99.7524 12.4113 100.657 11.9833 101.481 11.6118C100.891 11.3937 100.431 11.1272 99.9785 10.6185C99.4778 10.0451 99.2355 9.14866 99.292 8.31686C99.3889 7.0328 100.075 6.09601 100.996 5.48225C101.666 5.06231 102.434 4.70697 103.241 4.76351H103.257ZM101.884 18.1613C103.007 18.242 103.798 17.9997 104.356 17.5233C104.767 17.1841 105.09 16.7803 105.131 16.2715C105.155 15.9727 105.155 15.6497 104.792 15.3024C104.396 14.9309 103.839 14.7613 103.16 14.7129C102.482 14.6644 101.666 14.6887 101.174 14.7613C100.98 14.7937 100.738 14.9229 100.398 15.2217C99.8654 15.6578 99.6312 16.1988 99.607 16.5138C99.5828 16.8934 99.9219 18.0159 101.86 18.1613H101.876H101.884ZM104.307 8.96292C104.356 8.27648 104.267 7.37199 103.984 6.77438C103.75 6.2656 103.209 5.66799 102.345 5.60339C101.997 5.57916 101.674 5.70837 101.327 5.9991C100.956 6.27368 100.754 6.87937 100.713 7.47698C100.649 8.30878 100.899 9.39901 101.408 9.94817C101.997 10.6104 102.434 10.7719 102.781 10.7961C103.5 10.8527 104.21 10.4085 104.315 8.97907V8.95485L104.307 8.96292Z" fill="#231F20"/>
<path d="M109.459 7.42021C109.459 7.31523 109.355 7.22639 108.482 6.91951C108.41 6.88721 108.393 6.83875 108.474 6.74184C108.668 6.38651 108.692 6.34613 108.797 6.33805C109.589 6.18461 110.307 5.97464 111.196 5.7889C111.236 5.77275 111.252 5.78082 111.293 5.7889C111.333 5.7889 111.325 5.83735 111.301 5.96657C110.994 7.38791 110.429 10.3598 110.251 11.4581C110.081 12.5403 110.017 12.9198 110.001 13.1702C109.992 13.469 110.009 13.6063 110.202 13.6144C110.8 13.6709 110.954 13.687 111.01 13.7032C111.067 13.7113 111.163 13.8566 111.131 13.9212L110.986 14.4623C110.945 14.5834 110.905 14.5834 110.808 14.5673C110.251 14.4785 109.726 14.3492 109.112 14.2523C108.272 14.1151 107.481 14.1231 107.424 14.115C107.327 14.0989 107.295 14.0747 107.287 13.9858C107.271 13.8324 107.303 13.6224 107.327 13.4932C107.344 13.4044 107.384 13.3963 107.441 13.4044C108.143 13.4286 108.305 13.3882 108.515 12.8148C108.628 12.4837 108.975 11.022 109.153 9.68951L109.451 7.43636L109.459 7.42021ZM111.6 1.08878C112.1 1.16954 112.351 1.68639 112.27 2.19517C112.157 2.91391 111.632 3.26117 111.131 3.18849C110.671 3.11581 110.356 2.65549 110.445 2.08211C110.558 1.33913 111.163 1.02418 111.583 1.09686H111.6V1.08878Z" fill="#231F20"/>
<path d="M112.367 14.2361C113.005 14.1554 113.271 14.0665 113.465 13.5255C113.715 12.9278 114.063 11.7084 114.321 10.6989C114.531 9.89135 114.676 9.13222 114.757 8.76074C114.814 8.55076 114.757 8.45385 113.95 8.00161C113.901 7.88047 113.853 7.91277 114.014 7.59782C114.03 7.53321 114.095 7.50899 114.216 7.49283C115.137 7.25864 116.09 6.97598 116.203 6.91138C116.267 6.88715 116.348 6.87907 116.429 6.9033C116.526 6.92753 116.598 7.01636 116.582 7.09712C116.51 7.45245 116.429 7.85624 116.34 8.2035C116.316 8.30849 116.308 8.39732 116.388 8.41348C117.349 8.1066 117.705 8.01776 118.278 7.89663C118.617 7.80779 119.07 7.79164 119.401 7.8724C119.942 8.00968 120.281 8.25196 120.564 8.65575C120.943 9.19683 121.016 10.0044 120.87 10.917C120.798 11.3611 120.669 11.8618 120.442 12.7502C120.055 14.2604 119.853 15.1568 119.732 15.6413C119.683 15.8271 119.699 15.8513 119.756 15.8674C119.926 15.9078 120.483 15.9886 120.774 16.037C120.83 16.0532 120.846 16.142 120.814 16.2712C120.782 16.3924 120.652 16.675 120.612 16.7477C120.547 16.8446 120.515 16.8285 120.434 16.8123C118.763 16.3924 118.181 16.3278 117.462 16.1501C117.349 16.1178 117.253 16.0936 117.261 16.0128V15.5767C117.866 15.504 118.117 15.391 118.343 14.8337C118.593 14.2361 118.811 13.4689 119.183 11.9991C119.473 10.8604 119.603 10.2709 119.304 9.64907C119.094 9.22106 118.722 8.94648 118.173 8.80919C117.721 8.69613 116.938 8.80919 116.453 8.97071C116.251 9.07569 116.195 9.18875 116.122 9.41487C115.896 10.1336 115.145 13.0974 114.862 14.22C114.797 14.4865 114.822 14.543 115.759 14.9549C115.863 15.0033 115.872 15.0518 115.831 15.1245L115.605 15.5525L114.006 15.1487C113.255 14.9549 112.625 14.9064 112.254 14.8095C112.213 14.8014 112.205 14.753 112.229 14.6722L112.375 14.2442L112.367 14.2361Z" fill="#231F20"/>
<path d="M128.195 10.5459C128.76 10.7559 129.261 11.3535 129.439 11.8219C129.625 12.2741 129.721 12.791 129.681 13.4128C129.859 13.4289 130.238 13.4612 130.262 13.5582C130.303 13.6147 130.279 13.6793 130.23 13.752C130.109 13.9135 129.851 14.2284 129.673 14.2042C128.316 14.0669 125.789 13.7035 124.908 13.6793C124.811 13.6631 124.739 13.752 124.65 13.9943C123.971 15.997 124.634 17.1842 125.829 17.6203C126.669 17.9272 127.517 17.806 128.357 17.4345C128.478 17.3861 128.696 17.4668 128.655 17.5234C128.462 17.9998 128.373 18.121 128.219 18.2017C127.169 18.6378 126.168 18.7186 125.474 18.6944C125.207 18.6944 124.965 18.6217 124.763 18.549C123.487 18.0806 122.986 16.9338 122.865 16.5704C122.704 16.1182 122.502 15.0441 122.978 13.7439C123.632 11.9753 125.054 10.9739 126.313 10.5701C126.903 10.3763 127.662 10.3359 128.171 10.5217H128.187L128.195 10.5459ZM128.179 13.0978C128.389 12.5325 128.034 11.3535 127.274 11.0708C127.161 11.0304 126.959 11.0224 126.75 11.1031C126.071 11.3131 125.393 12.2014 125.118 13.0575C126.039 13.1221 126.935 13.2755 127.84 13.3563C127.985 13.3563 128.098 13.3401 128.179 13.114V13.0978Z" fill="#231F20"/>
<path d="M136.029 13.905C136.57 14.1634 137.014 14.8014 137.151 15.294C137.289 15.7624 137.345 16.2873 137.248 16.9011C137.426 16.9334 137.797 16.998 137.822 17.103C137.854 17.1676 137.822 17.2241 137.773 17.2968C137.636 17.4422 137.353 17.7329 137.175 17.7006C135.835 17.4422 133.356 16.8526 132.475 16.7477C132.378 16.7234 132.298 16.8042 132.185 17.0384C131.329 18.9766 131.878 20.2122 133.033 20.7613C133.84 21.1409 134.696 21.1005 135.568 20.8017C135.69 20.7694 135.9 20.8663 135.859 20.9148C135.617 21.367 135.52 21.4882 135.358 21.5528C134.276 21.892 133.267 21.8839 132.58 21.795C132.314 21.7627 132.08 21.6739 131.886 21.5851C130.658 21.0036 130.263 19.8165 130.182 19.445C130.061 18.9847 129.956 17.8944 130.553 16.6346C131.361 14.9306 132.871 14.0665 134.163 13.7758C134.769 13.6385 135.528 13.6627 136.013 13.8969H136.029V13.905ZM135.786 16.4489C136.045 15.9078 135.803 14.7045 135.068 14.3572C134.963 14.3088 134.761 14.2845 134.543 14.3411C133.848 14.4864 133.097 15.3102 132.742 16.142C133.654 16.2954 134.535 16.5215 135.423 16.6831C135.56 16.6992 135.681 16.6831 135.778 16.4731V16.4489H135.786Z" fill="#231F20"/>
<path d="M136.57 23.0066C137.038 23.0793 137.143 23.0954 137.321 22.8774C137.482 22.6755 137.773 22.1748 138.71 20.5677L139.679 18.9041C139.937 18.4599 139.97 18.3307 139.437 17.7492C139.332 17.62 139.388 17.3293 139.493 17.2324C140.398 17.1435 141.318 17.1355 142.069 17.0466C142.158 17.0466 142.279 17.0709 142.312 17.087C142.376 17.1274 142.384 17.3051 142.255 17.4504C141.956 17.9188 141.658 18.3145 141.359 18.8798C141.803 18.8879 143.354 18.581 143.668 18.5407C143.895 18.5003 144.153 18.476 144.306 18.5649C144.743 18.8152 144.961 19.5663 144.718 19.9701C144.549 20.2689 143.814 20.5596 143.58 20.6161C143.434 20.6323 143.305 20.6565 143.208 20.6C143.103 20.5435 143.079 20.4788 143.063 20.3416C143.047 20.0589 142.942 19.7036 142.675 19.5421C142.304 19.324 141.658 19.3967 141.189 19.5178C141.003 19.5582 140.834 19.7843 140.325 20.6484L138.976 22.9581C138.71 23.4184 138.589 23.6688 138.581 23.7899C138.581 23.9111 138.613 24.008 138.807 24.0968L139.736 24.5894C139.816 24.6379 139.832 24.7671 139.776 24.8317L139.34 25.3486C138.605 24.9205 137.862 24.4925 137.127 24.0645C136.691 23.8142 136.255 23.6042 136.134 23.5396C136.069 23.4992 136.069 23.4265 136.182 23.3458L136.578 23.0066H136.57Z" fill="#231F20"/>
<path d="M146.382 21.7874C146.422 21.6905 146.366 21.5693 145.703 20.9233C145.655 20.8667 145.655 20.8183 145.768 20.7617C146.091 20.5195 146.131 20.4952 146.228 20.5275C147.012 20.7214 147.755 20.8263 148.643 21.0363C148.683 21.0363 148.7 21.0525 148.732 21.0686C148.764 21.0928 148.74 21.1251 148.667 21.2301C147.795 22.3931 146.034 24.8481 145.413 25.7687C144.807 26.6732 144.589 26.9963 144.468 27.2224C144.33 27.4889 144.29 27.6181 144.468 27.7069C144.993 28.0057 145.122 28.0946 145.17 28.1269C145.219 28.1592 145.243 28.3288 145.195 28.3691L144.839 28.7972C144.75 28.8941 144.718 28.8698 144.637 28.8214C144.169 28.5064 143.741 28.1672 143.232 27.8281C142.522 27.3516 141.811 27.0286 141.762 26.9963C141.682 26.9397 141.665 26.8993 141.69 26.8186C141.738 26.6732 141.859 26.4956 141.932 26.3906C141.98 26.3179 142.021 26.326 142.069 26.3583C142.699 26.6732 142.861 26.7055 143.289 26.2775C143.531 26.0272 144.46 24.8481 145.178 23.7013L146.39 21.7874H146.382ZM150.985 16.9419C151.405 17.2245 151.413 17.7979 151.13 18.2259C150.727 18.8316 150.097 18.9285 149.685 18.6459C149.297 18.3875 149.2 17.8302 149.523 17.3537C149.943 16.7319 150.613 16.6996 150.969 16.9338H150.985V16.9419Z" fill="#231F20"/>
<path d="M146.156 29.1923C146.778 29.3781 147.052 29.4104 147.456 28.9904C147.932 28.5462 148.748 27.5852 149.394 26.7615C149.911 26.1074 150.363 25.4774 150.589 25.1625C150.719 24.9929 150.719 24.8798 150.161 24.1369C150.161 24.0076 150.113 24.0157 150.388 23.7977C150.428 23.7492 150.501 23.7492 150.614 23.7896C151.542 23.9592 152.536 24.0803 152.665 24.0803C152.738 24.0803 152.81 24.1126 152.875 24.1611C152.948 24.2176 152.988 24.3307 152.931 24.3953C152.721 24.6941 152.479 25.0252 152.253 25.3078C152.188 25.3886 152.148 25.4694 152.213 25.5178C153.214 25.6309 153.577 25.6955 154.143 25.8247C154.49 25.8812 154.902 26.0508 155.176 26.2608C155.613 26.6081 155.831 26.9715 155.919 27.4479C156.049 28.094 155.782 28.8693 155.273 29.6365C155.023 30.016 154.708 30.4118 154.135 31.1386C153.166 32.358 152.608 33.0929 152.301 33.4806C152.18 33.634 152.18 33.6582 152.229 33.6986C152.366 33.8036 152.851 34.1024 153.085 34.272C153.133 34.3043 153.109 34.4012 153.028 34.4981C152.948 34.595 152.713 34.7969 152.649 34.8534C152.552 34.91 152.52 34.8857 152.463 34.8454C151.114 33.7713 150.606 33.4806 150.024 33.0202C149.935 32.9476 149.855 32.891 149.895 32.8103L150.089 32.4146C150.662 32.5922 150.937 32.5922 151.373 32.1723C151.849 31.7281 152.35 31.1224 153.295 29.9353C154.03 29.0146 154.385 28.5301 154.369 27.8356C154.353 27.3591 154.127 26.9553 153.682 26.6081C153.319 26.3173 152.552 26.0993 152.051 26.0508C151.825 26.0589 151.728 26.1477 151.567 26.3173C151.074 26.8826 149.168 29.2731 148.449 30.1776C148.28 30.3956 148.28 30.4521 148.958 31.2113C149.039 31.3001 149.023 31.3485 148.958 31.397L148.57 31.6958L147.278 30.6702C146.673 30.1856 146.123 29.8868 145.817 29.6446C145.784 29.6203 145.8 29.5719 145.849 29.5073L146.156 29.1762V29.1923Z" fill="#231F20"/>
<path d="M162.138 31.9626C162.501 32.3099 162.76 32.9156 162.873 33.2951C162.897 33.4647 163.026 33.5616 163.05 33.5859C163.285 33.812 164.278 34.4096 164.569 34.6923C164.682 34.7972 164.698 35.088 164.657 35.1606C164.625 35.2172 164.31 35.629 164.254 35.6937C164.165 35.7906 164.003 35.8148 163.826 35.6694C163.672 35.5241 163.236 35.1364 162.638 34.5307C162.493 35.1041 162.138 35.8067 161.726 36.2347C160.684 37.3169 159.053 37.5834 157.518 37.0262C156.792 36.7435 156.299 36.6224 155.806 36.5093C155.677 36.477 155.532 36.5416 155.483 36.5901C155.217 36.8646 155.419 37.325 155.798 37.6884C155.968 37.8499 156.872 38.6656 157.002 38.7867C157.591 39.352 158.043 39.9415 158.148 40.7814C158.197 41.1529 158.003 41.7101 157.502 42.2351C157.026 42.7277 156.646 42.865 155.782 43.0184C154.135 43.2768 153.238 42.9215 152.746 42.7358C152.31 42.55 151.558 42.0412 151.155 41.6536C149.636 40.1919 149.806 38.8109 150.396 38.1891C150.904 37.6641 151.51 37.4219 152.083 37.4946C152.697 37.5511 153.19 37.6076 153.9 37.6965C153.586 36.8243 153.44 36.2993 153.884 35.839C154.022 35.7017 154.078 35.6371 154.28 35.5967C154.555 35.5967 155.524 35.839 156.388 36.0813C156.073 35.5402 155.887 35.0395 155.863 34.3611C155.847 33.602 156.226 32.7541 156.808 32.1484C157.696 31.2197 158.827 30.9451 159.933 31.0581C160.716 31.1631 161.532 31.3812 162.122 31.9465L162.138 31.9626ZM152.528 41.3952C153.335 42.1704 154.102 42.4935 154.837 42.4854C155.37 42.4854 155.871 42.3804 156.234 42.017C156.444 41.799 156.654 41.5567 156.598 41.056C156.525 40.5149 156.21 40.0304 155.726 39.562C155.241 39.0936 154.587 38.5929 154.167 38.3264C153.997 38.2214 153.723 38.1729 153.279 38.1891C152.592 38.181 152.059 38.4475 151.841 38.6736C151.575 38.9482 151.122 40.0304 152.52 41.379L152.536 41.3952H152.528ZM160.272 35.8632C160.749 35.3706 161.258 34.6115 161.419 33.9735C161.564 33.4324 161.532 32.6248 160.902 32.0192C160.652 31.7769 160.321 31.6719 159.86 31.6719C159.4 31.6477 158.859 31.9869 158.447 32.4149C157.866 33.0125 157.365 34.0139 157.397 34.7649C157.43 35.6533 157.664 36.0571 157.914 36.2993C158.431 36.8 159.263 36.9131 160.256 35.8794L160.272 35.8632Z" fill="#231F20"/>
</svg>
