<?xml version="1.0" standalone="no"?>
<!DOCTYPE svg PUBLIC "-//W3C//DTD SVG 20010904//EN"
 "http://www.w3.org/TR/2001/REC-SVG-20010904/DTD/svg10.dtd">
<svg version="1.0" xmlns="http://www.w3.org/2000/svg"
 width="311.000000pt" height="348.000000pt" viewBox="0 0 311.000000 348.000000"
 preserveAspectRatio="xMidYMid meet">

<g transform="translate(0.000000,348.000000) scale(0.100000,-0.100000)"
fill="#000000" stroke="none">
<path d="M1356 3470 c-64 -20 -106 -83 -106 -160 0 -62 18 -106 59 -145 27
-25 41 -30 99 -33 84 -4 127 17 159 78 79 149 -50 308 -211 260z"/>
<path d="M1883 3378 c-6 -7 -13 -30 -16 -50 l-6 -38 385 0 384 0 -2 -377 -3
-378 -237 -3 -238 -2 0 -255 0 -254 -49 -49 c-33 -33 -50 -59 -55 -86 -21
-112 56 -209 167 -209 108 0 177 71 177 181 0 54 -27 98 -86 138 l-54 37 0
187 c0 131 4 190 12 198 9 9 76 12 240 12 l228 0 0 473 0 474 -172 6 c-302 12
-664 9 -675 -5z"/>
<path d="M350 2900 l0 -480 215 0 c141 0 223 -4 240 -12 l25 -11 0 -249 0
-248 45 0 45 0 0 305 0 305 -235 0 -235 0 0 385 0 385 380 0 380 0 0 50 0 50
-430 0 -430 0 0 -480z"/>
<path d="M1431 2910 c-197 -72 -326 -281 -291 -468 32 -178 193 -330 368 -348
165 -18 344 94 426 266 28 59 31 74 31 160 0 87 -3 101 -33 162 -39 80 -134
173 -218 214 -78 38 -202 44 -283 14z m244 -110 c64 -31 134 -101 164 -164 15
-30 26 -74 29 -116 4 -58 1 -75 -23 -128 -75 -166 -267 -240 -423 -162 -137
69 -212 217 -177 352 26 102 89 177 189 225 68 32 167 29 241 -7z"/>
<path d="M825 1773 c-73 -25 -125 -94 -125 -165 1 -51 32 -110 84 -155 l46
-41 0 -701 0 -701 305 0 305 0 0 50 0 50 -257 2 -258 3 -3 661 -2 662 29 11
c88 37 126 144 81 230 -17 35 -72 91 -88 91 -4 0 -23 4 -42 9 -24 5 -48 3 -75
-6z"/>
<path d="M2195 1451 l-30 -6 -3 -673 -2 -672 -238 2 -237 3 -3 126 -3 125 45
32 c58 42 86 88 86 141 0 166 -245 248 -329 110 -25 -41 -35 -112 -21 -153 6
-19 35 -56 65 -84 l55 -50 0 -176 0 -176 340 0 340 0 0 730 c0 689 -1 730 -17
729 -10 -1 -31 -4 -48 -8z"/>
</g>
</svg>
