<?xml version="1.0" encoding="UTF-8"?>
<svg id="Layer_1" data-name="Layer 1" xmlns="http://www.w3.org/2000/svg" width="913.02" height="298.21" viewBox="0 0 913.02 298.21">
  <defs>
    <style>
      .cls-1 {
        fill: #3f3f3f;
      }

      .cls-2 {
        fill: #003087;
      }

      .cls-3 {
        fill: #ffd001;
      }

      .cls-4 {
        fill: #493528;
      }

      .cls-5 {
        fill: #6e6c6c;
      }

      .cls-6 {
        fill: #c8102e;
      }

      .cls-7 {
        fill: #013e8f;
      }
    </style>
  </defs>
  <g>
    <path class="cls-4" d="M585.2,221.72c0,1.61-.49,3-1.46,4.15-1.03,1.21-2.33,1.82-3.92,1.82-.59,0-1.48-.01-2.67-.04-1.19-.03-2.08-.04-2.67-.04-.44,0-1.09.02-1.96.06-.88.04-1.53.06-1.97.06-.23,0-.35-.11-.35-.32,0-1.02.05-2.55.15-4.59.1-2.04.15-3.57.15-4.59,0-1.07-.05-2.69-.15-4.84-.1-2.15-.15-3.77-.15-4.84,0-.2.12-.31.35-.31.82,0,2.06,0,3.72.01,1.66,0,2.9.01,3.74.01,1.94,0,3.5.36,4.65,1.08,1.41.88,2.11,2.25,2.11,4.1,0,.64-.19,1.3-.56,1.99s-.82,1.21-1.35,1.56c-.27.18-.4.29-.4.35s.13.16.4.31c.7.39,1.27.96,1.69,1.72.43.75.64,1.54.64,2.35ZM581.3,213.75c0-1.31-.58-2.19-1.75-2.64-.7-.27-1.86-.4-3.46-.4s-2.33.12-2.33.35c0,.31-.01.76-.04,1.38s-.04,1.07-.04,1.39c0,.21,0,.54.01.99,0,.44.01.78.01,1,0,.27,1.05.4,3.14.4,2.97,0,4.46-.82,4.46-2.46ZM581.67,221.58c0-1.13-.5-1.89-1.51-2.29-.64-.26-1.63-.39-2.99-.39-2.33,0-3.5.12-3.5.38v2.28c0,.33,0,.84.03,1.53s.03,1.2.03,1.54c0,.09.3.16.89.21.59.05,1.47.07,2.64.07,1.46,0,2.51-.19,3.15-.57.84-.5,1.26-1.42,1.26-2.75Z"/>
    <path class="cls-4" d="M600.41,215.12c0,.68-.03,1.7-.08,3.06-.06,1.37-.08,2.39-.08,3.08s.02,1.69.06,3.04c.04,1.35.06,2.36.06,3.03,0,.19-.09.31-.26.36-.07.02-1.01.03-2.82.03-.11,0-.18-.35-.2-1.04-.02-.69-.08-1.04-.16-1.04-.05,0-.12.04-.21.12-1.55,1.34-3.07,2.01-4.58,2.01-2.05,0-3.4-.74-4.06-2.22-.41-.92-.61-2.56-.61-4.94,0-2.15.17-3.97.51-5.46.08-.36.24-.54.46-.54.27,0,.67,0,1.21.01s.94.01,1.21.01c.18,0,.28.1.28.31,0,.36-.06.96-.18,1.81-.13.9-.2,1.53-.21,1.9-.03.56-.04,1.17-.04,1.83,0,1.62.12,2.71.35,3.26.4,1,1.28,1.5,2.65,1.5.58,0,1.27-.29,2.07-.86.84-.6,1.28-1.18,1.31-1.74.05-.69.07-3.14.07-7.33,0-.45.19-.68.57-.68h2.29c.27,0,.4.16.4.49Z"/>
    <path class="cls-4" d="M612.94,215.12c0,.2-.11.66-.32,1.36s-.36,1.06-.44,1.06c-.42-.19-.84-.37-1.26-.56-.42-.19-.88-.28-1.38-.28-1.14,0-2.09.42-2.85,1.26-.76.84-1.14,1.84-1.14,2.99s.38,2.11,1.14,2.93c.78.85,1.73,1.28,2.85,1.28.62,0,1.23-.15,1.83-.46.6-.31.87-.46.79-.46.12,0,.25.39.4,1.17.14.7.21,1.19.21,1.46,0,.29-.54.57-1.62.85-.91.23-1.58.35-2.01.35-1.91,0-3.52-.71-4.83-2.14-1.29-1.39-1.93-3.05-1.93-4.97s.63-3.63,1.89-5c1.3-1.41,2.91-2.11,4.85-2.11,1.3,0,2.48.33,3.56.99.18.11.28.21.28.29Z"/>
    <path class="cls-4" d="M628.18,215.15s-.01.12-.04.25c-.36,2.12-.54,3.95-.54,5.49,0,.09.12,2.17.35,6.24v.19c.02.27-.1.4-.35.4s-.64.03-1.15.09c-.51.06-.9.09-1.15.09-.18,0-.31-.32-.4-.97-.09-.65-.18-.97-.26-.97-.06,0-.31.18-.75.54-.55.44-1.06.78-1.53,1.01-.73.37-1.46.56-2.19.56-1.8,0-3.31-.72-4.54-2.15-1.17-1.37-1.75-2.97-1.75-4.79,0-2.06.59-3.75,1.76-5.1,1.23-1.4,2.85-2.1,4.86-2.1,1.42,0,2.65.49,3.71,1.47.16.19.4.45.74.81.03.03.06.04.08.04.06,0,.13-.29.24-.88s.23-.88.39-.88c.25,0,.72.07,1.4.21.76.17,1.14.31,1.14.44ZM624.64,220.96c0-1.14-.34-2.12-1.01-2.93-.71-.88-1.62-1.32-2.74-1.32s-2.04.44-2.78,1.31c-.71.83-1.07,1.81-1.07,2.94s.36,2.09,1.07,2.92c.74.86,1.67,1.29,2.78,1.29s1.99-.44,2.72-1.32c.68-.82,1.03-1.79,1.03-2.89Z"/>
    <path class="cls-4" d="M638.39,214.68c0,1.02-.07,1.94-.21,2.78-.03.21-.12.32-.28.32-.2,0-.49-.02-.88-.06s-.69-.06-.9-.06c-1.17,0-1.91.33-2.24.99-.19.4-.29,1.23-.29,2.49v1.53c0,.52.02,1.31.06,2.36.04,1.06.06,1.84.06,2.36,0,.25-.11.38-.32.38-.29,0-.72,0-1.31-.01-.58,0-1.02-.01-1.31-.01-.21,0-.32-.12-.32-.35,0-.75.01-1.88.04-3.39.02-1.51.03-2.64.03-3.4,0-2.29-.21-4.12-.64-5.51-.02-.07-.03-.13-.03-.17,0-.11.06-.19.18-.24.34-.04.82-.09,1.45-.17,1-.19,1.46-.28,1.39-.28.15,0,.25.27.29.82.05.55.13.82.25.82.02,0,.04,0,.07-.03.38-.24.76-.48,1.14-.72.42-.25.84-.44,1.28-.56.36-.11.82-.17,1.39-.17.72,0,1.08.1,1.08.29Z"/>
    <path class="cls-4" d="M653.42,215.15s-.01.12-.04.25c-.36,2.12-.54,3.95-.54,5.49,0,.09.12,2.17.35,6.24v.19c.02.27-.1.4-.35.4s-.64.03-1.15.09c-.51.06-.9.09-1.15.09-.18,0-.31-.32-.4-.97-.09-.65-.18-.97-.26-.97-.05,0-.3.18-.75.54-.55.44-1.06.78-1.53,1.01-.73.37-1.46.56-2.19.56-1.8,0-3.31-.72-4.54-2.15-1.17-1.37-1.75-2.97-1.75-4.79,0-2.06.59-3.75,1.76-5.1,1.23-1.4,2.85-2.1,4.86-2.1,1.42,0,2.65.49,3.71,1.47.16.19.4.45.74.81.03.03.06.04.08.04.06,0,.13-.29.24-.88.1-.58.23-.88.39-.88.25,0,.72.07,1.4.21.76.17,1.14.31,1.14.44ZM649.88,220.96c0-1.14-.34-2.12-1.01-2.93-.71-.88-1.62-1.32-2.74-1.32s-2.04.44-2.78,1.31c-.71.83-1.07,1.81-1.07,2.94s.36,2.09,1.07,2.92c.74.86,1.67,1.29,2.78,1.29s1.99-.44,2.72-1.32c.69-.82,1.03-1.79,1.03-2.89Z"/>
    <path class="cls-4" d="M676.79,227.21c0,.36-.11.54-.32.54-.14,0-.35-.01-.63-.04-.28-.03-.5-.04-.65-.04-.16,0-.39,0-.71.03s-.55.03-.71.03c-.19,0-.29-.22-.29-.65s.02-1.06.05-1.91c.03-.85.05-1.48.05-1.91,0-2.34,0-3.65-.03-3.92-.07-.95-.27-1.61-.58-1.97-.36-.39-1-.58-1.93-.58-.58,0-1.24.28-1.97.83-.76.58-1.15,1.16-1.18,1.72-.04.72-.06,2.04-.06,3.96,0,.45.02,1.13.06,2.04.04.91.06,1.59.06,2.04,0,.25-.08.38-.25.38s-.41-.01-.73-.04c-.32-.03-.56-.04-.73-.04-.15,0-.37,0-.65.03s-.5.03-.65.03c-.18,0-.28-.13-.28-.4,0-.44.01-1.11.04-2.01.03-.89.04-1.56.04-2.01v-3.35c0-1.05-.12-1.79-.38-2.24-.35-.63-1.02-.94-2.01-.94-.58,0-1.28.25-2.08.74-.89.54-1.33,1.08-1.33,1.62v4.06c0,.46,0,1.15.01,2.07,0,.92.01,1.6.01,2.06,0,.27-.11.4-.32.4h-2.58c-.19,0-.28-.12-.28-.38,0-.75,0-1.88.01-3.38,0-1.5.01-2.63.01-3.38,0-1.69-.18-3.38-.54-5.07-.03-.12-.04-.22-.04-.29,0-.12.04-.19.12-.21.34-.04.84-.11,1.5-.21.31-.09.76-.19,1.38-.31h.11c.11-.01.22.31.31.97.1.65.18.98.26.98l.7-.61c.55-.47,1.09-.85,1.64-1.13.79-.41,1.57-.61,2.36-.61,2.13,0,3.49.87,4.07,2.61.57-.74,1.29-1.35,2.14-1.83.91-.52,1.81-.78,2.69-.78,1.71,0,2.9.5,3.56,1.5.47.74.71,1.91.71,3.51,0,.31,0,.78-.03,1.42-.02.64-.03,1.11-.03,1.42,0,.58.01,1.46.04,2.63.03,1.17.04,2.05.04,2.63Z"/>
    <path class="cls-4" d="M693.04,215.15s-.01.12-.04.25c-.36,2.12-.54,3.95-.54,5.49,0,.09.12,2.17.35,6.24v.19c.02.27-.1.4-.35.4s-.64.03-1.15.09c-.51.06-.9.09-1.15.09-.18,0-.31-.32-.4-.97-.09-.65-.18-.97-.26-.97-.06,0-.31.18-.75.54-.55.44-1.06.78-1.53,1.01-.73.37-1.46.56-2.19.56-1.8,0-3.31-.72-4.54-2.15-1.17-1.37-1.75-2.97-1.75-4.79,0-2.06.59-3.75,1.76-5.1,1.23-1.4,2.85-2.1,4.86-2.1,1.42,0,2.65.49,3.71,1.47.16.19.4.45.74.81.03.03.06.04.08.04.06,0,.13-.29.24-.88s.23-.88.39-.88c.25,0,.72.07,1.4.21.76.17,1.14.31,1.14.44ZM689.5,220.96c0-1.14-.34-2.12-1.01-2.93-.71-.88-1.62-1.32-2.74-1.32s-2.04.44-2.78,1.31c-.71.83-1.07,1.81-1.07,2.94s.36,2.09,1.07,2.92c.74.86,1.67,1.29,2.78,1.29s1.99-.44,2.72-1.32c.68-.82,1.03-1.79,1.03-2.89Z"/>
    <path class="cls-4" d="M707.55,227.44c0,.2-.09.31-.28.31-.31,0-.76,0-1.37-.01s-1.06-.01-1.37-.01c-.17,0-.25-.13-.25-.4,0-.45.01-1.14.04-2.07.03-.93.04-1.62.04-2.08,0-.37,0-.92-.01-1.66,0-.74-.01-1.29-.01-1.66,0-1.06-.15-1.8-.46-2.24-.37-.52-1.06-.78-2.06-.78-.46,0-1.11.26-1.93.78-.87.55-1.31,1.03-1.31,1.46v8.33c0,.23-.09.35-.26.35-.3,0-.74,0-1.33-.01-.59,0-1.04-.01-1.33-.01-.19,0-.29-.11-.29-.32,0-.73.01-1.83.04-3.29.02-1.46.04-2.56.04-3.31,0-1.97-.21-3.79-.63-5.46-.03-.08-.04-.14-.04-.18,0-.09.06-.16.18-.19.06,0,.59-.09,1.59-.26,1-.16,1.52-.24,1.56-.24.06,0,.09.07.11.22.05.57.15,1.15.32,1.74.48-.38,1.12-.85,1.9-1.42.97-.59,1.91-.89,2.82-.89,1.74,0,2.93.5,3.57,1.51.47.74.71,1.94.71,3.6,0,.29,0,.73-.02,1.32-.01.59-.02,1.04-.02,1.33,0,.62,0,1.55.03,2.78s.03,2.16.03,2.78Z"/>
    <path class="cls-4" d="M722.42,214.77c0,1.11,0,2.78-.03,5.01s-.03,3.9-.03,5.01c0,2.2-.47,3.83-1.42,4.88-.99,1.11-2.57,1.67-4.75,1.67s-3.8-.4-5.1-1.19c-.2-.13-.31-.24-.31-.33,0,.1.14-.58.42-2.06.03-.16.09-.24.19-.24.05,0,.11.02.18.07,1.39.8,2.78,1.19,4.18,1.19.92,0,1.68-.2,2.28-.61.7-.46,1.04-1.13,1.04-2.01,0-.19-.02-.63-.06-1.31-1.03,1.25-2.33,1.88-3.92,1.88-1.71,0-3.12-.62-4.22-1.85-1.06-1.19-1.58-2.64-1.58-4.38s.51-3.25,1.53-4.49c1.08-1.31,2.49-1.97,4.22-1.97,1.53,0,2.74.59,3.64,1.76.15.19.25.29.32.29.07,0,.11-.08.11-.25,0-.12,0-.31-.03-.58-.02-.26-.03-.46-.03-.59,0-.56.06-.83.17-.83.09,0,.59.09,1.5.26.91.17,1.4.28,1.49.31.13.05.19.17.19.36ZM719.09,220.5c0-1.04-.28-1.92-.85-2.64-.62-.79-1.44-1.18-2.45-1.18s-1.81.4-2.43,1.19c-.56.72-.85,1.6-.85,2.63s.29,1.88.86,2.61c.62.8,1.43,1.19,2.42,1.19s1.79-.4,2.42-1.19c.58-.73.88-1.6.88-2.61Z"/>
    <path class="cls-4" d="M738.48,215.15s-.01.12-.04.25c-.36,2.12-.54,3.95-.54,5.49,0,.09.12,2.17.35,6.24v.19c.02.27-.1.4-.35.4s-.64.03-1.15.09c-.51.06-.9.09-1.15.09-.18,0-.31-.32-.4-.97-.09-.65-.18-.97-.26-.97-.06,0-.31.18-.75.54-.55.44-1.06.78-1.53,1.01-.73.37-1.46.56-2.19.56-1.8,0-3.31-.72-4.54-2.15-1.17-1.37-1.75-2.97-1.75-4.79,0-2.06.59-3.75,1.76-5.1,1.23-1.4,2.85-2.1,4.86-2.1,1.42,0,2.65.49,3.71,1.47.16.19.4.45.74.81.03.03.06.04.08.04.06,0,.13-.29.24-.88s.23-.88.39-.88c.25,0,.72.07,1.4.21.76.17,1.14.31,1.14.44ZM734.94,220.96c0-1.14-.34-2.12-1.01-2.93-.71-.88-1.62-1.32-2.74-1.32s-2.04.44-2.78,1.31c-.71.83-1.07,1.81-1.07,2.94s.36,2.09,1.07,2.92c.74.86,1.67,1.29,2.78,1.29s1.99-.44,2.72-1.32c.68-.82,1.03-1.79,1.03-2.89Z"/>
    <path class="cls-4" d="M756.66,217.69v.12c-.1.32-.21.8-.35,1.43-.03.31-.09.75-.18,1.33-.02.08-.28.14-.79.17-.35.02-.85.02-1.5,0-.83-.02-1.22-.03-1.17-.03-.57,0-1.43.05-2.56.16s-1.98.16-2.54.16c-.25,0-.38-.15-.38-.46,0-.43.27-1.31.81-2.65.05-.13.18-.19.39-.19.32,0,.8.01,1.43.03s1.11.03,1.43.03c.57,0,1.42-.06,2.56-.17,1.14-.12,1.99-.17,2.56-.17.2,0,.3.08.29.24Z"/>
    <path class="cls-4" d="M777.11,209.64c-.18.31-.44.77-.76,1.39-.1.29-.28.69-.54,1.22-.05.08-.13.12-.22.12,0,0-.44-.16-1.34-.49-.9-.33-1.65-.49-2.23-.49-1.7,0-2.56.75-2.56,2.25,0,.83.6,1.56,1.79,2.18,2.01,1.05,3.12,1.65,3.33,1.81,1.19.95,1.79,2.24,1.79,3.86,0,2.07-.82,3.71-2.46,4.9-1.47,1.07-3.28,1.61-5.43,1.61-1,0-1.54-.11-1.61-.33-.04-.35-.12-.87-.25-1.54-.07-.28-.19-.69-.35-1.25-.03-.08-.04-.16-.04-.24,0-.13.07-.19.21-.19.22,0,.56.02,1.02.07.46.05.8.07,1.04.07,2.87,0,4.31-.93,4.31-2.78,0-.91-.58-1.69-1.74-2.36-2.11-1.2-3.19-1.83-3.24-1.88-1.17-.94-1.75-2.21-1.75-3.81,0-1.72.56-3.1,1.69-4.14,1.1-1,2.53-1.5,4.28-1.5.74,0,1.59.12,2.56.36,1.05.27,1.83.59,2.36.97.05.04.09.1.14.18Z"/>
    <path class="cls-4" d="M792.73,215.15s-.01.12-.04.25c-.36,2.12-.54,3.95-.54,5.49,0,.09.12,2.17.35,6.24v.19c.02.27-.1.4-.35.4s-.64.03-1.15.09c-.51.06-.9.09-1.15.09-.18,0-.31-.32-.4-.97-.09-.65-.18-.97-.26-.97-.06,0-.31.18-.75.54-.55.44-1.06.78-1.53,1.01-.73.37-1.46.56-2.19.56-1.8,0-3.31-.72-4.54-2.15-1.17-1.37-1.75-2.97-1.75-4.79,0-2.06.59-3.75,1.76-5.1,1.23-1.4,2.85-2.1,4.86-2.1,1.42,0,2.65.49,3.71,1.47.16.19.4.45.74.81.03.03.06.04.08.04.06,0,.13-.29.24-.88.1-.58.23-.88.39-.88.25,0,.72.07,1.4.21.76.17,1.14.31,1.14.44ZM789.19,220.96c0-1.14-.34-2.12-1.01-2.93-.71-.88-1.62-1.32-2.74-1.32s-2.04.44-2.78,1.31c-.71.83-1.07,1.81-1.07,2.94s.36,2.09,1.07,2.92c.74.86,1.67,1.29,2.78,1.29s1.99-.44,2.72-1.32c.69-.82,1.03-1.79,1.03-2.89Z"/>
    <path class="cls-4" d="M807.24,227.44c0,.2-.09.31-.28.31-.31,0-.76,0-1.37-.01s-1.06-.01-1.37-.01c-.17,0-.25-.13-.25-.4,0-.45.01-1.14.04-2.07.03-.93.04-1.62.04-2.08,0-.37,0-.92-.01-1.66,0-.74-.01-1.29-.01-1.66,0-1.06-.15-1.8-.46-2.24-.37-.52-1.06-.78-2.06-.78-.46,0-1.11.26-1.93.78-.87.55-1.31,1.03-1.31,1.46v8.33c0,.23-.09.35-.26.35-.3,0-.74,0-1.33-.01s-1.04-.01-1.33-.01c-.19,0-.29-.11-.29-.32,0-.73.01-1.83.03-3.29.02-1.46.04-2.56.04-3.31,0-1.97-.21-3.79-.62-5.46-.03-.08-.04-.14-.04-.18,0-.09.06-.16.18-.19.06,0,.59-.09,1.59-.26,1-.16,1.52-.24,1.56-.24.06,0,.09.07.11.22.05.57.15,1.15.32,1.74.48-.38,1.12-.85,1.9-1.42.97-.59,1.91-.89,2.82-.89,1.74,0,2.93.5,3.57,1.51.47.74.71,1.94.71,3.6,0,.29,0,.73-.02,1.32-.01.59-.02,1.04-.02,1.33,0,.62,0,1.55.03,2.78s.03,2.16.03,2.78Z"/>
    <path class="cls-4" d="M817.61,225.16c0,.2-.02.48-.06.83-.05.44-.07.72-.08.85,0,.17-.02.27-.04.31-.04.06-.12.13-.26.19-.76.36-1.95.54-3.58.54-2.17,0-3.25-.98-3.25-2.94,0-.79.02-1.97.06-3.55.04-1.58.06-2.76.06-3.55,0-.38-.19-.58-.57-.61-.34,0-.68,0-1.01-.01-.19-.05-.29-.43-.29-1.14,0-.27.02-.55.06-.85.03-.22.18-.36.44-.4.23,0,.46,0,.68-.01.43-.02.64-.21.64-.57s-.01-.94-.04-1.69c-.02-.76-.03-1.33-.03-1.71,0-.68.13-1.01.39-1.01.08,0,.95.14,2.61.43.21.03.32.13.32.31,0,.41-.03,1.02-.09,1.83-.06.81-.09,1.43-.09,1.83,0,.27.12.4.38.4h3.33c.16,0,.24.06.24.17s-.02.29-.05.54c-.03.25-.05.43-.05.55,0,.14,0,.35.01.64,0,.29.01.5.01.64,0,.18-.13.26-.39.26-.37,0-.93-.03-1.68-.08-.75-.05-1.31-.08-1.68-.08-.07,0-.13.26-.17.79-.05.66-.07,1.58-.07,2.76v2.07c0,.8.07,1.35.22,1.67.22.48.68.72,1.38.72.29,0,.71-.06,1.26-.19s.97-.19,1.24-.19c.11,0,.17.08.17.25Z"/>
    <path class="cls-4" d="M833.1,215.15s-.01.12-.04.25c-.36,2.12-.54,3.95-.54,5.49,0,.09.12,2.17.35,6.24v.19c.02.27-.1.4-.35.4s-.64.03-1.15.09c-.51.06-.9.09-1.15.09-.18,0-.31-.32-.4-.97-.09-.65-.18-.97-.26-.97-.06,0-.31.18-.75.54-.55.44-1.06.78-1.53,1.01-.73.37-1.46.56-2.19.56-1.8,0-3.31-.72-4.54-2.15-1.17-1.37-1.75-2.97-1.75-4.79,0-2.06.59-3.75,1.76-5.1,1.23-1.4,2.85-2.1,4.86-2.1,1.42,0,2.65.49,3.71,1.47.16.19.4.45.74.81.03.03.06.04.08.04.06,0,.13-.29.24-.88.1-.58.23-.88.39-.88.25,0,.72.07,1.4.21.76.17,1.14.31,1.14.44ZM829.56,220.96c0-1.14-.34-2.12-1.01-2.93-.71-.88-1.62-1.32-2.74-1.32s-2.04.44-2.78,1.31c-.71.83-1.07,1.81-1.07,2.94s.36,2.09,1.07,2.92c.74.86,1.67,1.29,2.78,1.29s1.99-.44,2.72-1.32c.69-.82,1.03-1.79,1.03-2.89Z"/>
    <path class="cls-4" d="M847.6,227.44c0,.2-.09.31-.28.31-.31,0-.76,0-1.37-.01s-1.06-.01-1.37-.01c-.17,0-.25-.13-.25-.4,0-.45.01-1.14.04-2.07.03-.93.04-1.62.04-2.08,0-.37,0-.92-.01-1.66,0-.74-.01-1.29-.01-1.66,0-1.06-.15-1.8-.46-2.24-.37-.52-1.06-.78-2.06-.78-.46,0-1.11.26-1.93.78-.87.55-1.31,1.03-1.31,1.46v8.33c0,.23-.09.35-.26.35-.3,0-.74,0-1.33-.01s-1.04-.01-1.33-.01c-.19,0-.29-.11-.29-.32,0-.73.01-1.83.03-3.29.02-1.46.04-2.56.04-3.31,0-1.97-.21-3.79-.62-5.46-.03-.08-.04-.14-.04-.18,0-.09.06-.16.18-.19.06,0,.59-.09,1.59-.26,1-.16,1.52-.24,1.56-.24.06,0,.09.07.11.22.05.57.15,1.15.32,1.74.48-.38,1.12-.85,1.9-1.42.97-.59,1.91-.89,2.82-.89,1.74,0,2.93.5,3.57,1.51.47.74.71,1.94.71,3.6,0,.29,0,.73-.02,1.32-.01.59-.02,1.04-.02,1.33,0,.62,0,1.55.03,2.78s.03,2.16.03,2.78Z"/>
    <path class="cls-4" d="M863.59,208.34c0,1.19-.05,2.98-.16,5.37-.11,2.38-.16,4.17-.16,5.35,0,3.66.08,6.43.24,8.31v.18c.02.09-.1.15-.36.18-.18.02-.43.02-.75,0-.39-.03-.57-.04-.54-.04-.14,0-.34.01-.61.04-.27.03-.47.04-.61.04-.13,0-.21-.32-.23-.97s-.06-.97-.1-.98c-.06.03-.12.09-.21.18-1.27,1.37-2.73,2.06-4.38,2.06-1.87,0-3.41-.71-4.61-2.14-1.14-1.34-1.71-2.96-1.71-4.86s.57-3.63,1.72-4.97c1.2-1.41,2.77-2.11,4.71-2.11,1.17,0,2.18.34,3.06,1.03.4.34.79.69,1.18,1.04.07-.03.11-.09.11-.19v-4.5c0-.31-.01-.77-.04-1.39-.03-.62-.04-1.09-.04-1.4,0-.22.07-.33.22-.33.34,0,.85-.03,1.53-.09.68-.06,1.18-.09,1.51-.09.16,0,.24.1.24.29ZM860.12,220.98c0-1.11-.34-2.09-1.03-2.93-.73-.9-1.64-1.35-2.72-1.35-1.14,0-2.08.44-2.82,1.33-.7.83-1.06,1.83-1.06,3s.37,2.08,1.1,2.9c.75.87,1.68,1.31,2.78,1.31s2.03-.44,2.75-1.32c.67-.82,1-1.81,1-2.94Z"/>
    <path class="cls-4" d="M877.82,220.26c0,.69-.3,1.14-.89,1.38-.4.15-3.26.42-8.6.82.12.81.57,1.51,1.35,2.08.74.55,1.54.82,2.39.82,1.46,0,2.81-.47,4.03-1.42.15-.12.3-.24.44-.36.07,0,.12,0,.15.03.02.02.2.34.52.97s.49.96.49,1.01c0,.06-.07.16-.22.32-1.36,1.44-3.11,2.17-5.24,2.17s-3.86-.64-5.14-1.92c-1.28-1.28-1.92-2.99-1.92-5.13,0-1.91.61-3.57,1.83-4.99,1.29-1.47,2.87-2.21,4.74-2.21,1.74,0,3.2.64,4.36,1.92,1.14,1.24,1.71,2.75,1.71,4.53ZM874.52,219.41c0-.77-.3-1.45-.91-2.04-.61-.59-1.29-.89-2.05-.89-.85,0-1.61.34-2.27,1.03-.66.69-.99,1.45-.99,2.31,0,.19.17.29.5.29,1.37,0,3.01-.14,4.92-.42.54-.07.81-.17.81-.28Z"/>
    <path class="cls-4" d="M887.71,214.68c0,1.02-.07,1.94-.21,2.78-.03.21-.12.32-.28.32-.19,0-.49-.02-.88-.06-.39-.04-.69-.06-.9-.06-1.17,0-1.91.33-2.24.99-.19.4-.29,1.23-.29,2.49v1.53c0,.52.02,1.31.06,2.36.04,1.06.06,1.84.06,2.36,0,.25-.11.38-.32.38-.29,0-.72,0-1.31-.01-.58,0-1.02-.01-1.31-.01-.21,0-.32-.12-.32-.35,0-.75.01-1.88.04-3.39.02-1.51.03-2.64.03-3.4,0-2.29-.21-4.12-.64-5.51-.02-.07-.03-.13-.03-.17,0-.11.06-.19.18-.24.34-.04.82-.09,1.44-.17,1-.19,1.46-.28,1.39-.28.15,0,.25.27.29.82.05.55.13.82.25.82.02,0,.04,0,.07-.03.38-.24.76-.48,1.14-.72.42-.25.84-.44,1.28-.56.36-.11.82-.17,1.39-.17.72,0,1.08.1,1.08.29Z"/>
  </g>
  <g>
    <path class="cls-4" d="M603.65,237.53c-.18.31-.44.77-.76,1.39-.1.29-.28.69-.54,1.22-.05.08-.13.12-.22.12,0,0-.44-.16-1.34-.49-.9-.33-1.65-.49-2.23-.49-1.7,0-2.56.75-2.56,2.25,0,.83.6,1.56,1.79,2.18,2.01,1.05,3.12,1.65,3.33,1.81,1.19.95,1.79,2.24,1.79,3.86,0,2.07-.82,3.71-2.46,4.9-1.47,1.07-3.28,1.61-5.43,1.61-1,0-1.54-.11-1.61-.33-.04-.35-.12-.87-.25-1.54-.07-.28-.19-.69-.35-1.25-.03-.08-.04-.16-.04-.24,0-.13.07-.19.21-.19.22,0,.56.02,1.02.07.46.05.8.07,1.04.07,2.87,0,4.31-.93,4.31-2.78,0-.91-.58-1.69-1.74-2.36-2.11-1.2-3.19-1.83-3.24-1.88-1.17-.94-1.75-2.21-1.75-3.81,0-1.72.56-3.1,1.69-4.14,1.1-1,2.53-1.5,4.28-1.5.74,0,1.59.12,2.56.36,1.05.27,1.83.59,2.36.97.05.04.09.1.14.18Z"/>
    <path class="cls-4" d="M617.54,248.15c0,.69-.3,1.14-.89,1.38-.4.15-3.26.42-8.6.82.12.81.57,1.51,1.35,2.08.74.55,1.54.82,2.39.82,1.46,0,2.81-.47,4.03-1.42.15-.12.3-.24.44-.36.07,0,.12,0,.15.03.02.02.2.34.52.97s.49.96.49,1.01c0,.06-.07.16-.22.32-1.36,1.44-3.11,2.17-5.24,2.17s-3.86-.64-5.14-1.92c-1.28-1.28-1.92-2.99-1.92-5.13,0-1.91.61-3.57,1.83-4.99,1.29-1.47,2.87-2.21,4.74-2.21,1.74,0,3.2.64,4.36,1.92,1.14,1.24,1.71,2.75,1.71,4.53ZM614.23,247.31c0-.77-.3-1.45-.91-2.04-.61-.59-1.29-.89-2.05-.89-.85,0-1.61.34-2.27,1.03-.66.69-.99,1.45-.99,2.31,0,.19.17.29.5.29,1.37,0,3.01-.14,4.92-.42.54-.07.81-.17.81-.28Z"/>
    <path class="cls-4" d="M633.37,248.93c0,1.87-.59,3.5-1.78,4.88-1.24,1.45-2.78,2.18-4.63,2.18-1.15,0-2.15-.36-3.01-1.07-.39-.36-.78-.73-1.17-1.1-.06.03-.09.1-.11.22,0,.06-.01.57-.01,1.56v3.92c-.01.3-.12.44-.33.44-1.43,0-2.27-.02-2.53-.06-.21-.03-.32-.15-.32-.36,0-1.19,0-2.96.03-5.33.02-2.37.03-4.15.03-5.33,0-2.18-.14-4.22-.42-6.13-.02-.11-.03-.19-.03-.22,0-.1.05-.17.14-.19.35-.02.87-.07,1.54-.15.91-.17,1.42-.25,1.53-.25.16,0,.26.28.31.83.03.37.05.74.07,1.1,0,.07.03.15.08.22.06-.04.14-.1.22-.19,1.3-1.32,2.61-1.99,3.93-1.99,1.83,0,3.38.72,4.64,2.15,1.21,1.38,1.82,3.01,1.82,4.88ZM630.12,248.88c0-1.11-.35-2.09-1.04-2.93-.73-.9-1.64-1.35-2.74-1.35s-1.95.46-2.64,1.39c-.63.83-.94,1.81-.94,2.92s.32,2.11.97,2.94c.71.9,1.62,1.35,2.72,1.35s1.94-.47,2.67-1.4c.67-.87,1-1.84,1-2.92Z"/>
    <path class="cls-4" d="M643.26,253.06c0,.2-.02.48-.05.83-.05.44-.07.72-.08.85,0,.17-.02.27-.04.31-.04.06-.12.13-.26.19-.76.36-1.95.54-3.58.54-2.17,0-3.25-.98-3.25-2.94,0-.79.02-1.97.06-3.55.04-1.58.06-2.76.06-3.55,0-.38-.19-.58-.57-.61-.34,0-.68,0-1.01-.01-.19-.05-.29-.43-.29-1.14,0-.27.02-.55.06-.85.03-.22.18-.36.44-.4.23,0,.46,0,.68-.01.43-.02.64-.21.64-.57s-.01-.94-.03-1.69c-.02-.76-.04-1.33-.04-1.71,0-.68.13-1.01.39-1.01.08,0,.95.14,2.61.43.21.03.32.13.32.31,0,.41-.03,1.02-.09,1.83-.06.81-.09,1.43-.09,1.83,0,.27.12.4.38.4h3.33c.16,0,.24.06.24.17s-.02.29-.05.54c-.03.25-.05.43-.05.55,0,.14,0,.35.01.64,0,.29.01.5.01.64,0,.18-.13.26-.39.26-.37,0-.93-.03-1.68-.08-.75-.05-1.31-.08-1.68-.08-.07,0-.13.26-.17.79-.05.66-.07,1.58-.07,2.76v2.07c0,.8.07,1.35.22,1.67.22.48.68.72,1.38.72.29,0,.71-.06,1.26-.19s.97-.19,1.24-.19c.11,0,.17.08.17.25Z"/>
    <path class="cls-4" d="M648.86,239c0,1.14-.63,1.71-1.9,1.71s-1.93-.57-1.93-1.71c0-.51.2-.93.6-1.26.37-.31.81-.47,1.33-.47s.97.16,1.34.49c.38.32.56.74.56,1.25ZM648.76,242.76c0,.71-.04,1.79-.13,3.23s-.13,2.52-.13,3.24c0,.68.01,1.69.04,3.04.03,1.35.04,2.35.04,3.02,0,.19-.08.29-.25.29h-2.71c-.2,0-.29-.19-.29-.57,0-.64.02-1.6.05-2.88.03-1.28.05-2.25.05-2.9,0-.72-.05-1.81-.16-3.25-.11-1.44-.16-2.53-.16-3.25,0-.16.1-.24.29-.24.17,0,.42.02.77.07.35.05.61.07.79.07s.44-.02.79-.07c.35-.05.61-.07.78-.07.16,0,.24.09.24.26Z"/>
    <path class="cls-4" d="M663.28,248.15c0,.69-.3,1.14-.89,1.38-.4.15-3.26.42-8.6.82.12.81.57,1.51,1.35,2.08.74.55,1.54.82,2.39.82,1.46,0,2.81-.47,4.03-1.42.15-.12.3-.24.44-.36.07,0,.12,0,.15.03s.2.34.52.97.49.96.49,1.01c0,.06-.07.16-.22.32-1.36,1.44-3.11,2.17-5.24,2.17s-3.86-.64-5.14-1.92c-1.28-1.28-1.92-2.99-1.92-5.13,0-1.91.61-3.57,1.83-4.99,1.29-1.47,2.87-2.21,4.74-2.21,1.74,0,3.19.64,4.36,1.92,1.14,1.24,1.71,2.75,1.71,4.53ZM659.97,247.31c0-.77-.3-1.45-.91-2.04-.61-.59-1.29-.89-2.05-.89-.85,0-1.61.34-2.27,1.03-.66.69-.99,1.45-.99,2.31,0,.19.17.29.5.29,1.37,0,3.01-.14,4.92-.42.54-.07.81-.17.81-.28Z"/>
    <path class="cls-4" d="M686.34,255.1c0,.36-.11.54-.32.54-.14,0-.35-.01-.63-.04-.28-.03-.5-.04-.65-.04-.16,0-.39,0-.71.03s-.55.03-.71.03c-.19,0-.29-.22-.29-.65s.02-1.06.05-1.91c.03-.85.05-1.48.05-1.91,0-2.34,0-3.65-.03-3.92-.07-.95-.27-1.61-.58-1.97-.36-.39-1-.58-1.93-.58-.58,0-1.24.28-1.97.83-.76.58-1.15,1.16-1.18,1.72-.04.72-.06,2.04-.06,3.96,0,.45.02,1.13.06,2.04.04.91.06,1.59.06,2.04,0,.25-.08.38-.25.38s-.41-.01-.73-.04c-.32-.03-.56-.04-.73-.04-.15,0-.37,0-.65.03s-.5.03-.65.03c-.18,0-.28-.13-.28-.4,0-.44.01-1.11.04-2.01.03-.89.04-1.56.04-2.01v-3.35c0-1.05-.12-1.79-.38-2.24-.35-.63-1.02-.94-2.01-.94-.58,0-1.28.25-2.08.74-.89.54-1.33,1.08-1.33,1.62v4.06c0,.46,0,1.15.01,2.07,0,.92.01,1.6.01,2.06,0,.27-.11.4-.32.4h-2.58c-.19,0-.28-.12-.28-.38,0-.75,0-1.88.01-3.38,0-1.5.01-2.63.01-3.38,0-1.69-.18-3.38-.54-5.07-.03-.12-.04-.22-.04-.29,0-.12.04-.19.12-.21.34-.04.84-.11,1.5-.21.31-.09.76-.19,1.38-.31h.11c.11-.01.22.31.31.97.1.65.18.98.26.98l.7-.61c.55-.47,1.09-.85,1.64-1.13.79-.41,1.57-.61,2.36-.61,2.13,0,3.49.87,4.07,2.61.57-.74,1.29-1.35,2.14-1.83.91-.52,1.81-.78,2.69-.78,1.71,0,2.9.5,3.56,1.5.47.74.71,1.91.71,3.51,0,.31,0,.78-.03,1.42-.02.64-.03,1.11-.03,1.42,0,.58.01,1.46.04,2.63.03,1.17.04,2.05.04,2.63Z"/>
    <path class="cls-4" d="M702.87,248.9c0,1.83-.57,3.43-1.71,4.79-1.21,1.44-2.72,2.17-4.53,2.17-1.2,0-2.26-.31-3.18-.92-.37-.31-.74-.63-1.11-.93-.1.03-.17.31-.2.83-.03.53-.11.79-.23.79h-2.93c-.11,0-.17-.06-.17-.18,0,0,0-.07.03-.25.15-1.48.22-4.31.22-8.5,0-1.71-.07-4.23-.22-7.54-.09-2.11-.14-3.04-.14-2.78,0-.24.12-.38.36-.4.33,0,.83-.03,1.49-.06.13,0,.39-.04.79-.1.33-.06.6-.08.81-.08.15,0,.22.11.22.32,0,.31-.02.8-.07,1.44s-.07,1.13-.07,1.46c0,.48-.02,1.21-.06,2.17s-.06,1.69-.06,2.17c0,.35.06.53.19.53.06,0,.13-.05.21-.15,1.02-1.27,2.37-1.9,4.04-1.9,1.92,0,3.47.72,4.65,2.15,1.11,1.35,1.67,3,1.67,4.96ZM699.73,248.78c0-1.1-.35-2.07-1.04-2.92-.74-.9-1.65-1.35-2.74-1.35s-2.04.44-2.78,1.32c-.71.83-1.07,1.82-1.07,2.94s.36,2.14,1.07,2.97c.74.87,1.68,1.31,2.81,1.31s2-.45,2.74-1.35c.68-.83,1.01-1.81,1.01-2.93Z"/>
    <path class="cls-4" d="M712.8,242.57c0,1.02-.07,1.94-.21,2.78-.03.21-.12.32-.28.32-.19,0-.49-.02-.88-.06s-.69-.06-.9-.06c-1.17,0-1.91.33-2.24.99-.19.4-.29,1.23-.29,2.49v1.53c0,.52.02,1.31.06,2.36.04,1.06.06,1.84.06,2.36,0,.25-.11.38-.32.38-.29,0-.72,0-1.31-.01-.58,0-1.02-.01-1.31-.01-.21,0-.32-.12-.32-.35,0-.75.01-1.88.04-3.39s.04-2.64.04-3.4c0-2.29-.21-4.12-.64-5.51-.02-.07-.03-.13-.03-.17,0-.11.06-.19.18-.24.34-.04.82-.09,1.44-.17,1-.19,1.46-.28,1.39-.28.15,0,.25.27.29.82.05.55.13.82.25.82.02,0,.04,0,.07-.03.38-.24.76-.48,1.14-.72.42-.25.84-.44,1.28-.56.36-.11.82-.17,1.39-.17.72,0,1.08.1,1.08.29Z"/>
    <path class="cls-4" d="M726.09,248.15c0,.69-.3,1.14-.89,1.38-.4.15-3.26.42-8.6.82.12.81.57,1.51,1.35,2.08.74.55,1.54.82,2.39.82,1.46,0,2.81-.47,4.03-1.42.15-.12.3-.24.44-.36.07,0,.12,0,.15.03.02.02.2.34.52.97s.49.96.49,1.01c0,.06-.07.16-.22.32-1.36,1.44-3.11,2.17-5.24,2.17s-3.86-.64-5.14-1.92c-1.28-1.28-1.92-2.99-1.92-5.13,0-1.91.61-3.57,1.83-4.99,1.29-1.47,2.87-2.21,4.74-2.21,1.74,0,3.2.64,4.36,1.92,1.14,1.24,1.71,2.75,1.71,4.53ZM722.78,247.31c0-.77-.3-1.45-.91-2.04-.61-.59-1.29-.89-2.05-.89-.85,0-1.61.34-2.27,1.03-.66.69-.99,1.45-.99,2.31,0,.19.17.29.5.29,1.37,0,3.01-.14,4.92-.42.54-.07.81-.17.81-.28Z"/>
    <path class="cls-4" d="M746.16,249.97c0,2.01-.65,3.53-1.96,4.57-1.19.96-2.82,1.44-4.88,1.44-.66,0-1.63-.12-2.93-.36-1.61-.3-2.42-.62-2.42-.96,0-.32.07-.86.21-1.6.16-.85.31-1.28.46-1.28-.13,0,.29.25,1.24.76.96.5,1.86.76,2.7.76,1.16,0,2.1-.23,2.82-.69.85-.56,1.28-1.38,1.28-2.46,0-1.81-1.33-2.72-4-2.72-.35,0-.87.05-1.55.15s-1.16.15-1.42.15c-.2,0-.33-.06-.39-.18-.02-.06-.03-.14-.03-.25,0-.19,0-.47.01-.82,0-.4.01-.67.01-.82,0-.68,0-1.69-.03-3.05s-.03-2.37-.03-3.05c0-.13.1-.29.31-.48.21-.19.38-.29.51-.29.48,0,1.21.02,2.18.06.97.04,1.7.06,2.19.06.46,0,1.16-.02,2.1-.07.94-.05,1.65-.07,2.12-.07.21,0,.32.09.32.26,0,.19-.04.55-.13,1.07s-.13.91-.13,1.18c0,.1-.07.21-.22.32s-.27.17-.38.17c-.48,0-1.2-.03-2.16-.08-.96-.06-1.68-.08-2.16-.08-.69,0-1.29.01-1.81.04,0,.76-.05,1.93-.14,3.5.28,0,.7-.03,1.26-.1.56-.06.98-.1,1.27-.1,1.7,0,3.06.39,4.07,1.18,1.12.88,1.68,2.15,1.68,3.82Z"/>
    <path class="cls-4" d="M764.61,245.58v.12c-.1.32-.21.8-.35,1.43-.03.31-.09.75-.18,1.33-.02.08-.28.14-.79.17-.35.02-.85.02-1.5,0-.83-.02-1.22-.03-1.17-.03-.57,0-1.43.05-2.56.16s-1.98.16-2.54.16c-.25,0-.38-.15-.38-.46,0-.43.27-1.31.81-2.65.05-.13.18-.19.39-.19.32,0,.8.01,1.43.03s1.11.03,1.43.03c.57,0,1.42-.06,2.56-.17,1.14-.12,1.99-.17,2.56-.17.2,0,.3.08.29.24Z"/>
    <path class="cls-4" d="M784.62,240.24c0,.31,0,.51-.03.61,0,.06-.19.33-.57.82-1.24,1.67-2.32,3.86-3.24,6.58-.89,2.63-1.47,4.9-1.74,6.82-.03.22-.06.37-.1.44-.07.13-.19.22-.36.26-.26.07-.81.11-1.64.11s-1.39-.04-1.6-.11c-.11-.04-.17-.15-.17-.33,0-1.15.47-2.86,1.4-5.13.62-1.5,1.49-3.35,2.61-5.54.94-1.83,1.4-2.78,1.4-2.83,0-.14-.12-.21-.36-.21-.8,0-2,.06-3.6.19-1.6.13-2.8.19-3.6.19-.25,0-.38-.08-.38-.25,0-.18.03-.41.08-.69.07-.38.12-.62.12-.71.02-.17.03-.68.03-1.53,0-.19.13-.29.39-.29.62,0,1.68.06,3.17.18.96.07,3.5.11,7.63.11.35,0,.53.43.53,1.29Z"/>
    <path class="cls-4" d="M799.82,237.01s-.02.16-.06.33c-.58,2.19-1.44,5.49-2.56,9.88-.36,1.43-.9,3.63-1.61,6.6-.15.71-.4,1.76-.75,3.15-.07.19-.14.28-.24.28-1.22-.49-1.88-.76-1.96-.82-.04-.02-.06-.06-.06-.14,0-.09.03-.23.08-.4.63-2.17,1.51-5.56,2.64-10.18.48-2.09,1.24-5.22,2.28-9.39.06-.19.13-.28.22-.28.07,0,.42.14,1.05.42.63.28.95.47.95.55Z"/>
    <path class="cls-4" d="M820.82,253.06c0,.27-.01.68-.04,1.24-.03.56-.04.98-.04,1.26,0,.2-.15.31-.46.31.1,0-.33-.04-1.31-.11-.98-.07-2.43-.11-4.35-.11-.66,0-1.65.01-2.98.04s-2.33.04-2.99.04c-.21,0-.35-.09-.4-.28l-.36-2c0-.11.32-.22.97-.33.72-.13,1.18-.27,1.36-.43,1.29-1.12,2.55-2.44,3.79-3.97,1.6-1.99,2.4-3.5,2.4-4.53,0-.84-.34-1.54-1.03-2.08-.64-.51-1.38-.76-2.24-.76s-1.65.16-2.47.49c-.57.22-1.13.52-1.7.89l-.72.49c-.07,0-.12,0-.15-.01-.09-.05-.15-.21-.17-.49,0-.22-.04-.54-.08-.96-.19-.84-.29-1.19-.29-1.03,0-.07.07-.16.21-.26.74-.56,1.69-1.03,2.86-1.39,1.12-.34,2.18-.51,3.17-.51,1.7,0,3.11.4,4.21,1.19,1.25.9,1.88,2.17,1.88,3.82,0,1.8-1.63,4.32-4.89,7.56-.36.43-.93,1.03-1.71,1.82.24.02.54.03.9.03,1.82,0,3.89-.11,6.24-.33h.11c.19-.01.29.13.29.43Z"/>
    <path class="cls-4" d="M837.36,247.25c0,2.33-.69,4.34-2.07,6.03-1.47,1.81-3.35,2.71-5.64,2.71s-4.15-.9-5.62-2.71c-1.39-1.69-2.08-3.7-2.08-6.03s.69-4.32,2.08-6c1.47-1.79,3.35-2.68,5.62-2.68s4.17.89,5.64,2.67c1.38,1.68,2.07,3.68,2.07,6.01ZM834.1,247.25c0-1.43-.38-2.66-1.12-3.69-.83-1.14-1.94-1.71-3.32-1.71s-2.48.57-3.31,1.71c-.73,1.02-1.1,2.25-1.1,3.69s.37,2.66,1.11,3.71c.83,1.17,1.93,1.75,3.29,1.75s2.41-.6,3.28-1.79c.78-1.08,1.17-2.31,1.17-3.67Z"/>
    <path class="cls-4" d="M851.6,253.06c0,.27-.01.68-.04,1.24-.03.56-.04.98-.04,1.26,0,.2-.15.31-.46.31.1,0-.33-.04-1.31-.11-.98-.07-2.43-.11-4.35-.11-.66,0-1.65.01-2.98.04s-2.33.04-2.99.04c-.21,0-.35-.09-.4-.28l-.36-2c0-.11.32-.22.97-.33.72-.13,1.18-.27,1.36-.43,1.29-1.12,2.55-2.44,3.79-3.97,1.6-1.99,2.4-3.5,2.4-4.53,0-.84-.34-1.54-1.03-2.08-.64-.51-1.38-.76-2.24-.76s-1.65.16-2.47.49c-.57.22-1.13.52-1.7.89l-.72.49c-.07,0-.12,0-.15-.01-.09-.05-.15-.21-.17-.49,0-.22-.04-.54-.08-.96-.19-.84-.29-1.19-.29-1.03,0-.07.07-.16.21-.26.74-.56,1.69-1.03,2.86-1.39,1.12-.34,2.18-.51,3.17-.51,1.7,0,3.11.4,4.21,1.19,1.25.9,1.88,2.17,1.88,3.82,0,1.8-1.63,4.32-4.89,7.56-.36.43-.93,1.03-1.71,1.82.24.02.54.03.9.03,1.82,0,3.89-.11,6.24-.33h.11c.19-.01.29.13.29.43Z"/>
    <path class="cls-4" d="M864.39,249.97c0,2.01-.65,3.53-1.96,4.57-1.19.96-2.82,1.44-4.88,1.44-.66,0-1.63-.12-2.93-.36-1.61-.3-2.42-.62-2.42-.96,0-.32.07-.86.21-1.6.16-.85.31-1.28.46-1.28-.13,0,.28.25,1.24.76.96.5,1.86.76,2.7.76,1.16,0,2.1-.23,2.82-.69.85-.56,1.28-1.38,1.28-2.46,0-1.81-1.33-2.72-4-2.72-.35,0-.87.05-1.55.15s-1.16.15-1.42.15c-.2,0-.33-.06-.39-.18-.02-.06-.03-.14-.03-.25,0-.19,0-.47.01-.82,0-.4.01-.67.01-.82,0-.68,0-1.69-.03-3.05s-.03-2.37-.03-3.05c0-.13.1-.29.31-.48.21-.19.38-.29.51-.29.48,0,1.21.02,2.18.06.97.04,1.7.06,2.19.06.46,0,1.17-.02,2.1-.07s1.65-.07,2.12-.07c.21,0,.32.09.32.26,0,.19-.04.55-.13,1.07s-.13.91-.13,1.18c0,.1-.07.21-.21.32s-.27.17-.38.17c-.48,0-1.2-.03-2.16-.08-.96-.06-1.68-.08-2.16-.08-.69,0-1.29.01-1.81.04,0,.76-.05,1.93-.14,3.5.28,0,.7-.03,1.26-.1s.98-.1,1.27-.1c1.7,0,3.06.39,4.07,1.18,1.12.88,1.68,2.15,1.68,3.82Z"/>
  </g>
  <g>
    <path class="cls-3" d="M191.94,215.36c0,.56-.8.96-2.41,1.2-3.05.48-10.72.72-23.01.72-10.52,0-17.67-.24-21.45-.72-1.77-.24-2.77-.44-3.01-.6-.48-.24-1.05-1.04-1.69-2.41-1.2-3.13-2.97-7.79-5.3-13.98-3.13-8.03-8.03-19.88-14.7-35.54-1.45-3.13-4.78-4.86-10-5.18,2.41.16-1.73.24-12.41.24-1.2,0-1.81,2.05-1.81,6.14,0,5.46.5,13.61,1.51,24.46,1,10.84,1.51,19,1.51,24.46,0,1.37-.36,2.17-1.09,2.41-1.13.08-2.25.16-3.37.24-4.74.32-12.13.48-22.17.48-11.49,0-18.39-.24-20.72-.72-2.33-.48-3.49-1.73-3.49-3.73,0-8.84.42-22.17,1.26-40,.84-17.83,1.27-31.2,1.27-40.12,0-33.97-.76-60.48-2.29-79.52l-.12-1.69c-.08-1.36,1.18-2.29,3.79-2.77,2.61-.48,14.88-.96,36.81-1.45,14.86-.32,26.71-.48,35.54-.48,18.31,0,33.25,4.14,44.82,12.41,13.09,9.32,19.64,22.77,19.64,40.36,0,11.73-1.69,21.09-5.06,28.07-3.37,6.99-9.6,13.78-18.68,20.36-1.85,1.29-2.77,2.49-2.77,3.62,0-.08,4.9,10,14.7,30.24,9.8,20.24,14.7,31.41,14.7,33.5ZM141.33,107.29c0-9.8-3.21-16.59-9.64-20.36-4.98-2.89-12.77-4.34-23.37-4.34-7.63,0-11.69,1.16-12.17,3.49-.48,2.73-.72,10.6-.72,23.61,0,1.85.04,4.58.12,8.19.08,3.62.12,6.31.12,8.07,0,.4,1.28.8,3.86,1.21,4.9.72,10.04,1.08,15.42,1.08,17.59,0,26.39-6.99,26.39-20.96Z"/>
    <path class="cls-2" d="M366.76,51.26c0,9.16-.38,22.91-1.14,41.27-.76,18.36-1.14,32.15-1.14,41.39v79.4c0,2.17-1.17,3.25-3.5,3.25-1.93,0-4.84.08-8.73.24-3.9.16-6.81.24-8.73.24-2.09,0-5.22-.16-9.4-.48-4.18-.32-7.31-.48-9.4-.48-1.45,0-3.17-1.33-5.18-3.98-5.78-7.79-18.79-25.06-39.04-51.81-5.54-7.47-13.98-18.47-25.3-33.01-.32-.48-.92-.96-1.81-1.45-.64.56-.96,1.45-.96,2.65,0,9.32.26,23.3.78,41.93.52,18.64.78,32.61.78,41.93,0,2.81-1.08,4.22-3.25,4.22h-41.69c-2.33,0-3.49-1.24-3.49-3.73,0-8.68.42-21.77,1.26-39.28s1.27-30.64,1.27-39.4c0-9.24-.38-23.05-1.14-41.45-.76-18.39-1.14-32.17-1.14-41.33,0-1.77,1.57-2.65,4.7-2.65,4.66,0,10.4-.32,17.23-.96,1.61-.16,4.78-.68,9.52-1.56,4.02-.72,7.19-1.09,9.52-1.09.96,0,2.45,1.37,4.46,4.1l44.94,61.57c4.02,5.54,10.08,13.66,18.19,24.34,2.01,2.49,3.73,3.73,5.18,3.73,1.04,0,1.57-3.13,1.57-9.4,0-8.43-.46-21.13-1.39-38.07s-1.38-29.68-1.38-38.2c0-2.97.84-4.46,2.53-4.46,4.82,0,12.09-.2,21.81-.6,9.72-.4,16.99-.6,21.81-.6,1.52,0,2.29,1.25,2.29,3.73Z"/>
    <path class="cls-6" d="M532.79,215.36c0,.56-.8.96-2.41,1.2-3.05.48-10.72.72-23.01.72-10.52,0-17.67-.24-21.45-.72-1.77-.24-2.77-.44-3.01-.6-.48-.24-1.04-1.04-1.69-2.41-1.2-3.13-2.97-7.79-5.3-13.98-3.13-8.03-8.04-19.88-14.7-35.54-1.45-3.13-4.78-4.86-10-5.18,2.41.16-1.73.24-12.41.24-1.2,0-1.81,2.05-1.81,6.14,0,5.46.5,13.61,1.51,24.46,1,10.84,1.51,19,1.51,24.46,0,1.37-.36,2.17-1.08,2.41-1.13.08-2.25.16-3.37.24-4.74.32-12.13.48-22.17.48-11.49,0-18.39-.24-20.72-.72-2.33-.48-3.5-1.73-3.5-3.73,0-8.84.42-22.17,1.26-40,.84-17.83,1.27-31.2,1.27-40.12,0-33.97-.76-60.48-2.29-79.52l-.12-1.69c-.08-1.36,1.18-2.29,3.79-2.77,2.61-.48,14.88-.96,36.81-1.45,14.86-.32,26.71-.48,35.54-.48,18.32,0,33.25,4.14,44.82,12.41,13.09,9.32,19.64,22.77,19.64,40.36,0,11.73-1.69,21.09-5.06,28.07-3.37,6.99-9.6,13.78-18.67,20.36-1.85,1.29-2.77,2.49-2.77,3.62,0-.08,4.9,10,14.7,30.24s14.7,31.41,14.7,33.5ZM482.18,107.29c0-9.8-3.21-16.59-9.64-20.36-4.98-2.89-12.77-4.34-23.38-4.34-7.63,0-11.69,1.16-12.17,3.49-.48,2.73-.72,10.6-.72,23.61,0,1.85.04,4.58.12,8.19.08,3.62.12,6.31.12,8.07,0,.4,1.28.8,3.85,1.21,4.9.72,10.04,1.08,15.42,1.08,17.59,0,26.39-6.99,26.39-20.96Z"/>
    <g>
      <path class="cls-7" d="M72.21,255.3c0,.11-.11.16-.32.16-.26,0-.64-.02-1.17-.06-.52-.04-.91-.06-1.17-.06-.28,0-.7.02-1.26.06-.56.04-.98.06-1.26.06-.31,0-.54-.17-.71-.5-.43-.91-1.65-3.74-3.67-8.49-.2-.48-.69-.78-1.47-.89-.17-.01-.79-.02-1.83-.02-1.85,0-2.96.03-3.3.08-.28.04-.42.38-.42,1.03,0,.94.04,2.35.13,4.22s.13,3.28.13,4.2c0,.28-.13.42-.4.42s-.68-.03-1.22-.09-.96-.09-1.24-.09c-.23,0-.58.02-1.05.06-.47.04-.82.06-1.05.06-.34,0-.5-.15-.5-.46,0-1.49.07-3.73.21-6.72.14-2.99.21-5.23.21-6.72,0-4.25-.15-8.77-.46-13.58l-.02-.32c-.01-.27.27-.4.85-.4,1.16,0,2.88-.03,5.19-.09s4.03-.09,5.17-.09c2.98,0,5.38.71,7.18,2.14,1.99,1.57,2.98,3.8,2.98,6.69,0,1.99-.27,3.55-.81,4.7-.56,1.21-1.61,2.36-3.14,3.45-.26.17-.38.34-.38.5,0,.19.8,1.98,2.41,5.36s2.41,5.19,2.41,5.4ZM66.68,237.01c0-2.43-.7-4.06-2.1-4.88-1.03-.6-2.9-.91-5.58-.91-2.18,0-3.29.17-3.33.52-.09.73-.14,2.67-.14,5.83v3.85s.13.05.26.08c.24.03.64.06,1.19.1,1.28.07,2.65.1,4.13.1,3.71,0,5.56-1.57,5.56-4.7Z"/>
      <path class="cls-7" d="M91.98,244.63c0,.99-.43,1.66-1.29,2-.58.21-4.74.61-12.48,1.19.18,1.18.83,2.19,1.96,3.02,1.08.79,2.23,1.19,3.47,1.19,2.12,0,4.07-.69,5.85-2.06.21-.17.43-.35.64-.52.11,0,.18.01.21.04.03.03.29.49.76,1.4.47.91.71,1.39.71,1.46,0,.08-.11.24-.32.46-1.98,2.1-4.51,3.14-7.6,3.14s-5.6-.93-7.46-2.79c-1.85-1.86-2.78-4.34-2.78-7.45,0-2.77.89-5.18,2.66-7.24,1.87-2.14,4.16-3.2,6.87-3.2,2.53,0,4.64.93,6.33,2.78,1.65,1.8,2.48,3.99,2.48,6.57ZM87.18,243.4c0-1.12-.44-2.1-1.32-2.96-.88-.86-1.87-1.29-2.97-1.29-1.24,0-2.33.5-3.3,1.49-.96.99-1.44,2.11-1.44,3.35,0,.28.24.42.73.42,1.99,0,4.37-.2,7.13-.6.78-.11,1.17-.24,1.17-.4Z"/>
      <path class="cls-7" d="M113.47,237.18c0,.98-.04,2.46-.12,4.44-.08,1.98-.12,3.47-.12,4.46s.03,2.45.09,4.4.09,3.42.09,4.4c0,.27-.13.44-.38.52-.11.03-1.47.04-4.09.04-.16,0-.26-.5-.29-1.51s-.11-1.51-.23-1.51c-.07,0-.17.06-.3.18-2.25,1.95-4.46,2.92-6.65,2.92-2.97,0-4.93-1.07-5.88-3.23-.59-1.33-.89-3.72-.89-7.18,0-3.12.25-5.76.75-7.92.12-.52.34-.79.67-.79.39,0,.97,0,1.75.02.78.01,1.36.02,1.75.02.27,0,.4.15.4.44,0,.52-.09,1.4-.26,2.62-.19,1.3-.29,2.22-.3,2.76-.04.81-.06,1.69-.06,2.66,0,2.35.17,3.93.5,4.74.58,1.45,1.86,2.18,3.85,2.18.85,0,1.85-.42,3-1.25,1.22-.87,1.85-1.71,1.89-2.52.07-1.01.1-4.56.1-10.64,0-.66.28-.99.83-.99h3.33c.39,0,.58.24.58.71Z"/>
      <path class="cls-7" d="M135.34,255.05c0,.3-.13.44-.4.44-.44,0-1.11,0-1.98-.02-.88-.01-1.54-.02-1.99-.02-.24,0-.36-.19-.36-.58,0-.66.02-1.66.06-3,.04-1.34.06-2.35.06-3.02,0-.54,0-1.34-.02-2.41-.01-1.07-.02-1.87-.02-2.41,0-1.53-.22-2.61-.67-3.25-.54-.75-1.53-1.13-2.98-1.13-.67,0-1.61.38-2.8,1.13-1.26.79-1.89,1.5-1.89,2.12v12.09c0,.34-.13.5-.38.5-.43,0-1.07,0-1.93-.02s-1.5-.02-1.93-.02c-.28,0-.42-.15-.42-.46,0-1.06.02-2.65.05-4.78.03-2.12.05-3.72.05-4.8,0-2.86-.3-5.5-.91-7.92-.04-.12-.06-.21-.06-.26,0-.13.09-.23.26-.28.09-.01.86-.14,2.31-.37,1.45-.23,2.2-.35,2.27-.35.08,0,.13.11.16.32.07.83.22,1.67.46,2.52.7-.55,1.62-1.24,2.76-2.06,1.41-.86,2.77-1.29,4.09-1.29,2.53,0,4.25.73,5.18,2.2.69,1.08,1.03,2.82,1.03,5.22,0,.42,0,1.05-.03,1.91-.02.86-.03,1.5-.03,1.94,0,.9.01,2.24.04,4.03.03,1.79.04,3.13.04,4.03Z"/>
      <path class="cls-7" d="M144.4,231.35c0,1.65-.92,2.48-2.76,2.48s-2.8-.83-2.8-2.48c0-.74.29-1.35.87-1.83.54-.46,1.18-.69,1.93-.69s1.4.23,1.94.71c.54.47.82,1.08.82,1.81ZM144.26,236.81c0,1.03-.06,2.6-.19,4.69-.13,2.09-.19,3.66-.19,4.71,0,.98.02,2.45.06,4.4.04,1.96.06,3.42.06,4.38,0,.28-.12.42-.36.42h-3.93c-.28,0-.42-.27-.42-.83,0-.93.02-2.32.07-4.18.05-1.86.07-3.26.07-4.2,0-1.05-.08-2.62-.23-4.72s-.23-3.67-.23-4.72c0-.23.14-.34.42-.34.24,0,.61.03,1.12.1.5.07.88.1,1.14.1s.63-.03,1.14-.1c.5-.07.88-.1,1.14-.1.23,0,.34.13.34.38Z"/>
      <path class="cls-7" d="M166.52,245.64c0,2.81-.92,5.21-2.76,7.2-1.88,2.06-4.21,3.08-6.99,3.08s-5.13-1.02-7.01-3.06c-1.84-1.98-2.76-4.37-2.76-7.18s.92-5.2,2.76-7.18c1.89-2.02,4.23-3.02,7.01-3.02s5.09,1.01,6.97,3.02c1.85,1.96,2.78,4.34,2.78,7.14ZM162.26,245.68c0-1.64-.5-3.04-1.51-4.19-1.05-1.22-2.38-1.83-3.99-1.83s-2.95.6-4.01,1.81c-1.01,1.17-1.51,2.57-1.51,4.21s.51,3.01,1.53,4.19c1.07,1.25,2.41,1.87,3.99,1.87s2.93-.62,3.99-1.87c1.01-1.18,1.51-2.58,1.51-4.19ZM162.89,228.81c-.2.55-1.69,1.57-4.45,3.06-2.7,1.46-4.37,2.2-5.02,2.2-.24,0-.45-.34-.62-1.01-.13-.52-.2-.97-.2-1.33,0-.13.13-.26.38-.38,2.22-1.1,4.52-2.56,6.89-4.37.05-.05.15-.11.3-.18.07.03.15.09.26.18.58.48,1.32,1.01,2.24,1.57.07.04.14.13.22.26Z"/>
      <path class="cls-7" d="M187.12,255.05c0,.3-.13.44-.4.44-.44,0-1.11,0-1.99-.02-.88-.01-1.54-.02-1.99-.02-.24,0-.36-.19-.36-.58,0-.66.02-1.66.06-3,.04-1.34.06-2.35.06-3.02,0-.54,0-1.34-.02-2.41-.01-1.07-.02-1.87-.02-2.41,0-1.53-.22-2.61-.67-3.25-.54-.75-1.53-1.13-2.98-1.13-.67,0-1.61.38-2.8,1.13-1.26.79-1.89,1.5-1.89,2.12v12.09c0,.34-.13.5-.38.5-.43,0-1.08,0-1.93-.02-.86-.01-1.51-.02-1.94-.02-.28,0-.42-.15-.42-.46,0-1.06.02-2.65.05-4.78.03-2.12.05-3.72.05-4.8,0-2.86-.3-5.5-.91-7.92-.04-.12-.06-.21-.06-.26,0-.13.09-.23.26-.28.09-.01.86-.14,2.31-.37,1.44-.23,2.2-.35,2.27-.35.08,0,.13.11.16.32.07.83.22,1.67.46,2.52.7-.55,1.62-1.24,2.76-2.06,1.41-.86,2.78-1.29,4.09-1.29,2.53,0,4.25.73,5.18,2.2.69,1.08,1.03,2.82,1.03,5.22,0,.42-.01,1.05-.03,1.91-.02.86-.03,1.5-.03,1.94,0,.9.01,2.24.04,4.03s.04,3.13.04,4.03Z"/>
      <path class="cls-7" d="M226.66,227.62c0,1.55-.05,3.88-.16,6.99-.11,3.12-.16,5.46-.16,7.01,0,1.46.01,3.66.04,6.58.03,2.92.04,5.12.04,6.58,0,.44-.17.67-.5.67-.2,0-.5-.02-.91-.06-.4-.04-.71-.06-.91-.06-.21,0-.54.02-.99.06-.44.04-.77.06-.99.06-.24,0-.53-.22-.87-.67-2.9-3.91-7.3-9.74-13.2-17.5-.91-1.18-1.44-1.84-1.59-1.98-.13,0-.2.28-.2.83,0,2.07.03,5.18.1,9.32.07,4.15.1,7.25.1,9.32,0,.44-.13.67-.4.67-.23,0-.58-.02-1.05-.06-.47-.04-.82-.06-1.05-.06-.24,0-.6.02-1.08.06-.48.04-.84.06-1.08.06-.34,0-.5-.13-.5-.4,0-1.48.07-3.71.21-6.68.14-2.98.21-5.21.21-6.7,0-1.63-.06-4.56-.18-8.79-.03-1.1-.09-2.75-.2-4.96l-.02-.26c-.01-.2.15-.31.48-.32.87-.01,1.56-.04,2.06-.08.19-.01.54-.07,1.07-.16.44-.08.79-.12,1.05-.12.12,0,.33.19.62.58,3.09,4.25,7.82,10.56,14.19,18.95.28.35.54.65.79.91.09-.56.14-1.85.14-3.87,0-1.75-.06-4.37-.19-7.86-.13-3.49-.19-6.11-.19-7.84,0-.44.13-.67.4-.67.24,0,.61.02,1.1.06.49.04.86.06,1.1.06.26,0,.64-.02,1.15-.06.51-.04.89-.06,1.15-.06.28,0,.42.15.42.44Z"/>
      <path class="cls-7" d="M250.48,237.22c0,.05-.02.17-.06.36-.52,3.08-.79,5.73-.79,7.96,0,.13.17,3.15.5,9.05l.02.28c.01.39-.16.58-.53.58s-.93.04-1.67.13-1.3.13-1.66.13c-.26,0-.45-.47-.59-1.41-.13-.94-.26-1.41-.38-1.41-.08,0-.44.26-1.09.79-.79.65-1.53,1.14-2.22,1.47-1.06.54-2.12.81-3.19.81-2.61,0-4.8-1.04-6.59-3.12-1.69-1.99-2.54-4.31-2.54-6.95,0-2.98.85-5.45,2.56-7.4,1.79-2.03,4.14-3.04,7.05-3.04,2.06,0,3.85.71,5.38,2.14.23.27.59.66,1.07,1.17.04.04.08.06.12.06.08,0,.2-.42.34-1.27.15-.85.33-1.27.56-1.27.36,0,1.04.1,2.04.3,1.1.24,1.65.46,1.65.65ZM245.34,245.64c0-1.65-.49-3.07-1.47-4.25-1.03-1.28-2.36-1.91-3.97-1.91s-2.96.63-4.03,1.89c-1.03,1.21-1.55,2.63-1.55,4.27s.52,3.04,1.55,4.23c1.08,1.25,2.42,1.87,4.03,1.87s2.89-.64,3.95-1.92c.99-1.2,1.49-2.59,1.49-4.19Z"/>
      <path class="cls-7" d="M267.84,237.18c0,.3-.15.95-.46,1.98-.31,1.02-.52,1.53-.64,1.53-.61-.27-1.21-.54-1.82-.81-.61-.27-1.28-.4-2.01-.4-1.65,0-3.03.61-4.13,1.83-1.1,1.22-1.65,2.67-1.65,4.33s.55,3.06,1.65,4.25c1.13,1.24,2.51,1.85,4.13,1.85.9,0,1.79-.22,2.66-.67.87-.44,1.26-.67,1.15-.67.18,0,.37.56.59,1.69.2,1.02.3,1.73.3,2.12,0,.42-.79.83-2.36,1.23-1.32.34-2.29.5-2.92.5-2.77,0-5.11-1.03-7.01-3.1-1.87-2.02-2.8-4.42-2.8-7.22s.91-5.27,2.74-7.26c1.88-2.04,4.23-3.06,7.03-3.06,1.88,0,3.6.48,5.16,1.43.27.16.4.3.4.42Z"/>
      <path class="cls-7" d="M275.6,231.35c0,1.65-.92,2.48-2.76,2.48s-2.8-.83-2.8-2.48c0-.74.29-1.35.87-1.83.54-.46,1.18-.69,1.94-.69s1.4.23,1.94.71c.54.47.82,1.08.82,1.81ZM275.46,236.81c0,1.03-.06,2.6-.19,4.69-.13,2.09-.19,3.66-.19,4.71,0,.98.02,2.45.06,4.4.04,1.96.06,3.42.06,4.38,0,.28-.12.42-.36.42h-3.93c-.28,0-.42-.27-.42-.83,0-.93.02-2.32.07-4.18.05-1.86.07-3.26.07-4.2,0-1.05-.08-2.62-.23-4.72s-.23-3.67-.23-4.72c0-.23.14-.34.42-.34.24,0,.62.03,1.12.1.5.07.88.1,1.14.1s.63-.03,1.14-.1c.5-.07.88-.1,1.14-.1.23,0,.34.13.34.38Z"/>
      <path class="cls-7" d="M297.71,245.64c0,2.81-.92,5.21-2.76,7.2-1.88,2.06-4.21,3.08-6.99,3.08s-5.13-1.02-7.01-3.06c-1.84-1.98-2.76-4.37-2.76-7.18s.92-5.2,2.76-7.18c1.89-2.02,4.23-3.02,7.01-3.02s5.09,1.01,6.97,3.02c1.85,1.96,2.78,4.34,2.78,7.14ZM293.46,245.68c0-1.64-.5-3.04-1.51-4.19-1.05-1.22-2.38-1.83-3.99-1.83s-2.95.6-4.01,1.81c-1.01,1.17-1.51,2.57-1.51,4.21s.51,3.01,1.53,4.19c1.07,1.25,2.41,1.87,3.99,1.87s2.93-.62,3.99-1.87c1.01-1.18,1.51-2.58,1.51-4.19Z"/>
      <path class="cls-7" d="M318.31,255.05c0,.3-.13.44-.4.44-.44,0-1.11,0-1.99-.02-.88-.01-1.54-.02-1.99-.02-.24,0-.36-.19-.36-.58,0-.66.02-1.66.06-3,.04-1.34.06-2.35.06-3.02,0-.54,0-1.34-.02-2.41-.01-1.07-.02-1.87-.02-2.41,0-1.53-.22-2.61-.67-3.25-.54-.75-1.53-1.13-2.98-1.13-.67,0-1.61.38-2.8,1.13-1.26.79-1.89,1.5-1.89,2.12v12.09c0,.34-.13.5-.38.5-.43,0-1.08,0-1.93-.02-.86-.01-1.51-.02-1.94-.02-.28,0-.42-.15-.42-.46,0-1.06.02-2.65.05-4.78.03-2.12.05-3.72.05-4.8,0-2.86-.3-5.5-.91-7.92-.04-.12-.06-.21-.06-.26,0-.13.09-.23.26-.28.09-.01.86-.14,2.31-.37,1.44-.23,2.2-.35,2.27-.35.08,0,.13.11.16.32.07.83.22,1.67.46,2.52.7-.55,1.62-1.24,2.76-2.06,1.41-.86,2.78-1.29,4.09-1.29,2.53,0,4.25.73,5.18,2.2.69,1.08,1.03,2.82,1.03,5.22,0,.42-.01,1.05-.03,1.91-.02.86-.03,1.5-.03,1.94,0,.9.01,2.24.04,4.03s.04,3.13.04,4.03Z"/>
      <path class="cls-7" d="M341.73,237.22c0,.05-.02.17-.06.36-.52,3.08-.79,5.73-.79,7.96,0,.13.17,3.15.5,9.05l.02.28c.01.39-.16.58-.53.58s-.93.04-1.67.13c-.75.09-1.3.13-1.66.13-.26,0-.45-.47-.58-1.41-.13-.94-.26-1.41-.38-1.41-.08,0-.44.26-1.09.79-.79.65-1.53,1.14-2.22,1.47-1.06.54-2.12.81-3.18.81-2.61,0-4.8-1.04-6.59-3.12-1.69-1.99-2.54-4.31-2.54-6.95,0-2.98.85-5.45,2.56-7.4,1.79-2.03,4.14-3.04,7.05-3.04,2.06,0,3.85.71,5.38,2.14.23.27.58.66,1.07,1.17.04.04.08.06.12.06.08,0,.19-.42.34-1.27.15-.85.34-1.27.56-1.27.36,0,1.04.1,2.04.3,1.1.24,1.65.46,1.65.65ZM336.59,245.64c0-1.65-.49-3.07-1.47-4.25-1.03-1.28-2.36-1.91-3.97-1.91s-2.96.63-4.03,1.89c-1.03,1.21-1.55,2.63-1.55,4.27s.52,3.04,1.55,4.23c1.08,1.25,2.42,1.87,4.03,1.87s2.89-.64,3.95-1.92c.99-1.2,1.49-2.59,1.49-4.19Z"/>
      <path class="cls-7" d="M350.11,227.5l-.02.26c-.3,5-.44,9.29-.44,12.88,0,1.6.03,3.99.08,7.19s.08,5.58.08,7.17c0,.31-.11.46-.32.46h-3.85c-.24,0-.36-.15-.36-.46,0-1.59.01-3.97.04-7.17s.04-5.59.04-7.19c0-1.45-.07-3.63-.21-6.54s-.21-5.08-.21-6.52c0-.27.14-.4.42-.4.24,0,.6.02,1.09.06.48.04.85.06,1.09.06.26,0,.63-.02,1.13-.06.5-.04.87-.06,1.11-.06s.36.11.34.32Z"/>
      <path class="cls-7" d="M383.79,227.34c0,1.73-.08,4.33-.23,7.79-.15,3.46-.23,6.05-.23,7.77,0,5.31.12,9.33.34,12.05l.02.26c.01.13-.17.22-.54.26-.26.03-.62.03-1.09,0-.56-.04-.83-.06-.79-.06-.2,0-.5.02-.89.06-.39.04-.68.06-.89.06-.19,0-.3-.47-.33-1.4-.03-.93-.08-1.41-.15-1.42-.08.04-.18.13-.3.26-1.84,1.99-3.96,2.98-6.35,2.98-2.71,0-4.94-1.03-6.69-3.1-1.65-1.95-2.48-4.3-2.48-7.05s.83-5.27,2.5-7.22c1.75-2.04,4.02-3.06,6.83-3.06,1.69,0,3.17.5,4.43,1.49.58.5,1.15,1,1.71,1.51.11-.04.16-.13.16-.28v-6.53c0-.44-.02-1.11-.06-2.02s-.06-1.58-.06-2.04c0-.32.11-.48.32-.48.5,0,1.24-.04,2.22-.13.98-.09,1.71-.13,2.2-.13.23,0,.34.14.34.42ZM378.76,245.68c0-1.61-.5-3.03-1.49-4.25-1.06-1.3-2.38-1.96-3.95-1.96-1.65,0-3.02.65-4.09,1.94-1.02,1.21-1.53,2.66-1.53,4.35s.53,3.02,1.59,4.21c1.09,1.26,2.43,1.89,4.03,1.89s2.94-.64,3.99-1.91c.97-1.2,1.45-2.62,1.45-4.27Z"/>
      <path class="cls-7" d="M404.45,244.63c0,.99-.43,1.66-1.29,2-.58.21-4.74.61-12.48,1.19.17,1.18.83,2.19,1.96,3.02,1.08.79,2.23,1.19,3.47,1.19,2.12,0,4.07-.69,5.85-2.06.21-.17.43-.35.64-.52.11,0,.18.01.21.04.03.03.29.49.76,1.4.47.91.71,1.39.71,1.46,0,.08-.11.24-.32.46-1.98,2.1-4.51,3.14-7.6,3.14s-5.6-.93-7.46-2.79c-1.85-1.86-2.78-4.34-2.78-7.45,0-2.77.89-5.18,2.66-7.24,1.87-2.14,4.16-3.2,6.87-3.2,2.53,0,4.63.93,6.33,2.78,1.65,1.8,2.48,3.99,2.48,6.57ZM399.66,243.4c0-1.12-.44-2.1-1.32-2.96-.88-.86-1.87-1.29-2.97-1.29-1.24,0-2.33.5-3.29,1.49-.96.99-1.44,2.11-1.44,3.35,0,.28.24.42.73.42,1.99,0,4.37-.2,7.14-.6.78-.11,1.17-.24,1.17-.4Z"/>
      <path class="cls-7" d="M439.42,255.3c0,.11-.11.16-.32.16-.26,0-.64-.02-1.17-.06-.52-.04-.91-.06-1.17-.06-.28,0-.7.02-1.26.06-.56.04-.98.06-1.26.06-.31,0-.54-.17-.71-.5-.43-.91-1.65-3.74-3.67-8.49-.2-.48-.69-.78-1.47-.89-.17-.01-.79-.02-1.83-.02-1.85,0-2.96.03-3.3.08-.28.04-.42.38-.42,1.03,0,.94.04,2.35.13,4.22s.13,3.28.13,4.2c0,.28-.13.42-.4.42s-.68-.03-1.22-.09-.96-.09-1.24-.09c-.23,0-.58.02-1.05.06-.47.04-.82.06-1.05.06-.34,0-.5-.15-.5-.46,0-1.49.07-3.73.21-6.72.14-2.99.21-5.23.21-6.72,0-4.25-.15-8.77-.46-13.58l-.02-.32c-.01-.27.27-.4.85-.4,1.16,0,2.88-.03,5.19-.09s4.03-.09,5.17-.09c2.98,0,5.38.71,7.18,2.14,1.99,1.57,2.98,3.8,2.98,6.69,0,1.99-.27,3.55-.81,4.7-.56,1.21-1.61,2.36-3.14,3.45-.26.17-.38.34-.38.5,0,.19.8,1.98,2.41,5.36s2.41,5.19,2.41,5.4ZM433.9,237.01c0-2.43-.7-4.06-2.1-4.88-1.03-.6-2.9-.91-5.58-.91-2.18,0-3.29.17-3.33.52-.09.73-.14,2.67-.14,5.83v3.85s.13.05.26.08c.24.03.64.06,1.19.1,1.28.07,2.65.1,4.13.1,3.71,0,5.56-1.57,5.56-4.7Z"/>
      <path class="cls-7" d="M461.72,237.22c0,.05-.02.17-.06.36-.53,3.08-.79,5.73-.79,7.96,0,.13.17,3.15.5,9.05l.02.28c.01.39-.17.58-.53.58s-.93.04-1.67.13-1.3.13-1.66.13c-.26,0-.45-.47-.58-1.41-.13-.94-.26-1.41-.38-1.41-.08,0-.44.26-1.09.79-.79.65-1.53,1.14-2.22,1.47-1.06.54-2.12.81-3.18.81-2.61,0-4.8-1.04-6.59-3.12-1.69-1.99-2.54-4.31-2.54-6.95,0-2.98.85-5.45,2.56-7.4,1.79-2.03,4.14-3.04,7.05-3.04,2.06,0,3.85.71,5.38,2.14.23.27.58.66,1.07,1.17.04.04.08.06.12.06.08,0,.19-.42.34-1.27.15-.85.34-1.27.56-1.27.36,0,1.04.1,2.04.3,1.1.24,1.65.46,1.65.65ZM456.58,245.64c0-1.65-.49-3.07-1.47-4.25-1.04-1.28-2.36-1.91-3.97-1.91s-2.96.63-4.03,1.89c-1.04,1.21-1.55,2.63-1.55,4.27s.52,3.04,1.55,4.23c1.07,1.25,2.42,1.87,4.03,1.87s2.89-.64,3.95-1.92c.99-1.2,1.49-2.59,1.49-4.19Z"/>
      <path class="cls-7" d="M495.64,254.71c0,.52-.15.79-.46.79-.2,0-.51-.02-.92-.06-.41-.04-.72-.06-.94-.06-.23,0-.57.01-1.03.04-.46.03-.8.04-1.03.04-.28,0-.42-.32-.42-.95s.02-1.54.07-2.77.07-2.15.07-2.77c0-3.4-.01-5.29-.04-5.68-.11-1.38-.39-2.34-.85-2.86-.52-.56-1.46-.85-2.8-.85-.85,0-1.8.4-2.86,1.21-1.1.85-1.67,1.68-1.71,2.5-.05,1.05-.08,2.96-.08,5.74,0,.66.03,1.65.08,2.96.05,1.32.08,2.3.08,2.96,0,.36-.12.54-.36.54s-.59-.02-1.06-.06c-.46-.04-.82-.06-1.06-.06-.21,0-.53.01-.95.04-.42.03-.73.04-.95.04-.27,0-.4-.19-.4-.58,0-.65.02-1.62.06-2.91.04-1.3.06-2.27.06-2.91v-4.86c0-1.52-.18-2.6-.54-3.25-.51-.91-1.49-1.37-2.92-1.37-.85,0-1.85.36-3.02,1.07-1.29.78-1.93,1.57-1.93,2.36v5.89c0,.67,0,1.67.02,3,.01,1.33.02,2.32.02,2.98,0,.39-.15.58-.46.58h-3.75c-.27,0-.4-.18-.4-.54,0-1.09,0-2.72.02-4.91.01-2.18.02-3.82.02-4.91,0-2.46-.26-4.91-.79-7.36-.04-.17-.06-.32-.06-.42,0-.17.06-.28.18-.3.5-.05,1.22-.15,2.18-.3.44-.13,1.11-.28,1.99-.44l.16-.02c.16,0,.31.47.45,1.42s.27,1.42.37,1.42l1.01-.89c.79-.69,1.59-1.23,2.38-1.63,1.14-.59,2.28-.89,3.43-.89,3.09,0,5.06,1.26,5.91,3.79.83-1.07,1.87-1.96,3.1-2.66,1.32-.75,2.62-1.13,3.91-1.13,2.49,0,4.21.73,5.16,2.18.69,1.08,1.03,2.77,1.03,5.1,0,.44-.01,1.13-.04,2.06-.03.93-.04,1.61-.04,2.06,0,.85.02,2.12.06,3.82.04,1.7.06,2.97.06,3.82Z"/>
      <path class="cls-7" d="M519.22,237.22c0,.05-.02.17-.06.36-.52,3.08-.79,5.73-.79,7.96,0,.13.17,3.15.5,9.05l.02.28c.01.39-.17.58-.54.58s-.93.04-1.67.13c-.75.09-1.3.13-1.66.13-.26,0-.45-.47-.58-1.41-.13-.94-.26-1.41-.38-1.41-.08,0-.44.26-1.09.79-.79.65-1.53,1.14-2.22,1.47-1.06.54-2.12.81-3.18.81-2.61,0-4.8-1.04-6.59-3.12-1.69-1.99-2.54-4.31-2.54-6.95,0-2.98.85-5.45,2.56-7.4,1.79-2.03,4.14-3.04,7.05-3.04,2.05,0,3.85.71,5.38,2.14.23.27.58.66,1.07,1.17.04.04.08.06.12.06.08,0,.2-.42.34-1.27s.33-1.27.56-1.27c.36,0,1.04.1,2.04.3,1.1.24,1.65.46,1.65.65ZM514.08,245.64c0-1.65-.49-3.07-1.47-4.25-1.04-1.28-2.36-1.91-3.97-1.91s-2.96.63-4.03,1.89c-1.04,1.21-1.55,2.63-1.55,4.27s.52,3.04,1.55,4.23c1.08,1.25,2.42,1.87,4.03,1.87s2.89-.64,3.95-1.92c.99-1.2,1.49-2.59,1.49-4.19Z"/>
      <path class="cls-7" d="M531.94,249.25c0,2-.8,3.61-2.4,4.82-1.45,1.1-3.22,1.65-5.3,1.65-.81,0-1.26-.02-1.37-.06-.23-.11-.34-.44-.34-.99,0-.3-.04-.74-.11-1.33-.07-.59-.11-1.03-.11-1.31,0-.17.12-.29.36-.34.17-.04.42-.04.75,0,.42.04.62.06.61.06,2.54,0,3.81-.78,3.81-2.34,0-.74-.56-1.42-1.67-2.04-1.81-.99-2.86-1.61-3.12-1.83-1.12-.95-1.67-2.2-1.67-3.75,0-2.02.76-3.59,2.28-4.72,1.37-1.01,3.1-1.51,5.2-1.51.19,0,.33.09.41.26.09.17.25.72.5,1.63.25.91.37,1.46.37,1.65,0,.15-.13.24-.38.28-.86.12-1.73.24-2.6.34-1.04.28-1.55.85-1.55,1.69,0,.6.54,1.22,1.63,1.83,1.61.9,2.63,1.55,3.06,1.96,1.1,1.05,1.65,2.39,1.65,4.03Z"/>
    </g>
  </g>
  <g>
    <g>
      <g>
        <g>
          <path class="cls-2" d="M655.92,87.29l-1.99.23c.52,4.46,1.51,8.81,2.94,13h2.12c-1.51-4.27-2.54-8.7-3.07-13.24Z"/>
          <path class="cls-6" d="M661.01,105.51c-.75-1.63-1.42-3.3-2.02-4.99h-2.12c.67,1.98,1.45,3.92,2.32,5.82,1.75,3.81,3.89,7.45,6.38,10.85l1.61-1.18c-2.41-3.28-4.49-6.81-6.18-10.5Z"/>
          <path class="cls-3" d="M655.09,75.98l-1.96.4c.53,2.63,1.2,5.22,2,7.75h2.1c-.87-2.66-1.58-5.38-2.14-8.15Z"/>
          <path class="cls-2" d="M665.02,100.59c-3.3-5.15-5.91-10.66-7.8-16.46h-2.1c1.83,5.8,4.37,11.32,7.56,16.49h2.35s-.02-.02-.02-.03Z"/>
          <path class="cls-6" d="M665.05,100.62h-2.35c.22.35.43.7.65,1.04,3.64,5.68,8.06,10.84,13.14,15.34l1.33-1.5c-4.93-4.37-9.22-9.37-12.76-14.88Z"/>
          <path class="cls-3" d="M655.36,68.82l-1.9.63c1.68,5.06,3.75,9.97,6.19,14.68h2.25c-2.6-4.9-4.8-10.02-6.55-15.31Z"/>
          <path class="cls-6" d="M672.93,100.63h-2.57c4.96,6.23,10.65,11.85,16.95,16.76l1.23-1.58c-5.75-4.48-10.98-9.57-15.6-15.18Z"/>
          <path class="cls-2" d="M668.57,94.93c-2.45-3.46-4.68-7.07-6.66-10.8h-2.25c2.15,4.14,4.57,8.14,7.28,11.96,1.1,1.55,2.23,3.06,3.41,4.54h2.57c-1.52-1.84-2.97-3.74-4.36-5.69Z"/>
          <path class="cls-3" d="M655.43,62.7l-1.83.81c3.18,7.22,7.02,14.12,11.46,20.62h2.43c-4.7-6.73-8.74-13.9-12.06-21.43Z"/>
          <path class="cls-6" d="M681.24,100.64h-2.79c5.97,6.23,12.55,11.85,19.67,16.78l1.14-1.64c-6.48-4.49-12.5-9.56-18.02-15.14Z"/>
          <path class="cls-2" d="M672.72,91.11c-1.83-2.26-3.57-4.59-5.23-6.98h-2.43c1.93,2.82,3.96,5.57,6.11,8.23,2.31,2.86,4.74,5.62,7.28,8.27h2.79c-2.99-3.03-5.84-6.21-8.52-9.53Z"/>
          <path class="cls-2" d="M677.89,87.59c-1.03-1.14-2.05-2.29-3.05-3.46h-2.62c1.37,1.62,2.77,3.23,4.19,4.8,3.69,4.07,7.56,7.98,11.6,11.71h2.97c-4.58-4.12-8.95-8.48-13.09-13.05Z"/>
          <path class="cls-6" d="M688.01,100.64c6.43,5.93,13.27,11.4,20.48,16.36l1.13-1.65c-6.53-4.49-12.76-9.41-18.65-14.71h-2.97Z"/>
          <path class="cls-3" d="M655.18,56.38l-1.73,1c5.44,9.45,11.74,18.42,18.77,26.75h2.62c-7.39-8.6-14-17.92-19.66-27.75Z"/>
          <path class="cls-3" d="M655.65,52.74l-1.66,1.12c7.28,10.77,15.55,20.94,24.6,30.27h2.8c-9.5-9.62-18.16-20.17-25.74-31.39Z"/>
          <path class="cls-6" d="M696.48,100.65c7.36,6.08,15.12,11.7,23.21,16.79l1.07-1.69c-7.33-4.61-14.38-9.66-21.11-15.1h-3.17Z"/>
          <path class="cls-2" d="M682.25,85c-.29-.29-.57-.58-.86-.87h-2.8c.74.77,1.49,1.53,2.25,2.29,4.98,4.99,10.21,9.74,15.65,14.23h3.17c-6.08-4.91-11.89-10.13-17.4-15.65Z"/>
        </g>
        <g>
          <path class="cls-2" d="M653.19,87.53l-1.99-.23c-.53,4.56-1.57,9-3.09,13.28h2.12c1.44-4.21,2.43-8.58,2.95-13.04Z"/>
          <path class="cls-6" d="M648.12,100.57c-.59,1.67-1.26,3.32-2,4.94-1.69,3.68-3.77,7.21-6.18,10.5l1.61,1.18c2.49-3.39,4.64-7.04,6.38-10.85.87-1.89,1.64-3.82,2.31-5.78h-2.12Z"/>
          <path class="cls-2" d="M649.9,84.13c-1.89,5.8-4.5,11.31-7.8,16.46,0,0,0,.01-.01.02h2.35c3.19-5.17,5.73-10.68,7.55-16.47h-2.1Z"/>
          <path class="cls-6" d="M642.09,100.6c-3.54,5.52-7.84,10.53-12.77,14.9l1.33,1.5c5.08-4.5,9.5-9.66,13.14-15.34.23-.35.44-.71.66-1.06h-2.35Z"/>
          <path class="cls-3" d="M653.99,76.38l-1.96-.4c-.56,2.77-1.27,5.49-2.14,8.15h2.1c.8-2.53,1.47-5.12,2-7.75Z"/>
          <path class="cls-3" d="M653.66,69.45l-1.9-.63c-1.75,5.29-3.95,10.41-6.55,15.31h2.25c2.44-4.72,4.52-9.62,6.19-14.68Z"/>
          <path class="cls-2" d="M645.21,84.13c-1.98,3.73-4.21,7.34-6.66,10.8-1.38,1.94-2.82,3.83-4.33,5.66h2.57c1.17-1.47,2.3-2.97,3.39-4.51,2.71-3.82,5.14-7.82,7.28-11.96h-2.25Z"/>
          <path class="cls-6" d="M634.22,100.6c-4.63,5.62-9.86,10.72-15.63,15.21l1.23,1.58c6.31-4.91,12-10.55,16.97-16.79h-2.57Z"/>
          <path class="cls-2" d="M635.96,92.36c2.15-2.66,4.18-5.41,6.11-8.23h-2.43c-1.66,2.38-3.41,4.71-5.23,6.98-2.67,3.31-5.49,6.47-8.47,9.48h2.79c2.53-2.64,4.94-5.38,7.24-8.23Z"/>
          <path class="cls-6" d="M625.93,100.59c-5.53,5.6-11.57,10.69-18.06,15.19l1.14,1.64c7.13-4.94,13.73-10.58,19.71-16.83h-2.79Z"/>
          <path class="cls-3" d="M653.52,63.51l-1.83-.81c-3.32,7.52-7.36,14.7-12.06,21.43h2.43c4.43-6.5,8.27-13.4,11.46-20.62Z"/>
          <path class="cls-3" d="M653.68,57.38l-1.73-1c-5.66,9.83-12.27,19.15-19.66,27.75h2.62c7.03-8.33,13.33-17.31,18.77-26.75Z"/>
          <path class="cls-2" d="M630.72,88.93c1.43-1.57,2.82-3.18,4.19-4.8h-2.62c-1,1.17-2.02,2.32-3.05,3.46-4.11,4.55-8.46,8.88-13.02,12.99h2.96c4.02-3.71,7.87-7.6,11.54-11.65Z"/>
          <path class="cls-6" d="M616.21,100.58c-5.91,5.33-12.16,10.27-18.72,14.78l1.13,1.65c7.23-4.97,14.1-10.47,20.55-16.42h-2.96Z"/>
          <path class="cls-6" d="M607.57,100.57c-6.76,5.47-13.84,10.54-21.2,15.18l1.07,1.69c8.12-5.11,15.9-10.75,23.29-16.87h-3.16Z"/>
          <path class="cls-2" d="M626.29,86.41c.75-.76,1.5-1.52,2.25-2.29h-2.8c-.29.29-.57.58-.86.87-5.48,5.49-11.26,10.69-17.3,15.57h3.16c5.41-4.47,10.61-9.2,15.56-14.16Z"/>
          <path class="cls-3" d="M653.13,53.86l-1.66-1.12c-7.58,11.21-16.24,21.77-25.74,31.39h2.8c9.05-9.33,17.31-19.49,24.6-30.27Z"/>
        </g>
      </g>
      <g>
        <g>
          <path class="cls-2" d="M802.76,87.29l-1.99.23c.53,4.54,1.54,8.97,3.02,13.24h2.12c-1.56-4.33-2.62-8.85-3.16-13.47Z"/>
          <path class="cls-6" d="M807.85,105.51c-.71-1.55-1.36-3.14-1.93-4.74h-2.12c.66,1.89,1.4,3.75,2.24,5.58,1.75,3.81,3.89,7.45,6.38,10.85l1.61-1.18c-2.41-3.28-4.49-6.81-6.18-10.5Z"/>
          <path class="cls-3" d="M801.93,75.98l-1.96.4c.53,2.63,1.2,5.22,2,7.75h2.1c-.87-2.66-1.58-5.38-2.14-8.15Z"/>
          <path class="cls-2" d="M811.87,100.59c-3.3-5.15-5.91-10.66-7.8-16.46h-2.1c1.85,5.85,4.41,11.4,7.64,16.61h2.36c-.03-.05-.07-.1-.11-.16Z"/>
          <path class="cls-6" d="M811.97,100.75h-2.36c.19.31.38.62.57.92,3.64,5.68,8.06,10.84,13.14,15.34l1.33-1.5c-4.89-4.33-9.16-9.3-12.68-14.76Z"/>
          <path class="cls-3" d="M802.2,68.82l-1.9.63c1.68,5.06,3.75,9.97,6.19,14.68h2.25c-2.6-4.9-4.8-10.02-6.55-15.31Z"/>
          <path class="cls-2" d="M815.41,94.93c-2.45-3.46-4.68-7.07-6.66-10.8h-2.25c2.15,4.14,4.57,8.14,7.28,11.96,1.13,1.59,2.3,3.14,3.51,4.66h2.58c-1.55-1.88-3.04-3.82-4.46-5.82Z"/>
          <path class="cls-6" d="M819.87,100.75h-2.58c4.94,6.18,10.59,11.76,16.85,16.63l1.23-1.58c-5.71-4.45-10.9-9.49-15.5-15.06Z"/>
          <path class="cls-3" d="M802.27,62.7l-1.83.81c3.18,7.22,7.02,14.12,11.46,20.62h2.43c-4.7-6.73-8.74-13.9-12.06-21.43Z"/>
          <path class="cls-2" d="M819.56,91.11c-1.83-2.26-3.57-4.59-5.23-6.98h-2.43c1.93,2.82,3.96,5.57,6.11,8.23,2.34,2.91,4.81,5.71,7.4,8.4h2.8c-3.04-3.06-5.92-6.28-8.64-9.65Z"/>
          <path class="cls-6" d="M828.2,100.76h-2.8c5.94,6.18,12.48,11.76,19.55,16.66l1.14-1.64c-6.43-4.45-12.41-9.48-17.9-15.02Z"/>
          <path class="cls-2" d="M824.73,87.59c-1.03-1.14-2.05-2.29-3.05-3.46h-2.62c1.37,1.62,2.77,3.23,4.19,4.8,3.73,4.12,7.65,8.07,11.74,11.83h2.97c-4.63-4.16-9.05-8.56-13.23-13.18Z"/>
          <path class="cls-6" d="M834.98,100.77c6.39,5.88,13.19,11.32,20.35,16.24l1.13-1.65c-6.48-4.46-12.67-9.33-18.51-14.59h-2.97Z"/>
          <path class="cls-3" d="M802.02,56.38l-1.73,1c5.44,9.45,11.74,18.42,18.77,26.75h2.62c-7.39-8.6-14-17.92-19.66-27.75Z"/>
          <path class="cls-3" d="M802.49,52.74l-1.66,1.12c7.28,10.77,15.55,20.94,24.6,30.27h2.8c-9.5-9.62-18.16-20.17-25.74-31.39Z"/>
          <path class="cls-2" d="M829.09,85c-.29-.29-.57-.58-.86-.87h-2.8c.74.77,1.49,1.53,2.25,2.29,5.03,5.03,10.3,9.82,15.8,14.36h3.17c-6.13-4.94-12-10.21-17.55-15.77Z"/>
          <path class="cls-6" d="M867.6,115.75c-7.27-4.58-14.27-9.59-20.95-14.98h-3.17c7.32,6.04,15.03,11.61,23.06,16.67l1.07-1.69Z"/>
        </g>
        <g>
          <path class="cls-6" d="M794.89,100.77c-.58,1.61-1.22,3.19-1.93,4.74-1.69,3.68-3.77,7.21-6.18,10.5l1.61,1.18c2.49-3.39,4.64-7.04,6.38-10.85.84-1.82,1.58-3.68,2.24-5.58h-2.12Z"/>
          <path class="cls-2" d="M800.03,87.53l-1.99-.23c-.54,4.63-1.6,9.14-3.16,13.47h2.12c1.48-4.27,2.49-8.7,3.02-13.24Z"/>
          <path class="cls-6" d="M788.85,100.73c-3.53,5.47-7.8,10.44-12.69,14.78l1.33,1.5c5.08-4.5,9.5-9.66,13.14-15.34.2-.31.39-.63.58-.94h-2.36Z"/>
          <path class="cls-2" d="M798.84,84.13h-2.1c-1.89,5.8-4.5,11.31-7.8,16.46-.03.05-.06.09-.09.14h2.36c3.23-5.2,5.79-10.76,7.63-16.6Z"/>
          <path class="cls-3" d="M800.84,76.38l-1.96-.4c-.56,2.77-1.27,5.49-2.14,8.15h2.1c.8-2.53,1.47-5.12,2-7.75Z"/>
          <path class="cls-2" d="M787.02,96.09c2.71-3.82,5.14-7.82,7.28-11.96h-2.25c-1.98,3.73-4.21,7.34-6.66,10.8-1.41,1.99-2.88,3.92-4.43,5.79h2.57c1.21-1.51,2.37-3.05,3.49-4.63Z"/>
          <path class="cls-6" d="M780.96,100.72c-4.6,5.58-9.81,10.63-15.53,15.09l1.23,1.58c6.27-4.88,11.93-10.47,16.87-16.66h-2.57Z"/>
          <path class="cls-3" d="M800.5,69.45l-1.9-.63c-1.75,5.29-3.95,10.41-6.55,15.31h2.25c2.44-4.72,4.52-9.62,6.19-14.68Z"/>
          <path class="cls-3" d="M800.36,63.51l-1.83-.81c-3.32,7.52-7.36,14.7-12.06,21.43h2.43c4.43-6.5,8.27-13.4,11.46-20.62Z"/>
          <path class="cls-2" d="M782.8,92.36c2.15-2.66,4.18-5.41,6.11-8.23h-2.43c-1.66,2.38-3.41,4.71-5.23,6.98-2.7,3.35-5.57,6.56-8.59,9.61h2.79c2.57-2.67,5.02-5.46,7.36-8.35Z"/>
          <path class="cls-6" d="M772.65,100.71c-5.49,5.55-11.49,10.6-17.94,15.06l1.14,1.64c7.09-4.91,13.65-10.51,19.59-16.7h-2.79Z"/>
          <path class="cls-3" d="M800.52,57.38l-1.73-1c-5.66,9.83-12.27,19.15-19.66,27.75h2.62c7.03-8.33,13.33-17.3,18.77-26.75Z"/>
          <path class="cls-6" d="M762.92,100.7c-5.87,5.28-12.08,10.18-18.58,14.65l1.13,1.65c7.18-4.94,14.01-10.39,20.41-16.3h-2.96Z"/>
          <path class="cls-2" d="M777.56,88.93c1.43-1.57,2.82-3.18,4.19-4.8h-2.62c-1,1.17-2.02,2.32-3.05,3.46-4.15,4.59-8.55,8.97-13.15,13.11h2.96c4.07-3.75,7.97-7.67,11.67-11.77Z"/>
          <path class="cls-3" d="M799.97,53.86l-1.66-1.12c-7.58,11.21-16.24,21.77-25.74,31.39h2.8c9.05-9.33,17.31-19.49,24.6-30.27Z"/>
          <path class="cls-2" d="M773.13,86.41c.75-.76,1.5-1.52,2.25-2.29h-2.8c-.29.29-.57.58-.86.87-5.53,5.53-11.36,10.77-17.46,15.7h3.16c5.46-4.51,10.71-9.28,15.71-14.28Z"/>
          <path class="cls-6" d="M754.26,100.7c-6.71,5.42-13.75,10.46-21.05,15.05l1.07,1.69c8.06-5.08,15.8-10.68,23.15-16.74h-3.16Z"/>
        </g>
      </g>
    </g>
    <polygon class="cls-1" points="884.93 109.31 884.93 123.13 805.17 123.13 812.86 188.98 817.52 188.98 817.52 195.5 785.69 195.5 785.69 188.98 790.35 188.98 798.04 123.13 658.3 123.13 665.99 188.98 670.64 188.98 670.64 195.5 638.82 195.5 638.82 188.98 643.47 188.98 651.17 123.13 571.41 123.13 571.41 109.31 581.87 109.31 581.87 115.93 651.5 115.93 651.38 45.01 654.73 49.33 657.89 53.18 657.98 115.93 798.36 115.93 798.44 53.18 801.6 49.33 804.96 45.01 804.83 115.93 874.47 115.93 874.47 109.31 884.93 109.31"/>
    <polygon class="cls-5" points="883.73 107.98 883.73 121.8 803.97 121.8 811.66 187.65 816.32 187.65 816.32 194.17 784.49 194.17 784.49 187.65 789.15 187.65 796.84 121.8 657.1 121.8 664.79 187.65 669.44 187.65 669.44 194.17 637.62 194.17 637.62 187.65 642.27 187.65 649.97 121.8 570.21 121.8 570.21 107.98 580.67 107.98 580.67 114.6 650.3 114.6 650.18 43.68 653.53 48 656.69 51.86 656.78 114.6 797.16 114.6 797.24 51.86 800.4 48 803.76 43.68 803.63 114.6 873.27 114.6 873.27 107.98 883.73 107.98"/>
  </g>
</svg>